<?xml version="1.0" encoding="iso-8859-1"?>
<!-- Generator: Adobe Illustrator 23.0.3, SVG Export Plug-In . SVG Version: 6.00 Build 0)  -->
<svg version="1.1" id="Objects" xmlns="http://www.w3.org/2000/svg" xmlns:xlink="http://www.w3.org/1999/xlink" x="0px" y="0px"
	 viewBox="0 0 95.208 99.299" style="enable-background:new 0 0 95.208 99.299;" xml:space="preserve">
<g>
	<g id="XMLID_138_">
		<path fill="#e2efb2" id="XMLID_148_" d="M93.03,70.01c-0.606-4.81,1.713-9.152-1.688-13.364c-3.036-3.76-8.484-5.829-13.123-6.724
			c-6.955-1.342-20.012-0.497-24.308,6.357c-0.147,0.055-0.29,0.138-0.402,0.286c-3.48,4.608-8.779,7.932-10.994,13.421
			c-1.38,3.418-0.836,6.936-1.698,10.453c-0.665,2.715-2.823,5.184-2.718,8.082c0.324,8.985,18.211,12.6,24.76,9.194
			c6.433,4.442,17.704-1.456,22.831-5.547C91.808,87.284,97.787,77.596,93.03,70.01z M90.305,82.638
			c-1.473,3.03-3.843,5.551-6.488,7.632c-5.937,4.673-13.061,6.797-20.572,6.087c-0.063-0.042-0.137-0.074-0.222-0.09
			c-4.555-0.822-9.044,0.155-13.648-1.267c-2.046-0.634-7.191-2.429-7.966-4.796c-0.944-2.884,1.666-7.001,2.186-9.939
			c0.904-5.106,0.81-9.422,4.148-13.738c1.963-2.539,4.112-4.879,6.003-7.45c0.285,0.068,0.596,0.015,0.818-0.226
			c6.189-6.736,17.59-8.112,26.024-5.514c5.146,1.586,10.116,4.304,10.177,10.204c0.025,2.516-0.448,4.316,0.592,6.273
			c-0.109,0.141-0.17,0.32-0.142,0.547C91.758,74.705,92.318,78.495,90.305,82.638z"/>
		<path fill="#e2efb2" id="XMLID_147_" d="M67.743,70.417c-0.808-0.098-1.187,1.038-0.649,1.538c0.928,0.859,1.697,1.557,1.22,2.928
			c-0.435,1.252-1.76,2.276-3.12,2.373c-1.298,0.095-2.641-0.745-2.73-2.111c-0.092-1.397,1.124-2.702,1.995-3.647
			c0.558-0.605-0.29-1.432-0.912-0.893c-1.641,1.422-3.547,3.337-2.871,5.702c0.613,2.144,3.022,3.273,5.151,2.949
			c2.26-0.344,4.328-2.099,4.768-4.338C70.986,72.938,69.914,70.677,67.743,70.417z"/>
		<path fill="#e2efb2" id="XMLID_144_" d="M71.726,60.908c-0.119-0.137-0.29-0.224-0.522-0.197c-1.684,0.194-2.955,1.594-3.012,3.267
			c-0.065,1.875,1.689,3.174,3.492,3.12c1.856-0.055,3.351-1.471,3.3-3.319C74.943,62.372,73.439,59.813,71.726,60.908z
			 M71.779,64.996c-2.009,0.298-2.135-2.446-0.383-2.888c0.098-0.023,0.18-0.067,0.249-0.122c0.398,0.521,0.969,0.973,1.116,1.619
			C72.921,64.306,72.506,64.888,71.779,64.996z"/>
		<path fill="#e2efb2" id="XMLID_143_" d="M82.025,70.207c-0.62-0.492-1.436,0.27-0.888,0.871c0.808,0.889,1.527,1.868,2.112,2.913
			c0.515,0.918,0.854,2.024,1.588,2.797c0.423,0.448,1.098,0.071,1.141-0.463C86.164,74.019,83.693,71.533,82.025,70.207z"/>
		<path fill="#e2efb2" id="XMLID_142_" d="M82.163,78.618c-0.153-0.697-0.305-1.395-0.459-2.093c-0.202-0.924-1.649-0.533-1.447,0.392
			c0.153,0.698,0.305,1.395,0.459,2.094c0.136,0.622,0.251,1.096,0.788,1.486c0.189,0.137,0.495,0.03,0.602-0.155
			C82.438,79.767,82.297,79.232,82.163,78.618z"/>
		<path fill="#e2efb2" id="XMLID_141_" d="M78.981,82.255c-0.096-1.278-0.402-2.635-1.104-3.733c-0.365-0.568-1.195-0.188-1.073,0.445
			c0.241,1.246,0.555,2.421,0.546,3.704c-0.007,0.935-0.409,1.865,0.246,2.63c0.146,0.171,0.427,0.177,0.613,0.078
			C79.256,84.828,79.056,83.257,78.981,82.255z"/>
		<path fill="#e2efb2" id="XMLID_140_" d="M73.36,83.641c-0.296-0.646-1.461-0.176-1.177,0.487c0.337,0.783,0.504,1.583,0.414,2.435
			c-0.077,0.723-0.352,1.407-0.423,2.131c-0.04,0.416,0.499,0.527,0.767,0.31C74.469,87.758,74.076,85.199,73.36,83.641z"/>
		<path fill="#e2efb2" id="XMLID_139_" d="M66.968,86.574c-0.486,0.601-0.923,1.228-1.272,1.913c-0.302,0.597-0.771,1.361-0.573,2.031
			c0.114,0.389,0.592,0.495,0.886,0.232c0.467-0.422,0.539-1.196,0.796-1.756c0.285-0.621,0.642-1.201,1.046-1.751
			C68.221,86.74,67.366,86.083,66.968,86.574z"/>
	</g>
</g>
<g>
	<g id="XMLID_124_">
		<path fill="#e2efb2" id="XMLID_135_" d="M67.877,27.9c-0.552-3.889-5.44-5.947-7.788-8.637c-0.053-0.06-0.113-0.095-0.171-0.136
			c-0.096-3.122-1.055-6.528-3.34-8.711c-1.614-1.543-3.941-2.332-5.814-3.517c-2.251-1.426-4.223-3.247-6.608-4.475
			C37.091-1.214,28.035,0.484,22.78,6.3c-0.154,0.171-0.246,0.351-0.296,0.533c-5.401-0.016-11.84-0.097-14.993,4.71
			c-2.889,4.404-7.29,10.504-6.952,15.988c0.193,3.132,1.782,6.109,3.032,8.932c1.108,2.505,1.971,5.853,4.45,7.441
			c1.556,0.998,3.249,0.862,5.03,0.906c4.813,0.124,9.159,0.771,13.727,2.333c0.212,0.072,0.405,0.09,0.579,0.069
			c4.869,2.373,11.01,1.319,16.067-0.037c5.593-1.5,12.467-3.541,17.166-7.008C63.85,37.761,68.495,32.256,67.877,27.9z
			 M55.948,39.717c-4.122,2.031-8.799,3.651-13.259,4.839c-5.03,1.338-9.452,1.051-14.427,0.953
			c-0.116-0.345-0.369-0.655-0.795-0.82c-4.068-1.585-8.238-2.467-12.617-2.592c-3.368-0.096-5.19-0.343-7.261-3.368
			c-1.319-1.928-2.182-4.747-3.01-6.927c-2.377-6.257,0.549-10.471,3.578-15.769c1.871-3.272,3.625-4.885,7.405-6.065
			c2.386-0.742,4.866-1.056,7.244-1.864c0.023-0.009,0.039-0.023,0.06-0.034c0.436,0.402,1.125,0.522,1.702-0.018
			c6.043-5.655,14.049-6.249,20.914-1.625c2.599,1.752,5.723,3.229,8.19,5.079c2.885,2.163,3.338,5.525,4.867,8.464
			c0.002,0.057-0.004,0.114,0.012,0.172c0.711,2.829,3.075,3.427,4.774,5.52C67.426,30.725,60.256,37.592,55.948,39.717z"/>
		<path fill="#e2efb2" id="XMLID_132_" d="M39.589,24.919c-1.182-2.629-5.329-3.698-7.781-2.251c-0.086,0.049-0.15,0.13-0.204,0.214
			c-0.177-0.172-0.429-0.267-0.734-0.181c-2.953,0.828-4.657,4.068-3.502,6.919c1.171,2.89,4.653,4.228,7.534,3.06
			C37.783,31.515,41.077,28.225,39.589,24.919z M35.226,29.865c-1.767,1.18-4.256,1.362-5.515-0.667
			c-1.146-1.844,0.077-4.063,1.774-5.067c0.157-0.092,0.25-0.221,0.308-0.36c0.006,0.003,0.007,0.013,0.015,0.016
			c1.274,0.563,2.65,0.433,3.965,0.849C38.863,25.622,37.103,28.613,35.226,29.865z"/>
		<path fill="#e2efb2" id="XMLID_131_" d="M41.077,11.464c-1.115-0.934-2.622-0.837-3.984-1.038c-0.524-0.076-1.052,0.535-0.572,0.964
			c0.662,0.588,1.394,0.853,2.221,1.149c2.105,0.757,0.256,2.258-0.895,2.738c-1.073,0.446-2.422,0.501-3.316-0.365
			c-1.084-1.051-0.411-3.001,1.237-2.859c0.625,0.052,0.701-0.866,0.144-1.037c-1.82-0.557-3.645,0.764-3.749,2.651
			c-0.12,2.176,2.092,3.777,4.147,3.825c2.039,0.048,5.008-1.335,5.682-3.353C42.332,13.118,41.881,12.135,41.077,11.464z"/>
		<path fill="#e2efb2" id="XMLID_130_" d="M11.92,23.646c-1.598,1.556-2.883,4.648-1.736,6.749c0.22,0.403,0.846,0.291,0.969-0.124
			c0.287-0.978,0.182-1.966,0.411-2.956c0.248-1.065,0.689-2.069,1.176-3.047C12.991,23.761,12.359,23.217,11.92,23.646z"/>
		<path fill="#e2efb2" id="XMLID_129_" d="M13.874,28.188c-0.477,1.411-1.173,3.56-0.501,4.978c0.203,0.429,0.952,0.429,1.155,0
			c0.322-0.679,0.263-1.411,0.368-2.147c0.118-0.819,0.33-1.612,0.598-2.394C15.839,27.619,14.214,27.184,13.874,28.188z"/>
		<path fill="#e2efb2" id="XMLID_128_" d="M18.862,33.647c-0.048-0.887,0.229-1.67,0.743-2.389c0.479-0.67-0.636-1.529-1.165-0.882
			c-1.321,1.612-2.012,4.754-0.166,6.304c0.553,0.465,1.555,0.037,1.304-0.743C19.325,35.151,18.909,34.499,18.862,33.647z"/>
		<path fill="#e2efb2" id="XMLID_127_" d="M24.819,38.056c-0.401-0.899-0.607-1.853-0.658-2.832c-0.05-0.969-1.556-0.984-1.549,0
			c0.007,1.098,0.172,2.19,0.555,3.224c0.296,0.804,0.702,1.993,1.68,2.139c0.279,0.043,0.589-0.063,0.662-0.368
			C25.701,39.417,25.136,38.766,24.819,38.056z"/>
		<path fill="#e2efb2" id="XMLID_126_" d="M48.626,33.464c-0.241-0.538-0.48-1.077-0.719-1.617c-0.267-0.602-1.326-0.17-1.088,0.45
			c0.213,0.55,0.424,1.101,0.636,1.651c0.191,0.499,0.344,0.986,0.835,1.268c0.247,0.141,0.571,0.009,0.647-0.257
			C49.09,34.412,48.845,33.957,48.626,33.464z"/>
		<path fill="#e2efb2" id="XMLID_125_" d="M51.724,32.297c-0.438-0.707-0.861-1.528-1.562-2.016c-0.324-0.225-0.835,0.074-0.809,0.456
			c0.058,0.838,0.57,1.638,0.957,2.371c0.351,0.664,0.704,1.579,1.569,1.618c0.179,0.008,0.372-0.104,0.457-0.257
			C52.75,33.728,52.115,32.932,51.724,32.297z"/>
	</g>
</g>
</svg>
