<?xml version="1.0" encoding="iso-8859-1"?>
<!-- Generator: Adobe Illustrator 23.0.3, SVG Export Plug-In . SVG Version: 6.00 Build 0)  -->
<svg version="1.1" id="OBJECTS" xmlns="http://www.w3.org/2000/svg" xmlns:xlink="http://www.w3.org/1999/xlink" x="0px" y="0px"
	 viewBox="0 0 30.852 27.911" style="enable-background:new 0 0 30.852 27.911;" xml:space="preserve">
<path style="fill:#f9e901;" d="M30.534,15.179c-2.752-1.749-5.611-3.285-8.58-4.632c0.752-2.278,1.399-4.595,2.088-6.892
	c0.268-0.892,1.038-2.486,0.191-3.313c-0.957-0.935-2.274,0.287-3.085,0.8c-2.006,1.269-4.032,2.523-5.964,3.905
	c-2.673-1.699-5.513-3.141-8.398-4.444C6.17,0.324,5.601,0.779,5.703,1.436c0.451,2.91,0.949,6.42,2.502,9.047
	c-3.04,1.8-5.678,4.458-8.025,7.051c-0.379,0.419-0.128,1.141,0.472,1.139c3.734-0.01,7.482-0.097,11.202-0.438
	c1.213,3.285,3.348,6.382,5.149,9.349c0.324,0.533,1.042,0.372,1.244-0.163c1.173-3.102,2.172-6.259,3.004-9.469
	c3.066-0.306,6.122-0.859,9.123-1.546C30.961,16.272,30.999,15.474,30.534,15.179z M20.074,17.614
	c-0.742,2.729-1.617,5.406-2.611,8.048c-1.492-2.635-2.916-5.426-4.745-7.808c0.183-0.37,0.029-0.892-0.503-0.863
	c-3.33,0.184-6.647,0.338-9.978,0.346c2.092-2.116,4.341-4.024,6.498-6.078c0.174,0.111,0.45,0.053,0.433-0.203
	c-0.004-0.065-0.014-0.13-0.019-0.196c0.156-0.188,0.098-0.422-0.056-0.561C8.799,7.698,7.929,5.098,7.389,2.5
	c2.437,1.14,4.798,2.4,7.149,3.723c0.396,0.223,0.757,0.019,0.911-0.29c1.25-0.675,2.47-1.405,3.683-2.144
	c0.657-0.4,1.309-0.809,1.963-1.215c0.508-0.315,1.737-1.398,2.085-0.962c0.427,0.534-0.899,3.616-1.098,4.271
	c-0.481,1.581-0.992,3.156-1.42,4.753c-0.077,0.287,0.037,0.506,0.221,0.63c0.046,0.111,0.126,0.214,0.276,0.281
	c2.507,1.138,4.916,2.439,7.252,3.883c-2.533,0.51-5.072,0.989-7.606,1.494c-0.173,0.035-0.278,0.149-0.334,0.286
	C20.294,17.26,20.138,17.381,20.074,17.614z"/>
</svg>
