<?xml version="1.0" encoding="iso-8859-1"?>
<!-- Generator: Adobe Illustrator 23.0.3, SVG Export Plug-In . SVG Version: 6.00 Build 0)  -->
<svg version="1.1" id="Objects" xmlns="http://www.w3.org/2000/svg" xmlns:xlink="http://www.w3.org/1999/xlink" x="0px" y="0px"
	 viewBox="0 0 98.83 68.741" style="enable-background:new 0 0 98.83 68.741;" xml:space="preserve">
<g id="XMLID_725_">
	<path fill="#e2efb2" id="XMLID_727_" d="M87.349,25.37C79.533,19.263,69.326,15,59.722,12.477c-8.774-2.306-18.98-3.175-27.533,0.46
		c-6.915,2.939-10.728,9.728-10.173,17.048c0.566,7.504,5.969,13.78,12.566,17.19c4.316,2.23,9.228,3.24,14.076,3.403
		c4.107,0.137,10.275,0.231,13.906-2.081c2.639-1.678,3.614-4.472,2.466-7.388c-1.713-4.357-6.602-5.715-10.187-8.137
		c-0.726-0.491-1.575,0.607-0.939,1.195c3.05,2.801,15.035,10.208,4.912,13.008c-4.631,1.28-10.529,1.159-15.199,0.302
		c-9.34-1.711-19.094-8.677-19.004-18.897c0.22-24.51,36.842-13.853,49.68-7.714c8.397,4.014,17.086,9.487,20.323,18.564
		c3.176,8.905-0.569,17.293-9.01,21.423c-8.155,3.991-18.194,4.606-27.124,4.91c-10.484,0.357-20.979-0.616-31.299-2.399
		c-1.473-0.253-2.131,1.887-0.63,2.237c11.14,2.591,22.478,3.55,33.915,2.982c9.097-0.45,19.074-1.286,27.256-5.561
		C104.031,54.506,99.937,35.212,87.349,25.37z"/>
	<path fill="#e2efb2" id="XMLID_726_" d="M80.406,40.035c-2.997-7.923-11.728-12.599-19.172-15.804c-6.058-2.61-16.802-4.851-20.495,2.669
		c-3.337,6.8,5.458,12.11,10.972,13.625c0.726,0.199,1.178-0.828,0.515-1.199c-3.698-2.065-13.003-6.932-8.394-12.495
		c3.195-3.855,9.789-2.675,13.862-1.259c7.81,2.71,18.494,8.288,20.63,16.805c4.961,19.782-33.035,15.41-43.24,12.758
		C20.004,51.212-1.448,41.472,4.275,22.68C6.61,15.015,13.113,9.365,20.441,6.304c8.587-3.587,17.547-3.007,26.64-3.052
		c0.875-0.005,1.075-1.287,0.209-1.508C31.509-2.275,10.681,2.738,2.947,18.041c-3.167,6.27-3.556,14.043-0.453,20.415
		c3.793,7.794,12.945,12.419,20.648,15.709c8.286,3.539,17.269,5.528,26.289,5.994c7.907,0.408,17.63,0.196,24.801-3.573
		C80.547,53.27,82.887,46.584,80.406,40.035z"/>
</g>
</svg>
