<?xml version="1.0" encoding="iso-8859-1"?>
<!-- Generator: Adobe Illustrator 23.0.3, SVG Export Plug-In . SVG Version: 6.00 Build 0)  -->
<svg version="1.1" id="OBJECTS" xmlns="http://www.w3.org/2000/svg" xmlns:xlink="http://www.w3.org/1999/xlink" x="0px" y="0px"
	 viewBox="0 0 56.128 57.449" style="enable-background:new 0 0 56.128 57.449;" xml:space="preserve">
<g>
	<path style="fill:#b2e1fd;" d="M47.386,6.892c-3.361-2.971-7.058-4.89-10.855-5.936c-0.089-0.188-0.311-0.319-0.517-0.178
		c-0.011,0.008-0.02,0.017-0.031,0.025C18.002-3.734-2.023,11.52,0.165,32.111c1.298,12.217,11.48,23.59,23.928,25.006
		c0.078,0.091,0.19,0.158,0.337,0.174c11.726,1.292,24.849-5.442,29.303-16.695C58.165,29.4,56.666,15.095,47.386,6.892z
		 M51.037,14.23c-3.828,1.04-6.058-3.257-8.829-5.136c-0.651-0.441-1.193-0.745-1.936-1.005c-1.649-0.575-9.276-1.012-4.622-5.931
		C42.48,3.932,47.811,8.381,51.037,14.23z M32.727,1.593c0.689,0.098,1.371,0.212,2.035,0.359c-1.994,2.589-0.159,5.937,3.35,6.679
		c3.658,0.774,5.206,3.083,8.106,5.055c1.654,1.124,3.306,1.639,5.124,1.114c1.605,3.085,2.622,6.54,2.994,10.18
		c-3.485-0.116-6.709-1.139-8.75-4.191c-0.816-1.221-1.33-2.585-1.966-3.879c0.017-0.068,0.015-0.144-0.021-0.227
		c-1-2.293-2.887-3.955-5.133-5.003c-1.142-0.533-2.362-0.881-3.51-1.403c-3.489-1.586-5.589-5.582-2.235-8.677
		C32.724,1.598,32.724,1.595,32.727,1.593z M26.321,1.455c1.231-0.121,2.48-0.166,3.747-0.115c0.58,0.023,1.141,0.087,1.704,0.146
		c-2.149,1.983-2.349,5.117-0.405,7.499c1.063,1.302,2.589,1.983,4.109,2.596c2.883,1.162,4.919,2.219,6.808,4.442
		c1.314,2.631,2.013,5.573,4.382,7.532c2.108,1.743,5.038,2.645,7.727,1.962c0.029,0.343,0.034,0.691,0.052,1.037
		c-3.049,0.554-6.222,0.031-8.556-2.196c-1.842-1.757-2.61-4.259-3.734-6.462c-1.205-2.363-2.804-4.429-5.426-4.98
		c-2.258-1.107-4.602-2.106-6.691-3.508C26.917,7.315,26.236,4.977,26.321,1.455z M6.536,13.044c0.278,1.88,1.317,4.088,0.357,5.803
		c-0.836,1.494-2.708,1.886-4.304,2.142C3.468,18.111,4.824,15.442,6.536,13.044z M2.427,21.595c1.77-0.04,3.786-0.476,4.933-1.92
		c1.661-2.091,0.26-4.808,0.141-7.132c-0.011-0.219-0.136-0.358-0.292-0.432c0.406-0.523,0.83-1.031,1.272-1.523
		c1.273,4.688,7.658,4.209,10.214,7.807c0.009,0.013,0.022,0.011,0.032,0.022c0.388,2.527-0.771,5.149-3.434,5.924
		c-1.852,0.539-3.769-0.212-5.604-0.373c-2.806-0.246-5.388,0.085-8.005,1.085C1.853,23.872,2.112,22.722,2.427,21.595z
		 M1.449,27.483c0.026-0.502,0.092-0.994,0.145-1.489c3.61-1.222,6.587-1.049,10.268-0.645c1.6,0.176,3.162,0.38,4.671-0.357
		c2.75-1.344,3.846-4.538,2.871-7.338c-0.109-0.313-0.452-0.337-0.645-0.178c-2.243-3.464-8.385-3.183-9.235-7.61
		c-0.021-0.112-0.07-0.194-0.128-0.261c1.523-1.543,3.225-2.905,5.064-4.062c-1.659,3.399,2.726,7.568,5.46,9.512
		c2.124,3.035,2.835,7.024-0.073,9.923c-2.445,2.437-5.843,2.27-8.967,1.973c-3.291-0.312-6.408-0.755-9.433,0.674
		C1.45,27.577,1.447,27.531,1.449,27.483z M19.589,26.478c3.735-2.711,4.214-8.031,1.208-11.315c0.002-0.064-0.017-0.128-0.07-0.182
		c-2.47-2.493-7.061-6.413-4.275-10.117c0.132-0.176,0.127-0.35,0.054-0.497c1.076-0.556,2.201-1.022,3.349-1.434
		c-1.191,1.623-1.309,3.493-0.475,5.519c0.645,1.569,1.904,2.743,2.997,3.993c3.447,3.942,4.911,8.889,1.377,13.465
		c-4.937,6.393-17.851,3.573-21.006,11.431c-0.924-2.795-1.393-5.84-1.306-9.123C7.232,26.128,14.336,30.291,19.589,26.478z
		 M31.749,55.71c0.388-1.773,1.266-3.183,2.951-3.961c1.8-0.83,3.787-0.238,5.668-0.147c0.846,0.041,1.654,0,2.412-0.192
		C39.365,53.627,35.647,55.008,31.749,55.71z M45.034,49.799c-0.1-0.253-0.396-0.441-0.662-0.252
		c-3.14,2.226-6.773-0.238-10.091,1.213c-2.038,0.891-3.257,2.854-3.304,5.033c0,0.017,0.007,0.031,0.009,0.047
		c-1.883,0.296-3.799,0.458-5.744,0.469c-0.011-0.059-0.035-0.118-0.088-0.168c-2.022-1.94-3.154-4.046-3.94-6.699
		c-0.512-1.727-0.106-4.785,1.461-5.988c0.587-0.451,1.944-0.288,2.656-0.605c2.718-1.21,3.28-6.194,5.905-7.405
		c0.089,0.118,0.232,0.188,0.405,0.132c4.714-1.541,6.047,4.085,9.09,5.853c0.863,0.502,1.517,0.646,2.5,0.834
		c2.787,0.533,4.466,0.829,6.07,3.114C48.113,46.984,46.691,48.461,45.034,49.799z M50.095,44.228
		c-2.508-3.81-7.385-2.509-10.511-5.784c-2.001-2.097-4.061-4.784-6.944-4.117c-0.039-0.022-0.08-0.043-0.133-0.053
		c-2.217-0.411-3.34,0.528-4.471,2.408c-1.502,2.496-1.676,4.309-4.612,5.381c-1.111,0.405-2.323,0.301-3.189,1.265
		c-2.995,3.337,0.65,10.136,3.75,12.773c-0.995-0.293-1.971-0.626-2.928-0.99c-0.004-0.022,0.005-0.041-0.008-0.065
		c-1.613-3.112-3.573-6.101-4.543-9.504c-0.47-1.649-1.143-4.182-0.728-5.899c1.082-4.484,2.09-2.913,4.536-2.904
		c2.968,0.012,5.381-1.402,6.433-4.114c2.17-2.739,5.836-4.208,9.143-2.353c1.8,1.01,2.893,3.007,4.504,4.248
		c3.726,2.871,9.107,1.036,11.785,5.651c0.005,0.008,0.011,0.011,0.016,0.019C51.612,41.6,50.925,42.953,50.095,44.228z
		 M52.604,39.18c-1.039-1.737-2.485-2.828-4.461-3.507c-2.814-0.967-5.543-0.616-7.896-2.864c-1.098-1.049-2.007-2.295-3.276-3.157
		c-1.594-1.082-3.467-1.46-5.242-1.227c0.098-0.245-0.143-0.615-0.47-0.433c-0.628,0.352-1.236,0.722-1.829,1.113
		c-1.205,0.578-2.258,1.481-3.004,2.679c-0.027,0.023-0.053,0.049-0.073,0.084c-1.833,3.181-3.792,3.633-7.195,3.795
		c-0.678,0.032-1.66-0.24-2.352,0.063c-1.224,0.536-1.381,1.09-1.723,2.411c-1.465,5.655,2.039,12.286,5.306,16.719
		c-7.91-3.172-14.3-8.788-17.223-16.394c2.44-6.047,9.7-5.435,14.95-7.21c3.113-1.053,5.904-2.982,7.537-5.897
		c1.457-2.602,1.813-5.742,0.921-8.584c-1.343-4.279-9.62-9.192-5.452-13.728c0.164-0.179,0.171-0.388,0.094-0.561
		C22.488,2.1,23.794,1.792,25.134,1.6c-0.282,2.979,0.245,5.606,2.642,7.666c2.221,1.908,5.153,3.309,8.037,4.07
		c0.039,0.111,0.116,0.207,0.245,0.245c6.017,1.748,5.569,8.623,9.968,12.071c2.432,1.906,5.538,2.441,8.455,1.638
		c0.023,0.843,0.022,1.69-0.028,2.547C54.259,33.141,53.668,36.28,52.604,39.18z"/>
</g>
</svg>
