<?xml version="1.0" encoding="iso-8859-1"?>
<!-- Generator: Adobe Illustrator 23.0.3, SVG Export Plug-In . SVG Version: 6.00 Build 0)  -->
<svg version="1.1" id="BACKGROUND2" xmlns="http://www.w3.org/2000/svg" xmlns:xlink="http://www.w3.org/1999/xlink" x="0px"
	 y="0px" viewBox="0 0 126.374 126.375" style="enable-background:new 0 0 126.374 126.375;" xml:space="preserve">
<g>
	<radialGradient id="SVGID_1_" cx="63.1872" cy="62.5762" r="61.6489" gradientUnits="userSpaceOnUse">
		<stop  offset="0.063" style="stop-color:#EC5EBB"/>
		<stop  offset="0.3806" style="stop-color:#EB61BE;stop-opacity:0.661"/>
		<stop  offset="0.6091" style="stop-color:#E969C7;stop-opacity:0.4172"/>
		<stop  offset="0.8091" style="stop-color:#E578D7;stop-opacity:0.2038"/>
		<stop  offset="0.9927" style="stop-color:#DF8DED;stop-opacity:0.0078"/>
		<stop  offset="1" style="stop-color:#DF8EEE;stop-opacity:0"/>
	</radialGradient>
	<circle style="opacity:0.5;fill:url(#SVGID_1_);" cx="63.187" cy="63.187" r="63.187"/>
	<radialGradient id="SVGID_2_" cx="48.242" cy="26.2983" r="97.6704" gradientUnits="userSpaceOnUse">
		<stop  offset="0.1444" style="stop-color:#289AD9"/>
		<stop  offset="0.937" style="stop-color:#EC5EBB"/>
	</radialGradient>
	<circle style="fill:url(#SVGID_2_);" cx="63.187" cy="63.187" r="51.877"/>
	<path style="opacity:0.5;fill:#289AD9;" d="M15.358,72.632c0-28.651,23.226-51.877,51.877-51.877
		c19.575,0,36.612,10.846,45.445,26.853C106.064,26.57,86.41,11.31,63.187,11.31c-28.651,0-51.877,23.226-51.877,51.877
		c0,9.076,2.337,17.603,6.432,25.024C16.195,83.294,15.358,78.061,15.358,72.632z"/>
	<radialGradient id="SVGID_3_" cx="46.719" cy="36.1139" r="89.3791" gradientUnits="userSpaceOnUse">
		<stop  offset="0.1444" style="stop-color:#289AD9"/>
		<stop  offset="0.937" style="stop-color:#EC5EBB"/>
	</radialGradient>
	<path style="opacity:0.5;fill:url(#SVGID_3_);" d="M78.262,95.3c-28.651,0-51.877-23.226-51.877-51.877
		c0-7.337,1.531-14.313,4.279-20.639C18.865,32.292,11.31,46.854,11.31,63.187c0,28.651,23.226,51.877,51.877,51.877
		c21.314,0,39.618-12.859,47.599-31.238C101.888,90.998,90.58,95.3,78.262,95.3z"/>
	<radialGradient id="SVGID_4_" cx="57.0175" cy="64.3296" r="65.0676" gradientUnits="userSpaceOnUse">
		<stop  offset="0.1444" style="stop-color:#289AD9"/>
		<stop  offset="0.937" style="stop-color:#EC5EBB"/>
	</radialGradient>
	<path style="opacity:0.5;fill:url(#SVGID_4_);" d="M96.264,23.223c2.253,5.499,3.505,11.514,3.505,17.825
		c0,25.983-21.064,47.047-47.047,47.047c-17.893,0-33.451-9.99-41.406-24.695c0.115,28.552,23.292,51.664,51.872,51.664
		c28.651,0,51.877-23.226,51.877-51.877C115.064,47.108,107.748,32.739,96.264,23.223z"/>
	<g style="opacity:0.4;">
		<path style="fill:#B02BAE;" d="M39.784,22.112c2.827,3.779,1.383,9.063,1.412,13.782c0.057,9.454,7.456,18.348,16.741,20.127
			c2.267,0.434,4.71,0.462,6.777-0.565c2.067-1.027,3.62-3.319,3.229-5.594c-0.351-2.042-2.07-3.541-3.004-5.391
			c-1.464-2.899-0.731-6.742,1.697-8.899c1.986-1.764,4.846-2.41,6.591-4.413c2.881-3.307,1.396-8.407-0.352-12.43
			c-0.937-2.155-1.887-4.553-2.195-6.873c-2.447-0.354-4.947-0.546-7.492-0.546c-10.087,0-19.496,2.889-27.461,7.87
			C37.321,19.828,38.752,20.733,39.784,22.112z"/>
		<path style="fill:#EC5EBB;" d="M30.082,103.126c1.684-1.141,2.886-2.864,2.701-4.842c-0.347-3.717-5.152-5.781-5.546-9.493
			c-0.266-2.511,1.686-4.778,3.92-5.954c2.234-1.177,4.783-1.594,7.135-2.512c1.177-0.459,2.441-1.22,2.646-2.467
			c0.145-0.887-0.299-1.752-0.729-2.541c-2.198-4.035-5.12-8.566-9.699-8.943c-1.382-0.114-2.8,0.183-4.146-0.152
			c-3.143-0.785-4.493-4.638-4.194-7.864c0.299-3.226,1.69-6.295,1.816-9.532c0.139-3.563-1.505-7.312-4.614-9.058
			c-0.647-0.363-1.356-0.608-2.087-0.751c-3.81,7.22-5.976,15.441-5.976,24.172C11.31,79.253,18.615,93.61,30.082,103.126z"/>
		<path style="fill:#EC5EBB;" d="M100.378,27.038c-2.847-0.287-5.633-0.583-7.109-2.837l0.314,0.428
			c1.056,4.463,0.234,9.34-2.227,13.211c-0.876,1.378-1.952,2.639-2.629,4.125c-0.677,1.486-0.896,3.314-0.033,4.7
			c1.144,1.836,3.67,2.203,5.821,1.976c2.151-0.227,4.35-0.851,6.436-0.279c3.856,1.058,6.542,5.965,10.464,5.187
			c0.975-0.193,1.796-0.761,2.433-1.514C111.745,42.435,106.987,33.836,100.378,27.038z"/>
		<path style="fill:#B02BAE;" d="M102.577,96.926c-0.28-0.713-0.667-1.395-1.206-2.021c-2.207-2.562-5.87-3.121-9.097-4.131
			c-3.227-1.01-6.716-3.335-6.618-6.715c0.077-2.641,2.09-6.032-0.167-7.407c-0.634-0.387-1.42-0.403-2.163-0.39
			c-4.629,0.084-10.413,0.318-12.563-3.782c-1.347-2.57-0.51-5.813-1.616-8.495c-2.009-4.87-9.551-4.989-13.348-1.338
			c-3.797,3.651-4.704,9.328-5.018,14.586c-0.385,6.438-0.059,13.348,3.672,18.609c0.881,1.243,1.997,2.573,1.767,4.079
			c-0.5,3.272-5.599,2.487-8.327,4.362c-2.626,1.806-2.288,5.978-0.206,8.425c4.894,1.53,10.1,2.357,15.499,2.357
			C78.951,115.065,93.063,108.024,102.577,96.926z"/>
	</g>
	<path style="opacity:0.5;fill:#289AD9;" d="M81.01,27.312c4.046-1.7,8.705-1.267,12.843-2.726c0.857-0.302,1.687-0.765,2.448-1.33
		C87.317,15.797,75.777,11.31,63.187,11.31c-25.836,0-47.253,18.889-51.214,43.609l0.6,4.68c-0.978,5.013-1.045,10.344,0.849,15.088
		c1.893,4.743,5.998,8.79,11.029,9.668c2.22,0.388,4.678,0.098,6.412-1.343c2.579-2.144,2.765-5.94,3.194-9.267
		c0.429-3.327,1.936-7.216,5.247-7.755c3.38-0.55,6.158,2.986,6.659,6.374c0.501,3.388-0.409,6.841-0.136,10.255
		c0.536,6.708,6.347,12.718,13.065,13.101s13.322-5.26,13.63-11.982c0.151-3.298-1.036-6.506-2.423-9.501
		c-2.05-4.428-4.58-8.634-7.532-12.52c-1.765-2.323-3.736-4.644-4.388-7.488c-1.335-5.819,4.695-11.979,10.541-10.77
		c3.491,0.722,6.271,3.445,9.707,4.396c3.436,0.951,8.266-1.683,7.043-5.032c-1.154-3.157-5.967-2.755-8.369-5.107
		C73.968,34.646,76.965,29.012,81.01,27.312z"/>
	
		<ellipse transform="matrix(0.7071 -0.7071 0.7071 0.7071 -28.6952 48.1668)" style="opacity:0.5;fill:#289AD9;" cx="43.795" cy="58.722" rx="21.261" ry="21.261"/>
	<circle style="opacity:0.5;fill:#289AD9;" cx="71.876" cy="31.844" r="9.628"/>
	<circle style="opacity:0.5;fill:#289AD9;" cx="80.329" cy="57.058" r="4.259"/>
</g>
</svg>
