<?xml version="1.0" encoding="iso-8859-1"?>
<!-- Generator: Adobe Illustrator 23.0.3, SVG Export Plug-In . SVG Version: 6.00 Build 0)  -->
<svg version="1.1" id="OBJECTS" xmlns="http://www.w3.org/2000/svg" xmlns:xlink="http://www.w3.org/1999/xlink" x="0px" y="0px"
	 viewBox="0 0 50.151 45.057" style="enable-background:new 0 0 50.151 45.057;" xml:space="preserve">
<g>
	<path style="fill:none;stroke:#cdeefd;stroke-width:2;stroke-linecap:round;stroke-linejoin:round;stroke-miterlimit:10;" d="
		M4.093,32.868c1.99,2.456,4.912,4.343,8.112,6.34c3.978,2.482,8.453,4.388,13.202,4.502c7.427,0.178,14.491-4.181,18.823-10.215
		c4.841-6.743,6.428-16.434,1.798-23.323c-2.998-4.46-8.141-7.135-13.411-8.184c-7.848-1.564-16.44,0.304-22.554,5.467
		C5.521,11.29,2.137,17.535,1.529,23.548C1.12,27.594,2.172,30.496,4.093,32.868z"/>
	<path style="fill:none;stroke:#cdeefd;stroke-linecap:round;stroke-linejoin:round;stroke-miterlimit:10;" d="M7.524,18.687
		c-0.68,1.124-1.335,2.319-1.443,3.628c-0.107,1.309,0.479,2.764,1.686,3.281c1.371,0.588,2.932-0.191,4.125-1.087
		c2.431-1.826,4.411-4.247,5.72-6.99c0.544-1.14,0.978-2.442,0.612-3.651c-0.543-1.79-2.745-2.67-4.571-2.264
		C9.877,12.444,9.234,15.857,7.524,18.687z"/>
	<path style="fill:none;stroke:#cdeefd;stroke-linecap:round;stroke-linejoin:round;stroke-miterlimit:10;" d="M15.614,15.011
		c0.042,1.265-0.363,2.519-1.011,3.605c-0.649,1.086-1.534,2.016-2.492,2.841c-0.464,0.399-1.151,0.786-1.638,0.415
		c-0.314-0.238-0.369-0.682-0.376-1.076c-0.042-2.392,0.826-4.521,2.138-6.477C13.317,12.704,15.533,12.608,15.614,15.011z"/>
	<path style="fill:none;stroke:#cdeefd;stroke-linecap:round;stroke-linejoin:round;stroke-miterlimit:10;" d="M25.283,8.33
		c1.277-0.073,2.648,0.312,3.46,1.3c0.602,0.733,0.834,1.738,0.692,2.676c-0.142,0.938-0.637,1.805-1.316,2.467
		c-0.909,0.885-2.176,1.416-3.443,1.354c-1.267-0.063-2.507-0.748-3.161-1.835C19.649,11.192,22.163,8.509,25.283,8.33z"/>
	<path style="fill:none;stroke:#cdeefd;stroke-linecap:round;stroke-linejoin:round;stroke-miterlimit:10;" d="M26.662,10.293
		c0.498,0.331,0.779,1.013,0.537,1.56c-0.169,0.382-0.544,0.63-0.927,0.797c-0.837,0.365-1.8,0.432-2.679,0.186
		c-1.129-0.316-1.5-1.356-0.523-2.056C23.92,10.171,25.74,9.68,26.662,10.293z"/>
	<path style="fill:none;stroke:#cdeefd;stroke-linecap:round;stroke-linejoin:round;stroke-miterlimit:10;" d="M39.595,5.393
		c-2.053,1.298-3.037,3.867-2.987,6.295c0.05,2.428,0.981,4.749,2.051,6.929c0.713,1.452,1.555,2.937,2.938,3.777
		c1.436,0.871,3.354,0.876,4.795,0.013c1.441-0.863,2.34-2.558,2.249-4.235"/>
	<path style="fill:none;stroke:#cdeefd;stroke-linecap:round;stroke-linejoin:round;stroke-miterlimit:10;" d="M42.359,6.603
		c-0.703-0.165-1.455,0.197-1.906,0.761c-0.451,0.563-0.644,1.293-0.721,2.011c-0.273,2.53,0.846,5.166,2.855,6.728
		c0.804,0.625,1.858,1.096,2.826,0.78c0.73-0.238,1.266-0.89,1.552-1.603c0.286-0.713,0.358-1.491,0.427-2.256"/>
	<path style="fill:none;stroke:#cdeefd;stroke-linecap:round;stroke-linejoin:round;stroke-miterlimit:10;" d="M12.378,39.075
		C11.899,37.359,12.522,35.51,13.47,34c1.762-2.807,4.695-4.853,7.938-5.538c3.243-0.685,6.753,0.001,9.5,1.856
		c2.1,1.418,3.787,3.589,4.181,6.092s-0.711,5.293-2.944,6.489"/>
	<path style="fill:none;stroke:#cdeefd;stroke-linecap:round;stroke-linejoin:round;stroke-miterlimit:10;" d="M15.667,40.779
		c-1.133-1.805-0.534-4.282,0.822-5.926c1.632-1.978,4.302-3.06,6.845-2.73c2.543,0.329,4.865,2.077,5.844,4.447
		c0.979,2.37,0.555,5.271-1.095,7.234"/>
	<path style="fill:none;stroke:#cdeefd;stroke-linecap:round;stroke-linejoin:round;stroke-miterlimit:10;" d="M34.596,25.685
		c0.49-0.729,1.233-1.263,2.038-1.614c1.064-0.465,2.296-0.624,3.394-0.248c1.098,0.376,2.02,1.349,2.154,2.502
		c0.233,2.007-2.537,5.123-4.61,5.137C34.709,31.482,33.074,27.951,34.596,25.685z"/>
	<path style="fill:none;stroke:#cdeefd;stroke-linecap:round;stroke-linejoin:round;stroke-miterlimit:10;" d="M36.314,26.251
		c0.546-0.522,1.271-0.898,2.026-0.87c0.755,0.028,1.512,0.533,1.684,1.268c0.155,0.662-0.177,1.36-0.668,1.829
		c-0.493,0.471-1.167,0.769-1.849,0.742c-0.682-0.027-1.356-0.404-1.676-1.006c-0.32-0.602-0.234-1.414,0.253-1.892"/>
	<path style="fill:none;stroke:#cdeefd;stroke-linecap:round;stroke-linejoin:round;stroke-miterlimit:10;" d="M24.689,24.357
		c1.271,0.036,2.696-0.48,3.177-1.657c0.379-0.928,0.048-2.04-0.63-2.778c-0.678-0.738-1.645-1.15-2.621-1.38
		C19.399,17.312,20.07,24.226,24.689,24.357z"/>
	<path style="fill:none;stroke:#cdeefd;stroke-linecap:round;stroke-linejoin:round;stroke-miterlimit:10;" d="M31.907,8.346
		c0.927,0.328,2.005-0.026,2.702-0.719c0.41-0.408,0.721-0.99,0.589-1.554c-0.106-0.453-0.477-0.803-0.889-1.018
		C31.867,3.78,28.842,7.259,31.907,8.346z"/>
	<path style="fill:none;stroke:#cdeefd;stroke-linecap:round;stroke-linejoin:round;stroke-miterlimit:10;" d="M11.044,7.118
		c1.303,0.649,2.719,1.143,4.175,1.149c1.456,0.006,2.962-0.53,3.894-1.648c0.932-1.119,1.154-2.858,0.322-4.053"/>
	<path style="fill:none;stroke:#cdeefd;stroke-linecap:round;stroke-linejoin:round;stroke-miterlimit:10;" d="M2.015,26.429
		c2.363-0.049,4.709,1.243,5.929,3.268c1.22,2.024,1.268,4.702,0.121,6.769"/>
</g>
</svg>
