<?xml version="1.0" encoding="iso-8859-1"?>
<!-- Generator: Adobe Illustrator 23.0.3, SVG Export Plug-In . SVG Version: 6.00 Build 0)  -->
<svg version="1.1" id="OBJECTS" xmlns="http://www.w3.org/2000/svg" xmlns:xlink="http://www.w3.org/1999/xlink" x="0px" y="0px"
	 viewBox="0 0 58.382 57.339" style="enable-background:new 0 0 58.382 57.339;" xml:space="preserve">
<g>
	<path style="fill:#222221;" d="M27.414,51.848c-1.812-1.453-4.776-1.311-6.852-0.674c-0.255,0.078-0.38,0.266-0.419,0.47
		c-1.055,0.57-0.839,1.891,0.145,2.532c1.601,1.042,4.869,1.455,6.635,0.664C28.24,54.251,28.61,52.807,27.414,51.848z
		 M26.483,53.811c-0.664,0.506-2.209,0.234-2.954,0.139c-0.531-0.068-1.061-0.157-1.575-0.307c-0.252-0.074-2.079-0.663-1.477-1.275
		c0.119,0.056,0.258,0.08,0.422,0.027c0.962-0.307,1.937-0.479,2.95-0.428C24.456,51.998,28.067,52.605,26.483,53.811z"/>
	<path style="fill:#222221;" d="M18.37,8.982c-3.405-0.083-5.922,3.04-6.371,6.191c-0.421,2.951,1.42,6.757,4.743,5.958
		c3.28,0.589,6.536-3.94,6.82-6.809C23.856,11.363,21.206,9.051,18.37,8.982z M22.293,14.665c-0.425,2.1-2.703,5.13-5.078,5.348
		c-0.064-0.01-0.135-0.01-0.212,0.006c-0.024,0.005-0.046,0.006-0.07,0.01c-0.138-0.001-0.276-0.006-0.414-0.027
		c-0.17-0.026-0.312,0.015-0.421,0.092c-4.394-0.235-3.183-10.197,2.454-9.844C20.829,10.394,22.778,12.263,22.293,14.665z"/>
	<path style="fill:#222221;" d="M23.849,17.24c-1.568,2.693-3.726,5.355-7.08,5.613c-3.944,0.303-6.624-3.178-5.603-6.951
		c0.074-0.272-0.319-0.369-0.415-0.114c-1.224,3.258,0.484,6.964,3.941,7.844c4.397,1.119,8.06-2.353,10.001-5.897
		C24.997,17.181,24.167,16.694,23.849,17.24z"/>
	<path style="fill:#222221;" d="M20.382,7.006c-3.237-0.73-6.508,1.079-8.642,3.38c-0.259,0.279,0.127,0.649,0.412,0.412
		c1.884-1.575,4.068-3.045,6.63-3.031c2.958,0.016,5.484,2.176,5.544,5.206c0.012,0.625,0.95,0.624,0.97,0
		C25.391,10.057,23.183,7.639,20.382,7.006z"/>
	<path style="fill:#222221;" d="M53.232,19.546c-0.257-0.034-0.414,0.118-0.476,0.315c-3.61,1.028-3.507,9.485,0.635,9.329
		C57.948,29.019,57.554,20.109,53.232,19.546z M53.493,27.998c-3.086,0.416-2.699-6.06-0.528-7.477
		c0.039,0.026,0.077,0.054,0.125,0.069c1.655,0.511,2.322,2.004,2.407,3.637C55.571,25.623,55.122,27.779,53.493,27.998z"/>
	<path style="fill:#222221;" d="M58.302,24.064c-0.374-2.831-2.525-6.088-5.359-6.033c0.017-0.097,0.014-0.204-0.014-0.32
		C47.976-2.614,22.507-4.905,8.896,8.069C-5.419,21.714-2.283,45.626,17.038,52.562c0.003,0.001,0.006-0.001,0.009,0
		c-0.064,5.016,12.134,6.937,13.905,1.527c11.486-1.434,20.77-10.8,23.786-21.702c0.036-0.13,0.031-0.246,0.006-0.352
		C57.879,31.681,58.659,26.764,58.302,24.064z M53.217,30.83c-0.601-0.039-0.669,0.839-0.137,1.011
		c0.106,0.034,0.201,0.045,0.304,0.071c-0.013,0.031-0.035,0.052-0.046,0.088c-3.13,10.956-11.536,17.957-22.186,21.058
		c0.011-0.15,0.024-0.299,0.021-0.457c-0.012-0.738-1.136-0.739-1.148,0c-0.092,5.787-13.555,4.222-12.017-1.391
		c0.09-0.327-0.405-0.558-0.563-0.237c-0.164,0.333-0.263,0.654-0.328,0.968c-6.965-5.412-13.937-9.205-15.492-18.705
		C0.282,25.028,3.249,16.268,8.904,10.26C21.597-3.223,46.188-1.533,51.489,18.108c0.022,0.081,0.062,0.139,0.1,0.201
		c-0.28,0.108-0.564,0.24-0.852,0.418c-0.453,0.281-0.058,0.932,0.413,0.707C57.837,16.24,60.183,31.288,53.217,30.83z"/>
	<path style="fill:#222221;" d="M36.404,33.501c-0.461-1.772-2.339-2.906-4.103-2.409c-0.098,0.028-0.16,0.083-0.2,0.147
		c-0.093-0.058-0.204-0.083-0.322-0.041c-1.589,0.568-2.148,2.569-1.675,4.08c0.52,1.66,2.242,2.447,3.878,1.99
		C35.614,36.812,36.853,35.23,36.404,33.501z M33.486,36.322c-1.132,0.208-2.168-0.392-2.432-1.538
		c-0.268-1.162,0.283-2.128,1.152-2.852c0.062-0.051,0.093-0.115,0.111-0.182c0.051,0.014,0.105,0.02,0.167,0.009
		c1.34-0.237,2.798,0.83,2.972,2.192C35.611,35.158,34.612,36.114,33.486,36.322z"/>
	<path style="fill:#222221;" d="M30.574,37.833c-2.156-1.094-2.613-3.486-1.543-5.512c0.208-0.393-0.31-0.84-0.636-0.491
		c-1.916,2.056-0.605,5.777,1.929,6.596C30.67,38.539,30.904,38.001,30.574,37.833z"/>
	<path style="fill:#222221;" d="M38.196,31.467c-1.564-2.061-4.732-2.602-7.093-1.834c-0.297,0.097-0.266,0.596,0.077,0.572
		c2.019-0.142,4.311-0.307,5.883,1.264c1.467,1.466,1.472,3.671,0.071,5.133c-0.342,0.357,0.109,1.007,0.547,0.709
		C39.572,36.024,39.479,33.158,38.196,31.467z"/>
	<path style="fill:#222221;" d="M42.343,10.086c-0.945-1.302-2.901-2.124-4.47-1.624c-0.292,0.093-0.388,0.377-0.324,0.615
		c-0.732,0.726-0.134,2.22,0.454,2.988c0.833,1.088,2.403,2.518,3.883,1.754C43.271,13.103,43.143,11.19,42.343,10.086z
		 M41.904,12.415c-0.725,2.464-5.012-1.845-3.775-2.979c0.903,0.02,1.737,0.081,2.532,0.585
		C41.402,10.49,42.18,11.481,41.904,12.415z"/>
	<path style="fill:#222221;" d="M39.007,6.946c-1.42-0.898-3.475,0.118-4.077,1.559c-0.639,1.527,0.221,3.388,1.784,3.91
		c0.267,0.089,0.407-0.297,0.185-0.439c-1.061-0.684-1.713-2.093-1.08-3.301c0.616-1.178,1.873-1.255,3.023-1.115
		C39.186,7.601,39.257,7.104,39.007,6.946z"/>
	<path style="fill:#222221;" d="M43.467,10.397c-0.123-0.244-0.543-0.074-0.447,0.189c0.488,1.333,0.084,2.55-0.332,3.83
		c-0.199,0.612,0.708,0.975,1.026,0.432C44.54,13.435,44.158,11.77,43.467,10.397z"/>
</g>
</svg>
