<?xml version="1.0" encoding="iso-8859-1"?>
<!-- Generator: Adobe Illustrator 23.0.3, SVG Export Plug-In . SVG Version: 6.00 Build 0)  -->
<svg version="1.1" id="BACKGROUND2" xmlns="http://www.w3.org/2000/svg" xmlns:xlink="http://www.w3.org/1999/xlink" x="0px"
	 y="0px" viewBox="0 0 110.52 110.564" style="enable-background:new 0 0 110.52 110.564;" xml:space="preserve">
<g>
	
		<radialGradient id="SVGID_1_" cx="-223.5638" cy="-180.4424" r="106.8813" gradientTransform="matrix(0.8556 0.5177 -0.5177 0.8556 169.3342 286.2622)" gradientUnits="userSpaceOnUse">
		<stop  offset="0.0815" style="stop-color:#FFE245"/>
		<stop  offset="0.9963" style="stop-color:#61E327"/>
	</radialGradient>
	<circle style="fill:url(#SVGID_1_);" cx="55.274" cy="55.246" r="55.238"/>
	
		<radialGradient id="SVGID_2_" cx="-223.2174" cy="-170.8078" r="99.2515" gradientTransform="matrix(0.8556 0.5177 -0.5177 0.8556 169.3342 286.2622)" gradientUnits="userSpaceOnUse">
		<stop  offset="0.0037" style="stop-color:#61E327"/>
		<stop  offset="0.9185" style="stop-color:#FFE245"/>
	</radialGradient>
	<path style="fill:url(#SVGID_2_);" d="M106.459,34.469c-1.074,6.173-3.278,12.256-6.717,17.94
		C84.918,76.907,53.042,84.749,28.545,69.926C15.074,61.775,6.653,48.465,4.253,34.064c-10.335,24.807-1.266,54.108,22.424,68.443
		c26.101,15.793,60.063,7.437,75.856-18.664C111.914,68.34,112.775,50.064,106.459,34.469z"/>
	
		<radialGradient id="SVGID_3_" cx="-853.1907" cy="-598.8701" r="99.2592" gradientTransform="matrix(0.2389 0.971 -0.971 0.2389 -292.5911 1013.2666)" gradientUnits="userSpaceOnUse">
		<stop  offset="0.0037" style="stop-color:#61E327"/>
		<stop  offset="0.9185" style="stop-color:#FFE245"/>
	</radialGradient>
	<path style="fill:url(#SVGID_3_);" d="M106.136,76.815c-5.125,3.606-10.984,6.348-17.435,7.936
		c-27.804,6.841-55.889-10.153-62.73-37.957c-3.762-15.289-0.305-30.655,8.182-42.535C9.304,14.491-5.003,41.623,1.612,68.511
		c7.289,29.624,37.212,47.73,66.836,40.441C86.044,104.623,99.575,92.308,106.136,76.815z"/>
	
		<ellipse transform="matrix(0.971 -0.2389 0.2389 0.971 -5.1082 15.1643)" style="fill:#E3AD27;" cx="59.999" cy="28.653" rx="7.552" ry="7.552"/>
	<g>
		<g>
			<path style="fill:#E3AD27;" d="M53.404,49.162c0.03,0.09,0.06,0.18,0.09,0.27c0.489,1.463,1.75,2.765,3.413,2.718
				c1.648-0.047,2.958-1.044,3.491-2.6c0.095-0.278,0.112-0.621,0.134-0.916c0.104-1.412-0.933-2.765-2.161-3.3
				c-1.201-0.523-2.932-0.393-3.864,0.652c-0.084,0.095-0.168,0.189-0.253,0.283C53.572,47.032,53.052,48.11,53.404,49.162
				L53.404,49.162z"/>
		</g>
	</g>
	<g>
		<g>
			<path style="fill:#E3AD27;" d="M71.737,45.113c-0.102-0.022-0.204-0.045-0.307-0.067c-1.024-0.223-2.234,0.111-2.769,1.093
				c-0.542,0.994-0.406,2.097,0.317,2.96c0.067,0.08,0.134,0.16,0.201,0.241c1.082,1.292,3.233,0.921,4.053-0.435
				C74.054,47.548,73.382,45.471,71.737,45.113L71.737,45.113z"/>
		</g>
	</g>
	<g>
		<g>
			<path style="fill:#E3AD27;" d="M82.75,32.935c5.281,3.195,10.255-5.006,4.966-8.207C82.435,21.532,77.46,29.734,82.75,32.935
				L82.75,32.935z"/>
		</g>
	</g>
	<g>
		<g>
			<path style="fill:#E3AD27;" d="M87.093,51.166c1.74,1.053,3.38-1.65,1.636-2.704C86.99,47.409,85.35,50.112,87.093,51.166
				L87.093,51.166z"/>
		</g>
	</g>
	<g>
		<g>
			<path style="fill:#E3AD27;" d="M39.768,42.796c1.707,1.033,4.251,0.521,5.239-1.289c0.991-1.816,0.541-4.132-1.289-5.239
				c-1.707-1.033-4.251-0.521-5.239,1.289C37.488,39.373,37.938,41.688,39.768,42.796L39.768,42.796z"/>
		</g>
	</g>
	<g>
		<g>
			<path style="fill:#E3AD27;" d="M41.482,17.375c2.88,1.743,5.594-2.731,2.709-4.477C41.31,11.156,38.597,15.629,41.482,17.375
				L41.482,17.375z"/>
		</g>
	</g>
	<g>
		<g>
			<path style="fill:#E3AD27;" d="M31.13,25.345c-0.14-0.011-0.28-0.023-0.42-0.034c-1.743-0.142-3.079,2.065-2.144,3.543
				c0.075,0.119,0.15,0.238,0.225,0.356c1.039,1.644,3.459,1.887,4.537,0.105C34.406,27.534,33.069,25.502,31.13,25.345
				L31.13,25.345z"/>
		</g>
	</g>
	<g>
		<g>
			<path style="fill:#E3AD27;" d="M64.128,14.77c1.04,0.629,2.407,0.838,3.588,0.547c1.129-0.278,2.358-1.112,2.924-2.15
				c1.232-2.258,0.672-5.135-1.602-6.511c-1.04-0.629-2.407-0.838-3.588-0.548c-1.129,0.278-2.358,1.112-2.924,2.15
				C61.295,10.516,61.854,13.394,64.128,14.77L64.128,14.77z"/>
		</g>
	</g>
	<g>
		<g>
			<path style="fill:#E3AD27;" d="M65.502,67.085c2.22,1.343,4.312-2.105,2.088-3.451C65.37,62.291,63.279,65.739,65.502,67.085
				L65.502,67.085z"/>
		</g>
	</g>
	<g>
		<g>
			<path style="fill:#E3AD27;" d="M75.042,63.555c2.04,1.235,3.962-1.934,1.919-3.171C74.92,59.149,72.998,62.318,75.042,63.555
				L75.042,63.555z"/>
		</g>
	</g>
	<g>
		<g>
			<path style="fill:#E3AD27;" d="M74.082,36.906c2.16,1.307,4.195-2.048,2.032-3.357C73.954,32.242,71.919,35.597,74.082,36.906
				L74.082,36.906z"/>
		</g>
	</g>
	<g>
		<g>
			<path style="fill:#E3AD27;" d="M68.672,24.202c1.86,1.126,3.613-1.764,1.749-2.891C68.561,20.185,66.808,23.075,68.672,24.202
				L68.672,24.202z"/>
		</g>
	</g>
	<g>
		<g>
			<path style="fill:#E3AD27;" d="M13.245,59.335c1.756,1.063,4.373,0.536,5.389-1.326c1.019-1.868,0.556-4.25-1.326-5.389
				c-1.756-1.063-4.373-0.536-5.389,1.326C10.9,55.814,11.363,58.196,13.245,59.335L13.245,59.335z"/>
		</g>
	</g>
	<g>
		<g>
			<path style="fill:#E3AD27;" d="M26.757,84.061c0.6,0.363,1.165-0.569,0.564-0.933C26.721,82.766,26.156,83.698,26.757,84.061
				L26.757,84.061z"/>
		</g>
	</g>
	<g>
		<g>
			<path style="fill:#E3AD27;" d="M37.534,83.191c2.22,1.343,4.312-2.105,2.088-3.451C37.402,78.397,35.31,81.845,37.534,83.191
				L37.534,83.191z"/>
		</g>
	</g>
	<g>
		<g>
			<path style="fill:#E3AD27;" d="M38.866,97.93c4.081,2.469,7.925-3.868,3.837-6.342C38.623,89.12,34.779,95.457,38.866,97.93
				L38.866,97.93z"/>
		</g>
	</g>
	<g>
		<g>
			<path style="fill:#E3AD27;" d="M21.76,81.93c0.012-0.093,0.024-0.187,0.035-0.28c0.188-1.495-1.868-2.739-3.105-1.879
				c-0.077,0.054-0.154,0.107-0.232,0.161c-0.676,0.47-1.155,1.063-1.168,1.93c-0.012,0.787,0.404,1.538,1.078,1.946
				c0.674,0.408,1.532,0.427,2.224,0.052C21.354,83.447,21.657,82.747,21.76,81.93L21.76,81.93z"/>
		</g>
	</g>
	<g>
		<g>
			<path style="fill:#E3AD27;" d="M75.854,83.858c1.22,0.738,3.037,0.373,3.742-0.921c0.708-1.297,0.386-2.951-0.921-3.742
				c-1.219-0.738-3.037-0.373-3.742,0.921C74.226,81.413,74.547,83.067,75.854,83.858L75.854,83.858z"/>
		</g>
	</g>
	<g>
		<g>
			<path style="fill:#E3AD27;" d="M84.398,87.619c0.064,0.039,0.124-0.061,0.06-0.099C84.395,87.481,84.334,87.58,84.398,87.619
				L84.398,87.619z"/>
		</g>
	</g>
	<g>
		<g>
			<path style="fill:#E3AD27;" d="M93.688,60.031c2.04,1.235,3.962-1.934,1.919-3.171C93.567,55.626,91.645,58.795,93.688,60.031
				L93.688,60.031z"/>
		</g>
	</g>
	<g>
		<g>
			<path style="fill:#E3AD27;" d="M88.671,89.969c3.06,1.852,5.943-2.901,2.878-4.756C88.489,83.361,85.606,88.114,88.671,89.969
				L88.671,89.969z"/>
		</g>
	</g>
	<g>
		<g>
			<path style="fill:#E3AD27;" d="M76.208,61.135c-6.583,10.88-3.1,25.036,7.78,31.619c2.757,1.668,5.725,2.684,8.726,3.103
				c3.733-3.444,7.059-7.452,9.82-12.015c5.411-8.943,7.985-18.809,7.984-28.55c-0.845-0.694-1.728-1.354-2.691-1.937
				C96.947,46.773,82.791,50.256,76.208,61.135z"/>
			<path style="fill:#E3AD27;" d="M105.806,32.962c-2.422-5.506-5.754-10.643-9.935-15.171c-0.735,0.623-1.388,1.368-1.915,2.238
				c-2.614,4.32-1.231,9.941,3.089,12.555C99.81,34.257,103.105,34.286,105.806,32.962z"/>
			<path style="fill:#E3AD27;" d="M26.677,102.507c2.292,1.387,4.647,2.577,7.043,3.596c2.131-1.595,4.005-3.606,5.467-6.023
				c6.099-10.08,2.872-23.195-7.208-29.294c-9.374-5.672-21.367-3.269-27.907,5.201C8.389,86.663,16.066,96.086,26.677,102.507z"/>
			<path style="fill:#E3AD27;" d="M4.188,34.217C2.136,39.184,0.869,44.33,0.332,49.498c2.479-0.312,4.798-1.707,6.192-4.011
				C8.833,41.67,7.766,36.761,4.188,34.217z"/>
			<path style="fill:#E3AD27;" d="M63.681,103.422c-4.96-3.001-11.414-1.413-14.415,3.547c-0.586,0.968-0.992,1.994-1.237,3.04
				c6.763,0.891,13.589,0.515,20.13-1.055C67.385,106.724,65.859,104.74,63.681,103.422z"/>
			<path style="fill:#E3AD27;" d="M58.953,94.229c4,2.42,9.205,1.14,11.625-2.86c2.42-4,1.14-9.204-2.86-11.625
				c-4-2.42-9.204-1.14-11.625,2.86C53.673,86.605,54.953,91.809,58.953,94.229z"/>
		</g>
	</g>
</g>
</svg>
