<?xml version="1.0" encoding="iso-8859-1"?>
<!-- Generator: Adobe Illustrator 23.0.3, SVG Export Plug-In . SVG Version: 6.00 Build 0)  -->
<svg version="1.1" id="OBJECTS" xmlns="http://www.w3.org/2000/svg" xmlns:xlink="http://www.w3.org/1999/xlink" x="0px" y="0px"
	 viewBox="0 0 154.187 147.451" style="enable-background:new 0 0 154.187 147.451;" xml:space="preserve">
<g>
	<path style="fill:#e2efb2;" d="M82.408,128.764c-0.115-0.442-0.729-0.426-0.888-0.068c-0.099-0.449-0.283-0.911-0.592-1.384
		c-2.839-4.342-10.371-4.559-14.821-3.708c-0.396,0.076-0.498,0.413-0.405,0.709c-2.469,0.819-2.947,4.166-1.305,6.449
		c2.486,3.456,8.384,4.59,12.294,3.501c2.018-0.562,4.146-1.989,4.744-3.836c-0.109,1.174-0.446,2.261-1.352,3.216
		c-1.242,1.309-2.992,1.783-4.748,1.642c-0.268-0.022-0.33,0.421-0.064,0.472C79.165,136.505,83.484,132.921,82.408,128.764z
		 M77.924,132.385c-2.095,1.12-4.693,1.145-6.963,0.636c-1.175-0.264-2.762-0.743-3.705-1.42c-1.822-1.308-5.252-6.12-0.191-6.917
		c2.587-0.364,5.155-0.304,7.697,0.42c1.162,0.331,2.358,0.717,3.381,1.378C80.205,127.814,80.124,131.208,77.924,132.385z"/>
	<path style="fill:#e2efb2;" d="M65.682,133.159c-3.865-1.365-5.421-5.542-4.129-9.248c0.146-0.419-0.513-0.696-0.717-0.302
		c-2.025,3.907,0.592,8.973,4.707,10.055C65.872,133.75,65.996,133.27,65.682,133.159z"/>
	<path style="fill:#e2efb2;" d="M13.704,100.031c-1.349-3.175-4.271-5.584-7.737-5.936c-0.393-0.04-0.59,0.361-0.524,0.69
		c-4.556,4.12,0.799,13.376,6.676,12.658C15.449,107.035,14.596,102.13,13.704,100.031z M12.083,105.805
		c-1.601,0.665-2.711,0.079-4.082-0.924c-0.978-0.716-1.809-1.594-2.403-2.661c-1.246-2.239-1.245-5,0.295-7.022
		c2.15,0.444,4.011,1.365,5.461,3.069c0.81,0.953,1.452,2.115,1.787,3.32c0.166,0.596,0.275,1.241,0.292,1.858
		C13.472,104.836,13.475,105.227,12.083,105.805z"/>
	<path style="fill:#e2efb2;" d="M145.251,65.479c2.613-7.505,14.309-12.15,6.001-20.305c-9.741-9.561-18.218-19.956-26.902-30.484
		c-0.231-0.281-0.523-0.307-0.769-0.194C122.927,2.061,100.22-5.686,93.974,5.172c-0.004-0.138-0.058-0.279-0.197-0.404
		c-3.511-3.164-8.008-4.747-12.753-4.029c-3.699,0.56-6.344,1.977-10.306,1.359c-2.521-0.394-4.86,0.214-7.25,1.025
		c-3.454,1.172-6.563,2.486-10.281,2.704c-2.799,0.164-5.776-0.244-8.502,0.624c-5.048,1.607-5.266,6.48-8.023,10.286
		c-0.072,0.099-0.086,0.204-0.068,0.302c-3.428,0.449-6.933,1.032-9.909,2.87c-1.355,0.837-2.391,1.889-3.385,3.118
		c-1.554,1.922-3.457,3.134-5.086,4.873c-0.999,1.066-1.43,2.07-2.04,3.412c-0.743,1.633-1.274,2.408-2.679,3.573
		c-0.387,0.32-1.037,0.443-1.36,0.882c-0.467,0.635-0.383,1.296-0.476,1.996c-0.435,3.277,0.059,5.413-1.677,8.521
		c-1.369,2.451-3.408,4.403-5.902,5.695c-1.066,0.552-3.125,0.891-3.776,2.173c-0.465,0.916-0.32,1.593-0.07,2.465
		c0.635,2.217,2.327,2.634,2.592,5.274c0.237,2.367-0.628,3.296-0.853,5.477c-0.31,3.005,0.804,5.796,0.269,8.869
		c-0.294,1.687-0.743,2.834-0.321,4.576c0.825,3.41,4.241,5.12,3.346,9.234c-2.27,1.363-4.552,2.893-4.887,5.587
		c-0.484,3.883,1.551,8.883,4.01,11.782c2.311,2.725,5.004,3.544,8.467,2.576c0.1-0.028,0.201-0.059,0.301-0.088
		c-0.067,3.099,1.335,5.245,3.71,7.17c1.276,1.034,2.713,1.832,4.171,2.576c3.76,1.918,5.299,4.706,7.149,8.383
		c1.468,2.916,3.976,4.665,6.642,6.413c1.757,1.152,3.635,2.207,5.154,3.68c1.72,1.669,2.502,4.012,4.322,5.547
		c2.926,2.468,7.37,2.496,10.971,2.355c6.875-0.271,12.862-0.378,19.724,0.553c10.086,1.368,20.914,1.068,30.984-0.47
		c7.744-1.183,13.524-4.243,16.271-11.829c2.018-5.572,4.261-9.225,9.455-12.354c3.91-2.356,8.755-3.901,12.166-6.997
		c3.001-2.724,2.316-5.354,2.811-9.126c0.715-5.445,4.166-9.963,5.511-15.228c0.865-3.388,0.751-6.903-0.552-10.171
		C149.613,75.299,143.126,71.582,145.251,65.479z M145.254,105.507c-0.43,3.186-0.776,6.746-3.345,9.177
		c-1.221,1.155-3.302,1.993-4.772,2.78c-3.243,1.736-6.626,3.31-9.511,5.628c-6.269,5.036-5.586,14.352-12.334,18.64
		c-7.697,4.891-19.914,4.203-28.683,4.219c-9.997,0.018-19.435-2.18-29.463-1.486c-3.611,0.25-7.459,0.513-10.691-1.353
		c-2.257-1.303-2.967-3.216-4.573-5.083c-2.329-2.707-5.687-4.168-8.501-6.267c-3.199-2.386-3.725-5.138-5.437-8.442
		c-0.641-1.237-1.07-1.823-2.178-2.69c-4.251-3.327-11.585-3.744-11.708-10.744c-0.002-0.099-0.035-0.175-0.079-0.241
		c2.599-0.884,5.024-2.381,4.93-5.409c-0.006-0.182-0.294-0.24-0.332-0.045c-0.651,3.439-5.356,5.336-8.497,5.174
		c-3.529-0.183-5.61-3.255-6.918-6.051c-1.548-3.309-2.724-7.42,0.174-10.502c1.198-1.275,3.298-2.239,4.751-3.225
		c0.576-0.391,0.034-1.333-0.549-0.94c-0.442,0.299-0.919,0.589-1.407,0.881c0.576-3.173-1.627-5.745-2.397-8.971
		C3.083,77.814,3.86,76.134,3.9,73.511c0.009-0.563-0.123-1.161-0.177-1.722c-0.295-3.123,0.052-4.762,0.82-7.724
		c0.68-2.617,0.08-3.141-0.971-5.363c-0.344-0.328-0.688-0.657-1.031-0.985l0.857-3.908c0.287-0.37,1.546-0.679,1.987-0.922
		c1.418-0.784,2.699-1.807,3.79-3.007c2.035-2.238,3.404-5.085,3.861-8.07c0.253-1.655-0.322-4.091,0.756-5.446
		c0.419-0.527,1.545-0.781,2.09-1.345c1.509-1.562,1.805-3.837,3.262-5.469c1.318-1.478,2.898-2.417,4.196-3.96
		c1.501-1.784,2.59-3.564,4.722-4.737c2.879-1.585,6.383-2.026,9.586-2.44c0.917-0.118,0.953-1.516,0.087-1.503
		c1.017-1.283,1.639-2.63,2.42-4.126c1.979-3.792,4.552-5.191,8.747-5.425c4.625-0.258,8.269-0.299,12.681-1.937
		c3.176-1.179,6.025-2.215,9.514-1.79c1.472,0.179,2.478,0.891,4.005,0.664c2.667-0.396,4.65-2.205,7.562-2.316
		c3.823-0.145,7.315,1.241,10.219,3.683c0.262,0.22,0.568,0.184,0.792,0.035c-0.22,0.442-0.419,0.907-0.586,1.406
		c-0.131,0.393,0.506,0.673,0.679,0.286c5.7-12.778,31.577-3.451,28.191,10.337c-0.194,0.791,0.996,1.121,1.22,0.336
		c0.19-0.666,0.295-1.319,0.359-1.966c6.461,7.878,12.759,15.975,19.744,23.398c1.48,1.572,2.993,3.115,4.558,4.602
		c0.544,0.517,1.81,1.44,2.332,2.156c1.097,1.502,2.461,5.653,1.876,7.629c-1.006,3.398-5.477,6.09-7.329,9.206
		c-3.798,6.391,0.979,10.164,4.237,15.284C155.249,88.262,146.546,95.928,145.254,105.507z"/>
	<path style="fill:#e2efb2;" d="M112.206,4.738c-3.106-2.072-6.672-2.953-10.046-0.998c-0.888,0.514-0.086,1.893,0.805,1.377
		c2.903-1.682,5.865-0.782,8.487,0.911c1.04,0.672,5.208,3.27,5.519,4.798c-0.692,2.082-1.69,2.821-2.994,2.216
		c-0.786-0.246-1.549-0.554-2.288-0.923c-0.94-0.44-1.855-0.939-2.738-1.485c-2.342-1.449-4.331-3.267-6.21-5.265
		c-0.398-0.423-0.98,0.193-0.626,0.627c2.862,3.511,6.64,6.338,10.857,8.018c2,0.796,5.865,1.171,5.932-2.029
		C118.962,9.179,114.238,6.093,112.206,4.738z"/>
	<path style="fill:#e2efb2;" d="M150.37,50.32c-0.279-1.613-1.737-2.625-3.229-3.033c-0.003-0.336-0.42-0.618-0.739-0.32
		c-1.17,1.09-1.699,2.709-1.291,4.276c0.367,1.409,1.662,2.774,3.23,2.378C149.733,53.27,150.608,51.694,150.37,50.32z
		 M148.016,52.433c-1.148,0.243-1.808-1.097-1.919-2.044c-0.087-0.738,0.069-1.444,0.411-2.069c0.004,0.001,0.007,0.004,0.011,0.005
		c0.91,0.202,1.84,0.605,2.366,1.419C149.476,50.655,149.22,52.179,148.016,52.433z"/>
	<path style="fill:#e2efb2;" d="M150.002,84.755c-0.19-2.108-1.39-4.054-3.389-4.777c-0.102-0.261-0.463-0.383-0.705-0.163
		c-0.294,0.056-0.448,0.345-0.411,0.624c-1.321,2.228-1.797,4.863-1.304,7.426c0.311,1.614,1.283,4.56,3.504,3.524
		C149.753,90.429,150.174,86.663,150.002,84.755z M146.103,89.728c-0.947-0.897-0.997-3.462-0.939-4.647
		c0.071-1.43,0.464-2.732,1.059-3.998c1.708,0.834,2.564,2.494,2.567,4.402C148.793,86.53,148.074,91.594,146.103,89.728z"/>
	<path style="fill:#e2efb2;" d="M146.485,93.99c-2.204-1.056-3.494-3.003-3.644-5.44c-0.036-0.589-0.895-0.595-0.92,0
		c-0.11,2.698,1.735,5.265,4.268,6.142C146.596,94.832,146.878,94.178,146.485,93.99z"/>
	<path style="fill:#e2efb2;" d="M112.041,35.778c-2.026-4.56-7.321-8.256-12.37-7.712c-0.058,0.006-0.104,0.029-0.153,0.046
		c-0.04-0.036-0.088-0.065-0.15-0.077c-3.982-0.771-5.915,3.314-4.739,6.689c1.572,4.513,7.368,8.725,12.13,8.804
		C111.154,43.6,113.844,39.835,112.041,35.778z M108.02,42.14c-3.148,0.702-6.908-1.649-9.17-3.634
		c-0.945-0.829-1.864-1.815-2.497-2.911c-1.467-2.54-1.223-7.193,2.734-6.824c0.021,0.274,0.206,0.524,0.584,0.526
		c3.354,0.018,6.064,1.104,8.484,3.448C110.738,35.248,113.621,40.891,108.02,42.14z"/>
	<path style="fill:#e2efb2;" d="M104.744,25.577c-3.082-1.217-7.599-1.245-10.072,1.271c-2.753,2.801-1.884,7.244-0.497,10.484
		c0.122,0.284,0.576,0.08,0.493-0.208c-0.927-3.264-2.011-7.434,1.052-9.954c2.546-2.094,5.875-1.308,8.821-0.86
		C105.025,26.383,105.202,25.758,104.744,25.577z"/>
	<path style="fill:#e2efb2;" d="M115.899,39.549c-0.095-0.762-1.301-0.782-1.215,0c0.311,2.832-0.271,5.489-3.342,6.417
		c-2.505,0.756-5.094-0.156-7.487-0.887c-0.413-0.126-0.561,0.484-0.175,0.635c2.902,1.134,6.307,2.239,9.286,0.708
		C115.608,45.064,116.247,42.324,115.899,39.549z"/>
	<path style="fill:#e2efb2;" d="M116.718,74.499c-0.073-0.128-0.23-0.204-0.408-0.109c-6.423,3.428-11.017,10.058-11.879,17.33
		c-0.647,5.46,2.341,10.401,8.409,9.041c6.203-1.391,11.751-10.068,12.703-15.943C126.452,79.207,122.784,73.24,116.718,74.499z
		 M120.957,91.727c-1.049,1.609-2.204,3.321-3.564,4.686c-1.185,1.296-2.616,2.265-4.295,2.907c-1.952,0.846-3.55,0.326-4.792-1.559
		c-3.302-2.524-3.094-4.57-2.127-8.509c0.441-1.796,1.123-3.536,1.99-5.168c1.881-3.541,4.619-6.319,7.8-8.679
		c0.119,0.202,0.343,0.349,0.638,0.304C127.53,74.041,124.056,86.975,120.957,91.727z"/>
	<path style="fill:#e2efb2;" d="M110.311,75.335c-0.251,0.329,0.293,0.738,0.57,0.44c6.003-6.464,16.347-3.643,17.321,5.436
		c0.078,0.726,1.214,0.75,1.156,0C128.593,71.405,116.398,67.359,110.311,75.335z"/>
	<path style="fill:#e2efb2;" d="M126.289,91.452c-2.977,4.149-5.913,8.908-10.522,11.304c-5.662,2.944-13.434-1.333-14.542-7.623
		c-0.061-0.345-0.633-0.267-0.613,0.083c0.343,5.975,5.993,9.103,11.439,9.768c6.936,0.847,12.01-7.851,15.208-12.965
		C127.647,91.395,126.702,90.876,126.289,91.452z"/>
	<path style="fill:#e2efb2;" d="M66.484,66.314c-0.175-0.057-0.321,0-0.422,0.104c-2.368-0.366-4.826,1.127-5.449,3.507
		c-0.681,2.603,1.007,5.532,3.586,6.284c2.728,0.796,5.993-0.776,6.861-3.536C72.034,69.576,69.132,67.176,66.484,66.314z
		 M64.944,75.166c-2.049-0.388-3.508-2.287-3.418-4.385c0.101-2.357,2.368-3.8,4.541-3.692c0.022,0.02,0.039,0.043,0.066,0.059
		c1.541,0.925,3.476,1.771,3.886,3.712C70.602,73.618,67.344,75.62,64.944,75.166z"/>
	<path style="fill:#e2efb2;" d="M61.422,77.749c-3.664-1.961-3.979-6.156-1.318-9.122c0.345-0.385-0.171-0.885-0.561-0.561
		c-3.504,2.916-2.334,8.329,1.619,10.127C61.458,78.328,61.719,77.908,61.422,77.749z"/>
	<path style="fill:#e2efb2;" d="M68.989,64.717c-0.295-0.032-0.367,0.477-0.071,0.522c4.001,0.608,5.687,4.292,4.448,7.922
		c-0.169,0.496,0.629,0.844,0.856,0.361C76.105,69.518,73.195,65.17,68.989,64.717z"/>
	<path style="fill:#e2efb2;" d="M59.688,28.696c-0.579-0.061-0.718,0.884-0.174,1.03c-6.546-1.119-13.012,1.611-16.153,7.723
		c-2.895,5.632,0.649,9.968,6.661,10.704c5.527,0.677,14.379-2.412,16.801-7.823C69.277,34.848,65.316,29.291,59.688,28.696z
		 M64.346,41.752c-2.552,2.885-7.778,4.743-11.451,5.055c-1.39,0.237-2.777,0.165-4.159-0.214c-2.312-0.24-3.573-1.547-3.782-3.92
		c-1.429-3.368-0.908-4.635,1.326-7.305c3.513-4.2,8.635-5.683,13.98-4.8c0.341,0.056,0.529-0.33,0.374-0.544
		C65.532,31.631,68.249,37.34,64.346,41.752z"/>
	<path style="fill:#e2efb2;" d="M55.572,26.989c-9.023,1.804-20.011,11.143-13.346,20.997c0.202,0.299,0.665,0.037,0.488-0.285
		c-2.587-4.715-1.549-10.485,2.244-14.275c3.024-3.022,6.833-4.41,10.836-5.632C56.312,27.636,56.097,26.884,55.572,26.989z"/>
	<path style="fill:#e2efb2;" d="M62.367,27.184c-0.313-0.046-0.46,0.41-0.135,0.488c8.087,1.95,11.5,10.467,6.871,17.442
		c-0.327,0.493,0.441,0.912,0.78,0.456C75.119,38.5,71.106,28.47,62.367,27.184z"/>
	<path style="fill:#e2efb2;" d="M25.702,65.699c-4.502-0.075-3.821,12.957,3.333,10.862C35.612,74.634,31.57,62.627,25.702,65.699z
		 M29.357,75.295c-2.232,1.244-4.702-0.427-5.452-2.648c-0.5-1.48-0.567-5.48,1.33-6.408c0.037,0.222,0.262,0.42,0.538,0.381
		c2.462-0.35,4.644,0.416,5.424,3.012C31.796,71.624,31.269,74.229,29.357,75.295z"/>
	<path style="fill:#e2efb2;" d="M25.997,63.088c-2.989,0.03-5.147,3.381-4.049,6.124c0.092,0.231,0.458,0.145,0.383-0.105
		c-0.742-2.463,1.133-5.064,3.667-5.251C26.484,63.819,26.497,63.082,25.997,63.088z"/>
	<path style="fill:#e2efb2;" d="M32.508,76.431c-2.161,2.267-5.052,3.354-8.038,1.88c-0.352-0.174-0.661,0.337-0.311,0.532
		c2.904,1.616,7.189,1.104,9.118-1.819C33.584,76.559,32.889,76.031,32.508,76.431z"/>
</g>
</svg>
