<?xml version="1.0" encoding="iso-8859-1"?>
<!-- Generator: Adobe Illustrator 23.0.3, SVG Export Plug-In . SVG Version: 6.00 Build 0)  -->
<svg version="1.1" id="OBJECTS" xmlns="http://www.w3.org/2000/svg" xmlns:xlink="http://www.w3.org/1999/xlink" x="0px" y="0px"
	 viewBox="0 0 90.175 87.768" style="enable-background:new 0 0 90.175 87.768;" xml:space="preserve">
<g>
	<path style="fill:#222221;" d="M78.394,39.656c7.079-9.931,14.788-22.929,10.59-34.408c-5.273-14.419-26.657,4.8-32.121,10.836
		c-12.378-5.771-27.806-5.324-38.4,4.261c-7.27,6.577-8.987,18.533-7.296,27.736c0.545,2.968,1.507,5.868,2.817,8.607
		c-0.097,0.017-0.194,0.053-0.283,0.136C7.364,62.751-7.238,77.254,4.317,85.419c5.402,3.818,12.67,2.241,18.508,0.447
		c6.096-1.873,11.83-4.758,17.2-8.185c22.073,2.818,40.106-16.013,38.458-37.746C78.474,39.826,78.44,39.735,78.394,39.656z
		 M43.368,13.803c2.215,5.298,0.731,13.821-3.515,17.758c-3.777,3.502-8.598,4.229-13.07,2.938c3.339,0.463,6.884-0.858,9.277-3.822
		c3.748-4.642,4.15-12.451-0.253-16.724C38.302,13.629,40.841,13.589,43.368,13.803z M34.636,14.123
		c9.946,8.376-2.825,26.523-13.771,16.819c-1.213-3.212,0.038-6.338,2.736-8.486c1.369-1.09,3.053-2.051,4.857-1.858
		c2.84,0.304,4.148,3.071,3.319,5.63c-0.094,0.288,0.198,0.441,0.418,0.358c-0.035,0.039-0.066,0.08-0.102,0.119
		c-0.104,0.111,0.032,0.31,0.169,0.219c2.517-1.681,2.499-5.269,0.686-7.474c-1.873-2.279-4.791-2.807-7.527-2.296
		C28.326,15.649,31.438,14.653,34.636,14.123z M23.047,18.58c0.031-0.021,0.05-0.048,0.073-0.073
		c2.812-0.864,5.879-1.235,8.365,0.677c2.417,1.86,2.765,4.86,0.921,7.156c1.777-4.664-3.085-7.794-7.157-5.771
		c-3.947,1.961-7.191,6.936-4.61,11.197c0.101,0.167,0.271,0.149,0.381,0.055c5.309,4.798,13.134,5.751,18.902,0.959
		c4.844-4.024,6.927-13.04,4.446-18.885c0.884,0.099,1.765,0.226,2.642,0.387c-0.057,0.092-0.088,0.205-0.062,0.338
		c1.274,6.504-0.113,13.259-3.833,18.57c-0.06-0.072-0.156-0.109-0.247-0.041c-4.656,3.53-10.287,5.228-16.113,3.936
		c-3.192-0.708-7.062-2.488-8.609-5.529C15.458,26.277,18.706,21.53,23.047,18.58z M15.204,26.773
		c0.534-1.005,1.14-1.963,1.82-2.863c-1.735,3.909-1.019,8.42,3.363,11.645c6.612,4.867,16.11,3.707,22.098-1.523
		c-1.168,1.515-2.525,2.905-4.087,4.111c-4.284,3.306-9.926,5.199-15.309,3.754C16.043,40.006,12.61,33.38,15.204,26.773z
		 M13.401,31.135c-0.129,3.07,1.136,6.164,3.509,8.423c4.207,4.003,10.425,4.521,15.733,2.708
		c11.359-3.879,17.454-16.378,15.208-27.823c2.83,0.585,5.597,1.495,8.225,2.693C59.136,39.5,32.653,62.646,12.511,47.411
		C11.625,42.257,11.774,36.377,13.401,31.135z M12.906,49.391c-0.076-0.326-0.132-0.668-0.2-1.001
		c19.577,15.135,48.151-8.238,44.399-30.77c2.475,1.217,4.808,2.7,6.931,4.421c-0.199-0.006-0.388,0.116-0.362,0.373
		c1.192,11.812-7.591,22.056-17.557,27.214c-10.479,5.423-22.089,5.122-32.888,0.997C13.116,50.216,13.003,49.808,12.906,49.391z
		 M60.719,18.15c1.253-0.779,2.497-1.572,3.823-2.226c1.414-0.697,4.724-2.355,6.394-1.5c2.257,1.156,2.169,4.201,1.953,6.324
		c-0.236,2.317-0.982,4.427-2.002,6.491C68.148,23.605,64.656,20.542,60.719,18.15z M70.301,28.358
		c-2.57,5.533-5.858,10.619-9.671,15.305c3.605-5.302,6.118-11.427,7.18-18.035c0.712,0.784,1.395,1.593,2.022,2.446
		C69.959,28.246,70.128,28.334,70.301,28.358z M13.41,51.275c10.747,5.039,23.455,4.532,33.886-1.143
		c10-5.441,18.538-15.793,17.162-27.719c-0.001-0.008-0.006-0.014-0.007-0.021c0.92,0.77,1.795,1.59,2.627,2.448
		c-3.539,23.894-24.462,39.113-48.045,37.231C16.553,58.883,14.613,55.308,13.41,51.275z M19.557,62.722
		c10.911,1.401,21.368-1.609,29.788-7.556c-6.725,5.674-14.163,10.246-21.12,15.606C24.958,68.405,22.016,65.739,19.557,62.722z
		 M27.298,71.319c-3.628,2.039-8.344,4.166-12.227,1.503c-4.843-3.322-1.345-8.463,1.273-11.951
		c0.304,0.461,0.623,0.912,0.948,1.358c0.011,0.058,0.041,0.1,0.092,0.132C20.048,65.981,23.406,69.077,27.298,71.319z
		 M26.523,83.239c-7.183,2.792-21.982,7.113-24.857-3.588c-2.317-8.625,7.264-16.85,12.79-22.009
		c0.424,0.824,0.875,1.634,1.363,2.422c-0.02,0.013-0.042,0.02-0.06,0.037c-3.557,3.317-6.697,8.833-2.534,12.941
		c4.215,4.16,10.793,1.802,15.054-0.93c0.215-0.138,0.284-0.342,0.265-0.537c17.777-9.173,34.931-24.861,43.198-43.118
		c0.037-0.081,0.053-0.16,0.06-0.237c1.935-3.432,4.498-11.037,0.971-14.198c-3.466-3.107-10.028,0.952-12.763,3.695
		c-0.725-0.42-1.466-0.814-2.218-1.188c5.383-5.075,11.083-9.754,17.723-13.121c1.861-0.944,2.949-1.496,4.065-1.626
		c0.772-0.263,1.582-0.399,2.386-0.371c2.245,0.079,4.131,1.388,5.19,3.247c0.945,1.063,1.195,2.463,1.453,4.787
		c0.473,4.253-0.435,8.353-1.92,12.319c-3.072,8.203-7.942,16.038-13.518,23.224c-0.097,0.055-0.169,0.143-0.203,0.264
		c-3.533,4.528-7.34,8.798-11.155,12.729C51.813,68.291,40.032,77.988,26.523,83.239z M49.01,71.248
		c9.501-1.92,19.482-7.758,19.429-18.654c0-0.029-0.011-0.05-0.016-0.076c1.515-1.776,3.002-3.573,4.427-5.416
		C71.598,62.957,58.436,73.123,43.363,75.46c0.059-0.041,0.12-0.08,0.179-0.122C45.406,74.032,47.219,72.655,49.01,71.248z
		 M50.223,70.282c6.221-5.013,11.981-10.609,17.233-16.639C66.765,62.967,58.624,68.094,50.223,70.282z M41.178,76.945
		c0.33-0.217,0.652-0.444,0.979-0.665c16.604-1.164,31.038-13.338,31.717-30.504c0.238-0.315,0.489-0.622,0.725-0.939
		c0.865-1.165,1.785-2.404,2.727-3.7C78.658,61.889,61.549,77.799,41.178,76.945z"/>
</g>
</svg>
