<?xml version="1.0" encoding="iso-8859-1"?>
<!-- Generator: Adobe Illustrator 23.0.3, SVG Export Plug-In . SVG Version: 6.00 Build 0)  -->
<svg version="1.1" id="BACKGROUND2" xmlns="http://www.w3.org/2000/svg" xmlns:xlink="http://www.w3.org/1999/xlink" x="0px"
	 y="0px" viewBox="0 0 57.16 55.749" style="enable-background:new 0 0 57.16 55.749;" xml:space="preserve">
<g>
	<radialGradient id="SVGID_1_" cx="16.4532" cy="9.144" r="61.1603" gradientUnits="userSpaceOnUse">
		<stop  offset="0.0815" style="stop-color:#DFAB45"/>
		<stop  offset="1" style="stop-color:#E64A24"/>
	</radialGradient>
	<path style="fill:url(#SVGID_1_);" d="M30.464,1.073C20.944,3.516,7.836,5.719,2.573,15.077C0.452,18.849,0.319,28.476,2.36,32.23
		c0.869,1.598,2.368,2.746,3.5,4.171c2.8,3.525,3.15,8.435,5.515,12.265c3.566,5.777,11.255,7.986,17.931,6.753
		c6.676-1.233,12.488-5.271,17.633-9.701c5.017-4.318,9.925-9.753,10.211-16.366c0.139-3.216-0.898-6.47-2.873-9.013
		c-1.37-1.764-3.159-3.18-4.438-5.01c-3.102-4.437-3.131-11.103-7.693-14.017C38.763-0.849,34.351,0.075,30.464,1.073z"/>
	<radialGradient id="SVGID_2_" cx="17.0118" cy="6.0357" r="49.9975" gradientUnits="userSpaceOnUse">
		<stop  offset="0.0815" style="stop-color:#DFAB45"/>
		<stop  offset="0.8556" style="stop-color:#DFAB45;stop-opacity:0"/>
	</radialGradient>
	<path style="opacity:0.5;fill:url(#SVGID_2_);" d="M28.922,4.436c3.887-0.998,8.299-1.922,11.681,0.239
		c4.562,2.915,4.591,9.58,7.693,14.017c1.279,1.83,3.069,3.247,4.438,5.01c1.975,2.542,3.012,5.797,2.873,9.013
		c-0.061,1.419-0.346,2.781-0.789,4.093c1.332-2.296,2.215-4.778,2.33-7.457c0.139-3.216-0.898-6.47-2.873-9.013
		c-1.37-1.764-3.159-3.18-4.438-5.01c-3.102-4.437-3.131-11.103-7.693-14.017c-3.382-2.161-7.794-1.236-11.681-0.239
		C20.944,3.516,7.836,5.719,2.573,15.077c-0.358,0.637-0.654,1.45-0.898,2.363C7.29,8.937,19.758,6.788,28.922,4.436z"/>
	<radialGradient id="SVGID_3_" cx="29.8314" cy="8.3658" r="51.0971" gradientUnits="userSpaceOnUse">
		<stop  offset="0.0815" style="stop-color:#DFAB45"/>
		<stop  offset="0.8556" style="stop-color:#DFAB45;stop-opacity:0"/>
	</radialGradient>
	<path style="opacity:0.5;fill:url(#SVGID_3_);" d="M46.926,11.629c-0.942-1.213-2.173-2.188-3.053-3.447
		c-1.589-2.274-2.007-5.397-3.414-7.672c-3.087-1.056-6.725-0.277-9.994,0.562C24.859,2.511,18.019,3.878,12.26,6.66
		c-0.326,0.427-0.634,0.87-0.903,1.35c-1.459,2.595-1.551,9.218-0.147,11.8c0.598,1.1,1.629,1.889,2.408,2.869
		c1.926,2.425,2.167,5.803,3.794,8.438c2.453,3.974,7.743,5.494,12.336,4.646c4.593-0.848,8.591-3.627,12.131-6.673
		c3.451-2.971,6.828-6.709,7.024-11.259C48.998,15.617,48.284,13.378,46.926,11.629z"/>
	<radialGradient id="SVGID_4_" cx="16.4532" cy="19.369" r="53.9602" gradientUnits="userSpaceOnUse">
		<stop  offset="0.0815" style="stop-color:#DFAB45"/>
		<stop  offset="1" style="stop-color:#E64A24"/>
	</radialGradient>
	<path style="opacity:0.5;fill:url(#SVGID_4_);" d="M54.277,20.339c-0.011-0.014-0.024-0.026-0.034-0.04
		c-0.947,5.069-4.851,9.304-8.842,12.739c-4.564,3.928-9.719,7.511-15.641,8.604c-5.922,1.094-12.742-0.865-15.905-5.99
		c-2.097-3.398-2.408-7.753-4.891-10.879c-1.004-1.264-2.333-2.281-3.104-3.699c-1.032-1.899-1.435-5.49-1.244-8.848
		c-0.762,0.873-1.457,1.811-2.041,2.85C0.452,18.849,0.319,28.476,2.36,32.23c0.869,1.598,2.368,2.746,3.5,4.171
		c2.8,3.525,3.15,8.435,5.514,12.265c3.566,5.777,11.255,7.986,17.931,6.753s12.488-5.271,17.633-9.701
		c5.017-4.318,9.925-9.753,10.211-16.366C57.289,26.136,56.251,22.881,54.277,20.339z"/>
	<radialGradient id="SVGID_5_" cx="16.4544" cy="23.7971" r="51.1454" gradientUnits="userSpaceOnUse">
		<stop  offset="0.0815" style="stop-color:#DFAB45"/>
		<stop  offset="1" style="stop-color:#E64A24"/>
	</radialGradient>
	<path style="opacity:0.5;fill:url(#SVGID_5_);" d="M47.646,40.768c-5.146,4.429-10.957,8.468-17.633,9.701
		s-14.365-0.976-17.931-6.753c-2.364-3.83-2.715-8.741-5.514-12.265c-1.132-1.425-2.63-2.572-3.5-4.171
		c-1.141-2.099-1.602-6.034-1.416-9.756C0.476,22.03,0.674,29.129,2.36,32.23c0.869,1.598,2.368,2.746,3.5,4.171
		c2.8,3.525,3.15,8.435,5.514,12.265c3.566,5.777,11.255,7.986,17.931,6.753s12.488-5.271,17.633-9.701
		c5.017-4.318,9.925-9.753,10.211-16.366c0.016-0.363,0.012-0.726-0.002-1.088C55.576,33.163,51.65,37.322,47.646,40.768z"/>
	<radialGradient id="SVGID_6_" cx="19.8208" cy="13.4905" r="50.5607" gradientUnits="userSpaceOnUse">
		<stop  offset="0.0815" style="stop-color:#DFAB45"/>
		<stop  offset="1" style="stop-color:#E64A24"/>
	</radialGradient>
	<path style="fill:url(#SVGID_6_);" d="M16.17,19.557c0,2.6-2.108,4.708-4.708,4.708s-4.708-2.108-4.708-4.708
		s2.108-4.708,4.708-4.708S16.17,16.957,16.17,19.557z M13.522,34.072c-1.462,0-2.648,1.186-2.648,2.648
		c0,1.463,1.186,2.648,2.648,2.648c1.463,0,2.648-1.186,2.648-2.648C16.17,35.257,14.984,34.072,13.522,34.072z M29.704,13.084
		c-3.792,0-6.865,3.074-6.865,6.865s3.074,6.865,6.865,6.865s6.865-3.074,6.865-6.865S33.496,13.084,29.704,13.084z M29.606,36.033
		c-1.571,0-2.844,1.273-2.844,2.844c0,1.571,1.273,2.844,2.844,2.844c1.571,0,2.844-1.273,2.844-2.844
		C32.45,37.307,31.177,36.033,29.606,36.033z M20.681,29.168c-0.758,0-1.373,0.615-1.373,1.373c0,0.758,0.615,1.373,1.373,1.373
		c0.758,0,1.373-0.615,1.373-1.373C22.054,29.783,21.44,29.168,20.681,29.168z M22.447,43.291c-2.275,0-4.119,1.844-4.119,4.119
		c0,2.275,1.844,4.119,4.119,4.119c2.275,0,4.119-1.844,4.119-4.119C26.566,45.135,24.722,43.291,22.447,43.291z M39.708,29.168
		c-0.65,0-1.177,0.527-1.177,1.177c0,0.65,0.527,1.177,1.177,1.177c0.65,0,1.177-0.527,1.177-1.177
		C40.885,29.695,40.358,29.168,39.708,29.168z M50.79,29.757c-1.787,0-3.236,1.449-3.236,3.236c0,1.787,1.449,3.236,3.236,3.236
		c1.787,0,3.236-1.449,3.236-3.236C54.026,31.206,52.577,29.757,50.79,29.757z M34.902,6.023c-1.462,0-2.648,1.186-2.648,2.648
		c0,1.462,1.186,2.648,2.648,2.648c1.462,0,2.648-1.186,2.648-2.648C37.55,7.208,36.365,6.023,34.902,6.023z M43.14,18.576
		c-1.462,0-2.648,1.185-2.648,2.648c0,1.462,1.186,2.648,2.648,2.648c1.463,0,2.648-1.186,2.648-2.648
		C45.788,19.762,44.603,18.576,43.14,18.576z M21.074,10.338c-1.408,0-2.55,1.142-2.55,2.55s1.142,2.55,2.55,2.55
		s2.55-1.142,2.55-2.55S22.482,10.338,21.074,10.338z M42.944,9.75c-0.596,0-1.079,0.483-1.079,1.079
		c0,0.596,0.483,1.079,1.079,1.079c0.596,0,1.079-0.483,1.079-1.079C44.023,10.233,43.54,9.75,42.944,9.75z M40.296,37.995
		c-1.3,0-2.354,1.054-2.354,2.354c0,1.3,1.054,2.354,2.354,2.354c1.3,0,2.354-1.054,2.354-2.354
		C42.65,39.049,41.596,37.995,40.296,37.995z"/>
	<g>
		<radialGradient id="SVGID_7_" cx="28.2195" cy="36.9327" r="5.8928" gradientUnits="userSpaceOnUse">
			<stop  offset="0.0815" style="stop-color:#DFAB45"/>
			<stop  offset="1" style="stop-color:#E64A24"/>
		</radialGradient>
		<path style="fill:url(#SVGID_7_);" d="M29.606,36.033c-1.571,0-2.844,1.273-2.844,2.844c0,1.197,0.741,2.217,1.788,2.636
			c-0.258-0.428-0.415-0.924-0.415-1.459c0-1.571,1.273-2.844,2.844-2.844c0.374,0,0.729,0.076,1.056,0.208
			C31.538,36.592,30.641,36.033,29.606,36.033z"/>
		<radialGradient id="SVGID_8_" cx="42.4617" cy="10.1036" r="2.3576" gradientUnits="userSpaceOnUse">
			<stop  offset="0.0815" style="stop-color:#DFAB45"/>
			<stop  offset="1" style="stop-color:#E64A24"/>
		</radialGradient>
		<path style="fill:url(#SVGID_8_);" d="M42.944,11.907c0.116,0,0.222-0.032,0.327-0.066c0.064-0.403,0.338-0.725,0.718-0.848
			c0.009-0.056,0.033-0.106,0.033-0.164c0-0.596-0.483-1.079-1.079-1.079c-0.596,0-1.079,0.483-1.079,1.079
			C41.865,11.424,42.348,11.907,42.944,11.907z"/>
		<radialGradient id="SVGID_9_" cx="26.1465" cy="15.1558" r="13.4919" gradientUnits="userSpaceOnUse">
			<stop  offset="0.0815" style="stop-color:#DFAB45"/>
			<stop  offset="1" style="stop-color:#E64A24"/>
		</radialGradient>
		<path style="fill:url(#SVGID_9_);" d="M24.666,15.297c-0.147,0.264-0.337,0.497-0.564,0.693c-0.793,1.119-1.263,2.483-1.263,3.959
			c0,2.416,1.251,4.536,3.137,5.76c-1.093-1.216-1.764-2.819-1.764-4.583c0-3.792,3.074-6.865,6.865-6.865
			c1.376,0,2.654,0.409,3.728,1.106c-1.257-1.398-3.074-2.283-5.101-2.283C27.71,13.084,25.921,13.939,24.666,15.297z"/>
		<radialGradient id="SVGID_10_" cx="33.6205" cy="6.8632" r="5.5139" gradientUnits="userSpaceOnUse">
			<stop  offset="0.0815" style="stop-color:#DFAB45"/>
			<stop  offset="1" style="stop-color:#E64A24"/>
		</radialGradient>
		<path style="fill:url(#SVGID_10_);" d="M33.98,11.144c-0.218-0.385-0.352-0.823-0.352-1.297c0-1.462,1.186-2.648,2.648-2.648
			c0.326,0,0.634,0.067,0.923,0.174c-0.455-0.803-1.307-1.351-2.296-1.351c-1.462,0-2.648,1.186-2.648,2.648
			C32.254,9.807,32.974,10.769,33.98,11.144z"/>
		<radialGradient id="SVGID_11_" cx="41.8587" cy="19.4166" r="5.5139" gradientUnits="userSpaceOnUse">
			<stop  offset="0.0815" style="stop-color:#DFAB45"/>
			<stop  offset="1" style="stop-color:#E64A24"/>
		</radialGradient>
		<path style="fill:url(#SVGID_11_);" d="M42.218,23.698c-0.218-0.385-0.352-0.823-0.352-1.297c0-1.462,1.186-2.648,2.648-2.648
			c0.326,0,0.634,0.067,0.923,0.174c-0.455-0.803-1.307-1.351-2.296-1.351c-1.462,0-2.648,1.186-2.648,2.648
			C40.492,22.361,41.212,23.322,42.218,23.698z"/>
		<radialGradient id="SVGID_12_" cx="39.1814" cy="29.5544" r="2.572" gradientUnits="userSpaceOnUse">
			<stop  offset="0.0815" style="stop-color:#DFAB45"/>
			<stop  offset="1" style="stop-color:#E64A24"/>
		</radialGradient>
		<path style="fill:url(#SVGID_12_);" d="M38.531,30.345c0,0.65,0.527,1.177,1.177,1.177c0.073,0,0.136-0.029,0.205-0.041
			c0.02-0.558,0.429-0.997,0.964-1.094c0-0.015,0.008-0.027,0.008-0.041c0-0.65-0.527-1.177-1.177-1.177
			C39.058,29.168,38.531,29.695,38.531,30.345z"/>
		<radialGradient id="SVGID_13_" cx="12.2404" cy="34.9123" r="5.5139" gradientUnits="userSpaceOnUse">
			<stop  offset="0.0815" style="stop-color:#DFAB45"/>
			<stop  offset="1" style="stop-color:#E64A24"/>
		</radialGradient>
		<path style="fill:url(#SVGID_13_);" d="M12.247,37.897c0-1.462,1.186-2.648,2.648-2.648c0.326,0,0.634,0.067,0.923,0.174
			c-0.455-0.803-1.307-1.351-2.296-1.351c-1.462,0-2.648,1.186-2.648,2.648c0,1.137,0.72,2.098,1.725,2.473
			C12.382,38.809,12.247,38.37,12.247,37.897z"/>
		<radialGradient id="SVGID_14_" cx="39.172" cy="38.7469" r="4.9455" gradientUnits="userSpaceOnUse">
			<stop  offset="0.0815" style="stop-color:#DFAB45"/>
			<stop  offset="1" style="stop-color:#E64A24"/>
		</radialGradient>
		<path style="fill:url(#SVGID_14_);" d="M39.315,41.525c0-1.3,1.054-2.354,2.354-2.354c0.254,0,0.493,0.05,0.722,0.125
			c-0.387-0.769-1.175-1.301-2.095-1.301c-1.3,0-2.354,1.054-2.354,2.354c0,1.047,0.688,1.923,1.632,2.229
			C39.414,42.26,39.315,41.906,39.315,41.525z"/>
		<radialGradient id="SVGID_15_" cx="20.0619" cy="29.6188" r="2.9915" gradientUnits="userSpaceOnUse">
			<stop  offset="0.0815" style="stop-color:#DFAB45"/>
			<stop  offset="1" style="stop-color:#E64A24"/>
		</radialGradient>
		<path style="fill:url(#SVGID_15_);" d="M19.308,30.541c0,0.758,0.615,1.373,1.373,1.373c0.007,0,0.013-0.002,0.02-0.002
			c-0.009-0.064-0.02-0.128-0.02-0.194c0-0.752,0.604-1.361,1.353-1.371c-0.095-0.666-0.662-1.179-1.353-1.179
			C19.923,29.168,19.308,29.783,19.308,30.541z"/>
		<radialGradient id="SVGID_16_" cx="49.1967" cy="30.7704" r="6.6425" gradientUnits="userSpaceOnUse">
			<stop  offset="0.0815" style="stop-color:#DFAB45"/>
			<stop  offset="1" style="stop-color:#E64A24"/>
		</radialGradient>
		<path style="fill:url(#SVGID_16_);" d="M48.927,34.17c0-1.787,1.449-3.236,3.236-3.236c0.478,0,0.927,0.11,1.335,0.295
			c-0.578-0.885-1.573-1.472-2.708-1.472c-1.787,0-3.236,1.449-3.236,3.236c0,1.31,0.782,2.432,1.901,2.941
			C49.123,35.426,48.927,34.822,48.927,34.17z"/>
		<radialGradient id="SVGID_17_" cx="20.3784" cy="44.5607" r="8.3085" gradientUnits="userSpaceOnUse">
			<stop  offset="0.0815" style="stop-color:#DFAB45"/>
			<stop  offset="1" style="stop-color:#E64A24"/>
		</radialGradient>
		<path style="fill:url(#SVGID_17_);" d="M19.701,48.587c0-2.275,1.844-4.119,4.119-4.119c0.7,0,1.35,0.191,1.927,0.5
			c-0.75-1.012-1.944-1.677-3.3-1.677c-2.275,0-4.119,1.844-4.119,4.119c0,1.575,0.893,2.926,2.192,3.619
			C20.011,50.345,19.701,49.505,19.701,48.587z"/>
		<radialGradient id="SVGID_18_" cx="9.0731" cy="16.2914" r="9.4176" gradientUnits="userSpaceOnUse">
			<stop  offset="0.0815" style="stop-color:#DFAB45"/>
			<stop  offset="1" style="stop-color:#E64A24"/>
		</radialGradient>
		<path style="fill:url(#SVGID_18_);" d="M8.128,20.734c0-2.6,2.108-4.708,4.707-4.708c0.843,0,1.622,0.24,2.307,0.628
			c-0.862-1.091-2.181-1.804-3.68-1.804c-2.6,0-4.708,2.108-4.708,4.708c0,1.757,0.974,3.271,2.401,4.08
			C8.522,22.835,8.128,21.835,8.128,20.734z"/>
		<radialGradient id="SVGID_19_" cx="19.8446" cy="11.149" r="5.3244" gradientUnits="userSpaceOnUse">
			<stop  offset="0.0815" style="stop-color:#DFAB45"/>
			<stop  offset="1" style="stop-color:#E64A24"/>
		</radialGradient>
		<path style="fill:url(#SVGID_19_);" d="M20.218,15.28c-0.198-0.363-0.321-0.773-0.321-1.215c0-1.408,1.142-2.55,2.55-2.55
			c0.302,0,0.587,0.062,0.856,0.158c-0.433-0.792-1.263-1.335-2.229-1.335c-1.408,0-2.55,1.142-2.55,2.55
			C18.524,13.994,19.233,14.927,20.218,15.28z"/>
	</g>
	<radialGradient id="SVGID_20_" cx="31.0395" cy="29.8156" r="2.8391" gradientUnits="userSpaceOnUse">
		<stop  offset="0.0815" style="stop-color:#DFAB45"/>
		<stop  offset="1" style="stop-color:#E64A24"/>
	</radialGradient>
	<circle style="opacity:0.5;fill:url(#SVGID_20_);" cx="31.62" cy="30.688" r="1.299"/>
	<radialGradient id="SVGID_21_" cx="35.55" cy="34.7863" r="1.3361" gradientUnits="userSpaceOnUse">
		<stop  offset="0.0815" style="stop-color:#DFAB45"/>
		<stop  offset="1" style="stop-color:#E64A24"/>
	</radialGradient>
	<path style="opacity:0.5;fill:url(#SVGID_21_);" d="M36.435,35.197c0,0.338-0.274,0.611-0.611,0.611
		c-0.338,0-0.611-0.274-0.611-0.611c0-0.338,0.274-0.611,0.611-0.611C36.161,34.586,36.435,34.859,36.435,35.197z"/>
	<radialGradient id="SVGID_22_" cx="34.5708" cy="43.3655" r="3.5071" gradientUnits="userSpaceOnUse">
		<stop  offset="0.0815" style="stop-color:#DFAB45"/>
		<stop  offset="1" style="stop-color:#E64A24"/>
	</radialGradient>
	<path style="opacity:0.5;fill:url(#SVGID_22_);" d="M36.893,44.444c0,0.886-0.719,1.605-1.605,1.605s-1.605-0.719-1.605-1.605
		s0.718-1.605,1.605-1.605S36.893,43.557,36.893,44.444z"/>
	<radialGradient id="SVGID_23_" cx="31.7291" cy="49.7642" r="1.336" gradientUnits="userSpaceOnUse">
		<stop  offset="0.0815" style="stop-color:#DFAB45"/>
		<stop  offset="1" style="stop-color:#E64A24"/>
	</radialGradient>
	<path style="opacity:0.5;fill:url(#SVGID_23_);" d="M32.614,50.175c0,0.338-0.274,0.611-0.611,0.611
		c-0.338,0-0.611-0.274-0.611-0.611s0.274-0.611,0.611-0.611C32.34,49.564,32.614,49.837,32.614,50.175z"/>
	<radialGradient id="SVGID_24_" cx="44.8468" cy="38.5296" r="1.8371" gradientUnits="userSpaceOnUse">
		<stop  offset="0.0815" style="stop-color:#DFAB45"/>
		<stop  offset="1" style="stop-color:#E64A24"/>
	</radialGradient>
	<circle style="opacity:0.5;fill:url(#SVGID_24_);" cx="45.223" cy="39.094" r="0.841"/>
	<radialGradient id="SVGID_25_" cx="23.3554" cy="37.5851" r="2.6721" gradientUnits="userSpaceOnUse">
		<stop  offset="0.0815" style="stop-color:#DFAB45"/>
		<stop  offset="1" style="stop-color:#E64A24"/>
	</radialGradient>
	<circle style="opacity:0.5;fill:url(#SVGID_25_);" cx="23.902" cy="38.407" r="1.223"/>
	<radialGradient id="SVGID_26_" cx="18.5753" cy="23.4993" r="2.5051" gradientUnits="userSpaceOnUse">
		<stop  offset="0.0815" style="stop-color:#DFAB45"/>
		<stop  offset="1" style="stop-color:#E64A24"/>
	</radialGradient>
	<path style="opacity:0.5;fill:url(#SVGID_26_);" d="M20.234,24.269c0,0.633-0.513,1.146-1.146,1.146
		c-0.633,0-1.146-0.513-1.146-1.146c0-0.633,0.513-1.146,1.146-1.146C19.721,23.123,20.234,23.636,20.234,24.269z"/>
	<radialGradient id="SVGID_27_" cx="25.8791" cy="10.4604" r="1.169" gradientUnits="userSpaceOnUse">
		<stop  offset="0.0815" style="stop-color:#DFAB45"/>
		<stop  offset="1" style="stop-color:#E64A24"/>
	</radialGradient>
	<path style="opacity:0.5;fill:url(#SVGID_27_);" d="M26.653,10.82c0,0.295-0.24,0.535-0.535,0.535c-0.295,0-0.535-0.24-0.535-0.535
		c0-0.295,0.24-0.535,0.535-0.535C26.414,10.285,26.653,10.524,26.653,10.82z"/>
	<radialGradient id="SVGID_28_" cx="26.022" cy="5.5925" r="2.3381" gradientUnits="userSpaceOnUse">
		<stop  offset="0.0815" style="stop-color:#DFAB45"/>
		<stop  offset="1" style="stop-color:#E64A24"/>
	</radialGradient>
	<path style="opacity:0.5;fill:url(#SVGID_28_);" d="M27.57,6.311c0,0.591-0.479,1.07-1.07,1.07s-1.07-0.479-1.07-1.07
		c0-0.591,0.479-1.07,1.07-1.07S27.57,5.72,27.57,6.311z"/>
	<radialGradient id="SVGID_29_" cx="37.6636" cy="14.8401" r="1.837" gradientUnits="userSpaceOnUse">
		<stop  offset="0.0815" style="stop-color:#DFAB45"/>
		<stop  offset="1" style="stop-color:#E64A24"/>
	</radialGradient>
	<path style="opacity:0.5;fill:url(#SVGID_29_);" d="M38.88,15.405c0,0.464-0.376,0.841-0.84,0.841
		c-0.464,0-0.841-0.376-0.841-0.841c0-0.464,0.376-0.841,0.841-0.841C38.504,14.564,38.88,14.941,38.88,15.405z"/>
	<radialGradient id="SVGID_30_" cx="40.0667" cy="5.3393" r="1.67" gradientUnits="userSpaceOnUse">
		<stop  offset="0.0815" style="stop-color:#DFAB45"/>
		<stop  offset="1" style="stop-color:#E64A24"/>
	</radialGradient>
	<path style="opacity:0.5;fill:url(#SVGID_30_);" d="M41.173,5.853c0,0.422-0.342,0.764-0.764,0.764
		c-0.422,0-0.764-0.342-0.764-0.764c0-0.422,0.342-0.764,0.764-0.764C40.83,5.089,41.173,5.431,41.173,5.853z"/>
	<radialGradient id="SVGID_31_" cx="38.6228" cy="11.8085" r="2.004" gradientUnits="userSpaceOnUse">
		<stop  offset="0.0815" style="stop-color:#DFAB45"/>
		<stop  offset="1" style="stop-color:#E64A24"/>
	</radialGradient>
	<circle style="opacity:0.5;fill:url(#SVGID_31_);" cx="39.033" cy="12.425" r="0.917"/>
	<radialGradient id="SVGID_32_" cx="44.0988" cy="14.6349" r="2.505" gradientUnits="userSpaceOnUse">
		<stop  offset="0.0815" style="stop-color:#DFAB45"/>
		<stop  offset="1" style="stop-color:#E64A24"/>
	</radialGradient>
	<path style="opacity:0.5;fill:url(#SVGID_32_);" d="M45.758,15.405c0,0.633-0.513,1.146-1.146,1.146
		c-0.633,0-1.146-0.513-1.146-1.146c0-0.633,0.513-1.146,1.146-1.146C45.244,14.259,45.758,14.772,45.758,15.405z"/>
	<radialGradient id="SVGID_33_" cx="50.5079" cy="23.9805" r="3.6741" gradientUnits="userSpaceOnUse">
		<stop  offset="0.0815" style="stop-color:#DFAB45"/>
		<stop  offset="1" style="stop-color:#E64A24"/>
	</radialGradient>
	<path style="opacity:0.5;fill:url(#SVGID_33_);" d="M52.941,25.11c0,0.928-0.753,1.681-1.681,1.681
		c-0.928,0-1.681-0.753-1.681-1.681c0-0.928,0.753-1.681,1.681-1.681C52.188,23.429,52.941,24.181,52.941,25.11z"/>
	<radialGradient id="SVGID_34_" cx="39.5398" cy="25.258" r="2.004" gradientUnits="userSpaceOnUse">
		<stop  offset="0.0815" style="stop-color:#DFAB45"/>
		<stop  offset="1" style="stop-color:#E64A24"/>
	</radialGradient>
	<circle style="opacity:0.5;fill:url(#SVGID_34_);" cx="39.95" cy="25.874" r="0.917"/>
	<radialGradient id="SVGID_35_" cx="46.154" cy="27.8813" r="2.1711" gradientUnits="userSpaceOnUse">
		<stop  offset="0.0815" style="stop-color:#DFAB45"/>
		<stop  offset="1" style="stop-color:#E64A24"/>
	</radialGradient>
	<path style="opacity:0.5;fill:url(#SVGID_35_);" d="M47.592,28.549c0,0.549-0.445,0.993-0.993,0.993
		c-0.549,0-0.993-0.445-0.993-0.993c0-0.549,0.445-0.993,0.993-0.993C47.147,27.555,47.592,28,47.592,28.549z"/>
</g>
</svg>
