<?xml version="1.0" encoding="iso-8859-1"?>
<!-- Generator: Adobe Illustrator 23.0.3, SVG Export Plug-In . SVG Version: 6.00 Build 0)  -->
<svg version="1.1" id="BACKGROUND2" xmlns="http://www.w3.org/2000/svg" xmlns:xlink="http://www.w3.org/1999/xlink" x="0px"
	 y="0px" viewBox="0 0 104.994 104.906" style="enable-background:new 0 0 104.994 104.906;" xml:space="preserve">
<g>
	<g>
		
			<radialGradient id="SVGID_1_" cx="48.3184" cy="52.7339" r="52.4808" gradientTransform="matrix(0.9531 0.3028 -0.3028 0.9531 22.4128 -12.4827)" gradientUnits="userSpaceOnUse">
			<stop  offset="0.0222" style="stop-color:#E43D99"/>
			<stop  offset="0.4741" style="stop-color:#E43D99"/>
			<stop  offset="0.837" style="stop-color:#E44099;stop-opacity:0.5"/>
			<stop  offset="1" style="stop-color:#E47E99;stop-opacity:0"/>
		</radialGradient>
		<circle style="opacity:0.5;fill:url(#SVGID_1_);" cx="52.497" cy="52.409" r="52.483"/>
		
			<radialGradient id="SVGID_2_" cx="33.6522" cy="21.1366" r="88.743" gradientTransform="matrix(0.9531 0.3028 -0.3028 0.9531 22.4128 -12.4827)" gradientUnits="userSpaceOnUse">
			<stop  offset="0" style="stop-color:#D1E1EE"/>
			<stop  offset="0.337" style="stop-color:#8EE1EE"/>
			<stop  offset="0.9444" style="stop-color:#732FA4"/>
		</radialGradient>
		<circle style="fill:url(#SVGID_2_);" cx="52.497" cy="52.409" r="41.938"/>
		<path style="fill:#DFAB45;" d="M17.407,46.224C24.421,24.15,48.001,11.94,70.075,18.953c7.263,2.308,13.449,6.417,18.243,11.668
			c-5.077-8.355-13.072-14.988-23.122-18.181C43.121,5.427,19.541,17.636,12.528,39.71c-4.705,14.811-0.748,30.292,9.028,41
			C15.481,70.713,13.587,58.248,17.407,46.224z"/>
		<path style="fill:#DE007B;" d="M23.12,73.023c-10.65-20.568-2.61-45.875,17.958-56.525c6.768-3.504,14.047-4.973,21.15-4.649
			c-9.498-2.318-19.842-1.355-29.206,3.494C12.454,25.993,4.414,51.299,15.064,71.867c7.146,13.8,20.891,21.948,35.375,22.608
			C39.074,91.702,28.921,84.227,23.12,73.023z"/>
		
			<radialGradient id="SVGID_3_" cx="53.5619" cy="57.473" r="73.5746" gradientTransform="matrix(0.9531 0.3028 -0.3028 0.9531 22.4128 -12.4827)" gradientUnits="userSpaceOnUse">
			<stop  offset="0.0074" style="stop-color:#B30058"/>
			<stop  offset="1" style="stop-color:#5C2D7D"/>
		</radialGradient>
		<path style="opacity:0.4;fill:url(#SVGID_3_);" d="M91.814,37.843c-0.249,3.133-0.843,6.286-1.836,9.41
			C82.965,69.327,59.385,81.537,37.31,74.524C24.506,70.456,15.032,60.809,10.692,49.12C9.181,68.126,20.848,86.357,39.799,92.378
			c22.074,7.013,45.654-5.196,52.667-27.271C95.411,55.837,94.955,46.306,91.814,37.843z"/>
		
			<radialGradient id="SVGID_4_" cx="-330.5671" cy="-479.9926" r="73.5821" gradientTransform="matrix(0.3808 0.9246 -0.9246 0.3808 -267.6722 546.9485)" gradientUnits="userSpaceOnUse">
			<stop  offset="0.0074" style="stop-color:#B30058"/>
			<stop  offset="1" style="stop-color:#5C2D7D"/>
		</radialGradient>
		<path style="opacity:0.4;fill:url(#SVGID_4_);" d="M89.068,72.62c-2.56,1.823-5.357,3.396-8.387,4.644
			c-21.416,8.821-45.928-1.39-54.749-22.806c-5.117-12.423-3.819-25.881,2.343-36.72C12.746,28.8,6.284,49.458,13.856,67.843
			C22.677,89.26,47.189,99.47,68.605,90.649C77.599,86.945,84.606,80.468,89.068,72.62z"/>
	</g>
	<g>
		<path style="opacity:0.4;fill:#5E8DEC;" d="M82.6,23.203c-1.131,0.542-2.224,1.248-3.198,1.952
			c-6.034,4.359-12.458,8.869-19.869,9.571c-6.096,0.577-12.56-1.469-18.207,0.899c-2.256,0.946-4.192,2.54-6.432,3.522
			c-6.745,2.956-14.211-0.123-21.549-1.753c-0.291,0.761-0.567,1.531-0.817,2.317c-0.768,2.417-1.292,4.852-1.611,7.281
			c4.153,1.296,8.806,1.442,13.18,1.014c7.212-0.705,14.362-2.663,21.59-2.147c2.25,0.161,4.522,0.56,6.744,0.172
			c3.449-0.602,6.266-2.99,9.332-4.681c5.044-2.782,10.893-3.715,16.187-5.987c3.483-1.494,6.879-3.899,8.898-7.003
			C85.574,26.538,84.157,24.811,82.6,23.203z"/>
		<path style="opacity:0.4;fill:#5E8DEC;" d="M49.171,82.962c4.481-2.819,7.99-7.154,9.811-12.125
			c1.045-2.851,1.542-5.988,0.826-8.939c-0.715-2.951-2.793-5.669-5.675-6.626c-5.506-1.827-11.367,3.039-17.053,1.886
			c-1.931-0.392-3.681-1.461-5.624-1.787c-5.204-0.873-9.639,3.616-14.664,5.229c-1.707,0.548-3.516,0.728-5.301,0.58
			c0.935,4.352,2.546,8.52,4.771,12.341c2.265,0.198,4.571,0.146,6.847,0.066c3.983-0.14,8.048-0.314,11.878,0.788
			c-0.626,1.254-1.266,2.567-1.257,3.968c0.01,1.401,0.892,2.903,2.277,3.119c-1.888,2.323-4.184,4.305-6.741,5.861
			c2.232,1.484,4.633,2.769,7.187,3.823c0.077-0.098,0.153-0.199,0.233-0.294C39.856,87.042,44.976,85.6,49.171,82.962z"/>
		<path style="opacity:0.4;fill:#5E8DEC;" d="M91.254,68.404c-1.63-1.043-3.564-1.669-5.501-1.821
			c-3.422-0.268-6.827,0.716-9.99,2.049c-7.081,2.985-13.383,7.796-18.127,13.841c-2.32,2.956-4.277,6.202-6.822,8.966
			c-0.887,0.964-1.871,1.865-2.928,2.655c2.018,0.225,4.03,0.298,6.023,0.231c5.225-2.959,9.996-6.85,15.624-8.961
			c1.023-0.383,2.147-0.708,3.193-0.39c1.199,0.365,1.958,1.438,2.668,2.566C82.308,83.041,87.929,76.483,91.254,68.404z"/>
		<path style="opacity:0.4;fill:#5E8DEC;" d="M88.937,45.965c1.531-1.018,3.002-2.18,4.311-3.485
			c-0.597-2.441-1.418-4.816-2.434-7.1c-4.978,5.65-12.254,9.252-19.093,12.744c-1.501,0.766-3.026,1.564-4.196,2.777
			c-1.17,1.214-1.942,2.936-1.603,4.587c0.275,1.336,1.213,2.424,2.117,3.445c1.648,1.862,3.527,3.849,5.997,4.132
			c0.748,0.086,1.505,0.004,2.254-0.078c4.947-0.542,9.945-1.138,14.608-2.877c1.041-0.388,2.066-0.844,3.059-1.361
			c0.309-2.002,0.469-4.001,0.486-5.986c-5.296,2.748-10.879,5.631-16.577,4.306c-1.336-0.311-2.875-1.277-2.628-2.626
			c0.153-0.838,0.948-1.381,1.684-1.81C80.879,50.324,85.121,48.503,88.937,45.965z"/>
		<path style="opacity:0.4;fill:#5E8DEC;" d="M35.547,30.029c7.417-1.336,14.096-5.689,21.583-6.552
			c4.513-0.52,9.167,0.253,13.574-0.853c2.471-0.62,4.898-2.167,6.383-4.188c-3.529-2.554-7.512-4.605-11.89-5.996
			c-1.261-0.401-2.528-0.731-3.796-1.008c-1.721,1.394-3.323,2.991-4.924,4.511c-4.781,4.538-11.056,8.887-17.459,7.317
			c-2.268-0.556-4.37-1.838-6.702-1.952c-2.729-0.133-5.756,1.288-8.098,0.14c-2.043,1.862-3.91,3.936-5.568,6.203
			C23.85,30.175,29.853,31.055,35.547,30.029z"/>
	</g>
</g>
</svg>
