<?xml version="1.0" encoding="iso-8859-1"?>
<!-- Generator: Adobe Illustrator 23.0.3, SVG Export Plug-In . SVG Version: 6.00 Build 0)  -->
<svg version="1.1" id="BACKGROUND2" xmlns="http://www.w3.org/2000/svg" xmlns:xlink="http://www.w3.org/1999/xlink" x="0px"
	 y="0px" viewBox="0 0 40.275 39.464" style="enable-background:new 0 0 40.275 39.464;" xml:space="preserve">
<g>
	
		<radialGradient id="SVGID_1_" cx="52.1643" cy="-185.6562" r="45.6064" gradientTransform="matrix(0.7854 0.619 -0.619 0.7854 -134.611 117.4398)" gradientUnits="userSpaceOnUse">
		<stop  offset="0.0815" style="stop-color:#DFAB45"/>
		<stop  offset="1" style="stop-color:#E64A24"/>
	</radialGradient>
	<path style="fill:url(#SVGID_1_);" d="M33.212,5.656c-6.703-2.964-15.397-7.724-22.798-4.673C7.43,2.213,2.908,7.789,2.371,10.93
		c-0.229,1.337,0.119,2.701,0.124,4.058c0.013,3.357-2.049,6.394-2.432,9.729c-0.578,5.029,2.905,9.872,7.384,12.232
		c4.479,2.36,9.747,2.677,14.805,2.458c4.931-0.213,10.314-1.13,13.534-4.872c1.566-1.819,2.461-4.204,2.478-6.605
		c0.012-1.665-0.382-3.32-0.287-4.983c0.232-4.03,3.292-7.948,1.965-11.76C38.959,8.361,35.949,6.866,33.212,5.656z"/>
	
		<radialGradient id="SVGID_2_" cx="52.1643" cy="-185.6562" r="45.6064" gradientTransform="matrix(0.7854 0.619 -0.619 0.7854 -134.611 117.4398)" gradientUnits="userSpaceOnUse">
		<stop  offset="0.0815" style="stop-color:#DFAB45"/>
		<stop  offset="1" style="stop-color:#E64A24"/>
	</radialGradient>
	<path style="fill:url(#SVGID_2_);" d="M33.212,5.656c-6.703-2.964-15.397-7.724-22.798-4.673C7.43,2.213,2.908,7.789,2.371,10.93
		c-0.229,1.337,0.119,2.701,0.124,4.058c0.013,3.357-2.049,6.394-2.432,9.729c-0.578,5.029,2.905,9.872,7.384,12.232
		c4.479,2.36,9.747,2.677,14.805,2.458c4.931-0.213,10.314-1.13,13.534-4.872c1.566-1.819,2.461-4.204,2.478-6.605
		c0.012-1.665-0.382-3.32-0.287-4.983c0.232-4.03,3.292-7.948,1.965-11.76C38.959,8.361,35.949,6.866,33.212,5.656z"/>
	
		<radialGradient id="SVGID_3_" cx="52.5809" cy="-187.9739" r="37.2826" gradientTransform="matrix(0.7854 0.619 -0.619 0.7854 -134.611 117.4398)" gradientUnits="userSpaceOnUse">
		<stop  offset="0.0815" style="stop-color:#DFAB45"/>
		<stop  offset="0.8556" style="stop-color:#DFAB45;stop-opacity:0"/>
	</radialGradient>
	<path style="opacity:0.5;fill:url(#SVGID_3_);" d="M30.756,6.914c2.737,1.21,5.748,2.705,6.731,5.532
		c1.326,3.813-1.733,7.73-1.965,11.76c-0.096,1.663,0.299,3.318,0.287,4.983c-0.017,2.401-0.912,4.785-2.478,6.604
		c-0.691,0.803-1.487,1.469-2.351,2.033c1.84-0.73,3.502-1.776,4.807-3.291c1.566-1.819,2.461-4.204,2.478-6.604
		c0.012-1.665-0.382-3.32-0.287-4.983c0.232-4.03,3.292-7.948,1.965-11.76c-0.983-2.826-3.994-4.322-6.731-5.532
		c-6.703-2.964-15.397-7.724-22.798-4.673C9.91,1.19,9.361,1.529,8.796,1.952C16.01-0.436,24.304,4.061,30.756,6.914z"/>
	
		<radialGradient id="SVGID_4_" cx="62.1404" cy="-186.2365" r="38.1024" gradientTransform="matrix(0.7854 0.619 -0.619 0.7854 -134.611 117.4398)" gradientUnits="userSpaceOnUse">
		<stop  offset="0.0815" style="stop-color:#DFAB45"/>
		<stop  offset="0.8556" style="stop-color:#DFAB45;stop-opacity:0"/>
	</radialGradient>
	<path style="opacity:0.5;fill:url(#SVGID_4_);" d="M37.979,19.437c0.008-1.146-0.263-2.284-0.197-3.428
		c0.119-2.065,1.316-4.087,1.542-6.069c-1.32-2.043-3.811-3.266-6.113-4.284c-3.946-1.745-8.583-4.101-13.24-5.131
		c-0.388,0.099-0.773,0.217-1.152,0.373c-2.052,0.846-5.163,4.683-5.533,6.843c-0.157,0.92,0.082,1.858,0.085,2.792
		c0.009,2.309-1.409,4.399-1.673,6.693c-0.398,3.46,1.999,6.792,5.08,8.415c3.081,1.623,6.705,1.841,10.185,1.691
		c3.393-0.147,7.096-0.778,9.311-3.351C37.352,22.728,37.968,21.088,37.979,19.437z"/>
	
		<radialGradient id="SVGID_5_" cx="52.1643" cy="-178.0321" r="40.2377" gradientTransform="matrix(0.7854 0.619 -0.619 0.7854 -134.611 117.4398)" gradientUnits="userSpaceOnUse">
		<stop  offset="0.0815" style="stop-color:#DFAB45"/>
		<stop  offset="1" style="stop-color:#E64A24"/>
	</radialGradient>
	<path style="opacity:0.5;fill:url(#SVGID_5_);" d="M38.264,27.931c0-0.013-0.002-0.026-0.002-0.039
		c-2.894,2.531-7.135,3.21-11.059,3.379c-4.486,0.194-9.159-0.087-13.132-2.181c-3.973-2.093-7.063-6.388-6.55-10.85
		c0.34-2.958,2.168-5.652,2.157-8.629c-0.004-1.203-0.313-2.413-0.11-3.599c0.272-1.589,1.694-3.878,3.355-5.756
		c-0.849,0.159-1.689,0.388-2.511,0.727C7.43,2.213,2.908,7.789,2.371,10.93c-0.229,1.337,0.119,2.701,0.124,4.058
		c0.013,3.357-2.049,6.394-2.432,9.729c-0.578,5.029,2.905,9.872,7.384,12.232c4.479,2.36,9.747,2.677,14.805,2.458
		c4.931-0.213,10.314-1.131,13.534-4.872C37.352,32.716,38.247,30.331,38.264,27.931z"/>
	
		<radialGradient id="SVGID_6_" cx="52.1651" cy="-174.7302" r="38.1388" gradientTransform="matrix(0.7854 0.619 -0.619 0.7854 -134.611 117.4398)" gradientUnits="userSpaceOnUse">
		<stop  offset="0.0815" style="stop-color:#DFAB45"/>
		<stop  offset="1" style="stop-color:#E64A24"/>
	</radialGradient>
	<path style="opacity:0.5;fill:url(#SVGID_6_);" d="M24.951,36.834c-5.058,0.219-10.326-0.099-14.805-2.458
		c-4.479-2.36-7.963-7.202-7.384-12.232c0.383-3.335,2.445-6.372,2.432-9.729C5.189,11.059,4.841,9.695,5.07,8.357
		c0.3-1.756,1.847-4.273,3.674-6.367C5.975,4.086,2.814,8.336,2.371,10.93c-0.229,1.337,0.119,2.701,0.124,4.058
		c0.013,3.357-2.049,6.394-2.432,9.729c-0.578,5.029,2.905,9.872,7.384,12.232c4.479,2.36,9.747,2.677,14.805,2.458
		c4.931-0.213,10.314-1.131,13.534-4.872c0.177-0.205,0.342-0.42,0.501-0.638C33.106,36.041,28.886,36.664,24.951,36.834z"/>
	
		<radialGradient id="SVGID_7_" cx="54.6755" cy="-182.4152" r="37.7022" gradientTransform="matrix(0.7854 0.619 -0.619 0.7854 -134.611 117.4398)" gradientUnits="userSpaceOnUse">
		<stop  offset="0.0815" style="stop-color:#DFAB45"/>
		<stop  offset="1" style="stop-color:#E64A24"/>
	</radialGradient>
	<path style="fill:url(#SVGID_7_);" d="M16.308,9.883c-1.2,1.523-3.407,1.784-4.93,0.584c-1.523-1.2-1.784-3.407-0.584-4.93
		c1.2-1.523,3.407-1.784,4.93-0.584C17.247,6.153,17.508,8.36,16.308,9.883z M8.057,17.161c-0.856-0.675-2.098-0.528-2.773,0.329
		c-0.675,0.856-0.528,2.098,0.329,2.773c0.856,0.675,2.098,0.528,2.773-0.329C9.061,19.078,8.914,17.836,8.057,17.161z
		 M27.222,12.339c-2.221-1.75-5.439-1.369-7.19,0.852c-1.75,2.22-1.369,5.439,0.852,7.19c2.221,1.75,5.439,1.369,7.19-0.852
		C29.824,17.308,29.443,14.089,27.222,12.339z M16.571,25.734c-0.92-0.725-2.253-0.567-2.979,0.353
		c-0.725,0.92-0.567,2.253,0.353,2.979c0.92,0.725,2.253,0.567,2.978-0.353C17.649,27.793,17.491,26.459,16.571,25.734z
		 M14.514,17.594c-0.444-0.35-1.088-0.274-1.438,0.17c-0.35,0.444-0.274,1.088,0.17,1.438c0.444,0.35,1.088,0.274,1.438-0.17
		C15.034,18.588,14.958,17.944,14.514,17.594z M9.028,26.68c-1.332-1.05-3.264-0.821-4.314,0.511
		c-1.05,1.332-0.821,3.264,0.511,4.314c1.332,1.05,3.264,0.821,4.314-0.511C10.59,29.661,10.361,27.73,9.028,26.68z M25.656,26.376
		c-0.381-0.3-0.932-0.235-1.233,0.146c-0.3,0.381-0.235,0.932,0.146,1.233c0.381,0.3,0.932,0.235,1.233-0.146
		C26.102,27.228,26.037,26.676,25.656,26.376z M31.875,31.837c-1.047-0.825-2.564-0.645-3.389,0.402
		c-0.825,1.047-0.645,2.564,0.401,3.389c1.047,0.825,2.564,0.645,3.389-0.401C33.102,34.179,32.922,32.662,31.875,31.837z
		 M33.526,10.603c-0.856-0.675-2.098-0.528-2.773,0.328c-0.675,0.856-0.528,2.098,0.328,2.773c0.856,0.675,2.098,0.528,2.773-0.328
		C34.529,12.52,34.382,11.278,33.526,10.603z M32.556,21.758c-0.856-0.675-2.098-0.528-2.773,0.329
		c-0.675,0.857-0.528,2.098,0.328,2.773c0.857,0.675,2.098,0.528,2.773-0.329C33.559,23.674,33.412,22.433,32.556,21.758z
		 M23.435,6.747c-0.825-0.65-2.02-0.508-2.67,0.316c-0.65,0.825-0.508,2.02,0.316,2.67c0.825,0.65,2.02,0.508,2.67-0.316
		C24.402,8.593,24.26,7.397,23.435,6.747z M36.515,16.498c-0.349-0.275-0.855-0.215-1.13,0.134c-0.275,0.349-0.215,0.855,0.134,1.13
		c0.349,0.275,0.855,0.215,1.13-0.134C36.924,17.279,36.864,16.773,36.515,16.498z M21.927,31.817
		c-0.761-0.6-1.865-0.469-2.465,0.292c-0.6,0.761-0.469,1.865,0.292,2.465c0.761,0.6,1.865,0.469,2.465-0.292
		C22.819,33.521,22.688,32.417,21.927,31.817z"/>
	<g>
		
			<radialGradient id="SVGID_8_" cx="60.938" cy="-164.9345" r="4.3942" gradientTransform="matrix(0.7854 0.619 -0.619 0.7854 -134.611 117.4398)" gradientUnits="userSpaceOnUse">
			<stop  offset="0.0815" style="stop-color:#DFAB45"/>
			<stop  offset="1" style="stop-color:#E64A24"/>
		</radialGradient>
		<path style="fill:url(#SVGID_8_);" d="M16.571,25.734c-0.92-0.725-2.253-0.567-2.978,0.353c-0.552,0.701-0.589,1.64-0.17,2.369
			c0.047-0.37,0.183-0.732,0.431-1.046c0.725-0.92,2.059-1.078,2.978-0.353c0.219,0.173,0.392,0.381,0.523,0.609
			C17.445,26.953,17.177,26.212,16.571,25.734z"/>
		
			<radialGradient id="SVGID_9_" cx="71.5588" cy="-184.9404" r="1.758" gradientTransform="matrix(0.7854 0.619 -0.619 0.7854 -134.611 117.4398)" gradientUnits="userSpaceOnUse">
			<stop  offset="0.0815" style="stop-color:#DFAB45"/>
			<stop  offset="1" style="stop-color:#E64A24"/>
		</radialGradient>
		<path style="fill:url(#SVGID_9_);" d="M35.519,17.761c0.068,0.053,0.145,0.084,0.222,0.112c0.224-0.206,0.533-0.269,0.812-0.165
			c0.031-0.029,0.068-0.047,0.095-0.081c0.275-0.349,0.215-0.855-0.134-1.13c-0.349-0.275-0.855-0.215-1.13,0.134
			C35.111,16.981,35.17,17.486,35.519,17.761z"/>
		
			<radialGradient id="SVGID_10_" cx="59.3926" cy="-181.1733" r="10.0607" gradientTransform="matrix(0.7854 0.619 -0.619 0.7854 -134.611 117.4398)" gradientUnits="userSpaceOnUse">
			<stop  offset="0.0815" style="stop-color:#DFAB45"/>
			<stop  offset="1" style="stop-color:#E64A24"/>
		</radialGradient>
		<path style="fill:url(#SVGID_10_);" d="M23.251,11.309c-0.208,0.087-0.427,0.136-0.651,0.146c-0.981,0.29-1.886,0.871-2.567,1.736
			c-1.115,1.415-1.361,3.234-0.821,4.821c-0.079-1.217,0.268-2.465,1.082-3.498c1.75-2.22,4.969-2.602,7.19-0.852
			c0.806,0.635,1.366,1.465,1.673,2.369c-0.091-1.399-0.746-2.755-1.934-3.692C26.055,11.419,24.612,11.093,23.251,11.309z"/>
		
			<radialGradient id="SVGID_11_" cx="64.966" cy="-187.3569" r="4.1116" gradientTransform="matrix(0.7854 0.619 -0.619 0.7854 -134.611 117.4398)" gradientUnits="userSpaceOnUse">
			<stop  offset="0.0815" style="stop-color:#DFAB45"/>
			<stop  offset="1" style="stop-color:#E64A24"/>
		</radialGradient>
		<path style="fill:url(#SVGID_11_);" d="M30.621,13.177c0.05-0.326,0.174-0.645,0.392-0.922c0.675-0.856,1.917-1.004,2.773-0.328
			c0.191,0.15,0.34,0.332,0.46,0.528c0.104-0.68-0.142-1.395-0.721-1.851c-0.856-0.675-2.098-0.528-2.773,0.328
			C30.228,11.597,30.206,12.492,30.621,13.177z"/>
		
			<radialGradient id="SVGID_12_" cx="71.1089" cy="-177.9958" r="4.1116" gradientTransform="matrix(0.7854 0.619 -0.619 0.7854 -134.611 117.4398)" gradientUnits="userSpaceOnUse">
			<stop  offset="0.0815" style="stop-color:#DFAB45"/>
			<stop  offset="1" style="stop-color:#E64A24"/>
		</radialGradient>
		<path style="fill:url(#SVGID_12_);" d="M29.652,24.331c0.05-0.326,0.174-0.645,0.392-0.922c0.675-0.856,1.917-1.004,2.773-0.329
			c0.191,0.15,0.341,0.332,0.46,0.528c0.104-0.68-0.142-1.395-0.721-1.851c-0.856-0.675-2.098-0.528-2.773,0.329
			C29.258,22.752,29.236,23.647,29.652,24.331z"/>
		
			<radialGradient id="SVGID_13_" cx="69.1122" cy="-170.4362" r="1.9179" gradientTransform="matrix(0.7854 0.619 -0.619 0.7854 -134.611 117.4398)" gradientUnits="userSpaceOnUse">
			<stop  offset="0.0815" style="stop-color:#DFAB45"/>
			<stop  offset="1" style="stop-color:#E64A24"/>
		</radialGradient>
		<path style="fill:url(#SVGID_13_);" d="M24.424,26.522c-0.3,0.381-0.235,0.933,0.146,1.233c0.042,0.034,0.093,0.046,0.139,0.07
			c0.269-0.317,0.712-0.386,1.07-0.196c0.007-0.008,0.017-0.012,0.024-0.02c0.3-0.381,0.235-0.932-0.146-1.232
			C25.276,26.076,24.724,26.142,24.424,26.522z"/>
		
			<radialGradient id="SVGID_14_" cx="49.0226" cy="-166.4415" r="4.1116" gradientTransform="matrix(0.7854 0.619 -0.619 0.7854 -134.611 117.4398)" gradientUnits="userSpaceOnUse">
			<stop  offset="0.0815" style="stop-color:#DFAB45"/>
			<stop  offset="1" style="stop-color:#E64A24"/>
		</radialGradient>
		<path style="fill:url(#SVGID_14_);" d="M5.545,18.813c0.675-0.857,1.917-1.004,2.773-0.329c0.191,0.15,0.341,0.332,0.46,0.528
			c0.104-0.68-0.142-1.395-0.721-1.851c-0.856-0.675-2.098-0.528-2.773,0.329c-0.525,0.666-0.547,1.561-0.131,2.245
			C5.203,19.409,5.326,19.09,5.545,18.813z"/>
		
			<radialGradient id="SVGID_15_" cx="69.1051" cy="-163.5815" r="3.6879" gradientTransform="matrix(0.7854 0.619 -0.619 0.7854 -134.611 117.4398)" gradientUnits="userSpaceOnUse">
			<stop  offset="0.0815" style="stop-color:#DFAB45"/>
			<stop  offset="1" style="stop-color:#E64A24"/>
		</radialGradient>
		<path style="fill:url(#SVGID_15_);" d="M19.723,33.432c0.6-0.761,1.704-0.892,2.465-0.292c0.148,0.117,0.265,0.257,0.365,0.406
			c0.128-0.629-0.088-1.305-0.626-1.729c-0.761-0.6-1.865-0.469-2.465,0.292c-0.483,0.613-0.485,1.444-0.073,2.059
			C19.441,33.908,19.547,33.655,19.723,33.432z"/>
		
			<radialGradient id="SVGID_16_" cx="54.8551" cy="-170.3886" r="2.2307" gradientTransform="matrix(0.7854 0.619 -0.619 0.7854 -134.611 117.4398)" gradientUnits="userSpaceOnUse">
			<stop  offset="0.0815" style="stop-color:#DFAB45"/>
			<stop  offset="1" style="stop-color:#E64A24"/>
		</radialGradient>
		<path style="fill:url(#SVGID_16_);" d="M13.076,17.764c-0.35,0.444-0.274,1.088,0.17,1.438c0.004,0.003,0.009,0.005,0.012,0.008
			c0.024-0.042,0.048-0.084,0.078-0.123c0.347-0.44,0.982-0.518,1.425-0.178c0.252-0.434,0.157-0.996-0.248-1.315
			C14.069,17.244,13.426,17.32,13.076,17.764z"/>
		
			<radialGradient id="SVGID_17_" cx="76.5805" cy="-169.5294" r="4.9533" gradientTransform="matrix(0.7854 0.619 -0.619 0.7854 -134.611 117.4398)" gradientUnits="userSpaceOnUse">
			<stop  offset="0.0815" style="stop-color:#DFAB45"/>
			<stop  offset="1" style="stop-color:#E64A24"/>
		</radialGradient>
		<path style="fill:url(#SVGID_17_);" d="M28.747,33.561c0.825-1.047,2.343-1.227,3.389-0.401c0.28,0.22,0.492,0.492,0.646,0.789
			c0.07-0.785-0.242-1.588-0.907-2.112c-1.047-0.825-2.564-0.645-3.389,0.402c-0.605,0.767-0.665,1.785-0.244,2.6
			C28.282,34.388,28.446,33.943,28.747,33.561z"/>
		
			<radialGradient id="SVGID_18_" cx="55.0908" cy="-159.2465" r="6.1955" gradientTransform="matrix(0.7854 0.619 -0.619 0.7854 -134.611 117.4398)" gradientUnits="userSpaceOnUse">
			<stop  offset="0.0815" style="stop-color:#DFAB45"/>
			<stop  offset="1" style="stop-color:#E64A24"/>
		</radialGradient>
		<path style="fill:url(#SVGID_18_);" d="M4.976,28.514c1.05-1.332,2.981-1.561,4.314-0.511c0.41,0.323,0.702,0.735,0.898,1.182
			c0.028-0.939-0.365-1.879-1.159-2.505c-1.332-1.05-3.264-0.821-4.314,0.511c-0.727,0.922-0.828,2.126-0.387,3.131
			C4.346,29.687,4.552,29.052,4.976,28.514z"/>
		
			<radialGradient id="SVGID_19_" cx="46.6611" cy="-180.3269" r="7.0226" gradientTransform="matrix(0.7854 0.619 -0.619 0.7854 -134.611 117.4398)" gradientUnits="userSpaceOnUse">
			<stop  offset="0.0815" style="stop-color:#DFAB45"/>
			<stop  offset="1" style="stop-color:#E64A24"/>
		</radialGradient>
		<path style="fill:url(#SVGID_19_);" d="M11.055,6.86c1.2-1.523,3.407-1.784,4.93-0.584c0.494,0.389,0.84,0.889,1.061,1.432
			c-0.001-1.037-0.445-2.064-1.322-2.755c-1.523-1.2-3.73-0.939-4.93,0.584c-0.811,1.029-0.939,2.365-0.477,3.498
			C10.316,8.272,10.546,7.505,11.055,6.86z"/>
		
			<radialGradient id="SVGID_20_" cx="54.6934" cy="-184.1614" r="3.9704" gradientTransform="matrix(0.7854 0.619 -0.619 0.7854 -134.611 117.4398)" gradientUnits="userSpaceOnUse">
			<stop  offset="0.0815" style="stop-color:#DFAB45"/>
			<stop  offset="1" style="stop-color:#E64A24"/>
		</radialGradient>
		<path style="fill:url(#SVGID_20_);" d="M20.653,9.246c0.051-0.304,0.169-0.601,0.373-0.86c0.65-0.825,1.846-0.966,2.67-0.316
			c0.177,0.139,0.315,0.307,0.428,0.487c0.112-0.663-0.124-1.365-0.689-1.81c-0.825-0.65-2.02-0.508-2.67,0.316
			C20.254,7.711,20.239,8.585,20.653,9.246z"/>
	</g>
	
		<radialGradient id="SVGID_21_" cx="63.0409" cy="-170.2416" r="2.1171" gradientTransform="matrix(0.7854 0.619 -0.619 0.7854 -134.611 117.4398)" gradientUnits="userSpaceOnUse">
		<stop  offset="0.0815" style="stop-color:#DFAB45"/>
		<stop  offset="1" style="stop-color:#E64A24"/>
	</radialGradient>
	<path style="opacity:0.5;fill:url(#SVGID_21_);" d="M20.979,24.133c-0.331,0.42-0.94,0.492-1.361,0.161s-0.492-0.94-0.161-1.361
		c0.331-0.42,0.94-0.492,1.36-0.161C21.238,23.104,21.31,23.713,20.979,24.133z"/>
	
		<radialGradient id="SVGID_22_" cx="66.4043" cy="-166.535" r="0.9963" gradientTransform="matrix(0.7854 0.619 -0.619 0.7854 -134.611 117.4398)" gradientUnits="userSpaceOnUse">
		<stop  offset="0.0815" style="stop-color:#DFAB45"/>
		<stop  offset="1" style="stop-color:#E64A24"/>
	</radialGradient>
	<path style="opacity:0.5;fill:url(#SVGID_22_);" d="M20.957,28.396c-0.156,0.198-0.442,0.232-0.64,0.076
		c-0.198-0.156-0.232-0.442-0.076-0.64c0.156-0.198,0.442-0.232,0.64-0.076C21.079,27.912,21.113,28.199,20.957,28.396z"/>
	
		<radialGradient id="SVGID_23_" cx="65.6739" cy="-160.1376" r="2.6152" gradientTransform="matrix(0.7854 0.619 -0.619 0.7854 -134.611 117.4398)" gradientUnits="userSpaceOnUse">
		<stop  offset="0.0815" style="stop-color:#DFAB45"/>
		<stop  offset="1" style="stop-color:#E64A24"/>
	</radialGradient>
	<path style="opacity:0.5;fill:url(#SVGID_23_);" d="M16.957,34.023c-0.409,0.519-1.162,0.608-1.681,0.199
		c-0.519-0.409-0.608-1.161-0.199-1.681c0.409-0.519,1.162-0.608,1.681-0.199C17.277,32.752,17.366,33.504,16.957,34.023z"/>
	
		<radialGradient id="SVGID_24_" cx="63.5548" cy="-155.3662" r="0.9963" gradientTransform="matrix(0.7854 0.619 -0.619 0.7854 -134.611 117.4398)" gradientUnits="userSpaceOnUse">
		<stop  offset="0.0815" style="stop-color:#DFAB45"/>
		<stop  offset="1" style="stop-color:#E64A24"/>
	</radialGradient>
	<path style="opacity:0.5;fill:url(#SVGID_24_);" d="M11.805,35.405c-0.156,0.198-0.442,0.232-0.64,0.076
		c-0.198-0.156-0.232-0.443-0.076-0.64c0.156-0.198,0.443-0.232,0.64-0.076C11.927,34.92,11.961,35.207,11.805,35.405z"/>
	
		<radialGradient id="SVGID_25_" cx="73.3368" cy="-163.7434" r="1.3699" gradientTransform="matrix(0.7854 0.619 -0.619 0.7854 -134.611 117.4398)" gradientUnits="userSpaceOnUse">
		<stop  offset="0.0815" style="stop-color:#DFAB45"/>
		<stop  offset="1" style="stop-color:#E64A24"/>
	</radialGradient>
	<path style="opacity:0.5;fill:url(#SVGID_25_);" d="M24.797,35.123c-0.214,0.272-0.609,0.319-0.88,0.104
		c-0.272-0.214-0.319-0.608-0.104-0.88s0.608-0.319,0.88-0.104C24.964,34.457,25.011,34.852,24.797,35.123z"/>
	
		<radialGradient id="SVGID_26_" cx="57.3109" cy="-164.4482" r="1.9925" gradientTransform="matrix(0.7854 0.619 -0.619 0.7854 -134.611 117.4398)" gradientUnits="userSpaceOnUse">
		<stop  offset="0.0815" style="stop-color:#DFAB45"/>
		<stop  offset="1" style="stop-color:#E64A24"/>
	</radialGradient>
	<path style="opacity:0.5;fill:url(#SVGID_26_);" d="M12.852,25.056c-0.312,0.395-0.885,0.463-1.281,0.152
		c-0.395-0.312-0.463-0.885-0.152-1.28c0.312-0.396,0.885-0.463,1.28-0.152C13.095,24.087,13.163,24.66,12.852,25.056z"/>
	
		<radialGradient id="SVGID_27_" cx="53.7467" cy="-174.952" r="1.868" gradientTransform="matrix(0.7854 0.619 -0.619 0.7854 -134.611 117.4398)" gradientUnits="userSpaceOnUse">
		<stop  offset="0.0815" style="stop-color:#DFAB45"/>
		<stop  offset="1" style="stop-color:#E64A24"/>
	</radialGradient>
	<path style="opacity:0.5;fill:url(#SVGID_27_);" d="M16.513,14.518c-0.292,0.371-0.83,0.434-1.2,0.142
		c-0.371-0.292-0.434-0.83-0.142-1.2c0.292-0.371,0.83-0.434,1.201-0.142C16.742,13.61,16.805,14.148,16.513,14.518z"/>
	
		<radialGradient id="SVGID_28_" cx="59.1933" cy="-184.6747" r="0.8717" gradientTransform="matrix(0.7854 0.619 -0.619 0.7854 -134.611 117.4398)" gradientUnits="userSpaceOnUse">
		<stop  offset="0.0815" style="stop-color:#DFAB45"/>
		<stop  offset="1" style="stop-color:#E64A24"/>
	</radialGradient>
	<path style="opacity:0.5;fill:url(#SVGID_28_);" d="M26.481,9.605c-0.136,0.173-0.387,0.203-0.56,0.066
		c-0.173-0.136-0.203-0.387-0.066-0.56c0.136-0.173,0.387-0.203,0.56-0.066C26.587,9.181,26.617,9.432,26.481,9.605z"/>
	
		<radialGradient id="SVGID_29_" cx="59.3" cy="-188.3047" r="1.7434" gradientTransform="matrix(0.7854 0.619 -0.619 0.7854 -134.611 117.4398)" gradientUnits="userSpaceOnUse">
		<stop  offset="0.0815" style="stop-color:#DFAB45"/>
		<stop  offset="1" style="stop-color:#E64A24"/>
	</radialGradient>
	<path style="opacity:0.5;fill:url(#SVGID_29_);" d="M29.099,7.388c-0.273,0.346-0.774,0.405-1.12,0.133
		c-0.346-0.273-0.406-0.774-0.133-1.12c0.273-0.346,0.774-0.405,1.12-0.133C29.312,6.54,29.372,7.042,29.099,7.388z"/>
	
		<radialGradient id="SVGID_30_" cx="67.9808" cy="-181.4086" r="1.3699" gradientTransform="matrix(0.7854 0.619 -0.619 0.7854 -134.611 117.4398)" gradientUnits="userSpaceOnUse">
		<stop  offset="0.0815" style="stop-color:#DFAB45"/>
		<stop  offset="1" style="stop-color:#E64A24"/>
	</radialGradient>
	<path style="opacity:0.5;fill:url(#SVGID_30_);" d="M31.525,17.934c-0.214,0.272-0.608,0.319-0.88,0.104
		c-0.272-0.214-0.319-0.608-0.104-0.88s0.608-0.319,0.88-0.104C31.692,17.268,31.739,17.662,31.525,17.934z"/>
	
		<radialGradient id="SVGID_31_" cx="69.7729" cy="-188.4932" r="1.2453" gradientTransform="matrix(0.7854 0.619 -0.619 0.7854 -134.611 117.4398)" gradientUnits="userSpaceOnUse">
		<stop  offset="0.0815" style="stop-color:#DFAB45"/>
		<stop  offset="1" style="stop-color:#E64A24"/>
	</radialGradient>
	<path style="opacity:0.5;fill:url(#SVGID_31_);" d="M37.277,13.398c-0.195,0.247-0.553,0.29-0.8,0.095
		c-0.247-0.195-0.29-0.553-0.095-0.8c0.195-0.247,0.553-0.29,0.8-0.095C37.429,12.792,37.472,13.151,37.277,13.398z"/>
	
		<radialGradient id="SVGID_32_" cx="68.6962" cy="-183.6692" r="1.4944" gradientTransform="matrix(0.7854 0.619 -0.619 0.7854 -134.611 117.4398)" gradientUnits="userSpaceOnUse">
		<stop  offset="0.0815" style="stop-color:#DFAB45"/>
		<stop  offset="1" style="stop-color:#E64A24"/>
	</radialGradient>
	<path style="opacity:0.5;fill:url(#SVGID_32_);" d="M33.527,16.682c-0.234,0.297-0.664,0.347-0.96,0.114
		c-0.297-0.234-0.348-0.664-0.114-0.96c0.234-0.297,0.664-0.348,0.96-0.114S33.761,16.386,33.527,16.682z"/>
	
		<radialGradient id="SVGID_33_" cx="72.7794" cy="-181.5615" r="1.868" gradientTransform="matrix(0.7854 0.619 -0.619 0.7854 -134.611 117.4398)" gradientUnits="userSpaceOnUse">
		<stop  offset="0.0815" style="stop-color:#DFAB45"/>
		<stop  offset="1" style="stop-color:#E64A24"/>
	</radialGradient>
	<path style="opacity:0.5;fill:url(#SVGID_33_);" d="M35.553,21.109c-0.292,0.371-0.83,0.434-1.2,0.142s-0.434-0.83-0.142-1.2
		c0.292-0.371,0.83-0.434,1.2-0.142C35.781,20.2,35.845,20.738,35.553,21.109z"/>
	
		<radialGradient id="SVGID_34_" cx="77.5585" cy="-174.5925" r="2.7397" gradientTransform="matrix(0.7854 0.619 -0.619 0.7854 -134.611 117.4398)" gradientUnits="userSpaceOnUse">
		<stop  offset="0.0815" style="stop-color:#DFAB45"/>
		<stop  offset="1" style="stop-color:#E64A24"/>
	</radialGradient>
	<path style="opacity:0.5;fill:url(#SVGID_34_);" d="M35.28,30.108c-0.429,0.544-1.217,0.637-1.761,0.209
		c-0.544-0.429-0.637-1.217-0.209-1.761c0.429-0.544,1.217-0.637,1.761-0.209C35.615,28.776,35.708,29.564,35.28,30.108z"/>
	
		<radialGradient id="SVGID_35_" cx="69.3797" cy="-173.64" r="1.4944" gradientTransform="matrix(0.7854 0.619 -0.619 0.7854 -134.611 117.4398)" gradientUnits="userSpaceOnUse">
		<stop  offset="0.0815" style="stop-color:#DFAB45"/>
		<stop  offset="1" style="stop-color:#E64A24"/>
	</radialGradient>
	<path style="opacity:0.5;fill:url(#SVGID_35_);" d="M27.856,24.982c-0.234,0.297-0.664,0.347-0.96,0.114
		c-0.297-0.234-0.348-0.664-0.114-0.96c0.234-0.297,0.664-0.348,0.96-0.114C28.039,24.256,28.09,24.686,27.856,24.982z"/>
	
		<radialGradient id="SVGID_36_" cx="74.3118" cy="-171.6837" r="1.6189" gradientTransform="matrix(0.7854 0.619 -0.619 0.7854 -134.611 117.4398)" gradientUnits="userSpaceOnUse">
		<stop  offset="0.0815" style="stop-color:#DFAB45"/>
		<stop  offset="1" style="stop-color:#E64A24"/>
	</radialGradient>
	<path style="opacity:0.5;fill:url(#SVGID_36_);" d="M30.56,29.653c-0.253,0.321-0.719,0.376-1.04,0.123
		c-0.321-0.253-0.376-0.719-0.123-1.04c0.253-0.321,0.719-0.376,1.04-0.123C30.758,28.866,30.813,29.332,30.56,29.653z"/>
</g>
</svg>
