<?xml version="1.0" encoding="iso-8859-1"?>
<!-- Generator: Adobe Illustrator 23.0.3, SVG Export Plug-In . SVG Version: 6.00 Build 0)  -->
<svg version="1.1" id="OBJECTS" xmlns="http://www.w3.org/2000/svg" xmlns:xlink="http://www.w3.org/1999/xlink" x="0px" y="0px"
	 viewBox="0 0 127.019 127.925" style="enable-background:new 0 0 127.019 127.925;" xml:space="preserve">
<g>
	<g>
		<g>
			<g>
				<path style="fill:none;stroke:#372929;stroke-width:2;stroke-linecap:round;stroke-linejoin:round;stroke-miterlimit:10;" d="
					M58.988,1.647c26.021-1.993,52.383,14.399,62.227,38.568c9.843,24.169,2.492,54.235-17.308,71.235
					c-19.8,17-50.536,19.746-73.103,6.639C-21.19,87.891,0.307,6.143,58.988,1.647z"/>
			</g>
			<g>
				<g>
					<path style="fill:none;stroke:#372929;stroke-linecap:round;stroke-linejoin:round;stroke-miterlimit:10;" d="M30.251,14.97
						c6.755,0.615,13.304,2.589,19.975,3.822c10.049,1.858,20.533,2.006,30.393-0.682c5.445-1.484,10.667-3.909,15.281-7.15
						c-1.315-0.807-2.657-1.572-4.025-2.285c-11.341,5.155-23.398,8.391-35.434,6.082c-6.779-1.3-13.152-4.314-19.96-5.453
						c-0.797-0.133-1.569-0.214-2.33-0.27c-3.034,1.69-5.878,3.632-8.53,5.78C27.172,14.78,28.725,14.831,30.251,14.97z"/>
				</g>
				<g>
					<path style="fill:none;stroke:#372929;stroke-linecap:round;stroke-linejoin:round;stroke-miterlimit:10;" d="M40.835,39.863
						c24.713,0.846,49.584-3.83,72.351-13.47c-0.849-1.095-1.734-2.162-2.655-3.198c-22.834,4.832-45.898,8.736-69.155,7.902
						c-8.457-0.304-16.901-1.234-25.36-0.987c-1.373,0.04-2.754,0.121-4.136,0.241c-1.8,2.853-3.378,5.841-4.733,8.926
						C18.241,38.003,29.603,39.478,40.835,39.863z"/>
				</g>
				<g>
					<path style="fill:none;stroke:#372929;stroke-linecap:round;stroke-linejoin:round;stroke-miterlimit:10;" d="M120.448,44.368
						c-7.805,1.733-15.048,5.352-22.642,7.854c-26.766,8.819-55.834,3.346-83.677-1.009c-3.37-0.527-7.13-1.09-10.754-0.905
						c-1.633,6.546-2.29,13.314-1.908,20.01c2.811,0.555,5.744,0.791,8.458,1.344c7.867,1.603,15.433,4.393,23.017,6.968
						c13.889,4.717,29.42,8.601,42.882,2.777c8.476-3.667,14.926-10.713,22.197-16.407c7.861-6.155,16.895-10.783,26.453-13.664
						c-0.472-2.494-1.105-4.957-1.897-7.374C121.861,44.081,121.149,44.212,120.448,44.368z"/>
				</g>
				<g>
					<path style="fill:none;stroke:#372929;stroke-linecap:round;stroke-linejoin:round;stroke-miterlimit:10;" d="M99.915,92.044
						c-6.583-1.578-13.253-3.398-20.008-2.954c-11.625,0.764-22.957,8.164-34.2,5.113c-4.836-1.312-9.36-4.53-14.343-4.003
						c-5.135,0.543-8.908,4.841-13.144,7.794c-1.911,1.332-3.967,2.381-6.102,3.263c2.299,3.224,4.977,6.268,8.06,9.075
						c23.183-5.061,47.308-3.6,71.012-1.9c5.158,0.37,10.567,0.665,15.757,0.193c4.449-4.417,8.158-9.533,11.066-15.085
						C112.163,94.415,106.339,93.585,99.915,92.044z"/>
				</g>
				<g>
					<path style="fill:none;stroke:#372929;stroke-linecap:round;stroke-linejoin:round;stroke-miterlimit:10;" d="M66.819,118.653
						c-6.926,0.137-13.914,0.288-20.822-0.047c-0.217-0.01-0.434-0.019-0.651-0.025c-3.791-0.105-7.61,0.466-11.416,1.183
						c4.674,2.344,9.639,4.059,14.747,5.143c11.083-1.256,22.224-2.172,33.318-3.284c2.293-0.23,4.632-0.484,6.959-0.827
						c3.426-1.505,6.713-3.315,9.807-5.422C88.323,117.768,77.513,118.441,66.819,118.653z"/>
				</g>
				<g>
					<path style="fill:none;stroke:#372929;stroke-linecap:round;stroke-linejoin:round;stroke-miterlimit:10;" d="M54.638,27.638
						c6.87-0.388,13.748-0.777,20.574-1.649c10.092-1.288,20.388-3.848,29.071-8.929c-0.571-0.489-1.152-0.966-1.74-1.434
						c-7.162,3.345-14.591,6.076-22.323,7.655c-10.494,2.144-21.292,2.146-32.003,2.139c-9.937-0.006-19.772-0.231-29.485-2.528
						c-0.368-0.087-0.747-0.185-1.132-0.289c-1.053,1.225-2.06,2.488-3.017,3.786C27.612,29.38,42.303,28.335,54.638,27.638z"/>
				</g>
				<g>
					<path style="fill:none;stroke:#372929;stroke-linecap:round;stroke-linejoin:round;stroke-miterlimit:10;" d="M116.312,59.141
						c-1.791,0.469-3.526,1.09-5.221,1.809c0.046-0.009,0.092-0.023,0.138-0.032c2.323-0.444,3.997,0.052,5.165,1.093
						c2.954-0.892,6.041-1.43,9.108-1.508c-0.029-0.751-0.07-1.501-0.125-2.251C122.338,58.055,119.234,58.375,116.312,59.141z"/>
				</g>
				<g>
					<path style="fill:none;stroke:#372929;stroke-linecap:round;stroke-linejoin:round;stroke-miterlimit:10;" d="M99.842,67.341
						c-1.419,0.97-2.822,1.964-4.208,2.966c-6.386,4.618-12.782,9.449-20.187,12.146c-12.41,4.52-26.228,2.543-38.979-0.9
						c-9.766-2.636-23.312-8.635-34.534-6.357c0.155,1.143,0.33,2.284,0.549,3.417c1.448-0.221,2.901-0.38,4.351-0.351
						c7.499,0.15,14.902,1.867,22.085,3.912c0.183,0.052,0.367,0.106,0.55,0.158c0.698-0.771,2.246-0.824,3.404-0.539
						c3.347,0.823,6.538,2.242,9.422,4.129c9.106,2.308,18.324,3.731,27.355,1.614c8.263-1.938,15.555-6.694,22.487-11.592
						c0.562-0.397,1.124-0.798,1.686-1.197c0.38-0.748,0.843-1.463,1.328-2.138C96.42,70.848,98.026,69.022,99.842,67.341z"/>
				</g>
				<g>
					<path style="fill:none;stroke:#372929;stroke-linecap:round;stroke-linejoin:round;stroke-miterlimit:10;" d="M42.881,5.07
						c3.929,2.881,11.751,3.653,16.202,4.174c5.964,0.698,12.035,0.514,17.945-0.552c2.824-0.509,5.614-1.219,8.335-2.131
						c0.323-0.108,0.671-0.255,1.031-0.418c-1.365-0.558-2.747-1.071-4.146-1.534c-3.738,0.59-7.474,1.208-11.239,1.564
						c-7.342,0.694-15.046,0.3-21.614-3.031C47.157,3.67,44.984,4.314,42.881,5.07z"/>
				</g>
				<g>
					<path style="fill:none;stroke:#372929;stroke-linecap:round;stroke-linejoin:round;stroke-miterlimit:10;" d="M111.228,60.917
						c-0.046,0.009-0.092,0.023-0.138,0.032c-3.99,0.803-7.969,3.355-11.249,6.391c-1.816,1.681-3.422,3.508-4.689,5.269
						c-0.485,0.674-0.948,1.39-1.328,2.138c-0.615,1.209-1.012,2.502-0.921,3.842c0.187,2.759,2.34,4.926,4.357,6.818
						c1.92,1.802,4.108,3.716,6.742,3.732c2.711,0.017,4.982-1.998,6.742-4.061c2.816-3.303,5.093-7.065,6.712-11.092
						c1.563-3.887,1.712-9.504-1.063-11.977C115.226,60.97,113.551,60.474,111.228,60.917z"/>
				</g>
				<g>
					<path style="fill:none;stroke:#372929;stroke-linecap:round;stroke-linejoin:round;stroke-miterlimit:10;" d="M29.47,82.334
						c-0.184,0.203-0.322,0.444-0.363,0.755c-0.124,0.944,0.692,1.728,1.458,2.293c2.996,2.211,6.428,3.829,10.04,4.735
						c1.115,0.279,2.38,0.469,3.342-0.159c0.962-0.628,1.103-2.396,0.018-2.773l-0.907-0.782c-0.246-0.172-0.511-0.316-0.762-0.481
						c-2.884-1.887-6.075-3.306-9.422-4.129C31.715,81.51,30.167,81.563,29.47,82.334z"/>
				</g>
				<g>
					<path style="fill:none;stroke:#372929;stroke-linecap:round;stroke-linejoin:round;stroke-miterlimit:10;" d="M24.177,90.077
						c1.403-0.184,3.087-1.088,2.866-2.486c-0.242-1.522-2.296-1.708-3.816-1.967c-6.575-1.118-10.6-6.99-18.052-5.644
						c-0.774,0.14-1.523,0.391-2.252,0.695c0.726,3.167,1.704,6.28,2.951,9.306c0.079-0.048,0.151-0.109,0.233-0.152
						c2.514-1.336,5.563-1.239,8.295-0.804C17.653,89.542,20.914,90.505,24.177,90.077z"/>
				</g>
			</g>
		</g>
	</g>
</g>
</svg>
