<?xml version="1.0" encoding="iso-8859-1"?>
<!-- Generator: Adobe Illustrator 23.0.3, SVG Export Plug-In . SVG Version: 6.00 Build 0)  -->
<svg version="1.1" id="Objects" xmlns="http://www.w3.org/2000/svg" xmlns:xlink="http://www.w3.org/1999/xlink" x="0px" y="0px"
	 viewBox="0 0 118.358 115.472" style="enable-background:new 0 0 118.358 115.472;" xml:space="preserve">
<g>
	<g id="XMLID_696_">
		<path id="XMLID_720_" d="M114.754,35.581C105.183,12.946,78.041-2.868,53.263,1.332c-5.3,0.528-10.284,2.329-15.299,4.354
			c-5.564,2.243-11.109,4.552-15.666,8.509c-9.383,8.15-16.705,21.068-19.852,32.89c-5.514,20.719,3.398,43.83,21.251,56.09
			c10.713,7.357,25.849,11.588,38.91,11.507c11.627-0.073,22.857-4.757,31.714-12.001c9.748-7.976,16.322-19.16,19.835-31.035
			C117.503,60.32,119.484,46.764,114.754,35.581z M4.009,55.153C4.95,45.4,9.222,35.757,14.937,27.447
			c1.092,1.492,1.134,2.958,0.272,4.907c-0.431,0.974-0.888,1.967-0.837,3.059c0.128,2.741,2.843,2.645,3.744,4.797
			c0.035,0.089,0.095,0.177,0.161,0.258c-0.093,0.251-0.073,0.552,0.118,0.769c1.704,1.934,5.806,3.615,6.667,5.763
			c0.681,1.702-0.841,3.424-0.091,5.203c0.995,2.357,2.997,3.543,2.04,6.591c-0.898,2.862-2.784,5.084-3.646,7.944
			c-2.558,1.032-5.971,0.651-7.785,2.975c-1.927,2.47-0.092,4.853,1.806,6.696c1.453,1.414,3.139,2.563,5.001,3.394
			c2.807,1.252,4.543,0.909,5.768,4.394c0.858,2.443,1.086,4.72,3.235,5.632c0.564,1.795,1.735,2.621,3.764,3.1
			c3.888,0.919,7.571,0.833,11.403,2.346c3.472,1.37,6.597,1.903,6.394,6.713c-0.086,2.002-1.44,4.082-1.801,6.061
			c-0.216,1.183-0.332,2.018-0.09,2.76c-6.636-1.259-13.129-3.503-18.803-6.209C13.619,95.711,2.049,75.41,4.009,55.153z
			 M70.144,111.19c-5.086,0.946-10.509,0.889-15.909,0.137c-0.004-0.073,0-0.146-0.019-0.216c-1.529-5.558,6.005-11.751-0.67-16.017
			c-2.611-1.668-6.123-2.91-9.094-3.784c-2.388-0.707-8.029-0.392-10.773-1.693c0.032-0.297-0.078-0.627-0.328-0.806
			c-3.532-2.525-1.612-6.129-3.91-8.892c-1.498-1.798-4.28-1.799-6.282-2.804c-1.385-0.696-3.511-1.746-4.281-3.167
			c-2.231-4.124,1-3.115,3.298-4.037c0.711-0.285,1.265-0.6,1.701-1.012c0.669,0.317,1.567,0.149,1.762-0.758
			c0.871-4.055,4.455-7.429,4.348-11.746c-0.028-1.138-0.315-2.124-0.788-3.154c-1.403-3.053-1.638-3.135-0.747-6.677
			c0.156-0.618-0.112-1.187-0.635-1.533c-2.58-1.71-5.033-3.519-7.906-4.657c0.162-0.132,0.292-0.295,0.327-0.515
			c0.179-1.149-0.047-1.984-0.96-2.788c-1.157-1.018-2.273-0.393-1.674-3.344c0.177-0.875,0.757-1.618,0.91-2.533
			c0.354-2.14-0.626-4.271-2.45-5.346c1.489-2.055,3.061-4.02,4.69-5.874c4.935-5.616,11.134-8.708,17.982-11.533
			c4.506-1.859,9.011-3.661,13.67-5.024c17.611-1.694,34.027,3.459,46.591,15.081c-1.084,1.497-2.33,3.705-3.77,4.638
			c-1.191,0.771-3.263-0.29-4.706-0.089c-2.178,0.305-4.344,1.778-4.869,3.88c-3.064-0.252-7.222-0.889-9.895,0.563
			c-1.46,0.793-2.259,2.065-3.464,2.811c-0.959,0.595-1.833,0.552-2.875,1.319c-1.859,1.365-3.371,3.805-4.891,5.525
			c-3.113,3.526-6.935,6.887-9.209,10.999c-0.154,0.277-0.089,0.605,0.085,0.852c-2.416,3.75,7.692,9.261,9.744,11.473
			c1.933,2.082,3.499,4.251,4.635,6.83c0.549,1.244,0.887,2.853,1.74,3.947c0.721,0.928,1.398,1.253,2.453,1.783
			c2.42,1.214,4.455,2.255,6.622,3.831c-0.532,4.084,0.715,8.32-0.857,12.252c-1.058,2.648-2.426,4.084-1.545,7.126
			c1.174,4.055,6.13,6.342,10.538,7.212C83.15,107.235,76.815,109.948,70.144,111.19z M98.135,95.289
			c-2.02,2.231-4.249,4.286-6.637,6.146c-1.467-0.774-3.011-1.201-4.645-1.775c-1.146-0.365-2.269-0.793-3.368-1.281
			c-0.68-2.167-1.362-4.334-2.041-6.503c0.119-0.793,1.473-2.051,1.745-2.787c1.401-3.797,0.232-10.26-1.236-13.867
			c-0.116-0.289-0.443-0.428-0.706-0.354c-0.841-1.405-2.072-2.347-3.594-3.376c-2.616-1.77-1.51,0.813-4.484-3.656
			c-0.763-1.144-1.137-2.756-1.842-3.968c-1.555-2.665-3.634-5.013-5.918-7.099c-1.688-1.541-8.73-5.579-8.253-8.006
			c0.008-0.042,0.006-0.084,0.005-0.127c5.982-4.722,9.351-12.491,16.41-15.576c1.154-0.503,1.392-0.748,2.321-1.436
			c3.192-2.358,6.075-2.48,9.83-3.101c0.353,0.422,1.102,0.417,1.478-0.103c1.082-1.496,2.243-3.035,4.334-3.018
			c1.341,0.011,2.415,0.949,3.771,0.437c1.015-0.383,1.546-1.38,2.126-2.208c0.928-1.325,1.849-2.655,2.776-3.981
			c2.64,2.584,5.107,5.457,7.356,8.633C121.508,47.937,113.445,78.362,98.135,95.289z"/>
		<path id="XMLID_717_" d="M55.62,25.877c-1.636-3.497-7.26-7.321-11.137-4.849c-3.485,0.35-6.231,3.448-5.881,7.199
			c0.479,5.115,5.816,8.089,10.667,7.252C54.167,34.636,57.93,30.819,55.62,25.877z M50.248,32.273
			c-2.968,1.01-6.538,0.374-8.125-2.524c-1.765-3.224,0.914-6.961,4.566-6.561c0.293,0.032,0.521-0.06,0.685-0.218
			c1.296,0.189,2.531,0.5,3.727,1.413c1,0.762,1.918,1.792,2.266,3.014C54.112,30.012,52.619,31.467,50.248,32.273z"/>
		<path id="XMLID_714_" d="M63.645,12.972c-0.855-0.41-1.849-0.104-2.738-0.371c-0.346-0.104-0.658,0.09-0.802,0.369
			c-1.328,0.392-2.35,1.644-2.304,3.061c0.054,1.734,1.732,2.931,3.421,2.875c1.994-0.067,3.225-1.941,3.478-3.732
			C64.827,14.271,64.513,13.386,63.645,12.972z M62.777,15.693c-0.197,0.537-0.464,1.183-1.01,1.462
			c-0.766,0.389-1.96,0.091-2.344-0.7c-0.446-0.916,0.228-1.991,1.121-2.364c0.542,0.397,1.21,0.257,1.975,0.377
			C63.238,14.581,62.97,15.173,62.777,15.693z"/>
		<path id="XMLID_711_" d="M52.076,68.724c-1.697-1.753-4.09-1.628-6.254-0.973c-0.066-0.064-0.14-0.12-0.222-0.155
			c-0.404-0.165-0.74-0.276-1.172-0.347c-0.688-0.112-1.227,0.269-1.287,0.962c-0.174,2.036-0.468,5.345,1.925,6.201
			c2.152,0.771,4.975,1.076,6.826-0.504C53.522,72.518,53.55,70.245,52.076,68.724z M49.641,72.386
			c-0.903,0.373-3.004,0.313-3.759-0.386c-0.483-0.447-0.546-1.542-0.597-2.555c0.065,0.014,0.129,0.034,0.206,0.032
			c1.201-0.029,2.679-0.235,3.819,0.227C50.654,70.249,51.223,71.73,49.641,72.386z"/>
		<path id="XMLID_710_" d="M79.306,103.038c-6.399-1.97-5.448-7.826-3.077-12.735c0.315-0.651-0.631-1.221-0.998-0.573
			c-1.807,3.187-3.467,7.013-1.771,10.591c1.031,2.174,3.277,4.176,5.847,3.411C79.656,103.627,79.653,103.144,79.306,103.038z"/>
		<path id="XMLID_709_" d="M73.94,76.488c-1.16-0.999-2.455-1.845-3.635-2.823c-1.257-1.045-2.19-2.365-3.421-3.415
			c-0.256-0.218-0.82-0.102-0.765,0.311c0.288,2.17,2.135,3.55,3.816,4.815c2.715,2.042,6.19,4.032,6.709,7.652
			c0.071,0.495,0.945,0.384,0.897-0.118C77.279,80.252,75.964,78.231,73.94,76.488z"/>
		<path id="XMLID_708_" d="M63.192,64.807c-4.408-4.651-9.044-9.029-11.131-15.145c-0.116-0.338-0.641-0.376-0.74,0
			c-0.748,2.862,1.325,5.415,3.058,7.55c2.478,3.052,5.219,5.779,8.368,8.16C63.09,65.629,63.464,65.093,63.192,64.807z"/>
		<path id="XMLID_707_" d="M78.731,24.133c-9.349,1.406-18.104,9.638-22.828,17.239c-0.153,0.243,0.212,0.434,0.379,0.218
			c3.195-4.173,6.767-7.766,11.157-10.743c3.679-2.498,7.738-3.875,11.626-5.938C79.529,24.662,79.183,24.066,78.731,24.133z"/>
		<path id="XMLID_706_" d="M86.139,21.078c-0.462,0-0.463,0.704,0,0.704C86.601,21.782,86.602,21.078,86.139,21.078z"/>
		<path id="XMLID_705_" d="M24.824,35.912c-0.906-3.32-2.49-6.469-3.434-9.802c-0.13-0.456-0.897-0.383-0.866,0.115
			c0.224,3.501,1.075,7.428,3.427,10.185C24.298,36.818,24.949,36.378,24.824,35.912z"/>
		<path id="XMLID_704_" d="M31.016,44.861c-0.652-1.225-1.378-2.41-2.106-3.594c-0.391-0.636-1.266-0.08-0.986,0.565
			c0.521,1.205,1.044,2.409,1.63,3.585c0.517,1.04,0.964,2.27,1.853,3.055c0.331,0.291,1.031,0.123,0.974-0.396
			C32.253,46.906,31.564,45.892,31.016,44.861z"/>
		<path id="XMLID_703_" d="M32.614,54.779c-0.182-0.556-1.057-0.328-0.896,0.243c0.997,3.527-1.097,9.236-3.004,12.342
			c-1.159,1.888-4.199,3.254-3.351,5.661c0.083,0.233,0.384,0.272,0.522,0.068c1.047-1.531,2.713-2.493,3.781-4.022
			c0.918-1.318,1.549-2.82,2.066-4.329C32.814,61.571,33.693,58.044,32.614,54.779z"/>
		<path id="XMLID_702_" d="M56.874,90.751c-2.192-1.522-4.908-2.055-7.511-2.394c-3.961-0.518-10.2,0.376-13.38-2.433
			c-0.512-0.45-1.253,0.263-0.761,0.748c2.942,2.908,7.183,2.586,11.079,2.947c3.661,0.338,7.917,0.67,10.692,3.375
			c3.1,3.02,3.072,7.71,3.37,11.671c0.066,0.886,1.392,0.905,1.418,0C61.933,99.697,61.373,93.876,56.874,90.751z"/>
		<path id="XMLID_701_" d="M108.628,68.323c-0.288-0.823-0.977-1.493-1.544-2.145c-0.657-0.753-1.343-1.483-2.013-2.223
			c-0.535-0.587-1.347,0.258-0.866,0.849c0.6,0.736,1.19,1.481,1.8,2.21c0.549,0.656,1.113,1.457,1.879,1.868
			C108.249,69.077,108.779,68.749,108.628,68.323z"/>
		<path id="XMLID_700_" d="M105.801,71.486c-0.217-0.621-0.468-1.227-0.72-1.835c-0.387-0.938-1.958-0.54-1.574,0.426
			c0.254,0.635,0.503,1.27,0.791,1.891c0.27,0.584,0.489,1.264,0.997,1.689c0.378,0.318,0.882,0.09,0.932-0.378
			C106.292,72.66,106.002,72.061,105.801,71.486z"/>
		<path id="XMLID_699_" d="M103.392,76.589c-0.563-1.328-1.385-2.492-2.409-3.516c-0.777-0.773-1.967,0.402-1.211,1.187
			c0.927,0.965,1.653,2.074,2.091,3.335c0.324,0.93,0.262,2.049,1.107,2.667c0.193,0.141,0.536,0.082,0.692-0.087
			C104.542,79.224,103.829,77.626,103.392,76.589z"/>
		<path id="XMLID_698_" d="M32.425,96.455c-0.119-0.326-0.653-0.188-0.533,0.143c0.454,1.275,0.856,2.579,1.451,3.796
			c0.107,0.219,0.442,0.062,0.387-0.161C33.413,98.943,32.886,97.702,32.425,96.455z"/>
		<path id="XMLID_697_" d="M29.916,97.083c-0.203-0.584-0.404-1.169-0.605-1.751c-0.261-0.758-1.49-0.433-1.228,0.331
			c0.215,0.621,0.429,1.242,0.643,1.861c0.177,0.512,0.361,1.058,0.836,1.364c0.221,0.142,0.485-0.007,0.562-0.224
			C30.308,98.151,30.086,97.576,29.916,97.083z"/>
	</g>
</g>
</svg>
