<?xml version="1.0" encoding="iso-8859-1"?>
<!-- Generator: Adobe Illustrator 23.0.3, SVG Export Plug-In . SVG Version: 6.00 Build 0)  -->
<svg version="1.1" id="BACKGROUND2" xmlns="http://www.w3.org/2000/svg" xmlns:xlink="http://www.w3.org/1999/xlink" x="0px"
	 y="0px" viewBox="0 0 110.491 110.564" style="enable-background:new 0 0 110.491 110.564;" xml:space="preserve">
<g>
	
		<radialGradient id="SVGID_1_" cx="-223.5934" cy="-180.4424" r="106.8813" gradientTransform="matrix(0.8556 0.5177 -0.5177 0.8556 169.3299 286.2775)" gradientUnits="userSpaceOnUse">
		<stop  offset="0.0815" style="stop-color:#FFE245"/>
		<stop  offset="0.9963" style="stop-color:#61E327"/>
	</radialGradient>
	<circle style="fill:url(#SVGID_1_);" cx="55.244" cy="55.246" r="55.238"/>
	
		<radialGradient id="SVGID_2_" cx="-223.247" cy="-170.8078" r="99.2515" gradientTransform="matrix(0.8556 0.5177 -0.5177 0.8556 169.3299 286.2775)" gradientUnits="userSpaceOnUse">
		<stop  offset="0.0037" style="stop-color:#61E327"/>
		<stop  offset="0.9185" style="stop-color:#FFE245"/>
	</radialGradient>
	<path style="fill:url(#SVGID_2_);" d="M106.429,34.469c-1.074,6.173-3.278,12.256-6.717,17.94
		C84.889,76.907,53.013,84.749,28.515,69.926C15.044,61.775,6.623,48.465,4.224,34.064c-10.335,24.807-1.266,54.108,22.424,68.443
		c26.101,15.793,60.063,7.437,75.856-18.664C111.885,68.34,112.745,50.064,106.429,34.469z"/>
	
		<radialGradient id="SVGID_3_" cx="-853.2203" cy="-598.8701" r="99.2592" gradientTransform="matrix(0.2389 0.971 -0.971 0.2389 -292.6136 1013.2953)" gradientUnits="userSpaceOnUse">
		<stop  offset="0.0037" style="stop-color:#61E327"/>
		<stop  offset="0.9185" style="stop-color:#FFE245"/>
	</radialGradient>
	<path style="fill:url(#SVGID_3_);" d="M106.107,76.815c-5.125,3.606-10.984,6.348-17.435,7.936
		c-27.804,6.841-55.889-10.153-62.73-37.957c-3.762-15.289-0.305-30.655,8.182-42.535C9.274,14.491-5.033,41.623,1.583,68.511
		c7.289,29.624,37.212,47.73,66.836,40.441C86.014,104.623,99.546,92.308,106.107,76.815z"/>
	
		<ellipse transform="matrix(0.971 -0.2389 0.2389 0.971 -5.1091 15.1573)" style="fill:#E3AD27;" cx="59.969" cy="28.653" rx="7.552" ry="7.552"/>
	<g>
		<g>
			<path style="fill:#E3AD27;" d="M53.374,49.162c0.03,0.09,0.06,0.18,0.09,0.27c0.489,1.463,1.75,2.765,3.413,2.718
				c1.648-0.047,2.958-1.044,3.491-2.6c0.095-0.278,0.112-0.621,0.134-0.916c0.104-1.412-0.933-2.765-2.161-3.3
				c-1.201-0.523-2.932-0.393-3.864,0.652c-0.084,0.095-0.168,0.189-0.253,0.283C53.543,47.032,53.022,48.11,53.374,49.162
				L53.374,49.162z"/>
		</g>
	</g>
	<g>
		<g>
			<path style="fill:#E3AD27;" d="M71.708,45.113c-0.102-0.022-0.204-0.045-0.307-0.067c-1.024-0.223-2.234,0.111-2.769,1.093
				c-0.542,0.994-0.406,2.097,0.317,2.96c0.067,0.08,0.134,0.16,0.201,0.241c1.082,1.292,3.233,0.921,4.053-0.435
				C74.024,47.548,73.353,45.471,71.708,45.113L71.708,45.113z"/>
		</g>
	</g>
	<g>
		<g>
			<path style="fill:#E3AD27;" d="M82.72,32.935c5.281,3.195,10.255-5.006,4.966-8.207C82.405,21.532,77.431,29.734,82.72,32.935
				L82.72,32.935z"/>
		</g>
	</g>
	<g>
		<g>
			<path style="fill:#E3AD27;" d="M87.064,51.166c1.74,1.053,3.38-1.65,1.636-2.704C86.96,47.409,85.321,50.112,87.064,51.166
				L87.064,51.166z"/>
		</g>
	</g>
	<g>
		<g>
			<path style="fill:#E3AD27;" d="M39.738,42.796c1.707,1.033,4.251,0.521,5.239-1.289c0.991-1.816,0.541-4.132-1.289-5.239
				c-1.707-1.033-4.251-0.521-5.239,1.289C37.458,39.373,37.908,41.688,39.738,42.796L39.738,42.796z"/>
		</g>
	</g>
	<g>
		<g>
			<path style="fill:#E3AD27;" d="M41.452,17.375c2.88,1.743,5.594-2.731,2.709-4.477C41.281,11.156,38.567,15.629,41.452,17.375
				L41.452,17.375z"/>
		</g>
	</g>
	<g>
		<g>
			<path style="fill:#E3AD27;" d="M31.1,25.345c-0.14-0.011-0.28-0.023-0.42-0.034c-1.743-0.142-3.079,2.065-2.144,3.543
				c0.075,0.119,0.15,0.238,0.225,0.356c1.039,1.644,3.459,1.887,4.537,0.105C34.377,27.534,33.039,25.502,31.1,25.345L31.1,25.345z
				"/>
		</g>
	</g>
	<g>
		<g>
			<path style="fill:#E3AD27;" d="M64.099,14.77c1.04,0.629,2.407,0.838,3.588,0.547c1.129-0.278,2.358-1.112,2.924-2.15
				c1.232-2.258,0.672-5.135-1.602-6.511c-1.04-0.629-2.407-0.838-3.588-0.548c-1.129,0.278-2.358,1.112-2.924,2.15
				C61.265,10.516,61.825,13.394,64.099,14.77L64.099,14.77z"/>
		</g>
	</g>
	<g>
		<g>
			<path style="fill:#E3AD27;" d="M65.473,67.085c2.22,1.343,4.312-2.105,2.088-3.451C65.341,62.291,63.249,65.739,65.473,67.085
				L65.473,67.085z"/>
		</g>
	</g>
	<g>
		<g>
			<path style="fill:#E3AD27;" d="M75.012,63.555c2.04,1.235,3.962-1.934,1.919-3.171C74.891,59.149,72.969,62.318,75.012,63.555
				L75.012,63.555z"/>
		</g>
	</g>
	<g>
		<g>
			<path style="fill:#E3AD27;" d="M74.053,36.906c2.16,1.307,4.195-2.048,2.032-3.357C73.924,32.242,71.889,35.597,74.053,36.906
				L74.053,36.906z"/>
		</g>
	</g>
	<g>
		<g>
			<path style="fill:#E3AD27;" d="M68.642,24.202c1.86,1.126,3.613-1.764,1.749-2.891C68.531,20.185,66.779,23.075,68.642,24.202
				L68.642,24.202z"/>
		</g>
	</g>
	<g>
		<g>
			<path style="fill:#E3AD27;" d="M13.216,59.335c1.756,1.063,4.373,0.536,5.389-1.326c1.019-1.868,0.556-4.25-1.326-5.389
				c-1.756-1.063-4.373-0.536-5.389,1.326C10.871,55.814,11.334,58.196,13.216,59.335L13.216,59.335z"/>
		</g>
	</g>
	<g>
		<g>
			<path style="fill:#E3AD27;" d="M26.727,84.061c0.6,0.363,1.165-0.569,0.564-0.933C26.692,82.766,26.126,83.698,26.727,84.061
				L26.727,84.061z"/>
		</g>
	</g>
	<g>
		<g>
			<path style="fill:#E3AD27;" d="M37.505,83.191c2.22,1.343,4.312-2.105,2.088-3.451C37.372,78.397,35.281,81.845,37.505,83.191
				L37.505,83.191z"/>
		</g>
	</g>
	<g>
		<g>
			<path style="fill:#E3AD27;" d="M38.836,97.93c4.081,2.469,7.924-3.868,3.837-6.342C38.593,89.12,34.749,95.457,38.836,97.93
				L38.836,97.93z"/>
		</g>
	</g>
	<g>
		<g>
			<path style="fill:#E3AD27;" d="M21.73,81.93c0.012-0.093,0.024-0.187,0.035-0.28c0.188-1.495-1.868-2.739-3.105-1.879
				c-0.077,0.054-0.154,0.107-0.232,0.161c-0.676,0.47-1.155,1.063-1.168,1.93c-0.012,0.787,0.404,1.538,1.078,1.946
				c0.674,0.408,1.532,0.427,2.224,0.052C21.324,83.447,21.628,82.747,21.73,81.93L21.73,81.93z"/>
		</g>
	</g>
	<g>
		<g>
			<path style="fill:#E3AD27;" d="M75.825,83.858c1.22,0.738,3.037,0.373,3.742-0.921c0.708-1.297,0.386-2.951-0.921-3.742
				c-1.219-0.738-3.037-0.373-3.742,0.921C74.196,81.413,74.518,83.067,75.825,83.858L75.825,83.858z"/>
		</g>
	</g>
	<g>
		<g>
			<path style="fill:#E3AD27;" d="M84.369,87.619c0.064,0.039,0.124-0.061,0.06-0.099C84.365,87.481,84.305,87.58,84.369,87.619
				L84.369,87.619z"/>
		</g>
	</g>
	<g>
		<g>
			<path style="fill:#E3AD27;" d="M93.659,60.031c2.04,1.235,3.962-1.934,1.919-3.171C93.537,55.626,91.615,58.795,93.659,60.031
				L93.659,60.031z"/>
		</g>
	</g>
	<g>
		<g>
			<path style="fill:#E3AD27;" d="M88.642,89.969c3.06,1.852,5.943-2.901,2.878-4.756C88.459,83.361,85.576,88.114,88.642,89.969
				L88.642,89.969z"/>
		</g>
	</g>
	<g>
		<g>
			<path style="fill:#E3AD27;" d="M76.178,61.135c-6.583,10.88-3.1,25.036,7.78,31.619c2.757,1.668,5.725,2.684,8.726,3.103
				c3.733-3.444,7.059-7.452,9.82-12.015c5.411-8.943,7.985-18.809,7.984-28.55c-0.845-0.694-1.728-1.354-2.691-1.937
				C96.918,46.773,82.761,50.256,76.178,61.135z"/>
			<path style="fill:#E3AD27;" d="M105.777,32.962c-2.422-5.506-5.754-10.643-9.935-15.171c-0.735,0.623-1.388,1.368-1.915,2.238
				c-2.614,4.32-1.231,9.941,3.089,12.555C99.781,34.257,103.075,34.286,105.777,32.962z"/>
			<path style="fill:#E3AD27;" d="M26.648,102.507c2.292,1.387,4.647,2.577,7.043,3.596c2.131-1.595,4.005-3.606,5.467-6.023
				c6.099-10.08,2.872-23.195-7.208-29.294c-9.374-5.672-21.367-3.269-27.907,5.201C8.359,86.663,16.037,96.086,26.648,102.507z"/>
			<path style="fill:#E3AD27;" d="M4.158,34.217C2.106,39.184,0.839,44.33,0.302,49.498c2.479-0.312,4.798-1.707,6.192-4.011
				C8.803,41.67,7.736,36.761,4.158,34.217z"/>
			<path style="fill:#E3AD27;" d="M63.651,103.422c-4.96-3.001-11.414-1.413-14.415,3.547c-0.586,0.968-0.992,1.994-1.237,3.04
				c6.763,0.891,13.589,0.515,20.13-1.055C67.356,106.724,65.829,104.74,63.651,103.422z"/>
			<path style="fill:#E3AD27;" d="M58.924,94.229c4,2.42,9.204,1.14,11.625-2.86c2.42-4,1.14-9.204-2.86-11.625
				c-4-2.42-9.204-1.14-11.625,2.86C53.643,86.605,54.924,91.809,58.924,94.229z"/>
		</g>
	</g>
</g>
</svg>
