<?xml version="1.0" encoding="iso-8859-1"?>
<!-- Generator: Adobe Illustrator 23.0.3, SVG Export Plug-In . SVG Version: 6.00 Build 0)  -->
<svg version="1.1" id="OBJECTS" xmlns="http://www.w3.org/2000/svg" xmlns:xlink="http://www.w3.org/1999/xlink" x="0px" y="0px"
	 viewBox="0 0 90.502 87.082" style="enable-background:new 0 0 90.502 87.082;" xml:space="preserve">
<g>
	<path style="fill:#d8e9f7;" d="M68.983,5.87C52.619-2.842,30.578-1.4,15.553,9.533C0.833,20.244-2.356,39.364,2.118,56.16
		C8.002,78.255,29.575,88.437,51.26,86.938c0.198-0.014,0.298-0.166,0.303-0.318c9.271,0.277,19.225-4.744,26.369-10.249
		c7.342-5.657,9.898-16.467,11.637-25.094C93.273,32.888,85.858,14.854,68.983,5.87z M75.434,12.342
		c0.538,0.435,1.056,0.891,1.569,1.351c-0.989,0.456-1.924,1.165-2.336,2.175c-0.406,0.996-0.272,2.265,0.699,2.878
		c0.773,0.487,1.882,0.444,2.421-0.367c0.68-1.024-0.085-2.281-0.716-3.108c-0.074-0.096-0.231-0.014-0.168,0.098
		c0.357,0.638,0.793,1.562,0.57,2.32c-0.32,1.09-1.73,0.945-2.22,0.097c-0.528-0.913,0.036-2.063,0.722-2.699
		c0.45-0.418,0.991-0.678,1.533-0.941c0.557,0.517,1.104,1.045,1.629,1.592c-0.59-0.488-1.312-0.775-2.06-0.927
		c-0.259-0.053-0.367,0.321-0.11,0.399c0.4,0.121,0.763,0.292,1.113,0.49c-0.066,0.117-0.051,0.282,0.119,0.333
		c0.278,0.084,0.557,0.167,0.835,0.252c0.176,0.054,0.323-0.105,0.322-0.263c0.847,1.432,1.484,3.264,0.072,4.629
		c-1.538,1.487-3.939,0.488-5.104-0.887C72.258,17.325,73.114,14.147,75.434,12.342z M51.819,10.931
		c-0.359,6.317-8.397,8.039-13.362,7.451c-2.389-0.283-4.817-0.997-6.559-2.788c-3.236-3.327-1.711-7.886,2.086-9.706
		c4.057-1.944,8.763-0.864,12.018,2.051c-3.127-2.089-8.773-2.356-11.544,0.236c-3.353,3.138-0.378,7.141,3.253,8.046
		c4.129,1.03,9.186-0.517,10.818-4.727c1.809-4.669-2.052-8.076-5.998-9.666c0.735-0.022,1.471-0.031,2.206-0.023
		C48.369,3.585,52.072,6.478,51.819,10.931z M4.926,24.459c6.216-6.949,16.819-7.139,23.158-0.042
		c6.517,7.296,5.383,18.597-1.028,25.579C19.946,57.738,3.6,58.015,2.84,44.756C2.52,39.19,5.842,32.708,11.598,31.379
		c9.424-2.177,13.612,10.565,5.234,14.322c2.059-2.312,3.004-5.381,0.63-8.16c-1.828-2.139-5.101-2.384-7.293-0.844
		c-0.079-0.032-0.167-0.038-0.247,0.038c-4.386,4.189-2.52,11.016,3.205,12.926c6.428,2.144,12.214-2.98,14.503-8.617
		c2.566-6.317-0.399-13.11-6.891-15.383c-7.022-2.459-13.75,1.121-18.296,6.33C3.03,29.391,3.848,26.862,4.926,24.459z
		 M50.982,85.526c-5.618-2.152-10.896-5.77-12.401-11.977c-1.592-6.563,2.014-13.896,8.779-15.585
		c6.123-1.529,14.013,1.256,17.197,6.875c2.726,4.811,0.324,11.817-5.504,12.806c-2.227,0.378-5.036,0.186-6.995-1.056
		c-2.035-1.29-7.645-8.855-0.872-10.31c-3.027,2.998-1.396,7.851,2.267,9.652c3.915,1.925,9.093,0.025,9.506-4.619
		c0.027-0.307-0.273-0.472-0.537-0.448c1.893-8.853-15.998-13.682-19.877-3.799c-4.375,11.144,11.682,16.865,20.844,15.865
		C59.442,84.608,55.358,85.707,50.982,85.526z M89.097,44.262C86.266,40,78.532,41.045,75.073,43.876
		c-3.811,3.119-5.171,9.454-1.149,13.034c3.449,3.069,8.94,1.446,10.609-2.721c1.474-3.681-0.54-9.857-5.343-7.478
		c-0.257,0.127-0.032,0.489,0.221,0.379c6.137-2.665,5.744,7.652,1.734,9.83c-4.283,2.326-8.65-1.282-8.673-5.768
		c-0.038-7.463,11.612-12.269,16.511-6.218c0.02,0.025,0.046,0.023,0.069,0.036c-0.036,0.512-0.081,1.032-0.131,1.555
		c-4.579-4.6-15.695-1.011-13.025,6.326c1.08,2.968,4.27,3.254,6.045,0.678c1.803-2.616,0.191-6.02-2.877-6.447
		c-0.169-0.024-0.24,0.202-0.072,0.26c1.347,0.468,2.637,1.457,2.981,2.91c0.369,1.558-0.714,3.982-2.486,4.268
		c-3.654,0.589-3.386-4.566-2.238-6.371c2.353-3.699,8.931-4.08,11.557-0.554c-0.952,8.49-3.689,18.071-8.363,24.215
		c-3.225,4.239-8.351,6.791-13.007,9.198c-0.518,0.268-1.039,0.524-1.56,0.778c-0.099-0.147-0.275-0.243-0.501-0.191
		c-7.116,1.625-14.873-0.015-19.804-5.735c-4.514-5.236-1.849-13.102,5.477-13.535c4.923-0.291,11.655,4.171,10.799,9.677
		c-1.031,3.288-4.782,4.55-7.925,2.985c-3.351-1.668-4.535-5.757-1.873-8.632c0.156-0.168,0.1-0.361-0.032-0.466
		c-0.01-0.139-0.098-0.274-0.258-0.257c-3.62,0.392-4.965,3.48-3.906,6.895c1.287,4.151,5.52,6.604,9.762,6.29
		c10.594-0.784,11.394-12.933,4.07-18.543c-7.158-5.483-18.836-5.042-23.016,3.787c-4.295,9.071,1.914,19.025,10.933,21.619
		c-0.103,0.172-0.107,0.41,0.009,0.596c-13.956-0.364-28.616-3.761-37.924-14.083c0.029-0.036,0.06-0.07,0.067-0.125
		c0.424-3.445-0.592-6.227,3.797-7.176c2.452-0.53,5.216-0.087,7.399,1.107c2.273,1.244,6.784,6.067,2.794,8.714
		c-2.635,1.749-6.243,0.33-8.388-1.557c2.242,0.988,5.486,1.7,6.947-0.885c1.319-2.333-1.125-4.345-3.16-5.007
		c-2.498-0.813-5.433-0.193-6.969,2.061c-1.509,2.215-0.786,5.058,1.461,6.42c0.392,0.238,0.74-0.366,0.358-0.612
		c-4.311-2.769-0.182-7.78,3.739-7.339c1.945,0.219,5.773,2.01,3.542,4.711c-1.462,1.77-4.203,0.748-5.976,0.159
		c-0.14-0.047-0.243,0.074-0.258,0.198c-0.059-0.058-0.123-0.115-0.18-0.173c-0.287-0.295-0.712,0.143-0.448,0.448
		c2.198,2.536,6.583,4.205,9.718,2.238c2.791-1.751,1.867-5.516,0.141-7.688c-2.333-2.936-6.431-4.214-10.075-3.808
		c-1.443,0.161-3.15,0.594-4.155,1.744c-1.454,1.664-0.858,4.034-0.79,6.073c-1.868-2.155-3.514-4.595-4.875-7.368
		c-4.575-9.324-6.262-20.953-4.101-31.503c6.54-6.824,20.01-12.05,24.817-0.303c2.213,5.409-0.905,12.152-5.768,15.13
		c-2.275,1.393-5.264,2.061-7.873,1.241c-5.231-1.644-6.962-7.583-3.435-11.521c2.293-1.545,5.505-1.65,7.243,0.931
		c2.153,3.195,0.098,6.093-2.539,8.031c-0.515,0.379-0.001,1.248,0.503,0.86c0.254-0.196,0.498-0.406,0.737-0.622
		c7.28-2.353,8.721-12.906,0.688-15.587c-9.834-3.282-16.82,9.285-13.994,17.539c3.232,9.439,15.219,10.123,22.319,4.887
		c8.525-6.286,11.466-19.11,5.193-27.95c-5.787-8.156-17.436-9.795-24.347-2.835c1.417-2.733,3.18-5.283,5.327-7.559
		C19.104,6.632,30.271,2.398,41.675,1.87c-0.083,0.202-0.03,0.478,0.235,0.576c2.951,1.095,6.31,3.22,6.303,6.775
		c-0.009,4.261-4.28,6.575-8.051,6.533c-2.046-0.023-4.702-0.554-5.855-2.507c-1.693-2.869,0.618-5.071,3.138-5.828
		c2.853-0.857,6.552-0.449,8.954,1.309c0.181,0.132,0.411-0.165,0.24-0.311c-0.001-0.001-0.002-0.002-0.003-0.003
		c0.127-0.031,0.222-0.191,0.106-0.319c-3.818-4.2-10.498-5.467-15.17-1.744c-4.79,3.816-1.979,9.984,2.905,12.081
		c5.198,2.232,14.46,1.293,17.316-4.315c2.677-5.256-1.299-9.904-5.798-12.269c10.542,0.371,20.966,3.85,28.934,10.089
		c-3.614,2.213-3.468,7.978,0.579,9.864c3.288,1.533,5.948-1.307,5.423-4.053c5.097,6.133,8.247,13.926,8.271,23.205
		C89.202,42.011,89.164,43.123,89.097,44.262z"/>
	<path style="fill:#d8e9f7;" d="M45.359,27.009c-4.497,5.068-3.226,13.914,2.201,17.705c4.951,3.458,14.118,3.658,15.968-3.325
		c0.043-0.163-0.025-0.288-0.132-0.359c0.649-2.555,0.943-5.244-0.583-7.586c-1.505-2.308-4.69-3.31-7.342-3.133
		c-5.034,0.335-6.988,5.88-3.145,9.172c0.277,0.237,0.664-0.112,0.481-0.375c-0.004-0.014-0.002-0.028-0.013-0.041
		c-0.892-1.125-0.756-2.767,0.167-3.83c0.941-1.083,2.375-1.439,3.754-1.537c2.233,0.675,3.845,2.837,3.259,5.254
		c-0.636,2.622-3.397,3.526-5.779,3.229c-3.746-0.466-6.224-3.468-6.469-6.997c1.386-6.67,9.069-9.076,14.963-5.895
		c5.47,2.952,6.429,9.732,3.516,14.84c-0.176,0.309,0.101,0.589,0.372,0.587c-0.058,0.068-0.105,0.137-0.165,0.205
		c-0.203,0.232,0.11,0.55,0.34,0.34C80.364,32.826,56.737,14.189,45.359,27.009z M61.992,28.222
		c-5.368-2.163-12.928-0.527-14.414,5.213c-0.058,0.009-0.112,0.036-0.125,0.103c-0.144,0.708-0.185,1.414-0.136,2.104
		c0.001,0.058-0.009,0.11-0.008,0.169c0.001,0.039,0.018,0.071,0.043,0.095c0.494,4.696,5.145,8.524,10.119,6.753
		c4.792-1.706,3.936-8.038-0.564-9.142c-0.011-0.062-0.052-0.12-0.137-0.124c-0.151-0.007-0.305-0.004-0.458,0
		c-0.013-0.002-0.024-0.006-0.036-0.007c-0.01-0.001-0.015,0.006-0.023,0.007c-1.529,0.044-3.115,0.611-3.959,1.958
		c-0.548,0.875-0.668,1.926-0.327,2.836c-1.087-1.398-1.46-3.153-0.53-4.827c1.336-2.405,4.264-2.756,6.731-2.108
		c5.027,1.321,5.428,5.556,4.864,9.754c-0.072,0.037-0.133,0.102-0.163,0.202c-2.241,7.487-12.746,5.341-16.627,0.923
		c-4.925-5.606-2.306-14.889,4.561-17.287c11.972-4.181,24.41,8.437,16.36,19.15C70.075,38.239,68.416,30.811,61.992,28.222z"/>
</g>
</svg>
