<?xml version="1.0" encoding="iso-8859-1"?>
<!-- Generator: Adobe Illustrator 23.0.3, SVG Export Plug-In . SVG Version: 6.00 Build 0)  -->
<svg version="1.1" id="BACKGROUND2" xmlns="http://www.w3.org/2000/svg" xmlns:xlink="http://www.w3.org/1999/xlink" x="0px"
	 y="0px" viewBox="0 0 65.711 65.637" style="enable-background:new 0 0 65.711 65.637;" xml:space="preserve">
<g>
	
		<radialGradient id="SVGID_1_" cx="545.2277" cy="426.7388" r="63.3523" gradientTransform="matrix(0.8556 0.5177 -0.5177 0.8556 -203.2126 -637.7154)" gradientUnits="userSpaceOnUse">
		<stop  offset="0.0815" style="stop-color:#FFE245"/>
		<stop  offset="0.9963" style="stop-color:#E38427"/>
	</radialGradient>
	<circle style="fill:url(#SVGID_1_);" cx="32.763" cy="32.848" r="32.742"/>
	
		<radialGradient id="SVGID_2_" cx="545.433" cy="432.4496" r="58.8298" gradientTransform="matrix(0.8556 0.5177 -0.5177 0.8556 -203.2126 -637.7154)" gradientUnits="userSpaceOnUse">
		<stop  offset="0.0037" style="stop-color:#E38427"/>
		<stop  offset="0.9185" style="stop-color:#FFE245"/>
	</radialGradient>
	<path style="fill:url(#SVGID_2_);" d="M63.102,20.533c-0.637,3.659-1.943,7.264-3.981,10.633
		C50.334,45.687,31.44,50.336,16.919,41.55C8.935,36.718,3.943,28.829,2.521,20.293c-6.126,14.704-0.751,32.072,13.292,40.568
		c15.471,9.361,35.602,4.408,44.963-11.063C66.336,40.609,66.846,29.777,63.102,20.533z"/>
	
		<radialGradient id="SVGID_3_" cx="1337.5812" cy="-1.7313" r="58.8345" gradientTransform="matrix(0.2389 0.971 -0.971 0.2389 -270.7967 -1273.5302)" gradientUnits="userSpaceOnUse">
		<stop  offset="0.0037" style="stop-color:#E38427"/>
		<stop  offset="0.9185" style="stop-color:#FFE245"/>
	</radialGradient>
	<path style="fill:url(#SVGID_3_);" d="M62.911,45.633c-3.038,2.137-6.511,3.763-10.334,4.704
		c-16.48,4.055-33.128-6.018-37.183-22.499c-2.23-9.062-0.181-18.17,4.85-25.212C5.515,8.691-2.965,24.773,0.956,40.711
		c4.32,17.559,22.057,28.291,39.616,23.971C51.001,62.115,59.022,54.816,62.911,45.633z"/>
	<path style="fill:#E3AD27;" d="M39.393,19.403c-1.28,2.115-4.032,2.792-6.147,1.512s-2.792-4.032-1.512-6.147
		c1.28-2.115,4.032-2.792,6.147-1.512C39.996,14.536,40.673,17.288,39.393,19.403z"/>
	<g>
		<g>
			<path style="fill:#E3AD27;" d="M31.654,29.242c0.018,0.053,0.036,0.107,0.053,0.16c0.29,0.867,1.037,1.639,2.023,1.611
				c0.977-0.028,1.753-0.618,2.069-1.541c0.056-0.165,0.066-0.368,0.079-0.543c0.062-0.837-0.553-1.639-1.281-1.956
				c-0.712-0.31-1.738-0.233-2.29,0.386c-0.05,0.056-0.1,0.112-0.15,0.168C31.754,27.979,31.446,28.618,31.654,29.242L31.654,29.242
				z"/>
		</g>
	</g>
	<g>
		<g>
			<path style="fill:#E3AD27;" d="M42.521,26.842c-0.061-0.013-0.121-0.026-0.182-0.039c-0.607-0.132-1.324,0.066-1.641,0.648
				c-0.321,0.589-0.241,1.243,0.188,1.754c0.04,0.048,0.08,0.095,0.119,0.143c0.641,0.766,1.916,0.546,2.402-0.258
				C43.894,28.285,43.496,27.054,42.521,26.842L42.521,26.842z"/>
		</g>
	</g>
	<g>
		<g>
			<path style="fill:#E3AD27;" d="M49.049,19.623c3.13,1.894,6.079-2.967,2.943-4.865C48.862,12.865,45.913,17.726,49.049,19.623
				L49.049,19.623z"/>
		</g>
	</g>
	<g>
		<g>
			<path style="fill:#E3AD27;" d="M51.623,30.43c1.032,0.624,2.003-0.978,0.97-1.603C51.562,28.203,50.59,29.805,51.623,30.43
				L51.623,30.43z"/>
		</g>
	</g>
	<g>
		<g>
			<path style="fill:#E3AD27;" d="M23.572,25.468c1.012,0.612,2.52,0.309,3.105-0.764c0.587-1.077,0.321-2.449-0.764-3.105
				c-1.012-0.612-2.52-0.309-3.105,0.764C22.22,23.44,22.487,24.812,23.572,25.468L23.572,25.468z"/>
		</g>
	</g>
	<g>
		<g>
			<path style="fill:#E3AD27;" d="M24.588,10.401c1.707,1.033,3.316-1.619,1.605-2.653C24.486,6.714,22.878,9.366,24.588,10.401
				L24.588,10.401z"/>
		</g>
	</g>
	<g>
		<g>
			<path style="fill:#E3AD27;" d="M18.452,15.125c-0.083-0.007-0.166-0.014-0.249-0.02c-1.033-0.084-1.825,1.224-1.271,2.1
				c0.045,0.07,0.089,0.141,0.134,0.211c0.616,0.975,2.05,1.118,2.689,0.062C20.394,16.422,19.601,15.218,18.452,15.125
				L18.452,15.125z"/>
		</g>
	</g>
	<g>
		<g>
			<path style="fill:#E3AD27;" d="M38.011,8.857c0.617,0.373,1.427,0.497,2.126,0.325c0.669-0.165,1.398-0.659,1.733-1.274
				c0.73-1.338,0.398-3.044-0.95-3.86c-0.617-0.373-1.426-0.497-2.126-0.325c-0.669,0.165-1.398,0.659-1.733,1.274
				C36.332,6.335,36.663,8.041,38.011,8.857L38.011,8.857z"/>
		</g>
	</g>
	<g>
		<g>
			<path style="fill:#E3AD27;" d="M38.826,39.866c1.316,0.796,2.556-1.248,1.238-2.045C38.747,37.024,37.507,39.068,38.826,39.866
				L38.826,39.866z"/>
		</g>
	</g>
	<g>
		<g>
			<path style="fill:#E3AD27;" d="M44.48,37.773c1.209,0.732,2.349-1.146,1.137-1.879C44.408,35.162,43.269,37.04,44.48,37.773
				L44.48,37.773z"/>
		</g>
	</g>
	<g>
		<g>
			<path style="fill:#E3AD27;" d="M43.911,21.977c1.28,0.775,2.487-1.214,1.204-1.99C43.835,19.213,42.629,21.201,43.911,21.977
				L43.911,21.977z"/>
		</g>
	</g>
	<g>
		<g>
			<path style="fill:#E3AD27;" d="M40.704,14.447c1.103,0.667,2.141-1.045,1.037-1.714C40.638,12.066,39.6,13.779,40.704,14.447
				L40.704,14.447z"/>
		</g>
	</g>
	<g>
		<g>
			<path style="fill:#E3AD27;" d="M7.851,35.272c1.041,0.63,2.592,0.318,3.194-0.786c0.604-1.107,0.33-2.519-0.786-3.194
				c-1.041-0.63-2.592-0.318-3.194,0.786C6.461,33.185,6.735,34.597,7.851,35.272L7.851,35.272z"/>
		</g>
	</g>
	<g>
		<g>
			<path style="fill:#E3AD27;" d="M15.86,49.928c0.356,0.215,0.691-0.337,0.334-0.553C15.839,49.16,15.504,49.712,15.86,49.928
				L15.86,49.928z"/>
		</g>
	</g>
	<g>
		<g>
			<path style="fill:#E3AD27;" d="M22.248,49.412c1.316,0.796,2.556-1.248,1.237-2.045C22.169,46.571,20.93,48.614,22.248,49.412
				L22.248,49.412z"/>
		</g>
	</g>
	<g>
		<g>
			<path style="fill:#E3AD27;" d="M23.037,58.149c2.419,1.464,4.697-2.293,2.274-3.759C22.893,52.926,20.615,56.683,23.037,58.149
				L23.037,58.149z"/>
		</g>
	</g>
	<g>
		<g>
			<path style="fill:#E3AD27;" d="M12.898,48.665c0.007-0.055,0.014-0.111,0.021-0.166c0.111-0.886-1.108-1.623-1.84-1.114
				c-0.046,0.032-0.092,0.064-0.137,0.095c-0.401,0.279-0.685,0.63-0.692,1.144c-0.007,0.467,0.239,0.911,0.639,1.153
				c0.399,0.242,0.908,0.253,1.318,0.031C12.657,49.564,12.837,49.149,12.898,48.665L12.898,48.665z"/>
		</g>
	</g>
	<g>
		<g>
			<path style="fill:#E3AD27;" d="M44.962,49.807c0.723,0.437,1.8,0.221,2.218-0.546c0.419-0.769,0.229-1.749-0.546-2.218
				c-0.723-0.437-1.8-0.221-2.218,0.546C43.996,48.358,44.187,49.339,44.962,49.807L44.962,49.807z"/>
		</g>
	</g>
	<g>
		<g>
			<path style="fill:#E3AD27;" d="M50.026,52.037c0.038,0.023,0.074-0.036,0.036-0.059C50.024,51.955,49.988,52.014,50.026,52.037
				L50.026,52.037z"/>
		</g>
	</g>
	<g>
		<g>
			<path style="fill:#E3AD27;" d="M55.532,35.684c1.209,0.732,2.349-1.147,1.137-1.879C55.46,33.073,54.321,34.951,55.532,35.684
				L55.532,35.684z"/>
		</g>
	</g>
	<g>
		<g>
			<path style="fill:#E3AD27;" d="M52.559,53.429c1.814,1.098,3.523-1.72,1.706-2.819C52.451,49.513,50.742,52.33,52.559,53.429
				L52.559,53.429z"/>
		</g>
	</g>
	<g>
		<g>
			<path style="fill:#E3AD27;" d="M45.171,36.339c-3.902,6.449-1.838,14.84,4.611,18.742c1.634,0.989,3.393,1.591,5.172,1.839
				c2.213-2.042,4.184-4.417,5.821-7.122c3.207-5.301,4.733-11.148,4.733-16.923c-0.501-0.411-1.024-0.803-1.595-1.148
				C57.464,27.826,49.073,29.89,45.171,36.339z"/>
			<path style="fill:#E3AD27;" d="M62.715,19.64c-1.436-3.264-3.411-6.308-5.889-8.992c-0.436,0.369-0.823,0.811-1.135,1.327
				c-1.549,2.561-0.73,5.892,1.831,7.442C59.161,20.407,61.114,20.424,62.715,19.64z"/>
			<path style="fill:#E3AD27;" d="M15.813,60.861c1.359,0.822,2.755,1.527,4.175,2.131c1.263-0.945,2.374-2.138,3.241-3.57
				c3.615-5.975,1.702-13.749-4.272-17.364c-5.557-3.362-12.665-1.938-16.541,3.083C4.972,51.47,9.523,57.056,15.813,60.861z"/>
			<path style="fill:#E3AD27;" d="M2.482,20.383c-1.216,2.944-1.967,5.994-2.286,9.058c1.469-0.185,2.844-1.012,3.67-2.377
				C5.236,24.801,4.603,21.892,2.482,20.383z"/>
			<path style="fill:#E3AD27;" d="M37.746,61.404c-2.94-1.779-6.765-0.838-8.544,2.102c-0.347,0.574-0.588,1.182-0.733,1.802
				c4.009,0.528,8.055,0.305,11.932-0.625C39.942,63.361,39.037,62.185,37.746,61.404z"/>
			<path style="fill:#E3AD27;" d="M34.944,55.955c2.371,1.435,5.456,0.676,6.891-1.695c1.434-2.371,0.675-5.456-1.695-6.89
				c-2.371-1.435-5.456-0.676-6.89,1.695C31.814,51.435,32.573,54.52,34.944,55.955z"/>
		</g>
	</g>
</g>
</svg>
