<?xml version="1.0" encoding="iso-8859-1"?>
<!-- Generator: Adobe Illustrator 23.0.3, SVG Export Plug-In . SVG Version: 6.00 Build 0)  -->
<svg version="1.1" id="BACKGROUND2" xmlns="http://www.w3.org/2000/svg" xmlns:xlink="http://www.w3.org/1999/xlink" x="0px"
	 y="0px" viewBox="0 0 78.976 78.976" style="enable-background:new 0 0 78.976 78.976;" xml:space="preserve">
<g>
	<radialGradient id="SVGID_1_" cx="39.4878" cy="39.1059" r="38.5264" gradientUnits="userSpaceOnUse">
		<stop  offset="0.063" style="stop-color:#5E8DEC"/>
		<stop  offset="0.3261" style="stop-color:#6090EC;stop-opacity:0.7192"/>
		<stop  offset="0.5154" style="stop-color:#6599EC;stop-opacity:0.5171"/>
		<stop  offset="0.6817" style="stop-color:#6EA9ED;stop-opacity:0.3397"/>
		<stop  offset="0.8345" style="stop-color:#7BBFED;stop-opacity:0.1766"/>
		<stop  offset="0.9771" style="stop-color:#8BDCEE;stop-opacity:0.0245"/>
		<stop  offset="1" style="stop-color:#8EE1EE;stop-opacity:0"/>
	</radialGradient>
	<circle style="opacity:0.5;fill:url(#SVGID_1_);" cx="39.488" cy="39.488" r="39.488"/>
	<radialGradient id="SVGID_2_" cx="30.148" cy="16.4347" r="61.0374" gradientUnits="userSpaceOnUse">
		<stop  offset="0.1444" style="stop-color:#B9D928"/>
		<stop  offset="0.937" style="stop-color:#5E8DEC"/>
	</radialGradient>
	<circle style="fill:url(#SVGID_2_);" cx="39.488" cy="39.488" r="32.42"/>
	<path style="opacity:0.5;fill:#B9D928;" d="M9.598,45.39c0-17.905,14.515-32.42,32.42-32.42c12.233,0,22.88,6.778,28.4,16.781
		C66.283,16.604,54,7.068,39.488,7.068c-17.905,0-32.42,14.515-32.42,32.42c0,5.672,1.46,11.001,4.019,15.638
		C10.121,52.053,9.598,48.783,9.598,45.39z"/>
	<radialGradient id="SVGID_3_" cx="29.1963" cy="22.5687" r="55.856" gradientUnits="userSpaceOnUse">
		<stop  offset="0.1444" style="stop-color:#B9D928"/>
		<stop  offset="0.937" style="stop-color:#5E8DEC"/>
	</radialGradient>
	<path style="opacity:0.5;fill:url(#SVGID_3_);" d="M48.909,59.556c-17.905,0-32.42-14.515-32.42-32.42
		c0-4.585,0.957-8.945,2.674-12.898c-7.373,5.943-12.095,15.043-12.095,25.25c0,17.905,14.515,32.42,32.42,32.42
		c13.32,0,24.758-8.036,29.746-19.521C63.673,56.868,56.606,59.556,48.909,59.556z"/>
	<radialGradient id="SVGID_4_" cx="35.6321" cy="40.2016" r="40.6629" gradientUnits="userSpaceOnUse">
		<stop  offset="0.1444" style="stop-color:#B9D928"/>
		<stop  offset="0.937" style="stop-color:#5E8DEC"/>
	</radialGradient>
	<path style="opacity:0.5;fill:url(#SVGID_4_);" d="M60.158,14.513c1.408,3.436,2.19,7.196,2.19,11.139
		c0,16.238-13.163,29.401-29.401,29.401c-11.182,0-20.905-6.243-25.876-15.432c0.072,17.843,14.556,32.287,32.416,32.287
		c17.905,0,32.42-14.515,32.42-32.42C71.908,29.439,67.335,20.46,60.158,14.513z"/>
	<g style="opacity:0.4;">
		<path style="fill:#2B86B0;" d="M24.862,13.818c1.767,2.362,0.865,5.664,0.882,8.613c0.036,5.908,4.659,11.466,10.462,12.578
			c1.417,0.271,2.943,0.289,4.235-0.353c1.292-0.642,2.262-2.074,2.018-3.495c-0.219-1.276-1.293-2.213-1.877-3.369
			c-0.915-1.812-0.457-4.213,1.06-5.562c1.241-1.103,3.028-1.506,4.119-2.758c1.801-2.067,0.873-5.254-0.22-7.768
			c-0.585-1.347-1.179-2.845-1.372-4.295c-1.529-0.221-3.091-0.341-4.682-0.341c-6.304,0-12.184,1.805-17.161,4.918
			C23.323,12.391,24.217,12.957,24.862,13.818z"/>
		<path style="fill:#5E8DEC;" d="M18.799,64.447c1.052-0.713,1.804-1.79,1.688-3.026c-0.217-2.323-3.22-3.613-3.466-5.933
			c-0.166-1.569,1.054-2.986,2.45-3.721c1.396-0.735,2.989-0.996,4.459-1.57c0.736-0.287,1.526-0.762,1.653-1.542
			c0.091-0.554-0.187-1.095-0.455-1.588c-1.374-2.521-3.2-5.353-6.061-5.589c-0.864-0.071-1.75,0.115-2.591-0.095
			c-1.964-0.49-2.807-2.898-2.621-4.914c0.187-2.016,1.056-3.934,1.135-5.957c0.087-2.226-0.94-4.57-2.883-5.66
			c-0.404-0.227-0.847-0.38-1.304-0.469c-2.381,4.512-3.735,9.649-3.735,15.106C7.068,49.528,11.633,58.5,18.799,64.447z"/>
		<path style="fill:#5E8DEC;" d="M62.73,16.897c-1.779-0.179-3.52-0.364-4.442-1.773l0.196,0.267
			c0.66,2.789,0.146,5.837-1.391,8.256c-0.547,0.861-1.22,1.649-1.643,2.578s-0.56,2.071-0.02,2.937
			c0.715,1.147,2.293,1.377,3.638,1.235c1.344-0.142,2.718-0.532,4.022-0.174c2.41,0.661,4.088,3.727,6.539,3.241
			c0.609-0.121,1.122-0.475,1.521-0.946C69.833,26.519,66.86,21.145,62.73,16.897z"/>
		<path style="fill:#2B86B0;" d="M64.104,60.572c-0.175-0.446-0.417-0.871-0.754-1.263c-1.379-1.601-3.668-1.95-5.685-2.582
			c-2.017-0.631-4.197-2.084-4.136-4.196c0.048-1.651,1.306-3.77-0.104-4.629c-0.396-0.242-0.887-0.252-1.351-0.244
			c-2.893,0.053-6.507,0.199-7.851-2.364c-0.842-1.606-0.319-3.633-1.01-5.309c-1.256-3.043-5.969-3.118-8.342-0.836
			c-2.373,2.282-2.94,5.829-3.136,9.115c-0.24,4.023-0.037,8.342,2.295,11.629c0.551,0.777,1.248,1.608,1.104,2.549
			c-0.312,2.045-3.499,1.554-5.204,2.726c-1.641,1.128-1.43,3.736-0.129,5.265c3.059,0.956,6.312,1.473,9.686,1.473
			C49.339,71.908,58.158,67.508,64.104,60.572z"/>
	</g>
	<path style="opacity:0.5;fill:#B9D928;" d="M50.626,17.068c2.528-1.062,5.44-0.792,8.026-1.703c0.536-0.189,1.054-0.478,1.53-0.831
		c-5.615-4.661-12.826-7.466-20.694-7.466c-16.146,0-29.53,11.805-32.005,27.253l0.375,2.924c-0.611,3.133-0.653,6.464,0.531,9.429
		c1.183,2.964,3.748,5.493,6.892,6.042c1.388,0.242,2.924,0.061,4.007-0.839c1.612-1.34,1.728-3.712,1.996-5.791
		c0.268-2.079,1.21-4.51,3.279-4.846c2.113-0.344,3.849,1.866,4.162,3.984c0.313,2.117-0.256,4.275-0.085,6.409
		c0.335,4.192,3.966,7.948,8.165,8.188c4.199,0.24,8.326-3.287,8.518-7.488c0.094-2.061-0.647-4.066-1.514-5.938
		c-1.281-2.767-2.862-5.396-4.707-7.824c-1.103-1.452-2.335-2.902-2.742-4.679c-0.834-3.636,2.934-7.486,6.587-6.73
		c2.182,0.451,3.919,2.153,6.067,2.747c2.147,0.594,5.166-1.052,4.401-3.144c-0.721-1.973-3.729-1.722-5.23-3.192
		C46.225,21.651,48.098,18.13,50.626,17.068z"/>
	<circle style="opacity:0.5;fill:#B9D928;" cx="27.369" cy="36.697" r="13.287"/>
	<path style="opacity:0.5;fill:#B9D928;" d="M50.934,19.9c0,3.323-2.694,6.017-6.017,6.017c-3.323,0-6.017-2.694-6.017-6.017
		c0-3.323,2.694-6.017,6.017-6.017C48.241,13.884,50.934,16.577,50.934,19.9z"/>
	<path style="opacity:0.5;fill:#B9D928;" d="M52.862,35.658c0,1.47-1.192,2.661-2.662,2.661c-1.47,0-2.662-1.192-2.662-2.661
		c0-1.47,1.192-2.661,2.662-2.661C51.67,32.996,52.862,34.188,52.862,35.658z"/>
</g>
</svg>
