<?xml version="1.0" encoding="iso-8859-1"?>
<!-- Generator: Adobe Illustrator 23.0.3, SVG Export Plug-In . SVG Version: 6.00 Build 0)  -->
<svg version="1.1" id="OBJECTS" xmlns="http://www.w3.org/2000/svg" xmlns:xlink="http://www.w3.org/1999/xlink" x="0px" y="0px"
	 viewBox="0 0 130.377 72.744" style="enable-background:new 0 0 130.377 72.744;" xml:space="preserve">
<g>
	<path style="fill:#f9e901;" d="M112.366,10.616c-1.005-1.772-3.635-2.848-5.417-1.578c-0.062,0.044-0.106,0.099-0.14,0.156
		c-1.628,0.814-2.362,2.845-1.646,4.64c0.808,2.027,3.04,3.224,5.109,2.294C112.301,15.216,113.526,12.661,112.366,10.616z
		 M110.137,14.862c-1.401,0.868-3.046,0.243-3.777-1.17c-0.797-1.538-0.115-2.899,1.09-3.811c1.256-0.296,2.558-0.16,3.486,0.854
		C112.125,12.034,111.556,13.982,110.137,14.862z"/>
	<path style="fill:#f9e901;" d="M94.697,20.177c-0.889-2.493-3.903-3.728-6.271-2.622c-1.996,0.41-3.238,2.999-3.018,4.976
		c0.314,2.819,3.186,4.66,5.914,4.031C94.058,25.93,95.629,22.79,94.697,20.177z M91.376,25.274
		c-1.849,0.643-4.123-0.364-4.692-2.277c-0.604-2.026,0.606-4.273,2.645-4.711c1.598-0.118,3.275,0.503,4.035,2.022
		C94.265,22.112,93.284,24.61,91.376,25.274z"/>
	<path style="fill:#f9e901;" d="M97.599,19.254c-0.872-4.422-6.945-6.127-10.592-4.11c-0.077,0.043-0.124,0.104-0.16,0.172
		c-3.482,1.393-5.782,5.008-4.649,8.848c1.17,3.967,5.472,7.195,9.648,5.957C96.247,28.817,98.44,23.518,97.599,19.254z
		 M90.036,29.226c-3.513,0.086-6.771-3.423-7.004-6.81c-0.211-3.077,1.911-5.041,4.316-6.421c0.006-0.002,0.01-0.001,0.016-0.003
		c3.727-1.496,9.071,0.193,9.172,4.837C96.619,24.62,94.305,29.121,90.036,29.226z"/>
	<path style="fill:#f9e901;" d="M114.241,10.529c-1.696-3.296-5.337-4.616-8.721-3.15c-0.079,0.034-0.133,0.086-0.175,0.145
		c-2.77,1.066-3.338,5.204-2.337,7.772c1.212,3.108,6.111,4.066,8.907,2.969C115.175,16.986,115.728,13.419,114.241,10.529z
		 M112.302,16.74c-2.033,1.391-5.641,0.936-7.462-0.751c-1.917-1.775-1.565-6.247,0.75-7.648c0.1,0.047,0.215,0.062,0.34,0.01
		c2.517-1.035,5.254-0.269,6.831,1.985C114.149,12.319,114.516,15.224,112.302,16.74z"/>
	<path style="fill:#f9e901;" d="M129.476,0.55c-0.069-0.294-0.292-0.546-0.686-0.548C113.875-0.088,98.765,2.407,85.161,8.7
		c-3.776,1.747-7.409,3.791-10.857,6.114c-0.054-0.153-0.171-0.285-0.384-0.339c-5.347-1.368-8.896-2.766-13.865,0.02
		c-6.128,3.436-11.793,7.617-17.091,12.217c-0.417,0.362-0.097,1.181,0.468,1.13c5.343-0.479,10.62-0.358,15.954,0.048
		c-0.705,0.965-1.315,1.959-1.774,2.982c-0.16,0.072-0.275,0.219-0.253,0.432c0.005,0.045,0.018,0.089,0.023,0.134
		c-0.068,0.175-0.144,0.348-0.203,0.524c-0.017,0.05,0.048,0.104,0.093,0.071c0.064-0.047,0.122-0.102,0.186-0.15
		c0.078,0.514,0.196,1.022,0.333,1.525c-2.354-0.238-4.73-0.365-7.094-0.422c-0.363-0.009-0.627,0.361-0.535,0.702
		c0.077,0.283,0.159,0.569,0.244,0.855c-6.701,0.095-13.633,1.09-19.359,4.753c-0.36,0.23-0.344,0.873,0.127,0.971
		c1.527,0.317,2.988,0.761,4.45,1.25c-7.795,2.945-14.776,7.63-20.531,13.678c-0.39,0.41,0.006,1.013,0.53,0.91
		c0.785-0.155,6.304-1.621,6.627-1.082c0.424,0.708-5.296,6.117-6.165,6.922c-4.583,4.246-9.896,7.399-15.69,9.681
		c-0.564,0.222-0.53,1.106,0.15,1.111c13.748,0.092,27.882-1.271,38.085-11.028c-1.242,2.598-2.871,4.846-5.01,7.007
		c-0.333,0.336,0,1.027,0.49,0.842c3.575-1.347,6.91-3.103,9.851-5.567c1.728-1.447,2.977-3.316,4.609-4.814
		c0.084-0.077,0.883-1.327,0.944-1.307c0.092,0.03-1.593,4.566-1.685,4.788c-0.224,0.538,0.533,0.819,0.887,0.516
		c4.693-4.01,8.435-8.674,11.107-14.249c0.445,0.342,0.915,0.634,1.358,0.728c0.519,0.111,0.776-0.138,1.054-0.528
		c0.881-1.239,1.464-2.972,2.012-4.395c0.089,0.034,0.17,0.083,0.261,0.112c0.059,0.181,0.215,0.323,0.471,0.315
		c1.739-0.052,3.474-0.162,5.203-0.326c-1.692,4.52-3.783,8.567-6.794,12.385c-0.418,0.531-0.035,1.236,0.65,1.116
		c7.367-1.285,16.121-2.715,22.838-6.163c4.139-2.124,3.321-7.692,3.212-11.848c18.168-6.677,33.459-20.051,40.249-39.072
		C130.54,0.684,129.917,0.362,129.476,0.55z M45.423,26.37c3.85-3.242,7.879-6.248,12.163-8.904
		c2.456-1.523,4.929-3.314,7.847-3.375c2.582-0.054,5.281,0.893,7.816,1.444c-1.408,0.984-2.785,2.011-4.123,3.091
		c-2.844,2.297-6.475,5.162-9.085,8.409C55.176,26.21,50.323,26.061,45.423,26.37z M58.018,34.178
		c0.283,0.852,0.64,1.681,1.07,2.466c-0.679,0.475-1.342,0.974-2.003,1.477c-0.368-0.523-0.727-1.05-1.014-1.631
		c-0.359-0.727-0.525-1.554-0.86-2.283C56.148,34.211,57.084,34.209,58.018,34.178z M45.884,52.957
		c-0.035-0.463-0.59-0.753-0.947-0.392c-6.562,6.618-15.063,10.184-24.269,10.249c5.132-2.921,9.587-6.535,13.615-10.935
		c0.234-0.256,0.18-0.796-0.227-0.859c-2.042-0.318-3.739,0.247-1.164-1.87c1.135-0.933,2.433-1.714,3.672-2.493
		c2.767-1.739,5.658-3.202,8.65-4.51c0.386-0.169,0.266-0.674,0-0.871c-0.866-0.644-1.615-1.059-2.449-1.382
		c2.968-0.931,5.911-1.469,9.072-1.738c0.468,0.877,1.026,1.696,1.711,2.396c0.1,0.102,0.22,0.134,0.335,0.123
		c-2.38,2.004-4.657,4.143-6.794,6.438c-0.383,0.412-0.01,1.285,0.603,1.036c2.759-1.124,5.607-2.16,8.441-3.241
		c-0.003,0.049-0.006,0.099,0.023,0.155c0.394,0.764,0.959,1.426,1.576,2.029c-1.089,1.428-2.141,2.982-3.317,4.336
		c-1.055,1.215-1.334,2.66-1.929,0.249c-0.124-0.501-0.728-0.473-0.992-0.13c-1.789,2.323-3.741,4.36-5.927,6.236
		C45.925,56.206,46.015,54.723,45.884,52.957z M49.955,45.954c7.991-7.898,17.461-13.646,27.972-17.694
		c-3.594,4.127-7.478,8.49-12.305,11.157C60.762,42.101,55.227,43.967,49.955,45.954z M54.268,34.199
		c-0.016,0.889,0.48,1.882,0.904,2.634c0.354,0.627,0.777,1.239,1.279,1.768c-0.725,0.565-1.443,1.14-2.152,1.728
		c0.026-0.1,0.015-0.211-0.049-0.32c-0.977-1.664-1.912-3.206-2.533-4.966c0.013-0.141-0.028-0.28-0.128-0.378
		c-0.058-0.184-0.133-0.355-0.184-0.545C52.359,34.16,53.314,34.184,54.268,34.199z M58.771,48.282
		c-1.951,3.924-4.204,7.549-7.22,10.76c-0.343,0.365-1.704,1.526-2.017,2.089c0.186-0.962,0.813-4.26,0.85-4.764
		c0.039-0.529-0.696-0.656-0.948-0.257c-1.571,2.49-3.374,4.775-5.579,6.736c-1.159,1.031-6.775,5.789-8.613,5.265
		c1.873,0.534,4.988-7.07,5.603-8.811c0.189-0.534-0.586-0.981-0.958-0.557C30.668,69.268,16.54,72.161,3.073,71.727
		c8.518-3.774,15.676-9.706,20.972-17.465c0.275-0.403-0.177-0.833-0.581-0.756c-2.075,0.395-4.149,0.792-6.223,1.188
		c5.889-5.406,12.368-9.522,19.734-12.712c0.049,0.017,0.097,0.033,0.146,0.05c0.273,0.095,0.495-0.137,0.531-0.38
		c0.289-0.26-0.011-0.877-0.437-0.731c-0.097,0.033-0.19,0.074-0.286,0.108c-1.365-0.593-2.757-1.05-4.187-1.442
		c5.67-2.905,11.69-3.402,17.989-4.019c0.215,0.629,0.473,1.247,0.753,1.853c-3.69-0.021-7.132,0.653-10.619,1.972
		c-0.456,0.173-0.566,0.917,0,1.04c3.97,0.867,2.717,1.113,0.607,2.314c-1.548,0.881-3.145,1.631-4.674,2.553
		c-2.579,1.556-4.992,3.335-7.337,5.218c-0.291,0.234-0.142,0.818,0.231,0.874c0.938,0.142,2.646-0.145,2.772,0.963
		c0.086,0.763-3.515,3.36-4.145,3.888c-3.105,2.604-6.45,4.74-10.035,6.607c-0.518,0.27-0.24,1.014,0.282,1.04
		c5.351,0.272,10.574-0.503,15.544-2.574c2.88-1.2,5.604-2.782,8.052-4.719c0.456-0.361,1.276-1.362,1.887-1.611
		c2.353-0.957,0.461,2.732,0,4.193c-0.179,0.565,0.52,0.841,0.908,0.529c1.606-1.296,3.143-2.631,4.56-4.134
		c1.276-1.354,1.962-3.442,2.604-0.795c0.123,0.507,0.736,0.477,1.002,0.131c1.81-2.354,3.62-4.707,5.431-7.061
		c0.01,0.008,0.019,0.018,0.029,0.026c0.094,0.081,0.196,0.17,0.301,0.263C58.844,48.18,58.802,48.219,58.771,48.282z
		 M62.111,47.011c-0.068,0.137-0.639,1.561-0.771,1.595c0.117-0.03-0.467-0.302-0.582-0.377c-1.549-1.01-2.747-2.348-4.17-3.496
		c1.051-0.403,2.097-0.818,3.136-1.243c-0.15,0.633,0.439,1.382,0.832,1.83c0.483,0.55,1.142,0.92,1.827,1.156
		C62.294,46.654,62.2,46.831,62.111,47.011z M63.501,44.414c-0.269,0.451-0.522,0.911-0.766,1.376
		c-0.036-0.033-0.077-0.063-0.128-0.084c-0.571-0.235-1.053-0.618-1.47-1.069c-0.369-0.4-0.541-1.006-0.965-1.331
		c-0.001-0.001-0.002,0-0.003-0.001c0.519-0.215,1.04-0.425,1.552-0.65c0.235,0.47,0.675,0.899,1.024,1.208
		c0.238,0.21,0.498,0.384,0.768,0.538C63.509,44.406,63.504,44.408,63.501,44.414z M88.361,48.585
		c-1.837,3.035-6.528,4.02-9.657,4.958c-4.373,1.312-8.81,2.333-13.292,3.176c2.634-3.658,4.567-7.548,5.666-11.984
		c6.112-0.649,12.123-1.994,17.865-4.002C89.01,43.054,89.35,46.952,88.361,48.585z M64.979,44.123
		c-0.062,0.004-0.112,0.024-0.162,0.044c-0.525-0.29-1.004-0.638-1.427-1.067c-0.261-0.264-0.456-0.598-0.675-0.902
		c1.195-0.545,2.375-1.111,3.521-1.73c5.054-2.731,9.104-7.339,12.741-11.683c0.266-0.318,0.119-0.711-0.143-0.89
		c0.35-0.203,0.184-0.799-0.253-0.672c-6.796,1.977-13.112,5.05-18.868,8.984c-0.549-1.656-0.979-3.315-1.375-5.029
		c3.735-3.119,6.657-7.542,10.444-10.702c4.96-4.139,10.491-7.568,16.339-10.303c10.125-4.735,20.97-7.105,31.993-8.099
		c-0.08,4.135,3.222,7.992,7.135,9.072C112.03,31.617,88.903,42.431,64.979,44.123z M124.837,10.121
		c-3.938-1.143-6.284-4.155-7.062-8.105c0.619-0.053,1.239-0.104,1.859-0.148c0.097,3.192,2.472,6.724,5.724,7.342
		C125.19,9.519,125.01,9.817,124.837,10.121z M125.894,8.213c-1.398-0.59-2.604-1.146-3.642-2.35
		c-0.992-1.15-1.551-2.568-1.745-4.058c2.756-0.18,5.52-0.281,8.283-0.317c0.05-0.001,0.087-0.02,0.133-0.028
		C128.038,3.811,127.021,6.058,125.894,8.213z"/>
</g>
</svg>
