<?xml version="1.0" encoding="iso-8859-1"?>
<!-- Generator: Adobe Illustrator 23.0.3, SVG Export Plug-In . SVG Version: 6.00 Build 0)  -->
<svg version="1.1" id="OBJECTS" xmlns="http://www.w3.org/2000/svg" xmlns:xlink="http://www.w3.org/1999/xlink" x="0px" y="0px"
	 viewBox="0 0 55.047 50.898" style="enable-background:new 0 0 55.047 50.898;" xml:space="preserve">
<g>
	<path style="fill:#FFF200;" d="M0.312,50.898c-0.257-3.203-0.002-6.458,0.608-9.66c0.661-3.194,1.766-6.299,3.192-9.256
		c2.887-5.899,7.217-11.133,12.561-15.052c5.31-3.975,11.765-6.379,18.218-7.239C41.37,8.782,47.855,9.1,54.209,9.934
		c-6.403,0.411-12.782,0.765-18.913,2.063c-3.048,0.688-6.067,1.493-8.868,2.778c-1.431,0.564-2.778,1.313-4.141,2.022
		c-1.305,0.817-2.629,1.6-3.843,2.552c-2.492,1.802-4.805,3.875-6.827,6.213c-2.05,2.309-3.906,4.813-5.447,7.516
		c-1.519,2.708-2.869,5.542-3.834,8.536C1.361,44.603,0.717,47.707,0.312,50.898z"/>
</g>
<g>
	<path style="fill:#FFF200;" d="M39.13,0.125c2.746,0.202,5.42,1.021,7.935,2.182c1.256,0.586,2.465,1.28,3.622,2.053
		c0.582,0.382,1.139,0.801,1.691,1.225c0.52,0.42,1.188,0.897,1.757,1.803c0.276,0.451,0.47,1.042,0.501,1.618
		c0.036,0.58-0.076,1.137-0.256,1.597c-0.377,0.921-0.915,1.561-1.451,2.111c-1.058,1.023-2.112,1.863-3.273,2.658
		c-2.308,1.549-4.85,2.75-7.547,3.309c2.16-1.698,4.2-3.345,6.07-5.148c0.919-0.891,1.865-1.84,2.661-2.75
		c0.366-0.432,0.662-0.875,0.763-1.211c0.098-0.347,0.077-0.423-0.044-0.649c-0.129-0.249-0.534-0.624-1.048-1.043
		c-0.484-0.423-0.989-0.822-1.492-1.223c-1.01-0.8-2.051-1.568-3.121-2.309C43.76,2.854,41.497,1.519,39.13,0.125z"/>
</g>
</svg>
