<?xml version="1.0" encoding="iso-8859-1"?>
<!-- Generator: Adobe Illustrator 23.0.3, SVG Export Plug-In . SVG Version: 6.00 Build 0)  -->
<svg version="1.1" id="OBJECTS" xmlns="http://www.w3.org/2000/svg" xmlns:xlink="http://www.w3.org/1999/xlink" x="0px" y="0px"
	 viewBox="0 0 631.518 538.209" style="enable-background:new 0 0 631.518 538.209;" xml:space="preserve">
<path style="fill:#009df8;" d="M212.035,90.398c-1.71,17.39-6.689,36.362-21.302,45.943c-6.807,4.463-14.942,6.325-22.884,8.107
	c-37.387,8.389-74.774,16.778-112.161,25.167c-13.801,3.097-28.039,6.387-39.443,14.754s-19.281,23.258-15.117,36.775
	c2.658,8.628,9.57,15.18,16.37,21.118c31.423,27.44,66.392,50.814,103.762,69.357c14.093,6.992,29.71,14.469,36.009,28.885
	c3.232,7.396,3.513,15.695,3.746,23.764c1.263,43.861,2.526,87.721,3.789,131.582c0.321,11.132,1.068,23.347,8.711,31.446
	c7.304,7.739,18.921,9.466,29.561,9.295c33.506-0.539,65.331-15.315,92.988-34.237c27.657-18.923,61.101-30.875,87.771-51.165
	c3.121-2.375,6.404-4.771,10.239-5.591c5.43-1.161,10.955,1.013,16.098,3.106c41.1,16.729,74.225,19.778,117.027,31.484
	c15.949,4.362,57.924,0.343,73.664-4.72c24.899-8.008,13.126-28.816,12.091-54.95s-12.857-50.431-23.521-74.313
	c-10.665-23.882-22.825-49.503-19.736-75.474c2.273-19.108,22.618-36.595,29.311-54.637c7.66-20.649,24.752-55.803,29.262-77.36
	c1.834-8.766,3.606-18.215-0.01-26.408c-4.339-9.832-15.135-14.963-25.352-18.299c-35.902-11.72-96.2,2.138-133.722,6.422
	c-31.227,3.565-54.256,8.371-82.846-4.685c-16.544-7.555-29.705-36.451-44.089-47.582c-18.338-14.19-61.903-58.136-93.374-46.129
	C213.93,15.388,214.463,65.71,212.035,90.398z"/>
</svg>