<?xml version="1.0" encoding="iso-8859-1"?>
<!-- Generator: Adobe Illustrator 23.0.3, SVG Export Plug-In . SVG Version: 6.00 Build 0)  -->
<svg version="1.1" id="&#x421;&#x43B;&#x43E;&#x439;_1"
	 xmlns="http://www.w3.org/2000/svg" xmlns:xlink="http://www.w3.org/1999/xlink" x="0px" y="0px" viewBox="0 0 40.585 40.755"
	 style="enable-background:new 0 0 40.585 40.755;" xml:space="preserve">
<path style="fill:#9fca00;" d="M1.229,39.469L1.229,39.469c-1.556-1.556-1.556-4.101,0-5.657L33.756,1.285
	c1.556-1.556,4.101-1.556,5.657,0l0,0c1.556,1.556,1.556,4.101,0,5.657L6.886,39.469C5.33,41.025,2.785,41.025,1.229,39.469z"/>
<path style="fill:#9fca00;" d="M1.229,1.285L1.229,1.285c1.556-1.556,4.101-1.556,5.657,0l32.527,32.527
	c1.556,1.556,1.556,4.101,0,5.657l0,0c-1.556,1.556-4.101,1.556-5.657,0L1.229,6.942C-0.327,5.387-0.327,2.841,1.229,1.285z"/>
</svg>
