<?xml version="1.0" encoding="iso-8859-1"?>
<!-- Generator: Adobe Illustrator 23.0.3, SVG Export Plug-In . SVG Version: 6.00 Build 0)  -->
<svg version="1.1" id="Layer_2" xmlns="http://www.w3.org/2000/svg" xmlns:xlink="http://www.w3.org/1999/xlink" x="0px" y="0px"
	 viewBox="0 0 96 127.355" style="enable-background:new 0 0 96 127.355;" xml:space="preserve">
<g>
	<path fill="#9fca00" d="M90.673,76.284c1.687,1.472,4.205-0.865,2.536-2.369c-0.723-0.715-1.452-1.424-2.183-2.131
		c-0.653-0.679-1.293-1.369-1.934-2.059c0.715-0.747,0.935-1.961,0.033-2.822c-0.514-0.49-1.01-0.994-1.496-1.51
		c-0.043-0.147-0.114-0.297-0.235-0.448c-1.289-1.608-2.635-3.167-4.013-4.702c-1.732-2.324-3.356-4.728-5.005-7.038
		c-3.289-4.61-6.541-9.34-10.627-13.383c-1.923-1.902-4.059-3.687-6.264-5.396c-0.007-0.298-0.111-0.61-0.356-0.903
		c-0.451-0.538-0.93-1.049-1.431-1.539c-3.625-5.045-7.718-10.156-13.661-12.069c-0.358-0.337-0.718-0.674-1.075-1.013
		c0.883-0.867-0.504-2.17-1.474-1.404c-0.114-0.109-0.227-0.217-0.341-0.325c-0.005-0.005-0.01-0.007-0.016-0.013
		c0.298-0.46-0.308-1.033-0.762-0.608c-0.057,0.054-0.114,0.107-0.171,0.161c-0.088-0.008-0.176-0.009-0.262-0.003
		c-0.156-0.356-0.703-0.588-1.134-0.271c-3.946,2.903-7.157,6.555-9.997,10.512c-0.058,0.063-0.118,0.121-0.174,0.185
		c-3.666,4.027-6.458,8.972-9.169,13.634c0.001-1.783,0.063-3.567,0.159-5.354c0.024-0.447,0.055-0.893,0.083-1.339
		c0.667-0.501,0.643-1.441,0.115-1.893c0.046-0.737,0.093-1.474,0.125-2.211c0.072-1.691,0.351-3.522-0.315-5.122
		c-0.122-0.294-0.382-0.429-0.639-0.418c-1.843-0.415-3.894,0.91-5.377,1.829c-1.039,0.645-2.059,1.315-3.11,1.943
		c-0.299,0.179-0.605,0.346-0.914,0.509c-0.176-0.294-0.561-0.479-0.918-0.37c-1.888,0.577-1.908,4.196-2.082,5.689
		c-0.423,3.615-0.369,7.291-0.224,10.919c0.149,3.733,0.556,7.432,1.23,11.114c0.218,1.193,0.441,2.458,0.774,3.689
		c-1.306,2.239-2.558,4.501-3.727,6.803c-0.234-0.04-0.505,0.057-0.548,0.3c-0.072,0.398-0.133,0.796-0.197,1.195
		c-1.669,3.417-3.148,6.921-4.331,10.566c-0.638,1.967,1.846,3.055,3.296,2.202C4.77,86.237,5.001,91.669,5.178,97.042
		c0.17,5.142,0.321,10.284,0.399,15.428c0.034,2.207-0.227,5.3,0.573,7.393c0.409,1.07,0.867,2.076,2.264,1.832
		c0.561-0.097,0.939-0.575,1.113-1.041c1.501-4.006,0.665-9.168,0.512-13.343c-0.168-4.563-0.387-9.124-0.603-13.686
		c-0.273-5.788-0.549-11.619-1.143-17.407c0.571-0.958,1.022-1.964,1.38-2.781c0.262-0.601,0.525-1.221,0.783-1.854
		c4.81,0.175,9.739-0.291,14.49-0.392c6.352-0.133,12.698-0.404,19.048-0.572c12.956-0.344,25.997-0.075,38.935-0.73
		c0.587,8.091,2.424,16.132,3.631,24.15c1.294,8.603,2.186,17.322,2.379,26.013c-0.285-0.349-0.728-0.589-1.342-0.588
		c-8.496,0.029-17.004,0.482-25.486,1.19c-0.021-1.143-0.571-2.159-0.873-3.321c-0.599-2.304-0.823-4.692-1.02-7.051
		c-0.373-4.498-0.357-9.014-0.442-13.522c-0.011-0.563-0.505-1.071-1.128-1.054c-3.18,0.085-6.338,0.531-9.498,0.845
		c-2.607,0.258-6.616,0.974-9.062-0.201c-0.488-0.234-1.083,0.388-0.615,0.747c0.149,0.114,0.302,0.216,0.458,0.313
		c-0.384,0.019-0.805,0.305-0.861,0.705c-0.627,4.394-0.182,8.854,0.068,13.27c0.123,2.194,0.302,4.385,0.447,6.578
		c0.109,1.636-0.025,3.387,0.246,5.027c-5.018,0.586-10.041,1.141-15.083,1.491c-6.214,0.433-12.057-0.43-18.206-0.881
		c-0.281-0.021-0.305,0.316-0.128,0.442c4.519,3.24,11.364,3.248,16.804,3.31c6.603,0.076,13.135-0.755,19.672-1.517
		c14.804-1.727,29.778-3.034,44.707-3.044c0.813,0,1.333-0.423,1.569-0.965c0.669,1.094,2.835,0.866,2.85-0.697
		c0.078-8.808-0.76-17.51-2.107-26.219c-1.229-7.944-2.613-16.093-5.206-23.789C86.623,72.908,88.694,74.559,90.673,76.284z
		 M57.943,110.855c0.207,2.365,0.52,4.733,1.082,7.049c0.242,0.998,0.473,2.136,1.134,2.916c-0.329,0.028-0.659,0.06-0.989,0.089
		c-0.181-1.383-0.71-2.771-1.052-4.094c-0.552-2.121-1.129-4.236-1.656-6.364c-1.018-4.094-1.546-8.303-1.953-12.489
		c1-0.065,1.999-0.117,3-0.137C57.453,102.173,57.566,106.521,57.943,110.855z M56.597,120.668
		c-3.662-7.148-4.228-14.773-4.892-22.503c0.756-0.057,1.514-0.115,2.269-0.168c-0.651,3.778-0.25,7.47,0.397,11.288
		c0.413,2.434,0.958,4.852,1.625,7.234c0.404,1.448,0.689,3.099,1.282,4.563c-0.194,0.019-0.388,0.038-0.582,0.056
		C56.706,120.989,56.68,120.83,56.597,120.668z M50.914,98.225c-1.451,7.574,0.354,16.292,3.871,23.099
		c-1.466,0.146-2.93,0.299-4.393,0.456c-0.21-1.226-0.639-2.447-0.921-3.63c-0.542-2.278-0.859-4.6-1.108-6.923
		c-0.45-4.215-0.047-8.636-1-12.789C48.547,98.393,49.731,98.314,50.914,98.225z M42.754,122.645
		c0.15-1.545-0.076-3.168-0.154-4.685c-0.113-2.199-0.302-4.388-0.552-6.578c-0.513-4.486-0.793-8.998-1.478-13.461
		c-0.013-0.08-0.038-0.147-0.068-0.209c0.709,0.337,1.477,0.539,2.273,0.652c0.572,1.032,0.692,2.521,0.907,3.616
		c0.445,2.269,0.499,4.587,0.668,6.882c0.301,4.081,0.344,8.175,0.344,12.264c0,1.124,1.862,1.124,1.862,0
		c0-4.429-0.028-8.878-0.427-13.294c-0.2-2.208-0.578-4.444-1.148-6.595c-0.263-0.995-0.68-2.121-1.542-2.797
		c1.113,0.096,2.257,0.059,3.339,0.021c-0.995,4.357-0.529,9.175-0.214,13.573c0.16,2.227,0.467,4.443,0.871,6.642
		c0.203,1.107,0.418,2.266,0.835,3.335c-1.558,0.173-3.115,0.351-4.669,0.534C43.317,122.578,43.035,122.612,42.754,122.645z
		 M15.44,28.746c1.308-0.636,3.15-1.234,4.553-2.103c-0.072,0.831-0.034,1.679-0.055,2.528c-0.027,1.02-0.041,2.04-0.051,3.059
		c-1.843,0.613-3.503,1.521-5.187,2.484c-1.074,0.616-2.136,1.25-3.219,1.855c-0.411,0.231-0.735,0.468-1.042,0.711
		c0.035-0.673,0.07-1.345,0.125-2.014c0.102-1.272,0.272-2.535,0.554-3.781c0.075-0.333,0.217-0.679,0.344-1.028
		c0.16-0.038,0.345-0.096,0.576-0.188C13.198,29.806,14.321,29.289,15.44,28.746z M11.252,55.859
		c-0.454-3.439-0.656-6.924-0.813-10.385c-0.099-2.183-0.122-4.372-0.061-6.558c0.281,0.011,0.555,0.009,0.833-0.108
		c1.123-0.475,2.219-0.995,3.312-1.529c1.761-0.862,3.537-1.658,5.35-2.403c-0.007,2.714,0.066,5.423,0.306,8.125
		c-1.584,2.748-3.116,5.521-4.629,8.302c-1.37,2.163-2.722,4.331-4.034,6.519C11.418,57.154,11.337,56.493,11.252,55.859z
		 M44.9,67.251c-6.352,0.262-12.712,0.527-19.042,1.093c-4.541,0.407-9.367,0.575-13.986,1.294c1.867-2.59,3.183-5.726,4.552-8.27
		c2.851-5.301,5.568-10.664,8.403-15.973c2.2-4.119,4.516-8.192,7.095-12.115c3.04-3.987,6.292-7.832,9.871-11.384
		c1.464,1.612,3.155,2.98,4.94,4.251c0.942,1.379,2.024,2.687,3.131,3.938c3.887,4.388,8.727,7.894,12.936,11.998
		c6.473,6.311,10.35,14.831,16.269,21.57c0.028,1.048,0.587,2.065,1.324,3.011C68.607,66.225,56.655,66.765,44.9,67.251z"/>
	<path fill="#9fca00" d="M7.992,15.436c1.869,0.189,3.34,1.465,5.197,1.806c-0.641,1.834-1.81,2.735-3.829,3.44
		c-0.351,0.123-0.212,0.644,0.158,0.536c2.494-0.74,3.906-1.842,4.707-4.215c0.099-0.292-0.162-0.514-0.444-0.545
		c-1.723-0.191-3.01-1.299-4.536-1.868c3.059-2.513,6.484-4.637,9.957-6.608c0.662-0.376,0.229-1.466-0.542-1.203
		c-1.196,0.406-2.506,0.281-3.797,0.142c2.028-1.72,3.255-3.897,5.186-5.829c0.597-0.595-0.357-1.491-0.957-0.895
		c-2.251,2.235-3.529,4.937-6.385,6.657c-0.584,0.351-0.348,1.184,0.351,1.208c0.955,0.034,1.927,0.181,2.893,0.253
		c-3.005,1.79-5.896,3.742-8.397,6.134C7.147,14.838,7.476,15.384,7.992,15.436z"/>
	<path fill="#9fca00" d="M41.562,34.363c0.076-0.403,0.141-0.813,0.185-1.229c0.053-0.501-0.777-0.576-0.915-0.117
		c-1.343,4.491-4.332,8.384-7.075,12.207c-2.149,2.993-5.716,7.365-5.117,11.196c0.143,0.918,1.578,0.955,2.011,0.245
		c0.291-0.475,0.529-0.985,0.742-1.511c3.85,0.122,7.619-0.216,11.476-0.641c4.429-0.489,8.956-0.311,13.347-0.863
		c1.055-0.133,1.378-0.88,1.218-1.62c0.863-0.188,1.6-1.062,1.01-1.978C54.523,43.942,48.311,37.805,41.562,34.363z M52.636,50.368
		c-0.17-0.26-0.347-0.521-0.512-0.797c-0.261-0.439-0.492-0.895-0.712-1.355c0.106,0,0.213-0.062,0.213-0.191v-2.379
		c1.357,1.498,2.624,3.068,3.725,4.781C54.464,50.349,53.557,50.334,52.636,50.368z M51.202,45.187v2.584
		c-0.344-0.756-0.659-1.525-0.982-2.283c-0.391-0.924-0.832-1.826-1.332-2.697C49.675,43.578,50.449,44.374,51.202,45.187z
		 M42.476,51.793c-3.597,0.594-7.125,1.379-10.652,2.211c0.369-1.063,0.708-2.147,1.2-3.133c0.709-1.424,1.543-2.793,2.403-4.145
		c0.153,1.838,0.561,3.625,1.024,5.486c0.147,0.595,1.148,0.342,0.979-0.253c-0.56-1.962-1.139-3.958-1.53-5.972
		c0.3-0.467,0.602-0.933,0.9-1.399c0.34-0.53,0.676-1.059,1.004-1.588c0.092,2.946,0.998,5.991,3.06,8.124
		c0.464,0.48,1.247-0.133,0.93-0.672c-1.751-2.979-3.084-5.628-3.114-8.911c1.2-2.071,2.208-4.193,2.742-6.503
		c1.419,1.711,2.968,3.305,4.546,4.871c0,0.058,0.01,0.116,0.051,0.174c1.508,2.156,2.252,4.656,3.215,7.05
		c0.406,1.006,0.826,2.272,1.442,3.372c-1.556,0.153-3.125,0.404-4.657,0.671c0.23-0.159,0.35-0.44,0.153-0.743
		c-2.688-4.124-3.782-8.593-4.685-13.29c-0.042-0.218-0.441-0.169-0.416,0.053c0.547,4.786,1.1,9.729,4.006,13.837
		c0.094,0.133,0.216,0.21,0.345,0.247C44.416,51.457,43.429,51.636,42.476,51.793z"/>
	<path fill="#9fca00" d="M16.076,91.128c0.18,2.419,1.325,5.015,2.609,7.11c2.387,3.889,7.917,3.483,12.033,4.045
		c1.442,0.197,2.471-0.948,1.832-2.229c-3.204-6.433,0.709-13.515,0.133-20.218c-0.091-1.066-1.238-1.81-2.308-1.239
		c-3.557,1.897-7.723,2.328-11.505,0.719c-1.624-0.69-3.054,1.378-1.759,2.247C16.689,84.763,15.833,87.866,16.076,91.128z
		 M19.071,82.339c3.505,1.095,7.166,0.966,10.593-0.272c-0.168,5.764-2.373,11.308-0.876,16.935
		c-1.334-0.158-2.668-0.315-3.992-0.525c-1.433-0.229-2.537-0.57-3.368-1.737C18.285,92.325,19.103,87.315,19.071,82.339z"/>
	<path fill="#9fca00" d="M63.169,95.388c-0.393,0.832,0.035,2.204,1.27,2.071c4.827-0.514,9.618-0.646,14.474-0.656
		c0.775-0.003,1.545-0.635,1.494-1.396c-0.324-4.798-0.052-10.312-2.58-14.663c-2.76-4.753-9.052-3.994-13.691-2.614
		c-1.398,0.418-0.825,2.41,0.608,2.063c0.51-0.124,1.042-0.246,1.583-0.355c-1.233,1.366-1.389,3.656-1.608,5.309
		C64.274,88.508,64.662,92.217,63.169,95.388z M67.224,79.671c3.431-0.575,7.076-0.433,8.608,3.036
		c1.514,3.431,1.391,7.548,1.523,11.294c-3.642-0.018-7.333-0.034-10.946,0.402C67.282,89.554,65.517,84.326,67.224,79.671z"/>
</g>
</svg>
