<?xml version="1.0" encoding="iso-8859-1"?>
<!-- Generator: Adobe Illustrator 23.0.3, SVG Export Plug-In . SVG Version: 6.00 Build 0)  -->
<svg version="1.1" id="Layer_2" xmlns="http://www.w3.org/2000/svg" xmlns:xlink="http://www.w3.org/1999/xlink" x="0px" y="0px"
	 viewBox="0 0 104.604 153.962" style="enable-background:new 0 0 104.604 153.962;" xml:space="preserve">
<g>
	<path fill="#9fca00" d="M89.976,19.963c-4.333-5.559-9.819-9.792-16.323-12.524c-4.938-2.074-10.804-4.174-16.434-4.24
		c-16.42-4.209-32.703,6.259-42.802,18.55c-3.358,4.087-5.938,8.635-7.858,13.458c-0.064,0.051-0.127,0.105-0.191,0.156
		c-0.043,0.033-0.002,0.107,0.043,0.075c0.029-0.021,0.055-0.044,0.084-0.064c-3.051,7.74-4.398,16.184-4.477,24.591
		c-0.03,0.102-0.031,0.205-0.003,0.303c-0.024,4.24,0.266,8.467,0.824,12.584c0.642,4.721,1.639,9.303,2.935,13.768
		c-0.107,0.26-0.006,0.498,0.193,0.648c3.094,10.383,7.865,20.1,13.879,29.283c0.023,0.088,0.076,0.168,0.148,0.227
		c0.797,1.211,1.607,2.418,2.447,3.611c1.699,2.416,3.495,4.777,5.391,7.057c0.027,0.064,0.072,0.121,0.131,0.162
		c3.356,4.014,7.031,7.756,11.102,11.031c0.805,0.65,1.638,1.26,2.484,1.846c0.021,0.033,0.041,0.066,0.068,0.094
		c-0.373,0.008-0.744,0.014-1.119,0.018c-0.672,0.006-0.813,0.992-0.158,1.17c1.582,0.43,3.182,0.713,4.789,0.928
		c0.73,0.4,1.476,0.773,2.234,1.125c-1.631-0.145-3.267-0.309-4.902-0.418c-1.452-0.219-2.883-0.48-4.283-0.781
		c-0.426-0.092-0.828,0.305-0.693,0.713c-2.207,0.125-4.387,0.5-6.509,1.342c-0.472,0.188-0.464,1.012,0.13,0.959
		c2.634-0.227,5.269-0.301,7.908-0.32c3.092,3.002,7.539,2.672,12.129,2.014c-7.531,2.617-15.238,3.852-23.357,1.266
		c-0.656-0.209-0.91,0.787-0.279,1.018c11.967,4.381,25.666,2.357,37.363-1.955c0.418-0.154,0.586-0.766,0.131-1.008
		c-1.906-1.018-4.203-1.215-6.657-1.084c0.729-0.316,1.458-0.641,2.186-0.969c0.177-0.08,0.248-0.207,0.258-0.342
		c0.046-0.01,0.091-0.018,0.136-0.027c0.548-0.123,0.569-1.018,0-1.125c-1.838-0.346-3.689-0.553-5.549-0.709
		c0.111-0.301,0.021-0.682-0.377-0.795c-0.494-0.139-0.99-0.254-1.486-0.359c3.84-3.824,8.477-7.027,12.417-10.643
		c6.181-5.674,11.718-12.512,16.972-19.037C93.351,98.58,100.625,82.17,102.35,65.551C103.928,50.348,99.469,32.142,89.976,19.963z
		 M35.975,144.389c0.677-0.1,1.359-0.166,2.043-0.219c0.043,0.059,0.084,0.117,0.127,0.172
		C37.42,144.35,36.698,144.365,35.975,144.389z M54.025,137.09c-2.874,1.082-5.694,2.055-8.624,2.896
		c-0.42-0.256-0.837-0.514-1.252-0.773c-0.277-0.178-0.55-0.361-0.822-0.545c3.705-7.527,9.081-14.01,14.557-20.338
		c5.688-6.57,11.088-13.148,16.201-20.172c8.958-12.305,20.514-23.481,25.743-37.962c-0.003,3.111-0.212,6.19-0.638,9.18
		c-0.137,0.96-0.299,1.918-0.475,2.872c-7.093,9.291-13.767,18.846-20.249,28.584c-7.657,11.504-16.096,22.93-22.891,34.961
		C55.053,136.221,54.536,136.65,54.025,137.09z M99.814,59.256c-5.938,14.879-18.076,26.687-27.397,39.441
		c-9.597,13.133-22.766,24.596-30.011,39.328c-0.948-0.682-1.868-1.402-2.761-2.158c3.354-7.311,9.811-13.076,15.328-18.744
		c5.613-5.768,10.592-11.971,15.137-18.607c5.162-7.541,10.047-15.252,15.346-22.699c4.891-6.872,9.874-13.691,14.176-20.947
		C99.743,56.336,99.795,57.797,99.814,59.256z M26.114,121.07c8.346-11.826,19.608-21.078,28.893-32.109
		c3.098-0.123,6.133-0.572,9.039-1.326c-6.426,4.789-11.375,11.387-16.538,17.437c-5.894,6.908-12.408,13.162-18.13,20.223
		C28.254,123.914,27.165,122.506,26.114,121.07z M62.206,84.877c-9.693,2.176-21.301,1.367-29.852-3.975
		c-7.371-4.607-9.783-13.764-11.883-21.618c-3.002-11.229,0.07-21.438,7.726-30.041c4.275-4.806,9.988-6.648,15.982-7.541
		c8.063,0.086,16.102,1.055,23.463,4.532c7.889,3.726,14.092,11.128,17.399,19.11c3.294,7.951,2.478,17.025-1.438,24.57
		C79.253,78.303,71.144,82.871,62.206,84.877z M21.172,113.842c-0.929-1.441-1.819-2.902-2.678-4.375
		c4.922-9.115,15.051-14.273,21.539-22.191c2.322,0.646,4.725,1.083,7.147,1.359c-8.18,8.941-16.974,17.342-25.563,25.889
		C21.471,114.295,21.32,114.07,21.172,113.842z M16.077,105.105c3.13-8.441,11.615-13.578,16.744-20.762
		c2.045,1.148,4.232,2.041,6.508,2.721c-6.771,7.385-16.512,12.316-21.549,21.154C17.196,107.187,16.627,106.15,16.077,105.105z
		 M13.094,98.984c3.098-7.072,9.837-12.523,15.514-17.584c1.259,1.084,2.609,2.027,4.031,2.842
		c-5.58,6.615-13.695,11.449-17.248,19.543C14.585,102.201,13.819,100.601,13.094,98.984z M10.333,92.197
		c3.985-5.738,9.055-10.615,14.139-15.38c0.267,0.385,0.54,0.763,0.822,1.122c0.977,1.256,2.056,2.363,3.205,3.364
		c-6.053,4.531-12.519,9.686-15.877,16.604C11.803,96.027,11.036,94.125,10.333,92.197z M8.16,85.5
		c3.982-5.146,9.27-9.094,13.136-14.346c0.877,1.928,1.868,3.744,2.973,5.371c-5.105,4.525-10.184,9.162-14.311,14.613
		C9.303,89.279,8.704,87.399,8.16,85.5z M5.538,73.559c-0.035-0.23-0.06-0.463-0.094-0.692c4.89-3.307,8.925-8.163,12.231-13.126
		c0.423,2.117,0.979,4.269,1.667,6.376c-3.021,2.524-6.063,5.024-9.01,7.638c-1.114,0.99-2.938,2.275-4.098,3.746
		C5.979,76.194,5.741,74.883,5.538,73.559z M5.707,47.639c3.201-2.457,6.156-5.439,9.185-8.068
		c4.155-3.604,8.047-7.625,11.307-12.059c0.026-0.037-0.034-0.085-0.064-0.049c-3.52,4.301-7.691,7.847-11.869,11.481
		c-2.621,2.28-5.73,4.463-8.23,7.024c0.369-1.762,0.82-3.502,1.34-5.221c15.66-13.04,32.441-24.434,49.049-36.216
		c0.947,0.182,1.893,0.385,2.838,0.608c-6.129,4.987-11.221,10.588-18.348,14.304c-0.118,0.062-0.1,0.271,0.039,0.294
		c3.247,0.575,6.813-2.836,9.146-4.67c3.776-2.969,7.067-6.476,10.752-9.542c2.727,0.711,5.42,1.601,8.033,2.671
		c-3.207,1.878-6.439,3.707-9.592,5.676c-1.916,1.196-3.756,2.499-5.553,3.867c-0.488,0.372-1.335,1.349-2.108,2.004
		c-0.563-0.047-1.128-0.087-1.69-0.122c-0.001-0.015-0.006-0.023-0.008-0.039c-0.006-0.052-0.074-0.052-0.08,0
		c-0.001,0.011-0.003,0.021-0.004,0.032c-1.964-0.119-3.933-0.165-5.889-0.172c-0.594-0.002-0.94,0.372-1.051,0.814
		c-5.182,0.485-10.045,2.011-14.522,5.686c-5.379,4.418-9.133,10.872-10.756,17.713c-0.005,0.005-0.011,0.002-0.016,0.008
		c-3.945,5.063-8.137,9.912-13.014,14.074C4.732,54.342,5.1,50.963,5.707,47.639z M17.431,44.582
		c-0.565,2.721-0.805,5.488-0.662,8.203c0.002,0.038,0.006,0.078,0.009,0.116c-3.932,4.495-7.246,9.667-12.035,13.315
		c-0.161-2.402-0.219-4.815-0.166-7.228C9.512,54.805,13.596,49.795,17.431,44.582z M4.807,67.281
		c4.877-3.723,8.152-8.986,12.022-13.668c0.131,1.825,0.385,3.752,0.763,5.723c-3.484,4.706-7.579,8.916-12.301,12.392
		C5.096,70.253,4.926,68.771,4.807,67.281z M11.5,73.902c2.604-2.516,5.31-4.922,7.99-7.357c0.495,1.473,1.047,2.922,1.666,4.313
		c-0.018,0.008-0.036,0.006-0.051,0.021c-4.339,4.49-9.342,8.373-13.358,13.156c-0.442-1.637-0.842-3.287-1.196-4.953
		C8.215,77.387,9.781,75.564,11.5,73.902z M92.628,29.532c-3.059,2.48-5.001,6.236-7.772,9.054c-0.578-0.894-1.193-1.766-1.85-2.611
		c2.93-2.779,5.036-6.372,8.289-8.863C91.758,27.906,92.205,28.711,92.628,29.532z M95.469,35.916
		c-2.445,3.089-4.555,6.428-7.291,9.283c-0.275-0.752-0.59-1.488-0.921-2.217c1.708-3.045,3.967-5.838,6.394-8.315
		c0.328-0.334-0.186-0.848-0.514-0.513c-2.453,2.505-4.516,5.352-6.025,8.508c-0.57-1.222-1.213-2.41-1.925-3.559
		c1.481-1.346,2.778-2.849,4.048-4.401c1.223-1.494,2.547-2.857,3.854-4.257C93.969,32.219,94.762,34.045,95.469,35.916z
		 M89.913,52.775c2.766-3.232,4.704-7.091,7.686-10.19c0.298,1.146,0.563,2.3,0.799,3.46c-3.765,5.148-5.297,11.633-9.136,16.719
		c0.324-1.475,0.566-2.998,0.697-4.58C90.11,56.346,90.084,54.541,89.913,52.775z M97.426,41.974
		c-0.107-0.033-0.23-0.018-0.333,0.091c-2.883,3.041-4.779,6.838-7.239,10.193c-0.258-2.234-0.761-4.401-1.483-6.484
		c2.844-2.604,5.186-5.666,7.531-8.719C96.476,38.668,96.978,40.312,97.426,41.974z M88.941,64.1
		c4.327-4.444,7.358-10.825,9.744-16.526c0.366,2.01,0.645,4.033,0.833,6.059c-4.143,7.131-8.963,13.833-13.751,20.545
		C80.152,82.047,74.94,90.17,69.524,98.174c-5.234,7.734-11.25,14.629-17.758,21.301c-4.734,4.854-9.631,9.947-12.235,16.293
		c-1.12-0.951-2.202-1.949-3.261-2.967c13.77-17.037,26.596-34.885,40.973-51.422C82.829,77.18,87.029,71.338,88.941,64.1z
		 M90.891,26.404c-1.765,1.28-3.174,2.917-4.537,4.613c-1.217,1.514-2.502,3.074-3.506,4.751c-1.164-1.48-2.441-2.88-3.814-4.188
		c2.153-0.972,3.854-2.428,5.463-4.169c0.932-1.009,1.807-2.068,2.736-3.077c0.439-0.475,0.922-0.904,1.382-1.352
		c0.188,0.259,0.39,0.506,0.573,0.771C89.782,24.617,90.346,25.502,90.891,26.404z M74.239,10.726
		c-2.36,1.987-4.875,3.792-7.401,5.581c2.644-1.729,5.329-3.403,7.777-5.376c1.285,0.709,2.538,1.47,3.75,2.287
		c-0.016,0.006-0.03,0.005-0.045,0.013c-4.341,2.263-7.719,6.319-11.783,9.038c-0.343,0.229-0.03,0.778,0.325,0.557
		c4.181-2.599,8.176-5.803,12.045-8.834c0.106-0.084,0.153-0.185,0.159-0.287c1.936,1.359,3.761,2.861,5.444,4.52
		c-0.063-0.002-0.128,0.011-0.197,0.055c-1.627,1.037-2.945,2.915-4.384,4.229c-1.795,1.644-3.675,3.193-5.521,4.783
		c-0.278,0.24,0.122,0.621,0.4,0.399c1.739-1.391,3.498-2.759,5.217-4.176c1.552-1.281,3.955-2.857,4.783-4.738
		c0.031-0.071,0.039-0.148,0.026-0.221c1.097,1.104,2.134,2.272,3.098,3.512c-1.306,1.026-2.33,2.588-3.318,3.802
		c-1.737,2.133-3.572,4.056-6.093,5.236c-2.466-2.269-5.217-4.251-8.15-5.891c4.129-1.984,8.209-5.158,11.329-8.429
		c0.184-0.192-0.062-0.544-0.293-0.379c-3.903,2.773-6.895,6.433-11.161,8.737c-3.154-1.749-6.513-3.096-9.943-3.985
		c0.219-0.19,0.436-0.383,0.656-0.572c-0.238,0.184-0.476,0.371-0.717,0.557c-0.277-0.072-0.555-0.148-0.834-0.214
		c-2.29-0.537-4.623-0.882-6.969-1.109c5.548-4.261,11.582-7.493,17.573-11.149C71.454,9.297,72.863,9.983,74.239,10.726z
		 M47.731,4.438c-7.159,4.054-14.896,8.215-21.454,13.193c-5.419,4.114-10.067,9.135-15.106,13.689
		c1.08-2.093,2.293-4.127,3.674-6.074c2.457-3.462,5.429-6.709,8.772-9.583c4.271-2.926,9.138-4.753,13.566-7.704
		c0.25-0.167,0.092-0.643-0.219-0.516c-1.329,0.544-2.686,1.14-4.043,1.784c6.145-3.331,12.926-5.354,19.798-5.396
		c0.017,0.042,0.044,0.078,0.097,0.084c0.838,0.118,1.679,0.253,2.519,0.401C39.092,15.859,22.157,26.718,7.511,40.288
		c0.893-2.87,2.009-5.666,3.356-8.36c5.007-4.148,9.684-8.645,14.751-12.756c6.892-5.591,16.017-8.199,22.553-14.164
		C48.481,4.724,48.084,4.238,47.731,4.438z M22.072,115.215c8.699-8.629,17.429-17.176,25.325-26.555
		c1.188,0.13,2.376,0.223,3.565,0.283c1.193,0.062,2.383,0.074,3.564,0.039c-9.84,10.246-20.766,19.547-29.099,31.125
		C24.272,118.498,23.156,116.865,22.072,115.215z M29.799,125.816c5.5-6.705,11.721-12.689,17.357-19.273
		c5.636-6.582,10.729-13.977,17.785-19.143c3.533-1.002,6.86-2.469,9.871-4.358c-13.84,15.712-26.259,32.601-39.461,48.86
		C33.397,129.973,31.549,127.937,29.799,125.816z M39.42,144.09c0.083-0.004,0.165-0.008,0.248-0.012
		c0.465,0.088,0.93,0.172,1.398,0.252c-0.478-0.002-0.955,0-1.433,0C39.561,144.256,39.491,144.17,39.42,144.09z M40.803,145.309
		c5.425,0.006,10.852,0.168,16.256-0.293c-0.716,0.305-1.431,0.604-2.146,0.893C49.76,146.586,44.411,147.719,40.803,145.309z
		 M63.213,147.074c-7.354,2.574-15.396,4.195-23.268,3.848c5.356-0.469,10.584-2.131,15.745-4.24
		C58.375,146.365,60.964,146.293,63.213,147.074z M57.069,143.713c-2.021,0.26-4.084,0.375-6.154,0.361
		c0.222-0.271,0.464-0.529,0.694-0.797C53.43,143.396,55.254,143.516,57.069,143.713z M63.105,129.586
		c-1.481,1.346-3.065,2.623-4.662,3.898c6.877-9.383,12.745-19.732,19.112-29.422c6.85-10.422,13.804-20.801,20.994-30.998
		c-0.779,3.932-1.892,7.802-3.29,11.581c-3.083,5.121-5.974,10.353-8.905,15.562c-2.529,4.492-5.576,8.785-8.277,13.211
		C73.348,118.98,68.508,124.674,63.105,129.586z M93.663,88.617c-2.279,5.309-5.096,10.408-8.307,15.197
		c0.334-0.621,0.664-1.24,0.998-1.844C88.805,97.527,91.184,93.045,93.663,88.617z"/>
	<path fill="#9fca00" d="M66.837,16.308c-2.035,1.332-4.032,2.711-5.878,4.279C62.877,19.112,64.859,17.71,66.837,16.308z"/>
</g>
</svg>
