<?xml version="1.0" encoding="iso-8859-1"?>
<!-- Generator: Adobe Illustrator 23.0.3, SVG Export Plug-In . SVG Version: 6.00 Build 0)  -->
<svg version="1.1" id="Layer_2" xmlns="http://www.w3.org/2000/svg" xmlns:xlink="http://www.w3.org/1999/xlink" x="0px" y="0px"
	 viewBox="0 0 125.684 175.223" style="enable-background:new 0 0 125.684 175.223;" xml:space="preserve">
<g>
	<path fill="#9fca00" d="M56.643,22.453c-0.035-0.026-0.074-0.039-0.112-0.057c-1.36-5.337-4.036-10.496-6.078-15.459
		c-0.142-0.344-0.672-0.222-0.57,0.157c0.073,0.264,0.139,0.528,0.21,0.794c-0.354-0.024-0.696,0.136-0.893,0.579
		c-3.518,7.997-1.702,17.894-1.404,26.33c0.31,8.843,0.712,21.314-9.927,24.024c-0.28,0.072-0.422,0.253-0.474,0.458
		c-0.057-10.606-0.008-21.205-0.644-31.798c-0.333-5.582-0.705-11.305-2.063-16.746c-0.653-2.61-1.641-6.998-4.441-8.215
		c-0.61-0.267-1.148,0.579-0.535,0.917c2.792,1.531,3.083,7.09,3.421,9.798c0.681,5.489,1.186,10.942,1.41,16.47
		c0.028,0.661,0.047,1.322,0.068,1.983c-0.813,3.22-1.902,6.377-3.011,9.536c-0.176,0.5,0.635,0.729,0.797,0.22
		c0.817-2.589,1.623-5.177,2.277-7.794c0.226,8.616,0.067,17.233,0.004,25.854c-0.013,1.71,2.596,1.745,2.703,0.112
		c0.08,0.353,0.398,0.668,0.861,0.571c9.369-1.968,11.742-11.253,11.957-19.688c0.14-5.511-0.376-11.024-0.582-16.528
		c-0.164-4.387-0.37-9.261,1.162-13.474c1.504,5.66,2.963,11.315,4.363,17.002c0.054,0.215,0.16,0.381,0.298,0.508
		c0.366,2.687,1.102,5.42,1.325,7.978c0.56,6.366,0.461,12.809-0.192,19.165c-0.583,5.708-1.796,11.533-4.237,16.756
		c-0.086,0.179-0.174,0.346-0.259,0.517c-0.018,0.009-0.04,0.019-0.058,0.035c-1.807,1.683-4.529,1.202-5.737-0.932
		c-0.112-0.199-0.414-0.021-0.305,0.178c1.148,2.111,3.636,2.753,5.59,1.652c-0.356,0.604-0.737,1.155-1.149,1.653
		c-0.226-0.101-0.501-0.086-0.753,0.143c-0.718,0.653-1.422,1.457-2.141,2.283c-1.522,0.826-3.309,1.259-5.431,1.312
		c-0.161,0.003-0.297,0.039-0.413,0.094c-0.052-0.019-0.103-0.032-0.153-0.052c0.183-1.076,0.384-2.122,0.624-3.12
		c0.016-0.075-0.095-0.105-0.115-0.032c-0.306,0.996-0.573,2.003-0.828,3.011c-0.122-0.058-0.25-0.111-0.369-0.179
		c-1.739-0.996-1.141-3.272-0.597-4.788c0.08-0.218-0.256-0.3-0.339-0.094c-0.68,1.659-1.218,3.729,0.27,5.112
		c0.259,0.24,0.562,0.424,0.88,0.587c-0.088,0.36-0.176,0.722-0.261,1.082c-0.132-0.29-0.267-0.577-0.412-0.855
		c-0.186-0.355-0.776-0.108-0.648,0.271c0.244,0.73,0.403,1.494,0.515,2.268c-0.643-0.065-1.32-0.251-2.042-0.597
		c-0.289-0.139-0.618,0.222-0.358,0.463c0.689,0.646,1.446,1.14,2.243,1.463c-0.25,1.063-0.507,2.123-0.792,3.176
		c-1.14,4.207-3.149,7.585-5.687,11.064c-0.342,0.465,0.356,0.887,0.741,0.573c3.864-3.185,5.262-8.087,6.154-13.091
		c0.021,0.378,0.038,0.756,0.056,1.127c0.094,1.782,0.229,3.563,0.363,5.343c-0.355,1.662-0.81,3.304-1.365,4.947
		c-1.071,3.184-3.195,6.084-4.035,9.274c-0.146,0.549,0.49,0.841,0.887,0.518c2.597-2.127,3.83-6.207,4.858-9.319
		c0-0.003,0-0.007,0-0.011c0.004,0.055,0.009,0.11,0.011,0.166c0.097,2.254,0.166,4.509,0.218,6.763
		c-0.506,3.103-1.645,6.01-2.799,8.959c-0.947,2.419-1.985,4.753-1.044,7.307c0.157,0.427,0.805,0.377,0.813-0.109
		c0.066-4.33,1.942-8.356,3.095-12.539c0.076,5.355,0.057,10.712,0.031,16.069c-2.066,4.126-4.393,8.446-3.953,12.621
		c0.038,0.361,0.578,0.621,0.771,0.207c1.338-2.868,1.932-6.078,3.129-9.03c0.012-0.028,0.022-0.055,0.034-0.08
		c-0.02,3.742-0.074,7.489-0.19,11.236c-1.802,3.68-3.136,7.521-3.957,11.627c-0.164,0.827,1.124,1.16,1.252,0.345
		c0.532-3.373,1.421-6.586,2.628-9.693c-0.183,4.869-0.475,9.733-0.945,14.581c-0.32,3.298-0.737,6.604-1.504,9.829
		c-0.235,0.982-0.503,1.988-0.93,2.905c-0.158,0.334-0.19,0.705-0.229,1.059c-0.245-0.003-0.499-0.006-0.769-0.014
		c-0.559-0.019-1.12-0.081-1.679-0.173c0.153-0.477,0.069-1.052-0.277-1.458c-3.527-4.139-5.31-8.861-6.604-14.137
		c-0.004-0.018-0.008-0.036-0.013-0.055c0.601,0.715,1.195,1.437,1.766,2.176c1.283,1.661,2.122,3.716,3.558,5.234
		c0.344,0.366,0.88-0.019,0.79-0.458c-0.387-1.899-1.844-3.47-3.075-4.906c-1.03-1.204-2.163-2.301-3.335-3.357
		c-0.706-3.085-1.262-6.203-1.704-9.344c1.055,3.298,2.645,6.251,5.402,8.045c0.409,0.268,0.87-0.248,0.644-0.646
		c-1.799-3.206-3.585-6.176-4.754-9.705c-0.454-1.375-0.888-2.752-1.326-4.127c0.09-1.376,0.194-2.751,0.304-4.126
		c0.824,1.692,1.805,3.232,2.934,4.483c0.392,0.432,1.174-0.017,0.987-0.576c-0.894-2.637-2.518-5.034-3.615-7.608
		c0.135-1.588,0.268-3.172,0.393-4.755c0.029-0.359,0.045-0.715,0.069-1.076c0.961,2.203,2.309,4.193,4.308,5.813
		c0.334,0.272,0.945-0.09,0.65-0.501c-2.225-3.102-3.639-6.369-4.76-9.739c0.052-2.534,0.014-5.053-0.079-7.577
		c0.334,0.241,0.838,0.094,1.074-0.252c0.837,1.497,1.836,2.875,2.987,4.063c0.391,0.399,1.215-0.006,0.987-0.576
		c-1.178-2.967-2.866-5.667-4.056-8.632c-0.035-0.087-0.063-0.177-0.098-0.263c-0.18-1.544-0.4-3.089-0.591-4.636
		c0.246,0.069,0.544-0.03,0.594-0.317c0.582-3.307-0.1-6.78-1.297-10.067c-0.078-1.664-0.142-3.331-0.197-4.998
		c0.223,0.053,0.441,0.107,0.663,0.156c1.779,0.407,2.534-2.325,0.754-2.732c-0.49-0.111-0.98-0.228-1.469-0.348
		c0.223-1.476,0.58-2.929,1.149-4.325c0.026-0.066-0.074-0.101-0.109-0.046c-0.457,0.705-0.852,1.435-1.208,2.179
		c0.072-0.435-0.297-0.928-0.759-0.898c-1.618,0.104-3.113,0.825-4.66,1.43c-3.696-1.358-7.123-3.292-9.751-6.388
		C7.599,69.34,6.514,62.597,5.393,56.836c-0.682-3.479-1.29-6.995-1.785-10.528c-0.196-5.731-0.072-11.484,0.188-17.084
		c0.003-0.078-0.109-0.072-0.12,0c-0.4,3.014-0.725,6.048-0.952,9.095c-0.114-1.455-0.212-2.91-0.268-4.365
		C2.17,26.695,2.898,18.332,7.421,12.349C8.728,17.04,8.345,22.466,8.5,27.278c0.225,7.06,0.452,14.152,1.486,21.152
		c0.679,4.595,1.934,10.672,5.678,13.841c3.145,2.665,9.534,1.479,10.904-2.592c0.178-0.524-0.352-0.86-0.798-0.799
		c-0.134,0.018-0.264,0.042-0.392,0.07c3.938-17.045,3.476-34.552,3.055-51.934c-0.014-0.608-0.93-0.608-0.944,0
		c-0.422,17.359-0.641,35.201-4.818,52.144c-0.092,0.374-0.024,0.695,0.128,0.955c-0.884,0.496-1.784,0.97-2.86,1.058
		c-1.788,0.147-3.088-1.137-4.001-2.52c-2.877-4.362-3.466-10.438-4.219-15.476c-0.929-6.194-1.358-12.459-1.869-18.7
		c-0.333-4.074-0.338-8.613-1.678-12.523c-0.046-0.132-0.136-0.213-0.236-0.254c0.072-0.088,0.139-0.182,0.213-0.269
		c0.443-0.515-0.246-1.227-0.75-0.752c-5.952,5.612-7.28,13.608-7.391,21.446c-0.122,8.483,1.241,17.115,2.7,25.452
		c0.086,0.5,0.177,1,0.27,1.499c0.279,2.489,0.651,4.966,1.147,7.425c1.053,5.248,2.914,11.527,7.426,14.878
		c2.297,1.705,6.064,2.447,9.394,1.884c0.624,0.213,1.25,0.414,1.878,0.601c-1.351,5.344-1.648,10.938-1.968,16.413
		c-0.566,9.672-0.472,19.29,0.179,28.955c0.348,5.145,0.821,10.324,1.571,15.455c-0.029,5.799,0.363,11.583,1.585,17.327
		c0.497,2.336,1.03,5.323,2.248,7.401c0.866,1.476,4.063,2.024,5.548,2.435c2.546,0.704,7.367,2.022,9.006-0.77
		c0.263-0.447,0.146-0.964-0.189-1.293c2.028-2.876,2.259-9.144,2.525-11.265c1.212-9.723,1.439-19.591,1.541-29.376
		c0.107-10.487-0.346-20.963-1.207-31.413c-0.308-3.733-0.432-7.992-1.214-11.97c0-0.002,0-0.008,0-0.011
		c-0.002-0.039-0.014-0.069-0.024-0.103c-0.123-0.621-0.26-1.238-0.42-1.841c0.825,0.037,1.679-0.104,2.54-0.456
		c1.495-0.606,2.92-1.62,4.043-2.878c2.051-0.885,3.88-2.447,5.279-4.254c3.924-5.076,5.321-11.663,6.212-17.883
		c1.001-6.985,1.159-14.087,0.681-21.123C60.46,32.806,60.639,25.3,56.643,22.453z M24.21,114.618
		c-0.1-2.629-0.182-5.26-0.234-7.889c0.108,0.517,0.206,1.041,0.301,1.569C24.276,110.41,24.257,112.515,24.21,114.618z
		 M24.037,105.908c-0.014-0.044-0.043-0.065-0.076-0.075c-0.037-2.062-0.067-4.127-0.077-6.184
		c-0.023-4.833-0.18-9.868,0.191-14.753c0.216,0.561,0.406,1.124,0.586,1.688c-0.729,4.465-0.573,9.167-0.479,13.547
		c0.049,2.193,0.078,4.371,0.091,6.544C24.195,106.417,24.119,106.163,24.037,105.908z M26.526,80.174
		c-0.237,0.523-0.446,1.058-0.641,1.596c-0.251-0.065-0.499-0.132-0.746-0.198C25.669,81.174,26.137,80.709,26.526,80.174z
		 M11.641,78.661c-0.921-0.889-1.698-1.914-2.367-3.026c0.085,0.113,0.165,0.228,0.252,0.337c1.17,1.468,2.558,2.693,4.08,3.741
		c-0.005,0.093,0.035,0.187,0.161,0.207c0.071,0.011,0.138,0.029,0.208,0.041c0.537,0.353,1.087,0.688,1.652,0.998
		C14.141,80.577,12.791,79.765,11.641,78.661z M41.45,82.024c-0.098-0.279-0.2-0.554-0.31-0.826c0.056-0.363,0.112-0.724,0.17-1.083
		c0.109,0.206,0.281,0.384,0.532,0.489c0.617,0.26,1.234,0.429,1.848,0.53C42.995,81.585,42.253,81.902,41.45,82.024z"/>
	<path fill="#9fca00" d="M30.322,29.316c2.137-5.842,2.853-12.177,1.904-18.325c-0.046-0.302-0.496-0.171-0.455,0.126
		c0.848,6.286-0.455,11.999-2.134,18.012C29.515,29.575,30.166,29.739,30.322,29.316z"/>
	<path fill="#9fca00" d="M30.235,62.683c2.111-4.796,2.922-10.15,3.838-15.275c0.015-0.074-0.096-0.106-0.113-0.032
		c-1.143,5.153-2.601,10.079-4.266,15.079C29.591,62.769,30.101,62.989,30.235,62.683z"/>
	<path fill="#9fca00" d="M123.552,16.531C120.001,4.843,108.392-2.334,96.286,0.694C84.813,3.563,78.928,16.374,77.331,27.03
		c-0.729,4.853-0.341,9.562,0.258,14.4c0.87,7.031,2.348,14.008,4.802,20.661c1.815,4.922,4.179,9.431,8.175,12.885
		c1.546,1.336,3.207,2.576,4.396,4.259c0.231,0.326,0.426,0.665,0.595,1.015c-1.158,16.985-3.932,33.761-3.842,50.85
		c0.073,14.163,0.834,35.277,14.945,43.243c0.801,0.452,1.854,0.351,2.506-0.324c0.042-0.043,0.081-0.084,0.124-0.127
		c0.493-0.018,0.928-0.168,1.261-0.508c3.345-3.417,5.085-7.846,6.032-12.468c2.641-12.919-0.108-26.855-2.455-39.606
		c-1.277-6.941-2.735-13.847-4.019-20.789c-0.913-4.951-1.424-9.914-2.048-14.888c0.164-1.517,0.395-3.023,0.801-4.504
		c0.916-3.357,2.729-6.406,4.599-9.31c3.556-5.515,7.542-10.62,9.796-16.859c2.128-5.892,2.166-12.933,2.374-19.134
		C125.849,29.36,125.441,22.749,123.552,16.531z M99.97,158.339c0.042,0.591,0.104,1.178,0.195,1.758
		c-0.597-1.471-1.093-2.987-1.521-4.506c-0.008-0.027-0.016-0.055-0.02-0.081C98.972,156.481,99.418,157.425,99.97,158.339z
		 M97.58,149.675c-0.315-2.311-0.528-4.642-0.689-6.955c0.286,0.542,0.633,1.048,1.041,1.514
		C97.663,146.073,97.523,147.895,97.58,149.675z M121.164,50.863c-2.833,13.74-21.426,25.823-15.31,41.026
		c0.348,2.432,0.84,4.849,1.242,7.159c1.144,6.572,2.525,13.104,3.785,19.656c2.501,13.013,5.349,26.961,3.484,40.245
		c-0.199,1.42-1.048,5.593-2.354,8.694c-0.304-0.099-0.653-0.057-0.939,0.211c-0.504,0.474-1.075,0.864-1.671,1.227
		c-0.047-2.887-0.215-5.743-0.452-8.634c-0.026-0.304-0.445-0.304-0.475,0c-0.208,2.568-0.371,5.104-0.437,7.662
		c-1.287-2.409-2.225-4.698-2.281-7.723c-0.063-3.322,0.829-6.646,1.791-9.798c0.336-1.103-1.338-1.539-1.708-0.47
		c-1.379,3.975-3.149,10.528-1.873,15.429c-1.666-4.204-2.537-8.314-2.109-13.067c0.501-5.576,2.529-11.193,4.938-16.2
		c0.065-0.134-0.123-0.249-0.204-0.118c-2.945,4.804-5.722,11.097-6.48,17.311c-0.282-1.33-0.515-2.673-0.574-4.088
		c-0.141-3.195,0.251-6.414,0.777-9.556c0.876-5.251,2.162-10.393,2.519-15.721c0.017-0.232-0.325-0.22-0.354,0
		c-0.679,5.358-2.938,11.587-4.142,17.75c-2.449-9.129,0.241-20.827,6.379-27.802c0.051-0.058-0.027-0.137-0.083-0.085
		c-4.16,4.017-6.734,9.904-8.04,15.459c-0.092,0.391-0.182,0.807-0.27,1.23c-0.109-3.771-0.127-7.542-0.104-11.31
		c0.004-0.061,0.004-0.121,0.011-0.18c1.569-5.249,3.96-10.387,6.475-15.222c0.035-0.07-0.057-0.121-0.102-0.06
		c-1.88,2.597-3.537,5.289-4.972,8.096c0.199-3.002,0.154-6.06,0.591-9.021c0.672-4.584,1.796-9.304,4.482-13.146
		c0.04-0.056-0.047-0.122-0.092-0.071c-2.642,2.993-4.238,6.624-5.206,10.453c0.068-1.212,0.128-2.426,0.184-3.637
		c0.645-3.36,0.972-6.764,1.852-10.12c0.959-3.658,1.536-6.992,1.252-10.787c-0.005-0.078-0.108-0.074-0.117,0
		c-0.466,3.844-1.625,7.587-2.765,11.287c-0.008-2.419-0.065-4.835-0.21-7.249c-0.05-0.854-0.866-1.139-1.444-0.87
		c-0.734-1.534-1.846-2.97-3.4-4.355c-6.026-5.366-8.549-12.663-10.405-20.378c-3.354-13.917-4.907-29.248,3.22-41.838
		c3.45-5.346,8.876-9.086,15.317-9.398c6.898-0.333,13.664,3.042,17.322,8.86c3.528,5.612,4.24,12.744,4.405,19.21
		C122.785,37.441,122.481,44.467,121.164,50.863z"/>
	<path fill="#9fca00" d="M88.938,26.195c0.358-9.277,6.893-16.766,15.754-19.122c0.072-0.019,0.043-0.131-0.031-0.115
		c-9.105,2.065-16.425,9.666-16.549,19.236C88.106,26.728,88.921,26.726,88.938,26.195z"/>
	<path fill="#9fca00" d="M104.704,11.071c0.022-0.035-0.035-0.069-0.057-0.035c-5.961,10.025-16.101,17.717-16.477,30.3
		c-0.012,0.392,0.634,0.491,0.696,0.092c0.97-6.082,3.063-11.391,6.404-16.568C98.292,20.178,101.726,15.789,104.704,11.071z"/>
	<path fill="#9fca00" d="M94.656,38.909c-3.531,6.416-6.617,15.035-2.451,21.814c0.241,0.389,0.909,0.139,0.757-0.318
		c-2.413-7.271,0.109-14.976,3.563-21.436c3.502-6.551,8.512-13.043,14.374-17.654c0.213-0.167-0.062-0.518-0.286-0.372
		C103.79,25.397,98.554,31.82,94.656,38.909z"/>
	<path fill="#9fca00" d="M116.747,27.163c-5.949,6.231-12.169,12.27-16.949,19.486c-4.094,6.179-7.887,15.582-5.613,23.059
		c0.141,0.471,0.765,0.342,0.81-0.109c0.438-4.227,0.161-8.225,1.288-12.408c1.033-3.827,2.876-7.429,4.931-10.796
		c4.295-7.037,10.18-13.008,15.618-19.147C116.88,27.189,116.802,27.106,116.747,27.163z"/>
	<path fill="#9fca00" d="M114.728,43.313c-3.723,4.242-7.643,8.288-10.896,12.917c-2.665,3.792-5.474,8.798-3.648,13.495
		c0.215,0.555,1.067,0.349,0.908-0.252c-1.336-5.095,1.695-10.2,4.411-14.28c2.778-4.178,6.168-7.899,9.309-11.799
		C114.86,43.338,114.779,43.256,114.728,43.313z"/>
	<path d="M112.626,55.343c-4.447,4.314-9.928,9.677-10.322,16.276c-0.025,0.407,0.586,0.468,0.695,0.093
		c0.905-3.144,1.796-5.974,3.588-8.757c1.747-2.714,4.056-5.054,6.289-7.362C113.035,55.429,112.79,55.183,112.626,55.343z"/>
	<path fill="#9fca00" d="M84.66,25.233c0.049-0.223-0.291-0.316-0.342-0.094c-3.939,17.163-1.549,34.675,11.105,47.655
		c0.215,0.218,0.547-0.116,0.334-0.333C83.174,59.612,80.796,42.252,84.66,25.233z"/>
</g>
</svg>
