<?xml version="1.0" encoding="iso-8859-1"?>
<!-- Generator: Adobe Illustrator 23.0.3, SVG Export Plug-In . SVG Version: 6.00 Build 0)  -->
<svg version="1.1" id="Layer_2" xmlns="http://www.w3.org/2000/svg" xmlns:xlink="http://www.w3.org/1999/xlink" x="0px" y="0px"
	 viewBox="0 0 230.943 227.321" style="enable-background:new 0 0 230.943 227.321;" xml:space="preserve">
<path style="fill:none;stroke:#9fca00;stroke-width:5;stroke-linecap:round;stroke-miterlimit:10;" d="M71.388,93.217
	c2.432-22.846,3.127-45.877,2.078-68.828c21.199,2.574,42.639,2.017,63.987,1.456c0.987,21.982,0.666,44.022-0.961,65.965"/>
<path style="fill:none;stroke:#9fca00;stroke-width:5;stroke-linecap:round;stroke-miterlimit:10;" d="M136.297,90.363
	c22.852,2.375,45.885,3.012,68.833,1.905c-2.52,21.206-1.91,42.644-1.296,63.99c-21.979,1.042-44.02,0.776-65.968-0.796"/>
<path style="fill:none;stroke:#9fca00;stroke-width:5;stroke-linecap:round;stroke-miterlimit:10;" d="M137.746,154.68
	c-2.614,22.826-3.493,45.851-2.626,68.81c-21.178-2.742-42.622-2.356-63.973-1.966c-0.812-21.989-0.315-44.026,1.487-65.956"/>
<path style="fill:none;stroke:#9fca00;stroke-width:5;stroke-linecap:round;stroke-miterlimit:10;" d="M94.467,5.389
	c21.199,2.574,42.639,2.017,63.987,1.456c0.987,21.982,0.666,44.022-0.961,65.965"/>
<path style="fill:none;stroke:#9fca00;stroke-width:5;stroke-linecap:round;stroke-miterlimit:10;" d="M157.297,71.363
	c22.852,2.375,45.885,3.012,68.833,1.905c-2.52,21.206-1.91,42.644-1.296,63.99"/>
<path style="fill:none;stroke:#9fca00;stroke-width:5;stroke-linecap:round;stroke-miterlimit:10;" d="M156.625,159.946
	c-0.896,14.828-1.066,29.7-0.505,44.544"/>
<path style="fill:none;stroke:#9fca00;stroke-width:5;stroke-linecap:round;stroke-miterlimit:10;" d="M72.817,157.017
	c-22.833-2.557-45.859-3.378-68.816-2.454c2.689-21.185,2.25-42.628,1.805-63.978c21.987-0.867,44.025-0.425,65.959,1.321"/>
<path style="fill:none;stroke:#9fca00;stroke-width:5;stroke-linecap:round;stroke-miterlimit:10;" d="M73.914,20.98
	c-0.036-0.496-0.865,0.197-0.469,0.498c0.397,0.301,0.951-0.021,1.338-0.334c6.985-5.652,14.095-11.148,21.325-16.484"/>
<path style="fill:none;stroke:#9fca00;stroke-width:5;stroke-linecap:round;stroke-miterlimit:10;" d="M135.933,26.37
	c7.498-5.264,15.118-10.644,20.698-17.91c1.836-0.623,3.671-1.247,5.507-1.87"/>
<path style="fill:none;stroke:#9fca00;stroke-width:5;stroke-linecap:round;stroke-miterlimit:10;" d="M136.542,88.694
	c0.448-1.277,1.543-2.201,2.598-3.048c6.167-4.952,12.626-9.54,19.331-13.735"/>
<path style="fill:none;stroke:#9fca00;stroke-width:5;stroke-linecap:round;stroke-miterlimit:10;" d="M204.4,89.682
	c4.088-7.831,11.584-13.806,20.13-16.046"/>
<path style="fill:none;stroke:#9fca00;stroke-width:5;stroke-linecap:round;stroke-miterlimit:10;" d="M203.724,155.005
	c5.712-6.409,12.27-12.062,19.452-16.765"/>
<path style="fill:none;stroke:#9fca00;stroke-width:5;stroke-linecap:round;stroke-miterlimit:10;" d="M135.367,223.254
	c6.84-6.276,13.68-12.551,20.52-18.827"/>
<path fill="#9fca00" d="M157.408,33.65l-2.16,0.87c-2.202,0.887-4.402,1.779-6.599,2.679c0.623-1.03,1.297-2.032,2.04-2.987
	c1.786-2.293,3.958-4.306,6.399-5.95l5.08-3.421l-5.87,1.188c-2.937,0.595-5.852,1.273-8.712,2.13
	c-2.861,0.848-5.679,1.823-8.423,2.967c2.906-0.623,5.81-1.185,8.722-1.638c1.25-0.191,2.499-0.367,3.749-0.53
	c-1.211,0.953-2.357,1.996-3.419,3.125c-2.226,2.367-4.031,5.142-5.381,8.139l-1.813,4.022l4.307-1.455
	c2.048-0.692,4.09-1.399,6.13-2.113l-3.223,3.335l-7.809,8.178l-3.279,3.433c-0.217,1.327-0.424,2.655-0.607,3.986l6.831-3.48
	c2.737-1.395,5.602-2.531,8.537-3.444l-3.823,3.751c-2.676,2.649-5.356,5.296-7.996,7.983l2.403,3.086
	c1.789-1.221,3.637-2.364,5.534-3.422c1.268-0.706,2.558-1.38,3.861-2.031c-0.28,0.619-0.777,1.263-1.335,1.88
	c-0.605,0.651-1.29,1.269-2.012,1.891c-0.756,0.649-1.475,1.337-2.16,2.051c-1.369,1.432-2.558,3.018-3.585,4.681
	c-1.029,1.663-1.858,3.436-2.493,5.257c0.955-1.677,2.04-3.256,3.255-4.712c1.201-1.466,2.564-2.779,3.995-3.977
	c0.72-0.595,1.462-1.158,2.231-1.677c0.803-0.545,1.625-1.125,2.412-1.797c0.783-0.682,1.554-1.459,2.139-2.535
	c0.293-0.534,0.506-1.176,0.587-1.865c0.076-0.702-0.055-1.423-0.288-2.074l-0.463-1.295l-1.432,0.513
	c-0.046,0.016-0.091,0.035-0.136,0.052l2.823-2.594c0.795-0.805,1.557-1.688,2.151-2.953c0.287-0.634,0.541-1.401,0.55-2.344
	c0.022-0.937-0.33-2.018-0.907-2.77l-0.947-1.237l-1.524,0.319c-1.095,0.229-2.182,0.496-3.26,0.794l0.285-0.305l3.833-4.156
	c0.665-0.728,1.422-1.575,2.046-2.705c0.309-0.57,0.594-1.234,0.738-2.027c0.147-0.785,0.107-1.716-0.182-2.538L157.408,33.65z"/>
<path fill="#9fca00" d="M225.939,97.271l-7.818,3.66l-1.586,0.742c0.028-0.027,0.056-0.054,0.084-0.081l2.668-2.573
	c0.911-0.926,1.81-1.911,2.63-3.029c0.806-1.13,1.581-2.366,2.042-3.895c0.492-1.492,0.538-3.355-0.061-4.982l-0.933-2.534
	l-2.211,1.465c-1.467,0.972-2.901,1.99-4.31,3.041c2.283-3.032,4.546-6.08,6.821-9.118l4.124-5.505l-5.364,4.207l-8.57,6.721
	c-2.861,2.235-5.676,4.532-8.517,6.795c3.033-1.998,6.09-3.962,9.102-5.989l3.563-2.387c-1.698,1.987-3.392,3.977-5.067,5.982
	l-9.253,11.003l2.564,2.274c2.612-2.556,5.364-4.964,8.237-7.21c1.669-1.307,3.387-2.549,5.135-3.743
	c-0.244,0.413-0.528,0.828-0.835,1.235c-0.653,0.849-1.429,1.671-2.258,2.476l-2.694,2.483c-3.368,3.106-6.741,6.203-10.078,9.337
	c-0.33,1.961-0.608,3.927-0.857,5.896l2.819-1.294l6.397-2.937c-3.204,4.209-6.605,8.319-10.051,12.431
	c-0.164,2.103-0.297,4.207-0.395,6.315l3.682-2.766c2.521-1.893,5.069-3.749,7.642-5.572c-0.459,0.544-0.926,1.087-1.405,1.63
	c-1.397,1.588-2.854,3.221-4.184,5.048c-1.33,1.818-2.549,3.847-3.325,6.117l-1.909,5.587l4.761-3.301
	c2.836-1.967,5.678-3.922,8.512-5.886c-0.702,1.037-1.565,2.049-2.466,3.082c-1.045,1.201-2.149,2.442-3.088,3.901
	c-0.925,1.447-1.668,3.212-1.693,5.08l-0.042,3.091l1.947-2.301c2.417-2.856,5.604-5.078,9.145-6.473
	c-0.061,0.753-0.373,1.496-0.863,2.175c-0.667,0.942-1.576,1.763-2.473,2.597c-0.901,0.835-1.838,1.662-2.639,2.626
	c-0.795,0.954-1.454,2.092-1.584,3.33c0.252-1.22,0.992-2.243,1.847-3.091c0.862-0.856,1.851-1.574,2.832-2.321
	c0.981-0.748,1.974-1.519,2.823-2.521c0.847-0.972,1.489-2.381,1.318-3.822l-0.087-0.735l-0.753,0.195
	c-2.762,0.714-5.386,1.964-7.738,3.629c0.014-0.019,0.025-0.04,0.039-0.059c0.851-1.187,1.927-2.292,3.036-3.437
	c1.108-1.15,2.272-2.34,3.282-3.797c1.002-1.433,1.841-3.272,1.888-5.274l0.07-2.984l-2.619,1.633
	c-1.686,1.052-3.361,2.117-5.036,3.183c0.712-0.795,1.45-1.592,2.194-2.408c1.446-1.58,2.935-3.222,4.273-5.101
	c1.333-1.87,2.512-4.02,3.154-6.416l1.503-5.616l-4.965,3.121c-0.694,0.436-1.379,0.887-2.069,1.331c1.719-2.27,3.384-4.591,4.947-7
	L225.939,97.271z"/>
<g>
	<path fill="#9fca00" d="M137.792,167.123c2.221-1.918,4.603-3.684,7.154-5.193c2.539-1.531,5.225-2.837,8.016-3.901l0.632-0.241l0.481,0.583
		c0.272,0.33,0.448,0.766,0.5,1.173c0.056,0.409,0.015,0.784-0.059,1.117c-0.155,0.668-0.43,1.202-0.735,1.699
		c-0.574,0.884-1.168,1.73-1.827,2.521c-1.309,1.585-2.731,3.019-4.101,4.431c-2.742,2.801-5.294,5.639-6.303,8.905l-2.857-2.085
		l6.79-5.28l6.835-5.219l9.368-7.152l-6.184,10.16l-3.21,5.274c-1.074,1.755-2.128,3.522-3.224,5.262l-6.527,10.473l-3.33-3.424
		c3.505-2.039,7.022-4.057,10.561-6.036l8.485-4.746l-5.159,8.19c-3.513,5.576-7.661,10.771-12.49,15.252l-1.863-3.981
		c0.703-0.052,1.527-0.371,2.407-0.895c0.881-0.519,1.797-1.207,2.798-1.93c1.008-0.716,2.094-1.504,3.513-2.109
		c0.702-0.304,1.521-0.526,2.393-0.609c0.432-0.039,0.89,0.004,1.331,0.026c0.434,0.077,0.862,0.191,1.285,0.305l2.547,0.686
		l-1.377,2.315c-1.726,2.901-3.505,5.767-5.338,8.597c-1.822,2.837-3.734,5.614-5.703,8.348l-2.103-2.068l5.781-3.682l5.819-3.626
		l4.124-2.57l-2.814,3.86c-1.578,2.165-3.191,4.307-4.801,6.451c-1.596,2.153-3.254,4.265-4.882,6.397
		c1.34-2.324,2.65-4.667,4.021-6.97c1.358-2.312,2.713-4.625,4.102-6.916l1.31,1.29l-5.46,4.147l-5.498,4.091l-6.173,4.594
		l4.071-6.662c1.737-2.842,3.424-5.711,5.094-8.586c1.659-2.882,3.262-5.794,4.809-8.735l1.17,3.001
		c-0.643-0.164-1.203-0.095-2.007,0.267c-0.785,0.36-1.662,0.993-2.58,1.701c-0.926,0.709-1.902,1.507-3.067,2.249
		c-1.155,0.731-2.573,1.443-4.273,1.65l-6.63,0.807l4.766-4.789c4.368-4.389,8.304-9.217,11.513-14.507l3.326,3.444
		c-3.503,2.043-7.028,4.046-10.565,6.03l-8.583,4.813l5.253-8.237l6.677-10.47c1.104-1.75,2.251-3.473,3.377-5.209l3.392-5.198
		l3.184,3.008l-7.01,4.981l-7.055,4.92l-4.874,3.399l2.018-5.484c0.78-2.12,2.011-3.984,3.384-5.581
		c1.386-1.598,2.902-2.963,4.383-4.281c1.481-1.319,2.939-2.597,4.25-3.969c0.657-0.682,1.277-1.395,1.848-2.121
		c0.246-0.319,0.449-0.666,0.546-0.956c0.096-0.308,0.086-0.437,0.037-0.539l1.113,0.343c-2.767,0.789-5.486,1.79-8.132,2.986
		C142.83,164.132,140.247,165.512,137.792,167.123z"/>
</g>
<path style="fill:none;stroke:#9fca00;stroke-width:5;stroke-linecap:round;stroke-miterlimit:10;" d="M6.137,88.24
	c2.439-2.982,1.391-5.543,4.687-7.538c4.105-2.486,8.683-7.069,13.234-8.59c7.806-2.608,9.863-1.116,18.084-0.719
	c4.164,0.201,14.257,0.146,18.41,0.502c3.025,0.259,6.067,0.205,9.102,0.15c1.696-0.031,1.982-0.032,2.089,0.347"/>
</svg>
