<?xml version="1.0" encoding="iso-8859-1"?>
<!-- Generator: Adobe Illustrator 23.0.3, SVG Export Plug-In . SVG Version: 6.00 Build 0)  -->
<svg version="1.1" id="Layer_2" xmlns="http://www.w3.org/2000/svg" xmlns:xlink="http://www.w3.org/1999/xlink" x="0px" y="0px"
	 viewBox="0 0 118.642 171.623" style="enable-background:new 0 0 118.642 171.623;" xml:space="preserve">
<g>
	<path fill="#9fca00" d="M114.409,43.166c1.06-0.62,1.723-1.591,1.819-3.034c0.04-0.573-0.34-1.092-0.797-1.388
		c-1.071-0.697-2.042-0.643-3.282-0.428c-1.599,0.28-3.194,0.198-4.778-0.034c-5.08-2.522-11.424-3.762-17.061-5.255
		c-0.201-0.082-0.403-0.164-0.604-0.245C77.977,27.98,68.77,19.398,65.508,7.203c-0.045-0.463-0.098-0.917-0.129-1.393
		c-0.014-0.211-0.139-0.313-0.282-0.358c-0.082-0.383-0.18-0.757-0.249-1.145c-0.451-2.485-4.201-2.83-5.317-0.696
		c-3.806,7.276-8.091,14.41-13.373,20.715c-4.121,4.918-9.151,8.342-13.934,12.297c-7.027,1.609-14.757,1.419-21.87,3.633
		c-0.258,0.079-0.479,0.205-0.671,0.361c-1.495,0.166-3.004,0.243-4.6,0.113c-1.704-0.14-2.509,1.564-2.151,2.963
		c-0.252-0.024-0.508-0.034-0.77-0.029c-0.084,0-0.158,0.103-0.102,0.18c2.44,3.438,4.333,7.115,5.83,10.956
		c0.229,0.702,0.48,1.391,0.764,2.061c5.104,14.621,4.909,31.39,6.764,46.538c1.566,12.792,3.837,25.488,12.155,35.724
		c3.99,4.91,9.396,7.989,14.761,11.136c2.729,1.599,5.29,3.334,7.541,5.566c2.572,2.548,3.153,6.007,4.47,9.197
		c-0.029,0.098-0.051,0.192-0.104,0.298c-0.582,1.15-0.267,2.393,0.814,3.105c0.775,0.512,1.84,0.718,2.719,1.011
		c1.187,0.396,2.555-0.446,2.856-1.623c0.006-0.021,0.014-0.042,0.021-0.063c0.415-0.251,0.783-0.646,1.042-1.243
		c2.671-6.165,7.251-9.229,12.999-12.281c5.926-3.147,11.39-6.572,16.568-10.856c11.436-9.458,17.102-21.66,20.578-35.785
		c3.52-14.31,2.886-27.574,0.976-41.963c-0.762-5.743-1.512-12.112,0.037-17.784C113.247,46.392,114.087,44.741,114.409,43.166z
		 M58.137,160.521c-1.453-9.252-14.123-14.649-20.947-19.229c-13.502-9.06-15.744-27.052-17.318-41.911
		c-1.244-11.753-2.201-23.475-4.789-35.033c-0.417-1.862-1.04-4.641-1.958-7.559c-0.496-4.06-1.674-8.146-3.717-11.663
		c1.036-0.195,2.064-0.496,3.101-0.834c11.117-1.198,24.36-2.137,32.697-10.099c1.311-1.251,2.436-2.647,3.459-4.119
		c5.061-5.11,9.313-11.479,12.626-17.354c4.376,11.117,13.328,19.573,24.612,24.319c2.709,1.14,15.052,6.44,23.135,6.954
		c0.23,0.053,0.463,0.119,0.695,0.166c0.074,0.016,0.15,0.021,0.226,0.026c-0.523,0.573-1.027,1.161-1.426,1.831
		c-1.005,1.688-1.454,3.757-1.775,5.662c-0.646,3.828-0.352,7.88,0.084,11.811c0.134,5.926,0.747,11.83,1.369,17.731
		c0.134,8.936-0.726,17.647-2.952,26.92c-1.278,5.329-3.081,10.173-5.419,14.621c-6.925,10.748-16.6,21.008-28.444,26.145
		c-0.515,0.225-0.785,0.583-0.872,0.977C65.692,152.628,61.195,155.619,58.137,160.521z"/>
	<path fill="#9fca00" d="M62.19,144.114c-0.029-0.09-0.068-0.166-0.098-0.253c5.299-5.393,10.365-11.006,15.788-16.325
		c5.666-5.556,10.899-11.471,14.197-18.76c3.677-8.123,3.567-17.594,3.245-26.305c-0.215-5.83-0.639-11.637-0.628-17.476
		c0.008-4.672,1.451-9.345,1.713-13.943c1.162-0.559,0.964-2.219,0.002-2.815c-0.002-0.024,0-0.048-0.002-0.071
		c-0.048-0.604-0.85-1.116-1.321-0.549c-0.151,0.185-0.28,0.391-0.422,0.583c-13.986,3.327-25.204-6.456-35.279-14.827
		c-0.082-0.773-0.848-1.335-1.667-1.367c-0.044-0.021-0.09-0.021-0.127,0.003c-0.496,0.013-1,0.222-1.37,0.709
		c-4.379,5.762-9.808,9.856-16.318,12.959c-5.824,2.775-11.97,3.224-18.114,4.598c-0.127-0.266-0.248-0.538-0.383-0.799
		c-0.132-0.258-0.58-0.145-0.556,0.148c0.023,0.285,0.055,0.567,0.078,0.85c-0.596,0.192-0.538,1.068,0.045,1.242
		c0.023,0.008,0.048,0.014,0.07,0.021c0.866,9.321,2.37,18.573,2.972,27.954c0.609,9.506,1.24,19.22,4.345,28.29
		c2.535,7.4,7.149,13.74,12.909,18.95c6.323,5.72,15.043,9.331,17.705,18.069C59.599,147.053,62.839,146.169,62.19,144.114z
		 M62.623,137.097c-0.119-0.451-0.26-0.871-0.411-1.28c-0.058-0.153-0.116-0.309-0.188-0.467c-0.284-0.681-0.615-1.303-0.984-1.881
		c-0.016-0.378-0.026-0.755-0.048-1.129c0.744,0.322,1.493,0.644,2.245,0.99c0.327,0.15,0.831-0.019,0.795-0.454
		c-0.169-1.934,0.014-3.58,0.435-5.023c0.997,0.67,2.022,1.3,3.076,1.886c-1.577,2.504-3.216,4.97-4.916,7.405
		C62.623,137.128,62.628,137.115,62.623,137.097z M45.866,123.177c0.79,0.726,1.598,1.43,2.433,2.098
		c0.601,0.48,1.23,0.905,1.87,1.311c-0.554,0.697-1.119,1.388-1.7,2.068c-1.2-0.886-2.358-1.799-3.475-2.738
		c0.04-0.055,0.075-0.111,0.098-0.188C45.332,124.871,45.597,124.024,45.866,123.177z M46.042,122.602
		c0.211-0.646,0.443-1.28,0.669-1.918c1.444,1.496,3.035,2.944,4.638,4.387c-0.202,0.269-0.405,0.536-0.61,0.802
		C49.092,124.955,47.521,123.855,46.042,122.602z M29.819,101.528c-0.485-1.461-0.793-2.962-0.923-4.503
		c-0.082-0.712,0.554-3.417,1.058-4.651c0.565,2.728,1.464,5.421,2.472,8.065c-0.017,0.058-0.036,0.119-0.053,0.177
		c-0.081,0.301,0.111,0.512,0.343,0.572c0.133,0.338,0.262,0.676,0.396,1.013c0.276,1.1,0.604,2.19,0.976,3.263
		c-0.413,0.818-0.807,1.641-1.189,2.472C31.661,105.863,30.608,103.705,29.819,101.528z M26.276,75.479
		c0.279-0.227,0.567-0.446,0.84-0.673c0.416,3.137,1.233,6.308,2.39,9.408c-0.079,0.688-0.13,1.377-0.143,2.066
		c-0.684,1.493-1.331,3.005-1.939,4.532C26.869,85.67,26.644,80.473,26.276,75.479z M25.237,63.224
		c0.398-0.625,0.75-1.287,1.089-1.96c0.229,0.707,0.468,1.412,0.69,2.121c-0.079-0.011-0.177,0.058-0.142,0.148
		c0.167,0.406,0.349,0.807,0.521,1.213c-0.044,0.063-0.081,0.129-0.088,0.214c-0.102,1.388-0.072,2.751,0.06,4.102
		c-0.097,0.203-0.194,0.409-0.292,0.614c0.002-0.602-0.003-1.203,0.034-1.796c0.011-0.153-0.227-0.15-0.237,0
		c-0.057,0.784-0.074,1.578-0.071,2.375c-0.259,0.546-0.519,1.089-0.775,1.636C25.828,69.044,25.611,66.123,25.237,63.224z
		 M25.965,56.273c-0.011-0.066-0.024-0.135-0.036-0.201c0.442,0.528,0.859,1.076,1.266,1.633c-0.092,0.148-0.185,0.295-0.282,0.443
		C26.625,57.465,26.31,56.832,25.965,56.273z M27.623,58.703c0.04-0.071,0.078-0.143,0.118-0.214
		c0.963,1.393,1.846,2.854,2.684,4.353c-0.476,0.944-0.949,1.889-1.415,2.839c-0.437-2.192-0.966-4.456-1.67-6.424
		C27.434,59.072,27.525,58.882,27.623,58.703z M32.963,51.925c0.478,1.122,0.951,2.245,1.417,3.372
		c-0.395,0.723-0.785,1.446-1.173,2.171c-0.391-0.62-0.783-1.24-1.163-1.873c-0.014,0.005-0.022,0.013-0.037,0.016
		c-0.304-0.62-0.615-1.237-0.944-1.849c-0.175-0.327-0.536-0.285-0.744-0.087c0.242-0.467,0.482-0.934,0.719-1.406
		C31.678,52.173,32.32,52.062,32.963,51.925z M49.905,44.596c-0.387,0.267-0.766,0.543-1.139,0.839
		c0.021-0.032,0.04-0.063,0.062-0.095c0.207-0.319,0.433-0.733,0.652-1.158c0.247-0.185,0.491-0.37,0.733-0.557
		c-0.049,0.164-0.094,0.317-0.154,0.507C50.012,44.287,49.954,44.44,49.905,44.596z M61.773,39.222
		c-0.535,0.192-1.071,0.385-1.603,0.585c0.062-0.536,0.12-1.076,0.165-1.62C60.829,38.515,61.301,38.869,61.773,39.222z
		 M86.796,55.471c0.204,0.485,0.367,0.916,0.497,1.292c-0.42-0.612-0.786-1.192-1.053-1.62
		C86.425,55.251,86.606,55.365,86.796,55.471z M91.342,66.912c-0.341-1.67-0.882-3.303-1.631-4.934
		c-0.366-0.799-0.752-1.585-1.141-2.366c0.51,0.649,1.042,1.279,1.538,1.939c0.174,0.235,0.523,0.34,0.75,0.095
		c0.183-0.195,0.313-0.341,0.417-0.462C91.22,63.111,91.26,65.044,91.342,66.912z M90.843,70.292
		c0.021,0.214-0.338,0.063-0.898-0.298c0.083-0.422,0.168-0.85,0.249-1.272c0.102-0.522-0.694-0.749-0.805-0.222
		c-0.065,0.319-0.134,0.647-0.2,0.969c-1.44-1.048-3.435-2.723-4.397-3.641c0.34-2.007,0.588-4.026,0.709-6.049
		c0.694,0.604,1.341,1.2,1.845,1.789c0.22,0.256,0.604,0.034,0.62-0.259c0.01-0.198,0.028-0.404,0.045-0.607
		C89.426,63.72,90.513,66.852,90.843,70.292z M86.403,82.47c-0.231-0.274-0.461-0.56-0.681-0.842
		c0.457-1.158,0.919-2.311,1.378-3.461c0.113-0.285-0.346-0.406-0.459-0.123c-0.42,1.044-0.83,2.102-1.246,3.155
		c-0.168-0.225-0.324-0.436-0.464-0.625c0.643-2.045,1.253-4.094,1.838-6.145c0.303,0.842,0.583,1.691,0.843,2.546
		C87.224,78.8,86.819,80.628,86.403,82.47z M88.153,78.956c0.284,1.158,0.521,2.33,0.656,3.533c0.24,2.137-0.58,1.854-1.585,0.87
		C87.542,81.887,87.852,80.42,88.153,78.956z M73.977,124.842c0,0.019-0.188-0.145-0.476-0.406c0.148-0.28,0.302-0.554,0.446-0.831
		C73.962,124.016,73.983,124.428,73.977,124.842z M53.504,125.138c0.121-0.122,0.188-0.319,0.112-0.493
		c-0.185-0.43-0.369-0.878-0.556-1.333c0.781-1.029,1.538-2.071,2.274-3.129c1.125,1.127,2.281,2.219,3.472,3.271
		c-0.809,1.446-1.616,2.892-2.423,4.34C55.486,126.913,54.51,126.032,53.504,125.138z M35.357,108.005
		c0.084-0.077,0.171-0.156,0.256-0.235c0.309,0.103,0.679-0.035,0.657-0.456c-0.003-0.045-0.011-0.087-0.014-0.132
		c0.865-0.815,1.715-1.646,2.561-2.485c0.535,1.013,1.064,2.029,1.623,3.031c0.176,0.404,0.346,0.808,0.524,1.211
		c-0.028,1.354,0.175,2.633,0.561,3.854c-0.606,0.947-1.214,1.894-1.815,2.847C38.001,113.237,36.534,110.654,35.357,108.005z
		 M34.741,106.551c0.029-0.047,0.057-0.095,0.087-0.145c0.046,0.113,0.094,0.229,0.142,0.343c-0.035,0.032-0.069,0.066-0.104,0.098
		C34.825,106.749,34.78,106.649,34.741,106.551z M34.671,107.032c-0.29,0.269-0.569,0.546-0.859,0.813
		c0.216-0.198,0.479-0.564,0.772-1.031C34.613,106.887,34.642,106.958,34.671,107.032z M29.466,89.171
		c0.011,0.11,0.011,0.221,0.022,0.33c-0.007,0.01-0.02,0.013-0.024,0.026c-0.021,0.045-0.037,0.087-0.059,0.129
		c-0.43,0.549-0.85,1.103-1.291,1.644C28.566,90.746,29.017,90.01,29.466,89.171z M27.13,71.648c0.142-0.29,0.3-0.593,0.461-0.899
		c0.102,0.625,0.224,1.248,0.369,1.868c-0.112,0.103-0.224,0.208-0.337,0.312c-0.151,0.137-0.271,0.232-0.389,0.327
		C27.178,72.717,27.16,72.181,27.13,71.648z M26.962,73.45c-0.701,0.451-0.569-0.195-0.1-1.235
		C26.887,72.627,26.923,73.038,26.962,73.45z M32.917,59.985c0.453,1.197,0.859,2.411,1.199,3.645
		c0.088,0.293,0.233,1.011,0.389,1.855c-0.32,0.422-0.636,0.847-0.966,1.261c-0.686-1.253-1.363-2.512-2.05-3.762
		C31.962,61.982,32.439,60.984,32.917,59.985z M35.819,54.049c1.334,1.253,2.703,2.375,4.244,3.332
		c-0.733,1.164-1.479,2.319-2.241,3.461c-0.614-2.145-1.339-4.377-2.287-6.224C35.63,54.429,35.722,54.239,35.819,54.049z
		 M35.148,53.909c-0.425-0.73-0.89-1.385-1.408-1.915c0.535,0.549,1.064,1.074,1.593,1.585C35.272,53.69,35.21,53.798,35.148,53.909
		z M39.058,50.038c1.377,0.396,2.765,0.729,4.171,0.984c-0.625,0.287-1.139,0.715-1.383,1.39c-0.241,0.665-0.324,1.227-0.329,1.807
		c-0.262,0.068-0.484,0.361-0.42,0.654c0.045,0.203,0.098,0.401,0.146,0.604c-0.271,0.441-0.541,0.881-0.815,1.322
		c-1.185-0.649-2.854-2.403-3.374-2.868c-0.274-0.243-0.541-0.498-0.805-0.754c0.439-0.868,0.899-1.726,1.354-2.585
		C38.089,50.416,38.574,50.234,39.058,50.038z M45.669,50.355c0.744-0.018,1.483-0.071,2.22-0.153
		c-0.048,0.122-0.09,0.24-0.138,0.361c-0.444-0.026-0.945-0.055-1.498-0.055c0-0.003-0.001-0.005-0.001-0.005
		c-0.209-0.021-0.413-0.055-0.619-0.087C45.644,50.395,45.657,50.373,45.669,50.355z M50.431,49.804
		c0.108,0.256,0.229,0.509,0.375,0.76c-0.119-0.253-0.24-0.509-0.359-0.765c0.902-0.192,1.789-0.441,2.664-0.731
		c-0.474,0.902-0.949,1.802-1.417,2.707c-0.347-0.39-0.646-0.794-0.888-1.211c0.135,0.291,0.271,0.581,0.406,0.868
		c0.151,0.14,0.313,0.253,0.475,0.354c-0.053,0.1-0.103,0.201-0.155,0.301c-0.105-0.219-0.214-0.435-0.319-0.654
		c-0.425-0.391-0.778-0.931-0.993-1.585C50.289,49.833,50.36,49.817,50.431,49.804z M56.951,44.05
		c0.319,0.507,0.636,1.016,0.965,1.512c0.026,0.145,0.054,0.293,0.079,0.449c-0.813,0.509-1.833,0.958-2.784,1.324
		C55.793,46.24,56.358,45.137,56.951,44.05z M62.886,40.056c1.19,0.963,2.313,2.018,3.417,3.121
		c-0.029,0.446-0.056,0.894-0.097,1.335c-0.621-0.401-1.257-0.818-1.749-1.111c-0.5-0.298-0.906,0.44-0.448,0.765
		c0.584,0.414,1.144,0.841,1.698,1.271c0.052,0.063,0.131,0.122,0.231,0.171c0.045,0.037,0.087,0.071,0.132,0.108
		c-0.057,0.47-0.105,0.942-0.176,1.406c-1.605-1.306-3.288-2.493-5.212-3.438C59.468,41.409,61.449,41.601,62.886,40.056z
		 M79.788,54.692c0.469,1.058,0.928,2.121,1.363,3.19c-0.143,0.351-0.285,0.702-0.428,1.053c-0.529-0.665-1.058-1.33-1.588-1.984
		C79.368,56.204,79.579,55.45,79.788,54.692z M84.609,59.011c-0.047,1.419-0.177,2.844-0.352,4.269
		c-0.764-1.644-1.459-3.316-2.146-4.994c0.039-0.09,0.073-0.185,0.109-0.274c-0.084,0.206,0.033-0.237,0.248-0.918
		C83.13,57.742,83.87,58.38,84.609,59.011z M86.215,102.045c0.134,2.103-0.041,4.744-2.331,2.475
		c-0.036-0.037-0.068-0.079-0.106-0.119c0.662-1.274,1.323-2.551,1.984-3.828c0.132,0.317,0.26,0.636,0.404,0.95
		C86.182,101.697,86.204,101.869,86.215,102.045z M71.758,122.797c-0.656-0.625-1.234-1.187-1.361-1.327
		c-0.034-0.037-0.065-0.079-0.1-0.116c0.711-0.325,1.461-0.602,2.251-0.831c-0.088,0.361-0.173,0.712-0.254,1.042
		c-0.04,0.164-0.071,0.33-0.111,0.494C72.041,122.304,71.901,122.552,71.758,122.797z M56.909,128.322
		c0.859-0.472,1.633-1.678,2.317-2.991c0.072,0.456,0.15,0.913,0.218,1.369C58.633,127.287,57.796,127.842,56.909,128.322
		L56.909,128.322z M39.979,103.52c0.414-0.422,0.825-0.847,1.234-1.274c1.462,1.414,3,2.712,4.606,3.862
		c-0.236,0.367-0.47,0.731-0.704,1.097c-0.768-0.865-1.533-1.728-2.301-2.572c-0.368-0.406-1.004-0.163-1.158,0.306
		c-0.155,0.472-0.259,0.929-0.361,1.385C40.878,105.383,40.438,104.449,39.979,103.52z M48.378,51.553
		c0.061-0.024,0.109-0.061,0.149-0.106c0.143,1.641,0.441,3.237,0.854,4.804c-0.126,0.246-0.252,0.488-0.379,0.731
		c-0.625-0.644-1.268-1.271-1.952-1.857c-0.064-0.055-0.138-0.089-0.211-0.108C47.372,53.869,47.884,52.716,48.378,51.553z
		 M60.457,49.083c-0.003,0.552-0.067,1.132-0.2,1.744c-0.394-1.066-0.698-2.166-0.953-3.282
		C59.681,48.065,60.063,48.579,60.457,49.083z M73.193,53.202c-0.312-0.227-0.631-0.443-0.935-0.681
		c0.036-0.192,0.063-0.385,0.097-0.578C72.634,52.363,72.915,52.782,73.193,53.202z M74.446,55.099
		c0.873,1.325,1.733,2.654,2.563,3.999c-0.58,1.686-1.182,3.366-1.817,5.044c-1.499-1.768-2.913-3.615-4.29-5.496
		c0.453-1.725,0.863-3.464,1.206-5.221C72.859,54.012,73.633,54.576,74.446,55.099z M83.686,63.765
		c0.169,0.198,0.388,0.132,0.517-0.023c-0.063,0.48-0.136,0.96-0.212,1.443c-0.313-0.008-0.647,0.303-0.527,0.641
		c0.094,0.261,0.195,0.52,0.291,0.781c-0.195,1.055-0.417,2.111-0.665,3.163c-0.778-2.309-1.754-4.52-2.884-6.662
		c0.314-0.829,0.65-1.649,0.979-2.472C82.006,61.691,82.833,62.742,83.686,63.765z M81.48,59.884c0.082-0.2,0.159-0.401,0.237-0.602
		c0.138,0.338,0.277,0.676,0.415,1.016c0.332,0.829,0.542,1.304,0.65,1.538c-0.167-0.322-0.562-1.026-1.126-1.733
		C81.596,60.032,81.539,59.958,81.48,59.884z M82.653,70.575c0.052,0.15,0.09,0.277,0.131,0.409
		c-0.035,0.142-0.07,0.282-0.107,0.425c-1.486-1.137-2.87-2.375-4.183-3.68c0.443-1.216,0.892-2.43,1.346-3.641
		C80.916,66.168,81.884,68.316,82.653,70.575z M81.198,76.426c-0.659-0.596-1.346-1.168-2.092-1.699
		c-0.066-0.048-0.135-0.048-0.202-0.058c-0.549-1.084-1.141-2.15-1.759-3.198c0.285-0.805,0.569-1.609,0.861-2.411
		c1.387,1.396,2.777,2.786,4.169,4.174C81.871,74.302,81.546,75.368,81.198,76.426z M83.811,93.102
		c-0.332,1.258-0.667,2.514-1.023,3.768c0.029-1.169-0.049-2.351-0.229-3.554c-0.063-0.422-0.141-0.836-0.211-1.256
		c0.229-0.992,0.504-1.974,0.783-2.944c0.134,0.369,0.269,0.736,0.397,1.108C83.586,91.186,83.684,92.147,83.811,93.102z
		 M61.202,121.368c0.334,0.496,0.666,0.992,1.018,1.478c-0.47-0.251-0.945-0.491-1.428-0.715c0.066-0.127,0.135-0.267,0.195-0.378
		C61.059,121.623,61.13,121.494,61.202,121.368z M61.866,120.164c0.77-1.388,1.533-2.775,2.292-4.166
		c0.849,0.937,1.672,1.899,2.483,2.873c-0.926,1.322-1.909,2.601-2.952,3.833C63.06,121.882,62.454,121.033,61.866,120.164z
		 M61.088,119.028c-0.454-0.707-1.491-2.338-2.401-3.981c0.308-0.506,0.631-1.002,0.932-1.512c0.527,0.146,1.082,0.043,1.644-0.425
		c0.738,0.657,1.452,1.34,2.134,2.061c-0.732,1.338-1.469,2.673-2.208,4.005C61.156,119.125,61.119,119.078,61.088,119.028z
		 M56.46,118.55c0.132-0.195,0.273-0.383,0.402-0.581C56.771,118.249,56.637,118.442,56.46,118.55z M55.811,118.648
		c-0.098-0.016-0.199-0.037-0.307-0.071c-0.904-0.905-1.797-1.826-2.672-2.762c-0.004-0.003-0.003-0.011-0.006-0.013
		c-0.952-1.188-1.807-2.419-2.585-3.683c0.422-0.9,0.852-1.796,1.296-2.688c0.307,0.137,0.611,0.28,0.92,0.407
		c0.385,0.158,0.557-0.417,0.264-0.625c-0.267-0.193-0.515-0.398-0.775-0.596c0.316-0.623,0.636-1.245,0.962-1.865
		c0.075,0.135,0.156,0.264,0.23,0.399c0.46,3.044,1.594,5.933,3.746,8.601c0.056,0.385,0.079,0.712,0.093,1.013
		C56.594,117.394,56.207,118.022,55.811,118.648z M45.557,112.348c0.236-0.211,0.481-0.414,0.717-0.63
		c0.09,0.068,0.163,0.113,0.269,0.203c0.488,0.82,0.944,1.654,1.401,2.488c-0.203,0.459-0.404,0.918-0.6,1.377
		C46.64,114.582,45.907,113.247,45.557,112.348z M35.41,94.558c0.328-0.839,0.675-1.667,1.031-2.493
		c0.926,1.456,1.895,2.884,2.902,4.292c-0.392,0.612-0.776,1.227-1.157,1.844C37.215,97.036,36.28,95.827,35.41,94.558z
		 M37.897,98.663c-0.082,0.134-0.163,0.271-0.245,0.403c-0.45-0.818-0.906-1.628-1.364-2.435
		C36.808,97.326,37.346,98.004,37.897,98.663z M34.504,78.037c0.458,0.829,0.914,1.657,1.381,2.478
		c-0.507,0.786-1.021,1.57-1.543,2.345c-0.488-0.44-0.992-0.868-1.491-1.298c0.511-1.187,1.016-2.311,1.516-3.269
		C34.411,78.209,34.459,78.125,34.504,78.037z M82.043,99.391c-0.042,0.137-0.082,0.274-0.124,0.412
		c-0.264-1.338-0.314-2.683-0.139-4.034c0.041-0.781,0.15-1.559,0.289-2.334C82.285,95.415,82.306,97.405,82.043,99.391z
		 M78.579,102.106c-0.291-0.633-0.597-1.255-0.921-1.876c0.126-0.293,0.252-0.588,0.377-0.884c0.195,0.1,0.388,0.211,0.586,0.309
		c0.017,0.008,0.04,0.008,0.058,0.013c0.064,0.09,0.13,0.18,0.195,0.269c-0.084,0.665-0.156,1.327-0.264,1.995
		C78.601,101.993,78.589,102.048,78.579,102.106z M78.792,105.683c0.036,0.095,0.121,0.351,0.225,0.697
		c-0.023,0.063-0.037,0.132-0.037,0.206c0.003,0.683,0.003,1.364,0.004,2.047c-0.178,0.482-0.365,0.963-0.547,1.445
		c-0.375-0.33-0.754-0.657-1.116-0.999c0.478-1.33,0.879-2.681,1.219-4.047C78.618,105.251,78.716,105.462,78.792,105.683z
		 M77.191,107.657c-0.059,0.198-0.173,0.56-0.319,1c-0.271-0.264-0.526-0.546-0.792-0.818c0.562-1.353,1.288-2.646,2.037-3.886
		c0.016,0.04,0.031,0.082,0.048,0.124C77.88,105.28,77.543,106.47,77.191,107.657z M75.184,110.897
		c0.107-0.678,0.278-1.338,0.495-1.987c0.271,0.282,0.535,0.57,0.816,0.847C75.684,112.055,74.574,114.767,75.184,110.897z
		 M69.483,109.495c-0.449-0.316-0.891-0.646-1.325-0.981c0.335-0.644,0.662-1.29,0.994-1.936c0.183,0.153,0.343,0.29,0.514,0.435
		c0.181,0.417,0.362,0.834,0.536,1.256C70.245,109.314,70.065,109.902,69.483,109.495z M63.983,114.089
		c-0.613-0.67-1.247-1.316-1.904-1.931c1.09-1.596,1.586-3.902,1.871-6.189c0.965,0.9,1.961,1.773,2.986,2.612
		C65.966,110.424,64.978,112.261,63.983,114.089z M38.241,68.353c0.106,0.161,0.213,0.322,0.318,0.485
		c-0.024,0.045-0.05,0.087-0.073,0.132C38.403,68.767,38.326,68.559,38.241,68.353z M39.119,69.656
		c0.583,0.839,1.203,1.643,1.854,2.416c-0.285,0.501-0.577,0.997-0.865,1.498c-0.354-1.192-0.754-2.374-1.201-3.538
		C38.976,69.907,39.048,69.78,39.119,69.656z M41.797,72.986c0.834,0.918,1.708,1.799,2.639,2.622
		c-0.607,1.005-1.213,2.011-1.813,3.019c-0.221-0.296-0.438-0.589-0.671-0.879c-0.201-0.248-0.651-0.166-0.792,0.103
		c-0.022,0.04-0.034,0.081-0.055,0.122c-0.145-0.95-0.339-1.895-0.572-2.833C40.957,74.423,41.382,73.708,41.797,72.986z
		 M65.332,65.15c-0.098-0.15-0.189-0.303-0.287-0.449c0.116,0.103,0.234,0.206,0.354,0.309
		C65.377,65.058,65.353,65.103,65.332,65.15z M66.034,66.509c0-0.005,0.005-0.01,0.005-0.013c0.108-0.224,0.217-0.446,0.322-0.667
		c0.29,0.235,0.586,0.462,0.881,0.691c-0.512,1.406-1.055,2.804-1.637,4.187c-0.358-0.362-0.714-0.729-1.075-1.087
		c-0.007-0.016-0.013-0.029-0.02-0.045C65.031,68.559,65.538,67.535,66.034,66.509z M76.698,74.257
		c-0.119-0.18-0.238-0.359-0.356-0.536c0.031-0.087,0.063-0.174,0.095-0.264C76.526,73.724,76.602,73.996,76.698,74.257z
		 M79.892,88.329c-0.042-0.406-0.674-0.419-0.646,0c0.093,1.448,0.119,2.881,0.111,4.311c-0.294,0.792-0.591,1.581-0.895,2.369
		c-0.417-1.599-0.955-3.158-1.591-4.68c0.583-1.353,1.155-2.707,1.711-4.073c0.162-0.396,0.317-0.797,0.479-1.198
		c0.554,0.493,1.108,0.989,1.677,1.47c0.118,0.475,0.223,0.952,0.334,1.427c-0.323,0.897-0.649,1.792-0.977,2.688
		C80.03,89.872,79.968,89.1,79.892,88.329z M55.639,106.198c1.498,1.496,3.021,2.968,4.613,4.369c0.046,0.04,0.1,0.045,0.152,0.063
		c-0.012,0.021-0.023,0.042-0.033,0.063c-1.099-0.844-2.279-1.567-3.574-2.11C56.391,107.81,56.001,106.992,55.639,106.198z
		 M45.726,97.294c0.247-0.282,0.495-0.567,0.739-0.854c1.082,1.19,2.165,2.379,3.254,3.564c-0.068,0.108-0.138,0.214-0.206,0.322
		C48.382,99.136,47.128,98.107,45.726,97.294z M44.071,99.909c-0.087-0.148-0.182-0.293-0.271-0.44
		c0.01-0.014,0.024-0.024,0.034-0.037C43.914,99.589,43.986,99.763,44.071,99.909z M41.672,94.648
		c0.158-0.243,0.32-0.483,0.479-0.726c0.305,1.496,0.665,2.968,1.138,4.247c-0.058,0.063-0.114,0.127-0.171,0.19
		c-0.154-0.251-0.308-0.501-0.463-0.752C42.294,96.632,41.972,95.642,41.672,94.648z M40.789,91.371
		c-0.06-0.261-0.118-0.689-0.169-1.222c0.342,0.356,0.676,0.718,1.015,1.074c0.078,0.422,0.159,0.85,0.241,1.287
		c-0.195,0.287-0.387,0.575-0.579,0.86C41.116,92.711,40.944,92.047,40.789,91.371z M37.272,87.627
		c-0.367-0.672-0.763-1.321-1.182-1.947c0.562,0.528,1.119,1.058,1.67,1.599c-0.111,0.213-0.223,0.43-0.333,0.646
		C37.374,87.828,37.325,87.728,37.272,87.627z M38.375,87.889c0.341,0.34,0.684,0.678,1.021,1.021
		c0.182,1.575,0.485,3.15,0.899,4.704c-0.773-1.604-1.564-3.195-2.391-4.77C38.058,88.525,38.216,88.208,38.375,87.889z
		 M47.963,77.375c-0.09-0.683-0.198-1.358-0.318-2.031c0.722,1.831,1.558,3.63,2.421,5.421c-0.485,0.699-0.974,1.396-1.462,2.092
		c-1.23-2.155-2.319-4.379-3.411-6.593c0.643,0.538,1.295,1.065,1.98,1.564C47.474,78.048,48.015,77.758,47.963,77.375z
		 M47.754,68.514c0.15,0.274,0.3,0.551,0.444,0.82c-0.024,0.042-0.051,0.087-0.076,0.129C47.999,69.147,47.867,68.833,47.754,68.514
		z M60.168,77.386c0.134,0.111,0.267,0.219,0.399,0.327c0.288,0.639,0.575,1.274,0.864,1.913c-0.161,0.317-0.319,0.636-0.481,0.95
		c-0.129-0.448-0.259-0.899-0.396-1.351c0.19-0.312,0.05-0.747-0.401-1.306c-0.034-0.108-0.072-0.219-0.106-0.327
		C60.088,77.523,60.127,77.454,60.168,77.386z M74.961,69.54c0.088,0.873,0.194,1.741,0.328,2.604
		c-0.403-0.588-0.815-1.171-1.232-1.746c0.093-0.08,0.16-0.18,0.143-0.325c-0.007-0.053-0.019-0.1-0.024-0.153
		c0.138-0.33,0.266-0.665,0.402-0.995C74.703,69.131,74.838,69.334,74.961,69.54z M76.411,78.14
		c0.096,0.464,0.657,2.298,0.799,3.928c-0.823-0.651-1.504-1.189-1.729-1.406c-0.396-0.38-0.777-0.772-1.167-1.158
		c0.505-1.441,1.009-2.881,1.513-4.322C76.016,76.164,76.208,77.146,76.411,78.14z M77.793,96.737
		c-0.803-0.96-1.665-1.83-2.602-2.62c0.406-0.897,0.812-1.794,1.206-2.699c0.411,1.044,0.783,2.103,1.129,3.168
		c0.234,0.723,0.372,1.295,0.426,1.741C77.899,96.463,77.846,96.6,77.793,96.737z M74.363,93.429
		c-0.277-0.208-0.581-0.393-0.871-0.588c-0.039-0.195-0.065-0.391-0.108-0.585c0.085,0.026,0.158,0.061,0.243,0.087
		c0.255,0.076,0.567-0.19,0.462-0.462c-0.433-1.11-0.886-2.211-1.343-3.308c0.267,0.237,0.697,0.053,0.614-0.343
		c-0.241-1.155-0.576-2.242-0.97-3.289c0.091-0.253,0.184-0.504,0.273-0.754c0.765,1.271,1.511,2.556,2.205,3.876
		c0.354,0.67,0.673,1.353,0.976,2.047C75.349,91.231,74.854,92.337,74.363,93.429z M54.557,103.689
		c0.346-0.628,0.691-1.256,1.045-1.881c0.319-0.391,0.615-0.799,0.928-1.198c0.555,1.211,1.096,2.43,1.6,3.665
		c-0.015-0.034,1.587,4.577,1.254,4.284c-1.631-1.438-3.168-2.983-4.689-4.54C54.647,103.905,54.602,103.794,54.557,103.689z
		 M55.304,100.241c-0.466,0.581-0.955,1.143-1.433,1.715c-0.09-0.234-0.157-0.411-0.191-0.506c0.097-1.021,0.223-2.026,0.355-2.992
		c0.081-0.609,0.451-0.878,1.025-0.895c0.283,0.56,0.556,1.127,0.827,1.694C55.695,99.584,55.496,99.909,55.304,100.241z
		 M44.561,96.719c-0.242-0.026-0.43,0.161-0.419,0.424c-0.319-1.475-0.688-2.939-1.075-4.4c0.847,0.91,1.689,1.826,2.528,2.744
		C45.25,95.898,44.913,96.313,44.561,96.719z M56.035,86.213c0.271,0.652,0.544,1.306,0.815,1.958
		c-0.282,0.496-0.567,0.992-0.854,1.485c-0.256-1.47-0.563-2.929-0.916-4.375c0.079-0.113,0.156-0.232,0.235-0.345
		C55.555,85.362,55.801,85.786,56.035,86.213z M60.796,83.459c0.43-0.797,0.839-1.607,1.256-2.411
		c0.696,1.559,1.379,3.126,2.041,4.701c-0.251,0.414-0.496,0.831-0.75,1.242c-0.422-0.419-0.844-0.841-1.261-1.264
		c-0.476-0.662-0.963-1.316-1.456-1.963C60.681,83.662,60.739,83.562,60.796,83.459z M72.057,85.857
		c0.054-0.15,0.109-0.301,0.163-0.454C72.841,86.664,72.614,86.554,72.057,85.857z M72.183,90.64
		c-0.321,0.137-0.893,0.045-1.769-0.33c0.306-0.813,0.608-1.625,0.906-2.44C71.63,88.786,71.92,89.709,72.183,90.64z M71.265,84.791
		c-0.124-0.174-0.251-0.356-0.38-0.543c-0.388-0.876-0.781-1.749-1.174-2.622c0.295,0.266,0.588,0.536,0.895,0.792
		c0.029,0.053,0.062,0.11,0.091,0.163c0.326,0.578,0.594,1.061,0.827,1.494C71.439,84.314,71.35,84.552,71.265,84.791z
		 M67.601,76.946c0.195,0.43,0.47,0.96,0.774,1.525c-0.017,0.026-0.032,0.053-0.049,0.082
		C68.087,78.016,67.843,77.481,67.601,76.946z M69.392,80.299c0.119,0.206,0.237,0.412,0.354,0.617
		c-0.152-0.14-0.307-0.28-0.46-0.419C69.322,80.431,69.359,80.365,69.392,80.299z M71.709,83.275
		c0.026,0.019,0.054,0.037,0.079,0.055c-0.008,0.024-0.016,0.047-0.023,0.071C71.746,83.359,71.728,83.317,71.709,83.275z
		 M71.175,82.169c-0.438-0.871-0.927-1.718-1.434-2.562l0.001-0.003c0.658,0.971,1.303,1.955,1.929,2.949
		C71.508,82.422,71.337,82.304,71.175,82.169z M68.561,81.873c0.479,0.908,0.981,1.802,1.511,2.681
		c0.242,0.564,0.442,1.145,0.658,1.718c-0.431,1.187-0.865,2.374-1.308,3.556c-0.056-0.029-0.096-0.047-0.154-0.077
		c-1.338-0.823-2.438-1.873-3.316-3.129C66.853,85.056,67.722,83.475,68.561,81.873z M65.342,88.928
		c0,0.003-0.002,0.005-0.005,0.011c-0.156-0.15-0.313-0.298-0.467-0.446c0.065-0.108,0.126-0.222,0.189-0.33
		C65.157,88.416,65.241,88.675,65.342,88.928z M58.835,97.814c-0.035-0.019-0.071-0.032-0.104-0.048
		c0.004-0.008,0.011-0.013,0.015-0.018C58.776,97.766,58.805,97.79,58.835,97.814z M55.954,95.814c0-0.076-0.006-0.148-0.006-0.224
		c0.475,0.388,0.955,0.768,1.443,1.14c-0.068,0.116-0.138,0.232-0.207,0.348c-0.112-0.047-0.219-0.1-0.331-0.147
		C56.552,96.558,56.248,96.191,55.954,95.814z M52.656,91.348c-0.292-0.499-0.607-0.984-0.905-1.48
		c0.189-0.251,0.388-0.499,0.576-0.752c0.669,0.823,1.391,1.614,2.168,2.375c0.04,0.184,0.068,0.374,0.105,0.562
		c-0.195,0.327-0.393,0.651-0.589,0.976c-0.007-0.005-0.015-0.011-0.021-0.019c-0.123-0.105-0.24-0.216-0.361-0.322
		C53.307,92.239,52.972,91.799,52.656,91.348z M55.621,90.311c-0.105,0.182-0.208,0.364-0.313,0.546
		c-0.337-1.38-0.784-2.73-1.299-4.063c0.248-0.351,0.506-0.694,0.752-1.045c0.229,0.968,0.462,1.934,0.662,2.91
		C55.573,89.39,55.632,89.926,55.621,90.311z M53.563,88.409c0.287,0.726,0.509,1.459,0.704,2.2
		c-0.517-0.44-1.117-1.127-1.685-1.839c0.243-0.327,0.477-0.665,0.718-0.997C53.387,87.987,53.479,88.198,53.563,88.409z
		 M60.945,90.896c-0.135-2.179-0.467-4.598,1.093-1.781C61.673,89.709,61.309,90.303,60.945,90.896z M64.799,89.791
		c0.11,0.1,0.224,0.198,0.335,0.301c-0.012,0.066-0.022,0.132-0.034,0.198C65,90.123,64.902,89.954,64.799,89.791z M64.736,92.445
		c-0.016,0.106-0.037,0.212-0.053,0.317c-0.337-0.707-0.681-1.409-1.022-2.113C64.021,91.244,64.394,91.838,64.736,92.445z
		 M60.061,85.114c0.05,0.071,0.095,0.145,0.146,0.216c-0.007,0.029-0.028,0.048-0.028,0.08c0,2.245,0,4.49-0.001,6.735
		c-0.049,0.08-0.099,0.161-0.146,0.243c-0.541-1.443-1.166-2.847-1.844-4.229c0.596-1.05,1.179-2.108,1.76-3.166
		C59.987,85.032,60.023,85.074,60.061,85.114z M59.215,93.722c-0.515,0.844-1.03,1.688-1.541,2.532
		c-0.557-0.375-1.155-0.894-1.751-1.448c-0.049-0.762-0.14-1.512-0.266-2.253c0.125,0.108,0.241,0.222,0.37,0.33
		c0.144,0.118,0.443,0.061,0.417-0.174c-0.048-0.417-0.108-0.829-0.165-1.243c0.38-0.649,0.753-1.303,1.128-1.955
		C57.995,90.923,58.602,92.324,59.215,93.722z M59.889,96.115c-0.103,0.24-0.225,0.428-0.375,0.536
		C59.641,96.474,59.762,96.294,59.889,96.115z M51.157,75.025c0.39,0.826,0.771,1.651,1.146,2.478
		c-0.017,0.026-0.033,0.05-0.051,0.074c-0.707-1.219-1.392-2.446-2.051-3.683C50.518,74.273,50.838,74.648,51.157,75.025z
		 M53.948,82.578c0.131,0.475,0.272,0.95,0.395,1.427c-0.199,0.293-0.391,0.594-0.592,0.887c-0.105,0.153-0.222,0.303-0.327,0.454
		c-0.66-1.557-1.391-3.097-2.132-4.635c0.278-0.404,0.554-0.808,0.831-1.211C52.737,80.541,53.349,81.568,53.948,82.578z
		 M52.696,86.356c-0.314,0.443-0.631,0.884-0.952,1.325c-0.528-0.715-0.96-1.34-1.156-1.626c-0.51-0.744-0.981-1.503-1.44-2.269
		c0.469-0.67,0.938-1.34,1.403-2.01C51.285,83.296,52.017,84.818,52.696,86.356z M51.487,88.039
		c-0.157,0.211-0.307,0.43-0.463,0.644c-0.823-1.335-1.661-2.662-2.522-3.979c0.14-0.198,0.278-0.396,0.418-0.594
		C49.709,85.462,50.549,86.781,51.487,88.039z M50.34,89.59c-0.006,0.008-0.014,0.016-0.019,0.021
		c-0.818-0.808-1.624-1.631-2.422-2.461c-0.172-0.285-0.344-0.573-0.512-0.86c0.134-0.192,0.271-0.382,0.406-0.575
		C48.625,87.015,49.471,88.308,50.34,89.59z M43.235,90.519c-0.671-1.915-1.367-3.82-2.063-5.722
		c0.003-0.013,0.013-0.019,0.016-0.032c0.127-0.873,0.18-1.741,0.196-2.609c0.065-0.114,0.128-0.227,0.191-0.343
		c1.101,0.842,2.775,2.707,2.741,2.67c0.603,0.636,1.206,1.267,1.81,1.892C45.155,87.754,44.188,89.134,43.235,90.519z
		 M40.507,85.757c0.053,0.29,0.105,0.58,0.166,0.871c-0.057-0.103-0.124-0.208-0.184-0.312
		C40.494,86.129,40.499,85.945,40.507,85.757z M40.502,88.15c0.264,0.409,0.506,0.823,0.775,1.227
		c0.026,0.129,0.053,0.271,0.079,0.404c-0.273-0.288-0.548-0.578-0.823-0.866C40.52,88.67,40.509,88.414,40.502,88.15z
		 M43.44,91.994c1.111-1.641,2.242-3.271,3.385-4.9c0.056,0.056,0.109,0.114,0.166,0.169c0.75,1.248,1.511,2.459,2.338,3.62
		c-1.053,1.354-2.127,2.686-3.224,3.999C45.218,93.917,44.33,92.954,43.44,91.994z M49.713,89.999
		c0.06,0.058,0.117,0.113,0.176,0.169c-0.014,0.016-0.024,0.029-0.036,0.045C49.803,90.144,49.761,90.068,49.713,89.999z
		 M50.827,91.073c0.487,0.464,0.979,0.918,1.474,1.371c0.289,0.499,0.564,1.005,0.843,1.509c-0.596-0.388-1.118-0.881-1.557-1.493
		c-0.325-0.378-0.618-0.781-0.923-1.177C50.719,91.216,50.772,91.142,50.827,91.073z M56.114,97.74
		c0.098,0.032,0.198,0.063,0.299,0.101c0.062,0.074,0.123,0.15,0.185,0.224c-0.062,0.103-0.12,0.201-0.18,0.303
		C56.315,98.16,56.217,97.948,56.114,97.74z M63.501,102.119c-0.085,0.67-0.183,1.337-0.276,2.007
		c-1.73-1.744-3.369-3.586-4.95-5.432C59.844,99.544,61.682,100.782,63.501,102.119z M60.805,98.877
		c0.103-0.077,0.181-0.192,0.181-0.325c0-0.892,0-1.78,0-2.672c0.072-0.105,0.109-0.235,0.069-0.38
		c-0.021-0.074-0.05-0.145-0.069-0.219c0-0.243,0-0.488,0-0.731c0.731-1.074,1.444-2.163,2.142-3.263
		c0.141,0.285,0.277,0.57,0.414,0.854c-0.411-0.026-0.798,0.367-0.561,0.874c0.424,0.907,0.865,1.823,1.314,2.744
		c-0.209,1.659-0.412,3.321-0.612,4.981C62.732,100.072,61.778,99.45,60.805,98.877z M65.308,94.076
		c0.019-0.146,0.041-0.29,0.06-0.436c0.36,0.667,0.724,1.333,1.061,2.01c-0.35-0.483-0.703-0.96-1.054-1.438
		C65.353,94.168,65.331,94.12,65.308,94.076z M67.963,99.642c0.206,0.277,0.411,0.554,0.617,0.831
		c0.097,0.298,0.208,0.675,0.331,1.121C68.591,100.945,68.276,100.293,67.963,99.642z M65.688,91.276
		c0.019-0.129,0.031-0.261,0.053-0.391c0.006-0.095,0.014-0.153,0.02-0.229c0.19,0.171,0.379,0.346,0.571,0.515
		c0.476,0.944,0.995,1.865,1.519,2.783c-0.103,0.264-0.206,0.528-0.311,0.791C66.971,93.577,66.35,92.418,65.688,91.276z
		 M67.806,92.432c0.159,0.132,0.319,0.264,0.477,0.396c-0.036,0.098-0.073,0.198-0.113,0.295
		C68.049,92.891,67.925,92.664,67.806,92.432z M66.704,90.224c-0.372-0.976-0.761-1.942-1.154-2.907
		c0.03-0.053,0.063-0.105,0.094-0.158c0.955,1.29,2.144,2.361,3.567,3.232c-0.193,0.514-0.384,1.029-0.581,1.543
		C67.981,91.374,67.337,90.804,66.704,90.224z M70.174,90.933c0.74,0.386,1.529,0.726,2.374,1.026
		c0.018,0.082,0.036,0.182,0.056,0.293c-0.017-0.011-0.033-0.024-0.051-0.034c-0.469-0.277-1.118,0.298-0.779,0.778
		c0.401,0.572,0.772,1.161,1.161,1.738c0.02,0.198,0.04,0.396,0.057,0.597c-1.199-0.829-2.361-1.72-3.49-2.657
		C69.727,92.097,69.953,91.516,70.174,90.933z M74.21,84.96c0.959,0.567,1.974,1.087,3.071,1.533
		c0.039,0.016,0.076,0.011,0.113,0.008c-0.359,0.854-0.721,1.699-1.085,2.535C75.676,87.651,74.969,86.293,74.21,84.96z
		 M77.78,83.934c0.163,0.15,0.333,0.288,0.495,0.436c-0.171,0.422-0.346,0.844-0.52,1.266C77.778,85.063,77.793,84.494,77.78,83.934
		z M74.385,84.375c-0.281-0.143-0.537-0.325-0.804-0.488c-0.17-0.282-0.341-0.57-0.513-0.85c0.317-0.899,0.634-1.796,0.951-2.696
		c1.043,1.034,2.104,2.047,3.179,3.047C77.038,84.639,76.326,85.359,74.385,84.375z M73.806,67.696c0-0.003,0-0.008-0.003-0.013
		c0.003,0.003,0.004,0.005,0.005,0.008C73.808,67.693,73.807,67.696,73.806,67.696z M75.228,73.614
		c-0.595,1.678-1.188,3.355-1.778,5.036c-0.732-0.73-1.467-1.454-2.189-2.189c0.807-1.712,1.587-3.433,2.329-5.169
		C74.147,72.057,74.695,72.832,75.228,73.614z M73.157,79.475c-0.279,0.789-0.558,1.578-0.838,2.367
		c-0.688-1.071-1.4-2.129-2.125-3.174c0.061-0.122,0.117-0.243,0.177-0.364c0.03-0.037,0.051-0.081,0.061-0.126
		c0.159-0.325,0.314-0.649,0.47-0.974C71.649,77.967,72.403,78.721,73.157,79.475z M69.419,76.563
		c-0.755-1.081-1.517-2.155-2.307-3.21c0.871,0.881,1.736,1.768,2.604,2.651C69.617,76.188,69.519,76.376,69.419,76.563z
		 M65.277,74.373c0.189,0.659,0.455,1.623,0.701,2.601c-0.409-0.48-0.813-0.965-1.211-1.456
		C64.942,75.139,65.105,74.756,65.277,74.373z M66.249,78.088c0.328,1.417,0.525,2.588,0.254,2.459
		c-1.131-0.538-2.191-1.208-3.219-1.929c0.415-0.844,0.821-1.694,1.22-2.546C65.08,76.758,65.662,77.428,66.249,78.088z
		 M66.552,81.639c-0.47,0.799-0.943,1.596-1.421,2.39c-0.174-1.235-0.504-1.691-0.985-1.382c-0.086-0.623-0.176-1.211-0.283-1.72
		c-0.101-0.475-0.805-0.269-0.72,0.198c0.078,0.43,0.197,0.818,0.3,1.222c-0.313-0.712-0.639-1.425-0.955-2.137
		c0.131-0.258,0.271-0.512,0.401-0.773C64.052,80.238,65.271,80.972,66.552,81.639z M61.852,78.789
		c-0.02-0.042-0.039-0.084-0.058-0.126c0.028,0.021,0.061,0.042,0.091,0.063C61.874,78.747,61.863,78.768,61.852,78.789z
		 M60.12,81.154c0.063,0.195,0.208,0.292,0.364,0.319c-0.219,0.425-0.438,0.85-0.658,1.272c-0.555-0.702-1.115-1.396-1.686-2.076
		c0.387-0.607,0.781-1.209,1.157-1.818C59.589,79.613,59.873,80.378,60.12,81.154z M59.106,84.077
		c-0.507,0.947-1.016,1.897-1.539,2.836c-0.345-0.667-0.693-1.335-1.057-1.994c-0.149-0.361-0.299-0.726-0.446-1.087
		c0.398-0.588,0.8-1.174,1.188-1.768C57.863,82.742,58.483,83.409,59.106,84.077z M55.45,82.349
		c-0.652-1.559-1.322-3.108-2.015-4.641c0.952,1.113,1.919,2.221,2.896,3.322C56.042,81.473,55.742,81.911,55.45,82.349z
		 M49.014,68.975c0.25-0.435,0.499-0.871,0.746-1.306c0.407,1.741,0.863,3.469,1.351,5.189
		C50.445,71.55,49.749,70.255,49.014,68.975z M48.899,70.627c0.105,0.182,0.2,0.369,0.302,0.551
		c-0.215-0.203-0.435-0.417-0.646-0.615c-0.065-0.153-0.123-0.312-0.187-0.464c0.042-0.071,0.083-0.145,0.124-0.216
		C48.648,70.173,48.791,70.437,48.899,70.627z M51.579,78.568c-0.258,0.377-0.517,0.755-0.775,1.132
		c-1.264-2.617-2.504-5.242-3.39-7.962c0.112-0.19,0.222-0.382,0.335-0.572C48.836,73.701,50.183,76.173,51.579,78.568z
		 M48.384,83.169c-0.153,0.219-0.309,0.438-0.462,0.654c-0.409-0.618-0.805-1.243-1.219-1.855c-0.226-0.754-0.473-1.121-0.738-1.087
		c-0.352-0.514-0.698-1.034-1.053-1.548c-0.331-0.48-1.104-0.048-0.792,0.464c1.013,1.675,2.05,3.351,3.104,5.018
		c-0.129,0.182-0.255,0.361-0.383,0.544c-1.21-2.089-2.387-4.182-3.794-6.155c0.571-0.992,1.146-1.981,1.724-2.968
		C45.973,78.568,47.118,80.911,48.384,83.169z M44.232,82.683c0.358,0.567,0.701,1.135,1.039,1.697
		c-1.071-1.146-2.14-2.29-3.222-3.422c0.048-0.082,0.096-0.164,0.143-0.248C42.715,80.752,43.382,81.33,44.232,82.683z
		 M39.314,84.335c-0.501-0.808-1.02-1.612-1.535-2.414c0.512,0.583,1.044,1.15,1.589,1.707C39.338,83.863,39.336,84.1,39.314,84.335
		z M39.261,87.609c-0.165-0.169-0.335-0.335-0.501-0.501c0.155-0.311,0.313-0.617,0.472-0.926
		C39.232,86.657,39.232,87.132,39.261,87.609z M46.981,95.84c1.073-1.269,2.127-2.559,3.156-3.87
		c0.816,1.047,1.712,2.037,2.729,2.963c-0.891,1.459-1.79,2.912-2.699,4.361C49.099,98.146,48.039,96.994,46.981,95.84z
		 M53.753,95.698c0.115,0.093,0.228,0.188,0.346,0.28c-0.192-0.045-0.435,0.071-0.472,0.277c-0.304,1.684-0.536,3.346-0.657,4.984
		c-0.076,0.082-0.113,0.195-0.061,0.337c0.009,0.026,0.019,0.053,0.026,0.082c-0.011,0.18-0.011,0.356-0.019,0.538
		c-0.646-0.673-1.29-1.348-1.929-2.029C51.923,98.684,52.842,97.194,53.753,95.698z M60.897,109.688
		c-1.01-3.406-2.293-6.677-3.77-9.851c0.15-0.195,0.301-0.388,0.451-0.581c1.735,2.058,3.566,4.029,5.504,5.894
		c-0.004,0.021-0.006,0.042-0.009,0.063C62.374,106.718,61.65,108.211,60.897,109.688z M64.729,101.486
		c-0.104-0.077-0.21-0.148-0.315-0.224c0.018-0.156,0.034-0.312,0.053-0.459c0.161-1.251,0.309-2.501,0.459-3.754
		c0.307,0.62,0.615,1.243,0.924,1.868c-0.361,0.865-0.729,1.728-1.103,2.586C64.741,101.496,64.736,101.492,64.729,101.486z
		 M66.435,100.106c0.762,1.551,1.52,3.119,2.247,4.701c-1.018-0.939-2.073-1.841-3.166-2.688
		C65.826,101.449,66.136,100.782,66.435,100.106z M69.792,100.265c-0.457-1.414-1.012-2.82-1.64-4.216
		c0.124-0.301,0.256-0.602,0.38-0.908c0.9,1.515,1.947,2.854,3.127,4.103c-0.342,0.71-0.694,1.417-1.043,2.124
		C70.34,101,70.065,100.634,69.792,100.265z M68.854,94.352c0.108-0.272,0.208-0.544,0.315-0.815
		c1.248,0.992,2.526,1.939,3.843,2.825c-0.346,0.744-0.687,1.493-1.04,2.232C70.762,97.368,69.751,95.904,68.854,94.352z
		 M73.014,98.792c-0.045,0.203-0.106,0.346-0.19,0.406C72.889,99.064,72.951,98.927,73.014,98.792z M74.692,95.231
		c0.019-0.04,0.037-0.082,0.055-0.121c0.264,0.261,0.561,0.546,0.93,0.899c0.516,0.491,0.984,1.032,1.438,1.588
		c-0.329-0.047-0.741-0.206-1.221-0.454C75.501,96.5,75.098,95.864,74.692,95.231z M76.985,98.79
		c-0.019,0.042-0.034,0.081-0.053,0.124c-0.039-0.074-0.08-0.143-0.121-0.216C76.869,98.732,76.927,98.758,76.985,98.79z
		 M78.951,97.167c0.087-0.214,0.171-0.43,0.258-0.647c-0.034,0.507-0.065,1.011-0.113,1.517
		C79.05,97.748,79.004,97.457,78.951,97.167z M81.111,83.734c0.113,0.662,0.206,1.327,0.259,2.002
		c-0.011-0.129-0.282-0.425-0.694-0.808c-0.453-1.564-0.727-2.92,0.27-1.641C81.001,83.435,81.055,83.586,81.111,83.734z
		 M81.362,87.15c-0.01-0.032-0.021-0.071-0.032-0.103c0.019,0.016,0.034,0.032,0.053,0.047C81.375,87.111,81.37,87.132,81.362,87.15
		z M80.212,84.515c-0.217-0.19-0.451-0.388-0.702-0.594c0.111-0.282,0.217-0.564,0.325-0.847
		C79.961,83.552,80.085,84.032,80.212,84.515z M79.669,80.789c-0.18-0.082-0.408,0.103-0.355,0.306
		c0.031,0.124,0.067,0.25,0.099,0.374c-0.229,0.602-0.461,1.2-0.697,1.799c-0.339-0.274-0.68-0.546-1.012-0.807
		c-0.108-1.501-0.312-2.989-0.585-4.514c-0.057-0.322-0.264-1.216-0.518-2.296c0.765,1.161,1.521,2.33,2.279,3.488
		c0.271,0.499,0.557,0.989,0.854,1.475C79.712,80.673,79.689,80.731,79.669,80.789z M75.811,71.548
		c0.021,0.077,0.05,0.15,0.074,0.227c-0.04,0.113-0.08,0.224-0.121,0.335c-0.196-0.85-0.357-1.554-0.426-1.913
		c0.053,0.089,0.104,0.182,0.156,0.274C75.572,70.724,75.674,71.07,75.811,71.548z M74.171,66.762
		c-0.296-0.448-0.592-0.889-0.885-1.324c-0.146-0.567-0.298-1.132-0.469-1.688c0.599,0.62,1.2,1.24,1.804,1.858
		C74.471,65.992,74.323,66.377,74.171,66.762z M71.667,63.066c-0.409-0.591-0.815-1.187-1.236-1.77
		c0.305,0.322,0.623,0.633,0.93,0.955C71.462,62.522,71.566,62.794,71.667,63.066z M70.559,60.224
		c-0.026-0.029-0.054-0.055-0.08-0.084c0.006-0.021,0.012-0.045,0.019-0.066C70.519,60.124,70.54,60.174,70.559,60.224z
		 M72.614,65.833c0.321,1.169,0.461,2.272-0.071,2.567c-1.079-1.358-2.219-2.641-3.438-3.801c0.291-0.866,0.586-1.733,0.852-2.609
		C70.866,63.253,71.754,64.536,72.614,65.833z M68.782,65.559c0.362,0.377,0.719,0.76,1.066,1.132
		c0.417,0.449,0.815,0.916,1.213,1.38c-0.047-0.024-0.082-0.037-0.13-0.066c-0.835-0.494-1.636-1.053-2.422-1.638
		C68.606,66.1,68.688,65.828,68.782,65.559z M72.642,70.023c0.024,0.032,0.051,0.063,0.074,0.095
		c-0.473,0.979-0.942,1.96-1.432,2.934c-0.378,0.749-0.788,1.48-1.183,2.224c-1.202-1.232-2.409-2.457-3.617-3.681
		c0.6-1.443,1.173-2.894,1.709-4.358C69.625,68.271,71.111,69.205,72.642,70.023z M64.57,72.4c0.046,0.122,0.096,0.24,0.142,0.361
		c-0.256,0.575-0.52,1.148-0.783,1.72c-0.406-0.506-0.813-1.013-1.219-1.52c0.323-0.585,0.646-1.174,0.958-1.762
		C63.969,71.598,64.269,71.999,64.57,72.4z M63.66,75.062c-0.445,0.952-0.898,1.899-1.364,2.841c-0.432-0.327-0.863-0.657-1.282-1
		c-0.071-0.174-0.146-0.361-0.222-0.562c0.546-0.929,1.078-1.868,1.602-2.81C62.818,74.046,63.24,74.555,63.66,75.062z
		 M59.633,75.732c-0.088-0.076-0.18-0.15-0.267-0.227c-0.348-1.021-0.723-2.037-1.113-3.053c0.462,1.082,0.932,2.158,1.407,3.232
		C59.652,75.701,59.643,75.716,59.633,75.732z M56.7,72.975c-0.064-0.066-0.124-0.135-0.188-0.2
		c0.016-0.026,0.033-0.053,0.049-0.077C56.606,72.79,56.655,72.883,56.7,72.975z M57.798,75.299c0.306,0.667,0.594,1.34,0.876,2.013
		c-0.473,0.768-0.95,1.53-1.436,2.29c-0.981-1.14-1.974-2.245-2.965-3.308c0.599-0.913,1.188-1.826,1.765-2.747
		C56.613,74.144,57.197,74.729,57.798,75.299z M53.592,75.571c-0.626-0.657-1.248-1.303-1.865-1.926
		c-0.631-2.105-1.232-4.221-1.755-6.355c0.095-0.166,0.19-0.335,0.285-0.504c1.629,2.095,3.309,4.134,5.1,6.05
		C54.779,73.751,54.19,74.661,53.592,75.571z M49.796,66.57c-0.042-0.177-0.078-0.354-0.117-0.53
		c0.079,0.105,0.159,0.208,0.238,0.313C49.875,66.424,49.836,66.498,49.796,66.57z M49.59,66.928
		c-0.29,0.509-0.583,1.019-0.878,1.528c-0.62-1.066-1.258-2.121-1.934-3.161c-0.059-0.224-0.126-0.443-0.18-0.668
		c-0.003-0.005-0.016-0.163-0.04-0.427c0.235-0.454,0.468-0.908,0.699-1.364c0.192,0.259,0.386,0.515,0.577,0.773
		c0.483,0.646,0.969,1.288,1.46,1.929C49.389,66.002,49.487,66.467,49.59,66.928z M47.49,70.532
		c-0.098,0.164-0.194,0.325-0.29,0.488c-0.105-0.35-0.217-0.699-0.309-1.055c-0.343-1.327-0.519-2.184-0.57-2.696
		C46.64,68.369,47.048,69.453,47.49,70.532z M42.311,72.073c0.031-0.058,0.066-0.116,0.098-0.174
		c0.146,0.248,0.287,0.499,0.43,0.747C42.661,72.455,42.48,72.271,42.311,72.073z M40.507,79.309
		c-0.005,0.013-0.013,0.024-0.018,0.039c-0.021-0.024-0.044-0.047-0.066-0.071c-0.24-0.245-0.71-0.071-0.694,0.288
		c0.025,0.512,0.071,1.005,0.113,1.504c-0.355-1.019-0.705-2.042-1.042-3.068c0.383-0.618,0.763-1.235,1.136-1.857
		C40.179,77.188,40.372,78.244,40.507,79.309z M39.48,82.713c-0.889-0.754-1.97-1.913-2.247-2.216
		c0.324-0.501,0.634-1.013,0.953-1.517C38.591,80.23,39.028,81.473,39.48,82.713z M38.755,85.393c-0.2,0.37-0.4,0.739-0.596,1.113
		c-0.984-0.981-1.986-1.944-3.008-2.889c0.46-0.673,0.909-1.354,1.356-2.031C37.242,82.863,37.987,84.135,38.755,85.393z
		 M40.9,97.075c-0.14-0.19-0.281-0.38-0.421-0.57c0.024-0.04,0.049-0.079,0.073-0.119C40.668,96.616,40.785,96.846,40.9,97.075z
		 M44.825,100.85c0.122,0.53,0.27,1.05,0.412,1.575c-0.184-0.203-0.367-0.409-0.546-0.615c0.14-0.089,0.246-0.251,0.219-0.446
		C44.886,101.191,44.85,101.022,44.825,100.85z M45.15,98.795c-0.372-1.905,2.026,0.491,3.788,2.435
		c-0.646,1.018-1.293,2.039-1.945,3.055c-0.202-0.206-0.4-0.412-0.598-0.62C45.892,102.082,45.474,100.46,45.15,98.795z
		 M47.416,105.773c0.248,0.24,0.491,0.48,0.741,0.717c0.351,0.333,0.646,0.607,0.913,0.853c-0.045,0.047-0.094,0.092-0.14,0.14
		c-0.434-0.306-0.944-0.649-1.521-1.013c-0.058-0.14-0.116-0.277-0.171-0.419C47.298,105.958,47.357,105.866,47.416,105.773z
		 M49.904,108.187c0.013-0.013,0.027-0.029,0.041-0.044C50.689,108.815,50.592,108.707,49.904,108.187z M48.535,107.873
		c-0.122,0.124-0.245,0.242-0.367,0.364c-0.125-0.269-0.248-0.538-0.366-0.81C48.044,107.578,48.29,107.731,48.535,107.873z
		 M48.064,110.01c0.201,0.422,0.418,0.842,0.647,1.264c-0.301-0.34-0.604-0.678-0.902-1.019
		C47.893,110.174,47.978,110.092,48.064,110.01z M48.716,109.377c0.301-0.298,0.608-0.588,0.902-0.889
		c0.302,0.161,0.606,0.312,0.911,0.462c-0.33,0.657-0.66,1.314-0.98,1.976C49.261,110.414,48.98,109.899,48.716,109.377z
		 M50.532,107.525c0.553-0.58,1.111-1.15,1.651-1.744c-0.385,0.712-0.763,1.43-1.135,2.147
		C50.878,107.791,50.701,107.662,50.532,107.525z M49.636,106.746c-0.613-0.533-1.213-1.079-1.796-1.641
		c0.634-0.989,1.268-1.982,1.899-2.974c0.607,0.697,1.011,1.182,0.955,1.105c0.323,0.436,0.616,0.897,0.913,1.354
		C50.96,105.32,50.306,106.039,49.636,106.746z M50.323,101.217c0.071-0.111,0.143-0.222,0.213-0.333
		c0.74,0.802,1.486,1.599,2.238,2.388c-0.166,0.192-0.326,0.39-0.493,0.583C51.674,102.929,51.025,102.043,50.323,101.217z
		 M53.981,104.728c0.392,1.179,0.759,2.361,1.104,3.554c-0.086,0.064-0.149,0.143-0.197,0.237c-0.406-0.839-0.827-1.672-1.283-2.49
		c-0.015-0.179-0.017-0.362-0.026-0.543C53.714,105.235,53.845,104.979,53.981,104.728z M54.985,110.778
		c0.609,1.288,1.174,2.599,1.707,3.921c0.005,0.026,0.011,0.047,0.016,0.074c-0.939-1.644-1.741-3.356-2.388-5.139
		c-0.056-0.158-0.09-0.322-0.14-0.48C54.452,109.696,54.721,110.237,54.985,110.778z M57.03,111.007
		c0.522,0.86,1.203,1.763,1.968,2.243c-0.216,0.39-0.43,0.784-0.651,1.171C57.596,113.013,57.007,111.68,57.03,111.007z
		 M58.047,110.728c0.418,0.192,0.988,0.559,1.725,1.121c-0.098,0.179-0.198,0.356-0.296,0.533
		C59.019,112.041,58.534,111.458,58.047,110.728z M60.318,112.3c0.119,0.098,0.231,0.2,0.347,0.301
		c-0.177,0.098-0.363,0.127-0.562,0.09C60.177,112.561,60.246,112.429,60.318,112.3z M60.949,111.163
		c0.519-0.934,1.041-1.86,1.535-2.807c-0.257,1.1-0.603,2.174-1.077,3.187C61.257,111.413,61.102,111.289,60.949,111.163z
		 M64.147,105.032c0.288-0.591,0.575-1.185,0.855-1.78c1.187,0.907,2.321,1.815,3.329,2.646c-0.336,0.651-0.669,1.306-1.009,1.955
		C66.223,106.963,65.169,106.018,64.147,105.032z M72.041,109.788c-0.146-0.367-0.298-0.733-0.448-1.098
		c0.166,0.156,0.3,0.28,0.391,0.367c0.121,0.121,0.265,0.119,0.393,0.071C72.268,109.35,72.152,109.57,72.041,109.788z
		 M72.622,108.638c-0.008-0.021,0.002-0.042-0.011-0.066c-0.533-0.92-1.038-1.857-1.541-2.796c-0.101-0.736-0.234-1.47-0.392-2.203
		c0.041-0.079,0.078-0.155,0.117-0.234c0.9,1.134,1.824,2.245,2.781,3.327C73.265,107.325,72.946,107.984,72.622,108.638z
		 M71.314,102.286c0.373-0.752,0.749-1.504,1.114-2.258c0.338,0.33,0.673,0.662,1.029,0.984c0.252,0.229,0.631,0.069,0.65-0.269
		c0.067-1.24,0.038-2.472-0.049-3.701c0.214,0.137,0.424,0.277,0.639,0.412c0.572,0.926,1.137,1.86,1.674,2.817
		c-0.743,1.794-1.513,3.58-2.327,5.353C73.107,104.538,72.194,103.428,71.314,102.286z M75.21,105.697
		c0.635-1.348,1.252-2.71,1.854-4.079c0.275,0.559,0.554,1.119,0.8,1.691c-0.893,1.312-1.62,2.675-2.195,4.105
		c-0.282-0.298-0.571-0.589-0.847-0.892C74.951,106.248,75.083,105.968,75.21,105.697z M79.396,100.668
		c0.079,0.111,0.158,0.222,0.237,0.33c-0.11,0.135-0.227,0.269-0.34,0.404C79.336,101.159,79.359,100.911,79.396,100.668z
		 M79.615,99.122c0.146-1.161,0.267-2.327,0.344-3.504c0.093,0.947,0.182,1.897,0.296,2.844c0.081,0.673,0.197,1.333,0.315,1.989
		C80.253,100.006,79.932,99.565,79.615,99.122z M80.371,93.617c0.416-1.071,0.817-2.147,1.214-3.227
		c0.109,0.58,0.23,1.161,0.316,1.741c-0.588,2.941-0.809,5.938-0.429,9.009c-0.567-2.522-0.847-4.889-0.825-4.714
		C80.535,95.492,80.456,94.556,80.371,93.617z M82.159,90.925c-0.082-0.451-0.18-0.902-0.268-1.353
		c0.235-0.652,0.459-1.306,0.689-1.957c0.09,0.243,0.182,0.488,0.274,0.733C82.599,89.203,82.36,90.063,82.159,90.925z
		 M78.665,76.55c0.138,0.483,0.283,0.966,0.434,1.446c-0.087-0.135-0.172-0.267-0.259-0.401c-0.622-1.253-1.125-2.572-1.58-3.907
		C77.749,74.632,78.219,75.584,78.665,76.55z M76.036,69.646c-0.17-0.623-0.336-1.246-0.496-1.86
		c-0.051-0.195-0.232-0.274-0.398-0.256c0.13-0.327,0.268-0.651,0.396-0.981c0.547,0.557,1.083,1.121,1.632,1.675
		c-0.25,0.683-0.498,1.367-0.744,2.05C76.296,70.065,76.165,69.854,76.036,69.646z M70.132,57.127
		c-0.002-0.002-0.003-0.005-0.005-0.008c0.007-0.016,0.013-0.032,0.019-0.045C70.141,57.09,70.136,57.109,70.132,57.127z
		 M68.719,57.407c-0.076,0.195-0.143,0.393-0.219,0.588c-0.955-1.037-1.915-2.068-2.857-3.116c0.838,0.826,1.702,1.633,2.6,2.419
		C68.385,57.423,68.561,57.444,68.719,57.407z M69.558,58.523c0.045,0.066,0.093,0.129,0.14,0.195
		c-0.041,0.15-0.08,0.301-0.121,0.451c-0.065-0.071-0.129-0.143-0.195-0.214C69.44,58.81,69.499,58.668,69.558,58.523z
		 M69.109,60.807c-0.226,0.76-0.451,1.523-0.688,2.277c-0.073,0.229-0.154,0.457-0.229,0.684c-0.209-0.182-0.422-0.357-0.636-0.53
		c0.423-0.945,0.843-1.892,1.242-2.847C68.901,60.531,69.007,60.668,69.109,60.807z M67.895,64.66
		c-0.112,0.33-0.215,0.662-0.331,0.989c-0.27-0.216-0.53-0.446-0.796-0.673c0.15-0.322,0.299-0.644,0.445-0.968
		C67.445,64.224,67.673,64.438,67.895,64.66z M65.812,64.15c-1.092-1-2.132-2.068-3.126-3.171c0.076,0.024,0.155,0.05,0.248,0.09
		c1.212,0.509,2.314,1.261,3.344,2.119C66.129,63.512,65.966,63.828,65.812,64.15z M64.893,66.058
		c-0.332,0.675-0.658,1.351-1.002,2.021c-0.696-1.651-1.433-3.285-2.194-4.91c0.102-0.227,0.205-0.457,0.309-0.683
		C62.909,63.715,63.861,64.897,64.893,66.058z M61.229,62.177c-0.144-0.304-0.29-0.604-0.435-0.905
		c0.021-0.126,0.039-0.256,0.069-0.385c0.191,0.277,0.387,0.543,0.579,0.815C61.372,61.86,61.303,62.018,61.229,62.177z
		 M61.148,64.351c0.077,0.169,0.159,0.332,0.236,0.499c-0.089-0.161-0.168-0.327-0.239-0.494
		C61.146,64.356,61.148,64.353,61.148,64.351z M62.116,67.306c-0.414-0.393-0.814-0.797-1.233-1.185
		c-0.192-0.177-0.474-0.113-0.63,0.047c0.223-0.441,0.444-0.881,0.659-1.321C61.265,65.688,61.671,66.506,62.116,67.306z
		 M60.216,66.636c0.868,1.15,1.74,2.298,2.609,3.445c-0.326,0.604-0.635,1.216-0.969,1.815c-0.925-1.137-1.878-2.25-2.885-3.319
		c0.401-0.725,0.794-1.456,1.173-2.195C60.134,66.464,60.151,66.551,60.216,66.636z M61.398,72.328
		c0.043,0.053,0.082,0.101,0.124,0.15c-0.423,0.752-0.863,1.496-1.301,2.24c-0.559-1.662-1.179-3.604-1.851-5.076
		c0.093-0.161,0.183-0.322,0.274-0.483C59.61,70.173,60.509,71.263,61.398,72.328z M57.866,68.664
		c-0.242-0.415-0.488-0.755-0.741-0.968c0.292,0.248,0.567,0.517,0.845,0.783C57.933,68.54,57.9,68.601,57.866,68.664z
		 M55.842,72.049c-1.807-1.934-3.493-3.992-5.111-6.113c0.444-0.805,0.881-1.615,1.311-2.424c1.246,2.752,2.656,5.461,4.02,8.184
		C55.989,71.814,55.915,71.93,55.842,72.049z M50.392,65.498c-0.387-0.507-0.768-1.019-1.147-1.533
		c-0.08-0.409-0.161-0.818-0.232-1.227c-0.026-0.15-0.254-0.087-0.229,0.063c0.039,0.24,0.088,0.48,0.13,0.718
		c-0.393-0.533-0.792-1.063-1.185-1.596c0.556-1.09,1.124-2.168,1.673-3.261c0.414,0.461,0.82,0.934,1.204,1.43
		c0.36,0.955,0.758,1.902,1.173,2.844C51.326,63.794,50.863,64.649,50.392,65.498z M46.977,60.903
		c-0.202-0.272-0.402-0.546-0.606-0.82c0.005-2.137,0.237-4.065,1.14-3.298c0.372,0.319,0.715,0.678,1.065,1.026
		C48.044,58.842,47.511,59.874,46.977,60.903z M46.501,61.824c-0.027,0.053-0.056,0.105-0.083,0.158
		c-0.004-0.098-0.01-0.19-0.014-0.288C46.437,61.736,46.469,61.779,46.501,61.824z M45.511,66.237
		c0.009,0.185,0.019,0.369,0.031,0.554c-0.039-0.132-0.076-0.262-0.116-0.396C45.455,66.343,45.485,66.292,45.511,66.237z
		 M46.114,72.83c-0.344,0.57-0.69,1.142-1.035,1.712c-0.285,0.087-0.559,0.026-0.823-0.161c-0.507-1-1.023-1.997-1.567-2.976
		c0.688-1.224,1.364-2.454,2.029-3.693C45.216,69.408,45.693,71.113,46.114,72.83z M42.007,70.213
		c-0.531-0.91-1.095-1.802-1.696-2.675c0.378-0.672,0.759-1.343,1.136-2.018c0.571-1.026,1.135-2.055,1.686-3.086
		c0.367,1.224,0.74,2.448,1.108,3.672C43.507,67.482,42.762,68.849,42.007,70.213z M41.623,70.603
		c0.03,0.047,0.058,0.095,0.087,0.142c-0.066,0.119-0.131,0.24-0.198,0.359c-0.633-0.802-1.237-1.628-1.817-2.467
		c0.059-0.103,0.113-0.206,0.172-0.306C40.707,69.353,41.436,70.305,41.623,70.603z M39.13,67.812
		c-0.111-0.161-0.223-0.324-0.332-0.485c-0.197-0.288-0.382-0.583-0.573-0.876c0.327,0.349,0.676,0.739,1.025,1.148
		C39.209,67.67,39.169,67.741,39.13,67.812z M37.934,69.957c-0.274,0.491-0.549,0.979-0.823,1.469
		c-0.227-1.424-0.365-2.857-0.414-4.3C37.132,68.06,37.547,69.004,37.934,69.957z M38.351,71.017
		c0.446,1.171,0.84,2.356,1.179,3.554c-0.388,0.665-0.783,1.324-1.18,1.984c-0.137-0.443-0.283-0.881-0.41-1.324
		c-0.232-0.797-0.431-1.602-0.597-2.412C37.678,72.218,38.013,71.617,38.351,71.017z M37.742,77.557
		c-0.417,0.681-0.839,1.359-1.267,2.034c-0.188-0.229-0.384-0.451-0.564-0.683c-0.144-0.246-0.306-0.499-0.439-0.739
		c-0.178-0.319-0.348-0.641-0.524-0.957c0.599-1.127,1.205-2.248,1.824-3.361C37.046,75.094,37.373,76.331,37.742,77.557z
		 M32.212,83.072c0.293,0.533,0.597,1.061,0.905,1.585c-0.023,0.034-0.046,0.068-0.069,0.103c-0.337-0.518-0.667-1.043-0.92-1.488
		C32.157,83.206,32.183,83.14,32.212,83.072z M33.714,85.657c0.873,1.443,1.791,2.871,2.725,4.277
		c-0.045,0.095-0.087,0.19-0.132,0.285c-0.667-1.127-1.313-2.266-1.949-3.411c-0.14-0.248-0.392-0.641-0.687-1.092
		C33.684,85.697,33.699,85.678,33.714,85.657z M37.003,90.778c0.963,1.435,1.935,2.854,2.884,4.255
		c0.044,0.092,0.089,0.185,0.134,0.277c-0.064,0.098-0.128,0.195-0.191,0.293c-0.43-0.604-0.855-1.208-1.274-1.823
		c-0.594-0.87-1.146-1.772-1.693-2.675C36.908,90.996,36.954,90.886,37.003,90.778z M40.002,97.273
		c0.478,0.652,0.959,1.298,1.452,1.939c0.14,0.18,0.287,0.348,0.428,0.528c-0.376,0.417-0.742,0.842-1.123,1.256
		c-0.009,0.008-0.019,0.019-0.027,0.029c-0.623-0.63-1.232-1.279-1.824-1.957C39.266,98.468,39.631,97.869,40.002,97.273z
		 M42.666,100.705c0.977,1.171,2.001,2.298,3.065,3.387c0.15,0.48,0.296,0.96,0.465,1.433c-0.017,0.026-0.032,0.05-0.051,0.077
		c-1.577-1.098-3.103-2.351-4.556-3.741C41.952,101.478,42.308,101.09,42.666,100.705z M47.546,108.855
		c-0.174,0.171-0.346,0.345-0.52,0.514c-0.37-0.42-0.738-0.837-1.105-1.256c0.266-0.412,0.527-0.826,0.794-1.24
		C46.973,107.536,47.253,108.198,47.546,108.855z M45.195,109.596c-0.047-0.042-0.095-0.085-0.138-0.127
		c0-0.003,0.003-0.003,0.003-0.005C45.105,109.506,45.15,109.551,45.195,109.596z M48.242,113.308
		c0.048,0.04,0.093,0.076,0.139,0.113c-0.01,0.021-0.018,0.04-0.025,0.058C48.316,113.424,48.282,113.363,48.242,113.308z
		 M64.739,114.931c1.023-1.886,2.036-3.778,3.032-5.68c0.914,0.726,1.843,1.433,2.806,2.106c0.301,0.208,0.651-0.074,0.678-0.385
		c0.025,0.066,0.048,0.134,0.073,0.203c-0.817,1.538-1.68,3.05-2.595,4.53c-0.267-0.153-0.536-0.304-0.788-0.459
		c-0.133-0.082-0.248,0.121-0.12,0.206c0.247,0.164,0.51,0.317,0.768,0.472c-0.418,0.673-0.847,1.335-1.29,1.989
		C66.456,116.911,65.605,115.914,64.739,114.931z M69.648,116.518c1.143,0.604,2.346,1.113,3.58,1.412
		c-0.116,0.401-0.227,0.799-0.33,1.19c-1.205,0.285-2.371,0.694-3.493,1.211c-0.419-0.48-0.838-0.958-1.253-1.441
		C68.67,118.115,69.168,117.323,69.648,116.518z M69.798,116.276c0.716-1.211,1.395-2.438,2.036-3.67
		c0.545,1.631,1.001,3.279,1.357,4.941C72.016,117.286,70.873,116.819,69.798,116.276z M72.571,111.165
		c0.617-1.226,1.209-2.445,1.775-3.638c0.299,0.327,0.618,0.638,0.924,0.96c-0.646,1.908-1.037,3.937-1.151,6.131
		c-0.007,0.14,0.08,0.229,0.188,0.282c-0.105,0.235-0.203,0.475-0.297,0.718C73.604,114.12,73.118,112.635,72.571,111.165z
		 M76.911,110.182c0.195,0.19,0.412,0.359,0.609,0.546c-0.469,0.303-0.902,0.662-1.287,1.082
		C76.473,111.271,76.698,110.728,76.911,110.182z M78.989,103.04c0.033-0.161,0.069-0.319,0.102-0.48
		c0.471-0.552,0.847-0.765,1.152-0.757c0.25,0.329,0.496,0.665,0.754,0.984c-0.325,1.013-0.662,2.019-1.007,3.021
		C79.708,104.871,79.372,103.948,78.989,103.04z M83.173,85.931c0.122-0.354,0.242-0.709,0.36-1.065
		c-0.022,0.514-0.068,1.021-0.077,1.535C83.367,86.24,83.264,86.092,83.173,85.931z M80.013,77.051
		c0.175,0.224,0.428,0.491,0.718,0.775c-0.061,0.18-0.125,0.359-0.188,0.538C80.376,77.924,80.2,77.489,80.013,77.051z
		 M77.663,66.881c-0.534-0.557-1.057-1.124-1.566-1.702c0.641-1.509,1.242-3.039,1.804-4.588c0.441,0.744,0.868,1.496,1.282,2.253
		C78.667,64.184,78.162,65.533,77.663,66.881z M69.373,55.666c-1.063-1.963-2.255-3.86-3.538-5.701
		c0.09-0.533,0.174-1.069,0.247-1.609c1.54,1.266,3.003,2.588,4.509,3.849C70.206,53.368,69.798,54.521,69.373,55.666z
		 M65.485,49.463c-0.135-0.19-0.261-0.385-0.396-0.572c-0.765-1.053-1.611-2.005-2.458-2.986c-3.296-3.817,2.323,1.538,2.832,1.941
		c0.091,0.074,0.179,0.148,0.268,0.222C65.651,48.535,65.578,49.002,65.485,49.463z M63.261,49.764
		c0.53,0.765,1.068,1.525,1.575,2.309c0.01,0.016,0.023,0.034,0.034,0.053c-0.04,0.156-0.087,0.312-0.128,0.467
		c-0.228-0.264-0.442-0.506-0.611-0.681c-0.348-0.38-0.67-0.781-1.009-1.166c-0.034-0.538-0.145-1.066-0.319-1.58
		C62.955,49.366,63.111,49.561,63.261,49.764z M65.283,52.764c0.596,0.918,1.188,1.836,1.782,2.757
		c-0.209-0.325-1.07-1.43-1.867-2.388C65.226,53.009,65.256,52.885,65.283,52.764z M65.158,54.381
		c-0.093-0.058-0.184-0.069-0.271-0.043c0.017-0.063,0.031-0.126,0.049-0.19C65.01,54.225,65.082,54.307,65.158,54.381z
		 M64.699,55.051c1.103,1.39,2.191,2.804,3.267,4.231c-0.445,1.077-0.9,2.147-1.378,3.208c-1.152-0.844-2.375-1.577-3.686-2.16
		C63.585,58.605,64.192,56.848,64.699,55.051z M59.878,61.649c0.162,0.715,0.368,1.409,0.606,2.087
		c-0.687,1.401-1.415,2.783-2.183,4.15c-0.591-0.594-1.195-1.177-1.839-1.726c-0.253-0.216-0.763-0.019-0.62,0.359
		c0.331,0.871,0.678,1.733,1.025,2.596c-1.134-2.536-2.432-4.994-3.956-7.274c0.52-1.016,1.026-2.039,1.512-3.071
		c1.255,1.868,2.71,3.578,4.545,4.989c0.258,0.198,0.541-0.171,0.412-0.412c-1.406-2.648-2.463-5.374-3.366-8.178
		c0.095-0.229,0.189-0.459,0.283-0.688c0.437,0.855,0.872,1.709,1.308,2.567C58.381,58.576,59.136,60.111,59.878,61.649z
		 M54.737,58.088c0.338-0.733,0.662-1.47,0.978-2.211c0.642,2.037,1.362,4.044,2.233,6.015c0.501,0.921,0.215,0.718-0.857-0.607
		C56.177,60.365,55.425,59.243,54.737,58.088z M55.736,54.281c-0.156-0.504-0.307-1.01-0.454-1.52c0.09,0.09,0.17,0.182,0.278,0.274
		c0.005,0.011,0.013,0.021,0.019,0.034c0.117,0.229,0.233,0.459,0.351,0.686C55.864,53.93,55.801,54.107,55.736,54.281z
		 M53.906,49.798c0.077,0.164,0.153,0.327,0.232,0.491c0.077,0.303,0.15,0.612,0.229,0.918c-0.251,0.797-0.937,1.084-1.693,0.963
		c0.168-0.333,0.335-0.665,0.504-0.997C53.413,50.711,53.666,50.26,53.906,49.798z M52.479,52.558
		c0.626,0.567,1.351,1.106,2.171,1.602c0.116,0.071,0.269-0.021,0.267-0.153c0-0.279-0.004-0.551-0.01-0.82
		c0.173,0.612,0.355,1.224,0.54,1.833c-0.333,0.836-0.681,1.67-1.045,2.493c-0.372-0.649-0.733-1.301-1.084-1.931
		c-0.421-0.754-0.818-1.525-1.203-2.298C52.236,53.041,52.357,52.801,52.479,52.558z M51.848,54.286
		c0.688,1.369,1.414,2.702,2.226,3.968c-0.477,1.05-0.976,2.089-1.495,3.124c-0.378-0.549-0.76-1.097-1.167-1.622
		c-0.194-0.47-0.395-0.936-0.574-1.414c-0.192-0.507-0.343-1.024-0.498-1.538c0.459-0.916,0.923-1.831,1.384-2.744
		C51.764,54.136,51.817,54.225,51.848,54.286z M49.836,57.855c-0.006-0.008-0.013-0.013-0.019-0.021
		c0.002-0.002,0.005-0.008,0.008-0.016C49.829,57.832,49.833,57.845,49.836,57.855z M45.469,58.879
		c-0.101-0.135-0.201-0.267-0.3-0.398c0.182-0.364,0.361-0.729,0.54-1.092C45.61,57.885,45.526,58.383,45.469,58.879z
		 M45.369,60.309c-0.037,1.124,0.022,2.237,0.172,3.343c-0.201,0.382-0.4,0.765-0.601,1.145c-0.206-0.67-0.416-1.34-0.626-2.01
		c-0.15-0.477-0.287-1.108-0.435-1.786c0.274-0.52,0.551-1.04,0.817-1.564C44.919,59.729,45.148,60.016,45.369,60.309z
		 M43.564,59.583c-0.065-0.274-0.135-0.546-0.208-0.815c0.152-0.126,0.25-0.327,0.18-0.512c-0.072-0.185-0.15-0.388-0.232-0.593
		c0.25,0.316,0.498,0.633,0.746,0.95C43.886,58.937,43.729,59.262,43.564,59.583z M41.989,58.433c0.246,0.905,0.499,1.81,0.763,2.71
		c-0.981,1.87-1.991,3.73-3.019,5.585c-0.205-0.28-0.408-0.559-0.623-0.834c0.053-0.1,0.072-0.213,0.038-0.332
		c-0.292-0.953-0.587-2.06-0.909-3.232c0.481-0.694,0.957-1.398,1.425-2.111c0.484-0.744,0.958-1.493,1.426-2.248
		C41.382,58.133,41.682,58.286,41.989,58.433z M37.513,63.346c0.073-0.1,0.147-0.201,0.221-0.303
		C38.001,63.657,38.021,63.892,37.513,63.346z M35.354,64.372c-0.039,0.053-0.082,0.103-0.119,0.156
		c-0.061-0.246-0.115-0.491-0.179-0.733C35.156,63.987,35.256,64.179,35.354,64.372z M35.919,65.495
		c0.01,0.021,0.019,0.04,0.027,0.059c-0.038,1.01-0.021,2.013,0.044,3.007c-0.108-0.878-0.252-1.752-0.422-2.612
		C35.684,65.799,35.802,65.649,35.919,65.495z M35.19,69.664c-0.378-0.628-0.725-1.274-1.082-1.913
		c0.219-0.261,0.444-0.517,0.658-0.781C35.011,68.392,35.215,69.703,35.19,69.664z M35.336,71.777
		c0.24,0.398,0.921,0.248,0.899-0.245c-0.023-0.607-0.09-1.201-0.144-1.799c0.098,0.937,0.236,1.868,0.409,2.791
		c-0.695,1.245-1.384,2.496-2.067,3.746c-1.005-1.833-2.013-3.667-3.014-5.503c0.708-0.739,1.392-1.501,2.062-2.274
		C34.086,69.609,34.695,70.711,35.336,71.777z M30.126,70.561c-0.059,0.056-0.116,0.111-0.176,0.169
		c-0.049-0.253-0.097-0.515-0.147-0.783C29.908,70.152,30.02,70.355,30.126,70.561z M29.694,72.484
		c0.218,0.201,0.624,0.05,0.545-0.311c-0.012-0.061-0.025-0.127-0.037-0.188c0.147-0.145,0.295-0.293,0.443-0.438
		c0.957,1.77,1.996,3.49,3.118,5.155c0.072,0.132,0.147,0.264,0.219,0.396c-0.628,1.163-1.249,2.332-1.855,3.506
		c-1.232-2.409-2.265-4.907-3.099-7.49C29.252,72.907,29.473,72.696,29.694,72.484z M31.049,82.298
		c0.037,0.077,0.071,0.156,0.109,0.235c-0.207,0.415-0.419,0.826-0.621,1.243c0.037-0.322,0.065-0.646,0.119-0.971
		C30.711,82.473,30.855,82.328,31.049,82.298z M31.848,83.942c0.242,0.491,0.485,0.984,0.738,1.47
		c-0.438,0.617-0.891,1.227-1.343,1.839c-0.144-0.309-0.275-0.623-0.413-0.934C31.172,85.543,31.51,84.744,31.848,83.942z
		 M33.149,86.451c0.859,1.596,1.77,3.165,2.725,4.704c-0.372,0.815-0.731,1.633-1.073,2.462c-1.113-1.702-2.127-3.478-3.03-5.303
		C32.235,87.694,32.695,87.077,33.149,86.451z M36.716,100.642c-0.373,0.638-0.737,1.279-1.093,1.926
		c-0.35-1.62-0.826-3.195-1.393-4.744c0.139-0.419,0.279-0.839,0.427-1.255C35.34,97.93,36.03,99.283,36.716,100.642z
		 M34.944,103.821c-0.01,0.021-0.02,0.04-0.03,0.058c-0.488-1.2-0.971-2.411-1.436-3.633c0.045-0.156,0.091-0.311,0.139-0.467
		C34.043,101.124,34.466,102.473,34.944,103.821z M35.482,105.259c0.054,0.137,0.102,0.274,0.158,0.412
		c-0.054-0.132-0.109-0.269-0.165-0.404C35.478,105.264,35.481,105.261,35.482,105.259z M35.948,104.388
		c0.485-0.913,0.957-1.831,1.346-2.53c0.006-0.013,0.014-0.026,0.021-0.037c0.304,0.591,0.607,1.185,0.913,1.773
		c-0.696,0.699-1.399,1.39-2.112,2.071C36.069,105.238,36.013,104.81,35.948,104.388z M38.25,100.178
		c0.125-0.216,0.255-0.433,0.381-0.646c0.563,0.641,1.143,1.264,1.733,1.868c-0.313,0.335-0.64,0.654-0.957,0.984
		C39.029,101.644,38.644,100.909,38.25,100.178z M42.583,106.565c-0.046,0.226,0.707,1.081,1.631,2.039
		c-0.38,0.591-0.762,1.185-1.143,1.775c-0.133-0.24-0.271-0.48-0.401-0.717c-0.1-0.269-0.219-0.536-0.321-0.802
		C42.352,108.116,42.422,107.353,42.583,106.565z M43.736,111.53c0.228-0.356,0.456-0.712,0.686-1.068
		c0.111,0.343,0.219,0.688,0.342,1.023c-0.229,0.208-0.458,0.412-0.69,0.617C43.959,111.912,43.846,111.722,43.736,111.53z
		 M45.218,112.648c0.391,0.968,0.816,1.913,1.285,2.834c-0.639-0.736-1.235-1.541-1.794-2.388
		C44.881,112.947,45.049,112.799,45.218,112.648z M48.092,117.031c0.18-0.443,0.363-0.887,0.551-1.327
		c0.431,0.826,0.854,1.654,1.264,2.498c-0.617-0.29-1.211-0.644-1.768-1.095C48.126,117.083,48.107,117.054,48.092,117.031z
		 M50.216,119.515c0.114,0.042,0.212,0.034,0.301,0.008c0.504,1.105,1.006,2.211,1.485,3.327c0.728,1.657-1.504-1.962-2.557-3.672
		C49.697,119.302,49.952,119.42,50.216,119.515z M49.112,114.619c0.063-0.145,0.126-0.293,0.191-0.44
		c0.008,0.005,0.015,0.01,0.022,0.018c0.856,0.857,1.73,1.684,2.621,2.488c0.947,0.997,1.895,1.997,2.861,2.979
		c0.068,0.068,0.139,0.137,0.208,0.206c-0.679,1.039-1.378,2.066-2.102,3.079C51.804,120.207,50.64,117.133,49.112,114.619z
		 M57.716,116.619c0.045-0.071,0.089-0.145,0.133-0.216c0.118-0.061,0.201-0.164,0.21-0.293c0.766,1.456,1.593,2.873,2.475,4.247
		c-0.248,0.446-0.495,0.889-0.743,1.335c-0.182-0.077-0.359-0.159-0.541-0.232c-0.221-0.085-0.398,0.035-0.5,0.205
		c-0.313-0.282-0.619-0.575-0.928-0.865c0.132-0.058,0.232-0.179,0.227-0.34C58.002,119.162,57.882,117.885,57.716,116.619z
		 M60.196,125.085c-0.029-0.179-0.045-0.338-0.059-0.485c0.316,0.261,0.633,0.522,0.955,0.778c-0.256,0.224-0.501,0.459-0.765,0.672
		C60.281,125.728,60.246,125.407,60.196,125.085z M60.618,123.265c0.453-0.108,1.166,0.271,1.904,0.736
		c-0.148,0.156-0.293,0.319-0.447,0.473C61.579,124.085,61.102,123.668,60.618,123.265z M64.452,123.681
		c1.081-1.189,2.086-2.469,3.027-3.81c0.276,0.333,0.553,0.665,0.831,0.995c-0.464,0.256-0.919,0.533-1.363,0.834
		c-0.929,0.63-1.647,1.43-2.232,2.319C64.627,123.908,64.541,123.792,64.452,123.681z M68.775,127.755
		c-0.955-0.971-1.959-1.889-3.05-2.699c0.887-1.314,2.08-2.343,3.482-3.143c0.604,0.699,1.224,1.38,1.858,2.047
		C70.314,125.233,69.55,126.496,68.775,127.755z M74.458,117.242c-0.019,0-0.023,0.016-0.041,0.016
		c-0.043-0.198-0.088-0.393-0.136-0.588c0.85-2.224,2.007-4.1,3.633-5.211c-0.146,0.372-0.275,0.755-0.426,1.124
		c-0.835,1.544-1.684,3.079-2.538,4.611C74.785,117.21,74.627,117.236,74.458,117.242z M78.991,113.469
		c0.002,0.087,0.002,0.174,0.002,0.261c0,0.575,0.004,1.066-0.002,1.512c-0.475,0.493-1.014,0.915-1.621,1.243
		C77.917,115.482,78.452,114.474,78.991,113.469z M80.145,112.959c0.146,0.04,0.291,0.029,0.417-0.034
		c-0.129,0.272-0.268,0.538-0.418,0.791C80.144,113.466,80.145,113.213,80.145,112.959z M82.281,102.721
		c0.703-2.301,1.372-4.609,1.988-6.934c0.192,0.897,0.432,1.781,0.707,2.649c-0.808,1.541-1.614,3.082-2.422,4.62
		C82.462,102.945,82.372,102.831,82.281,102.721z M85.3,97.819c-0.316-1.042-0.554-2.11-0.735-3.189
		c0.055-0.219,0.107-0.435,0.163-0.651c0.317,1.103,0.599,2.219,0.831,3.348C85.472,97.489,85.386,97.656,85.3,97.819z
		 M85.258,91.888c0.014-0.047,0.026-0.095,0.037-0.145c0.46,1.205,0.889,2.416,1.295,3.627c-0.073,0.143-0.15,0.283-0.227,0.425
		C86.055,94.487,85.678,93.186,85.258,91.888z M84.581,81.692c0.14,0.169,0.28,0.337,0.42,0.506
		c-0.133,0.346-0.275,0.683-0.406,1.029c-0.102-0.229-0.198-0.454-0.296-0.678C84.39,82.262,84.488,81.976,84.581,81.692z
		 M82.716,83.385c-0.371-0.509-0.739-1.031-1.104-1.564c-0.159-0.678-0.35-1.353-0.565-2.026c0.147-0.417,0.29-0.841,0.433-1.261
		c0.859,0.786,1.78,1.572,2.1,1.952c0.042,0.05,0.085,0.101,0.127,0.153C83.375,81.555,83.043,82.47,82.716,83.385z M84.119,79.505
		c-0.694-0.85-1.409-1.649-2.169-2.39c0.338-1.043,0.66-2.09,0.963-3.143c0.254,0.253,0.507,0.507,0.76,0.76
		c0.293,0.293,0.729-0.01,0.657-0.382c-0.057-0.288-0.138-0.559-0.2-0.841c0.332-0.148,0.497-0.697,0.091-0.977
		c-0.134-0.092-0.259-0.192-0.392-0.285c-0.072-0.285-0.134-0.575-0.214-0.855c0.271-1.063,0.512-2.131,0.733-3.205
		c0.68,1.746,1.388,3.479,2.046,5.226C85.612,75.436,84.86,77.468,84.119,79.505z M81.551,56.916
		c-0.309-0.755-0.617-1.506-0.934-2.258c0.244,0.581,0.657,1.15,1.158,1.717C81.701,56.555,81.629,56.737,81.551,56.916z
		 M80.429,59.668c-0.297,0.742-0.59,1.485-0.879,2.229c-0.419-0.754-0.854-1.504-1.301-2.248c0.224-0.639,0.427-1.288,0.635-1.934
		C79.402,58.365,79.919,59.014,80.429,59.668z M77.338,58.154c-0.472-0.752-0.951-1.501-1.44-2.25c0.322,0,0.634-0.348,0.41-0.662
		c-0.916-1.292-1.884-2.517-2.895-3.702c0.947,0.913,1.827,1.905,2.699,2.871c0.617,0.683,1.211,1.385,1.798,2.097
		C77.729,57.059,77.523,57.605,77.338,58.154z M71.185,50.334c-0.107,0.343-0.217,0.684-0.326,1.024
		c-0.182-0.156-0.376-0.298-0.556-0.459c-1.403-1.195-2.734-2.396-4.105-3.527c0.053-0.478,0.098-0.958,0.134-1.44
		C68.042,47.295,69.632,48.751,71.185,50.334z M66.424,44.651c0.021-0.435,0.026-0.878,0.037-1.322
		c0.182,0.188,0.371,0.359,0.554,0.546C69.769,46.73,68.238,45.82,66.424,44.651z M60.866,54.998c0.177,0.391,0.691,0.279,0.893,0
		c0.706-0.968,1.107-1.916,1.281-2.839c0.455,0.507,0.94,0.992,1.414,1.485c-0.631,2.177-1.399,4.3-2.277,6.385
		c-0.155-0.063-0.315-0.124-0.475-0.182c-1.063-1.243-2.075-2.517-3.027-3.783c-0.685-0.913-1.302-1.871-1.885-2.847
		c0.621-1.633,1.182-3.292,1.667-4.984C59.016,50.577,59.867,52.801,60.866,54.998z M58.713,43.501
		c-0.047,0.068-0.084,0.145-0.096,0.232c-0.007-0.005-0.014-0.013-0.021-0.018c-0.095-0.617-0.185-1.235-0.273-1.847
		c0.105-0.042,0.211-0.082,0.313-0.124c0.124,0.417,0.192,0.633,0.271,0.829C58.847,42.86,58.783,43.166,58.713,43.501z
		 M56.385,52.494c-0.641-1.253-1.283-2.506-1.915-3.762c0.034-0.069,0.071-0.135,0.105-0.201c1.183-0.475,2.333-1.029,3.433-1.678
		C57.571,48.778,57.024,50.653,56.385,52.494z M51.079,52.959c-0.388,0.752-0.776,1.501-1.164,2.253
		c-0.397-1.699-0.623-3.435-0.71-5.187c0.065-0.01,0.132-0.024,0.195-0.034C49.766,50.793,50.487,51.98,51.079,52.959z
		 M46.369,51.474c-0.001-0.006-0.003-0.011-0.003-0.016c0.322,0.029,0.647,0.047,0.971,0.069c-0.867,2.065-1.807,4.102-2.8,6.112
		c-0.6-0.786-1.21-1.559-1.827-2.324c0.718-1.198,1.43-2.4,2.145-3.599C45.29,51.603,45.779,51.513,46.369,51.474z M35.977,59.248
		c0.298,0.755,0.769,1.72,1.178,2.559c-0.14,0.206-0.282,0.406-0.424,0.612c-0.351-0.44-0.785-1-1.332-1.728
		c-0.591-0.781-1.141-1.586-1.673-2.401c0.335-0.697,0.681-1.39,1.021-2.082C35.162,57.22,35.577,58.23,35.977,59.248z
		 M32.943,67.501c-0.655,0.794-1.349,1.557-2.064,2.295c-0.463-0.845-0.936-1.686-1.405-2.527c0.522-1.111,1.044-2.219,1.564-3.33
		C31.684,65.126,32.312,66.319,32.943,67.501z M28.124,67.498c-0.02,0.037-0.038,0.076-0.057,0.116
		c-0.006-0.137-0.013-0.271-0.017-0.406C28.075,67.306,28.098,67.401,28.124,67.498z M28.545,68.999
		c0.232,0.797,0.48,1.591,0.737,2.382c-0.194,0.187-0.392,0.372-0.589,0.557c-0.201-0.786-0.359-1.575-0.459-2.377
		C28.341,69.366,28.445,69.179,28.545,68.999z M28.262,73.798c0.571,2.055,1.359,4.071,2.293,6.049
		c-0.277,0.055-0.474,0.351-0.323,0.688c0.02,0.042,0.041,0.087,0.059,0.129c-0.063,0.061-0.116,0.135-0.143,0.224
		c-0.233,0.799-0.4,1.599-0.532,2.396c-1.047-2.883-1.797-5.822-2.201-8.732C27.704,74.307,27.98,74.049,28.262,73.798z
		 M30.391,87.292c0.064-0.14,0.13-0.279,0.193-0.422c0.115,0.264,0.24,0.527,0.361,0.789c-0.172,0.229-0.335,0.459-0.508,0.686
		C30.412,87.994,30.404,87.643,30.391,87.292z M30.947,89.39c1.082,1.994,2.113,4.013,3.136,6.039
		c-0.129,0.337-0.254,0.678-0.376,1.018c-0.887-2.195-1.943-4.337-3.096-6.453c-0.008-0.047-0.01-0.098-0.017-0.145
		C30.714,89.699,30.83,89.543,30.947,89.39z M33.105,98.204c-0.06,0.179-0.123,0.356-0.178,0.535
		c-0.626-1.73-1.202-3.477-1.639-5.247C32.011,95.046,32.582,96.621,33.105,98.204z M34.282,105.074
		c-0.019,0.037-0.037,0.074-0.056,0.111c-0.174-0.483-0.339-0.963-0.493-1.446C33.917,104.185,34.098,104.631,34.282,105.074z
		 M42.04,114.162c0.006,0.014,0.013,0.029,0.018,0.043C41.626,114.835,41.611,114.833,42.04,114.162z M43.992,113.828
		c0.828,1.235,1.741,2.414,2.76,3.406c-0.136,0.337-0.272,0.675-0.404,1.016c-0.72-0.85-1.374-1.728-1.938-2.636
		C44.285,115.017,44.147,114.421,43.992,113.828z M47.689,118.057c0.151,0.121,0.305,0.232,0.46,0.34
		c1.12,1.818,2.367,3.567,3.707,5.279c-1.6-1.422-3.205-2.889-4.63-4.435C47.374,118.843,47.535,118.453,47.689,118.057z
		 M58.181,129.699c-0.173-0.203-0.353-0.404-0.537-0.604c0.67-0.354,1.326-0.736,1.954-1.156c0.115,0.884,0.244,1.765,0.331,2.657
		c0.005,0.034,0.005,0.063,0.008,0.095c-0.549-0.251-1.079-0.522-1.601-0.81C58.286,129.821,58.233,129.757,58.181,129.699z
		 M60.499,127.29c0.515-0.383,1.015-0.784,1.5-1.208c0.439,0.338,0.879,0.673,1.328,0.995c-0.107,0.346-0.223,0.691-0.307,1.047
		c-0.06,0.251-0.229,3.849-0.543,3.707c-0.532-0.242-1.055-0.472-1.572-0.699C60.807,129.847,60.664,128.57,60.499,127.29z
		 M63.01,125.166c0.177-0.168,0.349-0.345,0.521-0.519c0.038,0.021,0.075,0.047,0.111,0.068c0.133,0.167,0.267,0.333,0.401,0.499
		c-0.084,0.171-0.15,0.354-0.225,0.53C63.551,125.552,63.277,125.367,63.01,125.166z M65.022,126.369
		c0.169,0.195,0.328,0.398,0.5,0.594c-0.198-0.132-0.383-0.282-0.579-0.414C64.97,126.488,64.995,126.428,65.022,126.369z
		 M70.854,129.079c-0.036,0.085-0.078,0.15-0.126,0.201C70.769,129.214,70.813,129.145,70.854,129.079z M76.576,118.152
		c0.631-0.077,1.26-0.206,1.875-0.446c-0.374,0.427-1.014,0.678-2.057,0.847C76.455,118.418,76.515,118.284,76.576,118.152z
		 M76.832,117.584c0.011-0.026,0.022-0.05,0.033-0.076c0.77-0.24,1.459-0.602,2.057-1.079c-0.014,0.095-0.021,0.203-0.037,0.29
		C78.337,117.096,77.661,117.392,76.832,117.584z M80.143,115.168c0.107-0.145,0.207-0.295,0.309-0.449
		c-0.087,0.232-0.188,0.456-0.311,0.668C80.141,115.313,80.141,115.239,80.143,115.168z M81.379,108.987
		c0.104-0.195,0.206-0.394,0.308-0.588c-0.021,0.356-0.058,0.715-0.11,1.074C81.518,109.308,81.441,109.147,81.379,108.987z
		 M83.269,105.372c0.459,0.478,0.934,0.941,1.427,1.393c-0.617,0.248-1.164-0.179-1.643-0.979
		C83.124,105.649,83.198,105.512,83.269,105.372z M87.208,102.175c-0.018-1.266-0.134-2.52-0.329-3.765
		c0.14-0.267,0.28-0.536,0.421-0.805c0.252,0.826,0.509,1.651,0.729,2.488c-0.095,0.881-0.276,1.747-0.561,2.58
		C87.382,102.51,87.296,102.341,87.208,102.175z M88.422,101.679c0.076,0.301,0.149,0.602,0.225,0.902
		c-0.14,0.47-0.293,0.937-0.448,1.404c-0.106-0.177-0.216-0.367-0.329-0.57C88.102,102.855,88.286,102.278,88.422,101.679z
		 M88.665,100.236c0.177-1.564,0.073-3.221-0.18-4.899c0.665-1.277,1.327-2.556,2.002-3.831c-0.087,3.396-0.633,6.728-1.525,9.975
		C88.862,101.067,88.771,100.653,88.665,100.236z M88.114,98.178c-0.128-0.451-0.272-0.9-0.41-1.351
		c0.093-0.174,0.184-0.348,0.274-0.522C88.049,96.93,88.104,97.555,88.114,98.178z M86.995,94.614
		c-0.443-1.298-0.929-2.583-1.461-3.844c0.177-0.729,0.344-1.456,0.514-2.184c0.445,1.314,0.854,2.638,1.211,3.981
		c0.095,0.348,0.177,0.705,0.258,1.061C87.342,93.956,87.166,94.284,86.995,94.614z M84.823,89.171
		c-0.261-0.565-0.515-1.132-0.797-1.684c-0.002-0.435,0.003-0.868,0.008-1.303c0.198-0.593,0.404-1.187,0.619-1.778
		c0.237,0.63,0.508,1.617,0.759,2.343C85.218,87.557,85.024,88.364,84.823,89.171z M84.86,83.845
		c0.155-0.414,0.319-0.823,0.48-1.235c0.271,0.327,0.539,0.657,0.811,0.984c-0.164,0.718-0.328,1.435-0.497,2.153
		C85.389,85.092,85.123,84.454,84.86,83.845z M87.315,72.943c-0.763-1.999-1.566-4.21-2.771-5.722c0-0.005,0.001-0.011,0.002-0.016
		c1.191,1.43,2.795,2.585,4.332,3.759c-0.273,1.322-0.551,2.646-0.833,3.986C87.813,74.286,87.572,73.619,87.315,72.943z
		 M85.556,58.42c0.026-0.8,0.034-1.596,0.021-2.396c0.576,1.034,1.135,2.068,1.666,3.11C86.864,59.193,86.263,58.908,85.556,58.42z
		 M84.615,57.708c-0.591-0.483-1.214-1.04-1.817-1.609c0.311-0.897,0.686-1.868,1.007-2.412c0.225,0.143,0.451,0.28,0.676,0.42
		C84.585,55.302,84.62,56.502,84.615,57.708z M84.131,53.284c0.103-0.061,0.188-0.013,0.249,0.156
		C84.299,53.386,84.214,53.333,84.131,53.284z M83.335,52.772c-1.273-0.842-2.524-1.765-3.593-2.58
		c1.396,0.475,2.813,0.857,4.242,1.142C83.765,51.811,83.549,52.291,83.335,52.772z M83.124,53.239
		c-0.329,0.744-0.65,1.491-0.968,2.237c-0.792-0.778-1.505-1.533-2.011-2.098c0.119-0.702-0.933-0.971-1.151-0.261
		c-0.207,0.672-0.431,1.348-0.645,2.021c-0.143,0.103-0.245,0.259-0.317,0.464c-1.657-1.992-3.387-3.904-5.345-5.635
		c0.045-0.306,0.111-0.606,0.153-0.913c0.101-0.739-0.929-1.079-1.149-0.317c-0.03,0.105-0.069,0.208-0.1,0.314
		c-0.175-0.14-0.339-0.288-0.516-0.425c-0.122-0.095-0.273-0.105-0.401-0.066c-0.42-0.425-0.836-0.852-1.274-1.269
		c-0.264-0.253-0.572-0.53-0.895-0.81c0.449,0.201,0.899,0.396,1.346,0.604c0.459,0.208,0.869-0.303,0.536-0.694
		c-0.684-0.799-1.378-1.601-2.087-2.393c2.833,2.164,5.932,3.986,9.184,5.337C79.332,50.685,81.204,51.996,83.124,53.239z
		 M54.027,47.337c-0.16-0.483-0.343-0.969-0.562-1.473c-0.101-0.232-0.448-0.063-0.394,0.167c0.155,0.636,0.319,1.266,0.476,1.899
		c-0.35,0.116-0.654,0.216-0.861,0.288c-0.826,0.282-1.673,0.488-2.526,0.662c-0.074-0.374-0.119-0.757-0.108-1.145
		c-0.061,0.404-0.069,0.784-0.039,1.14c0.005,0.01,0.009,0.021,0.013,0.031c-0.003,0-0.005,0-0.008,0.003
		c0-0.014-0.005-0.021-0.005-0.034c-0.101-0.211-0.201-0.417-0.299-0.625c0.135-0.351,0.274-0.699,0.406-1.05
		c-0.026,0.18-0.063,0.359-0.068,0.536c0.111-0.72,0.401-1.52,0.873-2.375c1.359-0.802,2.731-1.575,4.153-2.298
		c-0.051,0.024,0.495-0.168,1.273-0.456c0.082,0.005,0.156,0.021,0.228,0.04C55.716,44.205,54.864,45.767,54.027,47.337z
		 M49.073,47.084c-0.227-0.111-0.544,0.074-0.565,0.351c-0.034,0.446-0.056,0.889-0.066,1.33c-0.053,0.14-0.106,0.28-0.16,0.417
		c-0.653,0.077-1.311,0.127-1.971,0.153c0.683-1.108,1.374-2.208,2.078-3.301c0.064,0.314,0.436,0.591,0.768,0.383
		c0.057-0.034,0.116-0.069,0.175-0.103C49.242,46.569,49.163,46.83,49.073,47.084z M45.003,49.355
		c-1.243-0.013-2.485-0.111-3.718-0.28c2.084-0.974,4.11-2.116,6.028-3.377C46.53,46.91,45.759,48.128,45.003,49.355z
		 M36.889,50.843c-0.366,0.631-0.726,1.267-1.084,1.899c-0.398-0.401-0.791-0.81-1.181-1.221
		C35.381,51.321,36.136,51.097,36.889,50.843z M30.221,54.252c0.318,0.596,0.669,1.158,1.008,1.736
		c-0.832,0.625-0.479,1.688,1.072,3.197c-0.478,0.913-0.952,1.823-1.418,2.741c-0.842-1.469-1.739-2.883-2.701-4.25
		c0.677-1.232,1.339-2.472,1.99-3.717C30.16,54.051,30.167,54.149,30.221,54.252z M28.337,92.648
		c-0.184,0.76-0.312,1.522-0.381,2.285c-0.078-0.515-0.154-1.029-0.225-1.546C27.938,93.144,28.133,92.893,28.337,92.648z
		 M35.148,108.195c1.184,2.746,2.667,5.366,4.401,7.812c-0.005,0.053-0.006,0.103,0.002,0.156c-2.171-1.971-4.107-4.266-5.74-6.743
		C34.259,109.015,34.703,108.607,35.148,108.195z M40.417,116.6c0.007-0.003,0.014-0.003,0.019-0.008
		c0.679-0.512,1.332-1.052,1.992-1.583c0.166,0.324,0.354,0.644,0.543,0.96c0.401,1.815,0.711,3.35,0.652,3.313
		c-0.86-0.538-1.691-1.14-2.499-1.778C40.883,117.207,40.649,116.907,40.417,116.6z M44.252,120.914
		c0.33,0.205,0.809-0.061,0.79-0.454c-0.026-0.602-0.076-1.198-0.143-1.797c0.289,0.351,0.591,0.699,0.901,1.042
		c-0.25,0.678-0.487,1.364-0.72,2.053c-0.332-0.306-0.656-0.623-0.979-0.942C44.15,120.848,44.202,120.882,44.252,120.914z
		 M51.551,125.256c0.909,0.818,1.815,1.639,2.696,2.464c-0.001,0.019-0.004,0.035-0.004,0.05c-0.966-0.536-1.966-1.058-2.998-1.604
		c-0.094-0.05-0.184-0.108-0.276-0.158C51.171,125.763,51.352,125.504,51.551,125.256z M69.132,131.749
		c0.293-0.435,0.569-0.878,0.852-1.316c0.075,0.085,0.15,0.169,0.223,0.253C69.848,131.034,69.49,131.39,69.132,131.749z
		 M71.529,129.398c0.119-0.644,0.235-1.33,0.355-2.063c0.317-0.549,0.637-1.095,0.942-1.649c0.391,0.359,0.773,0.726,1.185,1.061
		c0.053,0.045,0.111,0.053,0.167,0.079c-0.296,0.288-0.594,0.578-0.887,0.863C72.72,128.245,72.13,128.815,71.529,129.398z
		 M75.112,125.913c0.129-1.53,0.116-3.058-0.026-4.578c0.24-0.493,0.486-0.984,0.72-1.482c1.219-0.167,2.478-0.264,3.763-0.285
		c0.31-0.005,0.567-0.256,0.567-0.57c0.002-0.741,0.002-1.482,0.005-2.227c0.865-0.731,1.471-1.989,1.588-3.092
		c0.301,0.039,0.615-0.127,0.589-0.522c-0.053-0.791-0.18-1.52-0.338-2.227c0.257-1.203,0.364-2.47,0.331-3.726
		c0.045-0.087,0.091-0.174,0.136-0.261c0.161,0.422,0.319,0.841,0.504,1.258c0.071,0.158,0.292,0.187,0.428,0.111
		c0.646-0.359,1.203-0.765,1.717-1.192c0.22,0.195,0.425,0.398,0.653,0.585c0.301,0.248,0.828,0.195,0.928-0.243
		c0.197-0.878,0.335-1.747,0.422-2.612c0.159-0.251,0.327-0.499,0.462-0.762c0.128,0.203,0.274,0.396,0.411,0.593
		c-0.884,2.514-1.974,4.97-3.229,7.353c-0.464,0.881,0.87,1.665,1.338,0.781c1.146-2.158,2.145-4.385,3.004-6.656
		c0.158,0.193,0.307,0.39,0.474,0.578C86.786,114.273,80.816,120.347,75.112,125.913z M89.906,105.752
		c-0.079-0.394-0.163-0.786-0.245-1.182c1.776-5.208,2.709-10.661,2.405-16.241c-0.041-0.771-1.112-1.161-1.516-0.412
		c-0.87,1.612-1.72,3.232-2.577,4.849c-0.441-1.813-1.019-3.612-1.659-5.319c0.222-0.968,0.435-1.931,0.648-2.897
		c0.563,0.662,1.134,1.316,1.73,1.955c0.246,0.261,0.814,0.163,0.871-0.229c0.485-3.403-0.014-6.474-0.95-9.571
		c0.35-1.728,0.69-3.445,1.023-5.15c0.438,0.348,0.864,0.697,1.264,1.058c0.24,0.222,0.58,0.161,0.747-0.061
		c0.021,0.396,0.042,0.794,0.058,1.171C92.177,84.456,93.313,95.36,89.906,105.752z M92.794,51.745
		c-0.771,2.113-1.183,4.49-1.385,6.946c-0.238-0.087-0.533-0.016-0.615,0.301c-0.364,1.401-1.527,0.38-2.639-1.042
		c-0.011-0.449-0.042-0.892-0.132-1.322c0.736,0.665,1.609,1.208,2.245,2.013c0.222,0.279,0.578,0.01,0.612-0.253
		c0.101-0.52,0.189-1.04,0.282-1.559c0.538-0.631,0.434-0.654,0.398-1.24c0.033-0.098,0.026-0.2-0.008-0.29
		c0-0.28,0.021-0.652,0.102-1.182c0.08-0.525-0.723-0.752-0.804-0.221c-0.251,1.638-1.565,1.77-3.298,1.15
		c-0.146-0.198-0.29-0.39-0.427-0.564c-0.199-0.25-0.483-0.09-0.57,0.15c-0.346-0.164-0.699-0.346-1.061-0.544
		c-0.053-0.844-0.128-1.686-0.23-2.525C87.757,51.951,90.282,52.028,92.794,51.745z M88.671,56.454
		c0.445,0.227,0.883,0.464,1.338,0.681C89.629,57.325,89.159,56.99,88.671,56.454z M59.064,34.454
		c0.751,1.066,1.566,2.105,2.431,3.116c-0.054-0.029-0.105-0.061-0.159-0.09c-0.468-0.52-0.815-0.697-1.042-0.536
		c-0.559-0.285-1.112-0.573-1.684-0.839c-0.499-0.232-0.936,0.475-0.438,0.749c0.442,0.246,0.852,0.522,1.276,0.786
		c-0.012,0.016-0.026,0.026-0.037,0.043c-0.532,0.902-1.053,1.81-1.569,2.717c-0.146-0.055-0.312-0.058-0.44,0.016
		c-2.003,1.169-4.09,2.111-6.059,3.269c0.136-0.42,0.254-0.85,0.385-1.272C54.698,39.934,57.229,37.201,59.064,34.454z
		 M30.374,52.36c-0.876,1.546-1.782,3.073-2.713,4.59c-0.642-0.876-1.303-1.741-2.01-2.575c-0.019-0.124-0.045-0.261-0.063-0.385
		c-0.011-0.066-0.125-0.05-0.117,0.016c0.008,0.066,0.02,0.129,0.027,0.193c-0.361-0.419-0.708-0.85-1.09-1.261
		c-0.314-0.34-0.968,0.011-0.8,0.467c0.781,2.113,1.518,4.237,2.233,6.372c-0.31,0.478-0.609,0.96-0.889,1.451
		c-0.496-3.142-1.222-6.223-2.361-9.107C25.087,52.64,27.709,52.693,30.374,52.36z M31.341,107.736
		c0.306,0.518,0.625,1.029,0.96,1.536c-0.145,0.441,0.177,0.844,0.567,0.823c2.71,3.841,6.202,7.211,9.656,9.664
		c0.764,0.868,1.559,1.702,2.385,2.509c-0.312,0.942-0.604,1.889-0.879,2.847C38.567,120.323,34.246,114.767,31.341,107.736z
		 M49.7,129.573c-0.385-0.272-0.743-0.557-1.117-0.834c0.6-0.67,1.2-1.343,1.776-2.029c1.576,0.984,3.231,1.815,4.824,2.757
		c1.186,1.778,2.569,3.205,4.271,4.598c0.285,0.681,0.691,1.195,1.229,1.52c0.301,0.599,0.567,1.205,0.778,1.831
		c0.115,0.343,0.42,0.451,0.692,0.404c-0.282,0.398-0.557,0.802-0.843,1.2c-0.411,0.57,0.138,1.213,0.715,1.261
		c-0.28,0.454-0.545,0.913-0.791,1.377C58.81,136.424,54.51,132.986,49.7,129.573z"/>
</g>
</svg>
