<?xml version="1.0" encoding="iso-8859-1"?>
<!-- Generator: Adobe Illustrator 23.0.3, SVG Export Plug-In . SVG Version: 6.00 Build 0)  -->
<svg version="1.1" id="OBJECTS" xmlns="http://www.w3.org/2000/svg" xmlns:xlink="http://www.w3.org/1999/xlink" x="0px" y="0px"
	 viewBox="0 0 98.34 96.453" style="enable-background:new 0 0 98.34 96.453;" xml:space="preserve">
<path style="fill:none;stroke:#fceb00;stroke-width:2;stroke-miterlimit:10;" d="M89.051,79.603l-24.396-4.758
	c-1.41-0.275-2.865,0.161-3.891,1.167l-17.75,17.399c-2.583,2.532-6.95,1.003-7.388-2.587l-3.014-24.672
	c-0.174-1.426-1.039-2.675-2.312-3.34L8.268,51.307c-3.207-1.674-3.102-6.299,0.178-7.826l22.533-10.49
	c1.302-0.607,2.223-1.815,2.462-3.231l4.133-24.509c0.602-3.568,5.033-4.897,7.498-2.249l16.94,18.189
	c0.979,1.051,2.413,1.554,3.834,1.343l24.587-3.643c3.579-0.53,6.213,3.273,4.457,6.437L82.825,47.057
	c-0.697,1.256-0.731,2.775-0.092,4.061l11.062,22.258C95.405,76.616,92.602,80.296,89.051,79.603z"/>
</svg>
