<?xml version="1.0" encoding="iso-8859-1"?>
<!-- Generator: Adobe Illustrator 23.0.3, SVG Export Plug-In . SVG Version: 6.00 Build 0)  -->
<svg version="1.1" id="OBJECTS" xmlns="http://www.w3.org/2000/svg" xmlns:xlink="http://www.w3.org/1999/xlink" x="0px" y="0px"
	 viewBox="0 0 10.552 11.505" style="enable-background:new 0 0 10.552 11.505;" xml:space="preserve">
<path style="fill:#fceb00;" d="M9.966,9.643L6.949,9.055c-0.174-0.034-0.354,0.02-0.481,0.144L4.274,11.35
	c-0.319,0.313-0.859,0.124-0.913-0.32L2.988,7.98C2.966,7.804,2.859,7.649,2.702,7.567l-2.724-1.422
	C-0.419,5.938-0.405,5.366,0,5.177L2.786,3.88C2.947,3.805,3.061,3.656,3.09,3.481l0.511-3.03c0.074-0.441,0.622-0.605,0.927-0.278
	l2.094,2.249c0.121,0.13,0.298,0.192,0.474,0.166l3.04-0.45c0.443-0.065,0.768,0.405,0.551,0.796L9.196,5.619
	C9.11,5.775,9.105,5.962,9.184,6.121l1.368,2.752C10.751,9.274,10.405,9.729,9.966,9.643z"/>
</svg>
